<svg xmlns="http://www.w3.org/2000/svg">
<defs>
<font id="PSL-Kittithada" horiz-adv-x="0" >
  <font-face 
    font-family="PSL-Kittithada"
    font-weight="400"
    font-stretch="normal"
    units-per-em="2048"
    panose-1="2 0 5 6 0 0 0 2 0 3"
    ascent="1638"
    descent="-410"
    x-height="662"
    cap-height="1081"
    bbox="-829 -600 1894 1452"
    underline-thickness="51"
    underline-position="-86"
    unicode-range="U+0020-U+F882"
  />
<missing-glyph horiz-adv-x="1536" 
d="M256 0v1280h1024v-1280h-1024zM299 33h938c6.66699 0 10 3.33301 10 10v1194c0 6.66699 -3.33301 10 -10 10h-938c-6.66699 0 -10 -3.33301 -10 -10v-1194c0 -6.66699 3.33301 -10 10 -10zM715 -2h-2v0h2h-2v0h2zM768 -2v-2h-2v2h2zM768 -4v2h-2v-2h2zM780 -2v0v-2v2h-4
v-2v2h2v0h2zM778 -2h2v0h-2zM799 -2h-4v-2h4v2h-2h2v-2h-4v2h4zM799 -2h4v0v-2v2h-4v-2v2zM717 0v-4h-6v4h6zM717 -4v4h-6v-4h6zM731 -2v-2h-2v2h2zM731 -4v2h-2v-2h2zM733 -2h2v0v-2v2h-2zM770 -2v-2h2h-2v2zM844 -2v-2h-4v2h4zM844 -4v2h-4v-2h4zM834 -2v-2h2v2v-2h-2v2z
M803 -2h4h-2v-2v2h-2zM758 -2h2v-2h-2v2h2v0h-2zM758 -4h2v2h-2v-2zM766 -2h-4v-2v2h4zM762 -2h4v0h-4zM795 -2v-2v2zM725 -4h-4h4zM725 -2h-4v-2v2h4v0h-4h4zM678 -2h-4v-2h4h-4v2h4zM727 -2v-2h-2v2h2zM727 -4v2h-2v-2h2zM684 -2h-2v-2v2h2zM682 -2h2v0h-2zM682 -2v-2h-4
v2h4zM682 -4v2h-4v-2h4zM686 -2h4v0v0h-2v-2v2h-2zM784 -2v-2h2h-2v2zM782 -2v-2h2h-2v2zM754 -4v2h2v-2v2h-2v-2zM815 -2h2v-2v2h-4v-2v2h2zM813 -2h2v0h-2zM762 -2v-2v2zM698 -2h-2v-2h2v2h-2h2v-2h-2v2h2zM700 -2h2v0v-2v2h-2v-2v2zM705 -2h4h-2v-2v2h-2zM694 -2v-2v2z
M692 -2h2v-2v2h-4v-2v2h2zM690 -2h2v0h-2zM831 -2h3v-2v2h-5v-2v2h2zM829 -2h2v0h-2zM836 -4h4h-4zM836 -2h4h-4zM836 -2h4h-4zM750 -4h2h-2zM752 -2v0v-2v2h-2v-2v2v0h2zM750 -2h2v0h-2zM829 -4h-4h4zM825 -2h4h-4zM825 -2h4h-4zM809 -2h2v-2h-2h2v2h-2zM809 -2h2h-2v0z
M821 -2h4v-2h-4h4v2h-4zM821 -2h4h-4v0zM817 -4h4h-4zM817 -2h4h-4zM817 -2h4h-4zM793 -2v0v-2v2h-2v-2v2h2zM791 -2h2v0h-2zM745 -4h3h-3zM745 -2h3h-3zM745 -2h3h-3zM739 -2v-2h4v2v-2h-4v2zM741 -2v-2v2z" />
    <glyph glyph-name="trademark" unicode="&#x3b;&#x3b;Trademark&#x3b;&#x3b;" horiz-adv-x="1993" 
d="M121 1165h801c20 0 30 -9.33301 30 -28c0 -22 -10 -33 -30 -33h-371v-506c0 -9.33301 -10.333 -14 -31 -14s-31 4.66699 -31 14v506h-368c-22 0 -33 11 -33 33c0 18.667 11 28 33 28zM1833 618l0.000976562 459l-342 -485c-6.66699 -6.66699 -16.334 -10 -29.001 -10
c-12 0 -21.333 3.33301 -28 10l-340 485v-459c0 -22.667 -10.333 -34 -31 -34c-22 0 -33 11.333 -33 34v521c0 18.667 10.333 28 31 28c12 0 25 -4 39 -12l362 -510l363 510c13.333 8 27 12 41 12c18.667 0 28 -9.33301 28 -28v-521c0 -22.667 -10 -34 -30 -34
c-20.667 0 -31 11.333 -31 34z" />
    <glyph glyph-name="multiply" unicode="&#x3b;&#x3b;Multiply&#x3b;&#x3b;" horiz-adv-x="1083" 
d="M803 270l-262 260l-260 -260c-8.66699 -8 -16.334 -12 -23.001 -12s-14 4 -22 12c-7.33301 7.33301 -11 15 -11 23c0 6.66699 3.66699 13.334 11 20.001l262 262l-262 261c-7.33301 6.66699 -11 13.334 -11 20.001c0 8 3.66699 15.667 11 23c8 8 15.333 12 22 12
s14.334 -4 23.001 -12l260 -261l262 261c6.66699 8 13.334 12 20.001 12c8.66699 0 16.334 -4 23.001 -12c6.66699 -7.33301 10 -15 10 -23c0 -6.66699 -3.33301 -13.334 -10 -20.001l-260 -261l260 -262c6.66699 -6.66699 10 -13.334 10 -20.001
c0 -8 -3.33301 -15.667 -10 -23c-6.66699 -8 -14.334 -12 -23.001 -12c-6.66699 0 -13.334 4 -20.001 12z" />
    <glyph glyph-name="divide" unicode="&#x3b;&#x3b;Divide&#x3b;&#x3b;" horiz-adv-x="1292" 
d="M246 606h801c20 0 30 -10.333 30 -31c0 -20 -10 -30 -30 -30h-801c-20.667 0 -31 10 -31 30c0 20.667 10.333 31 31 31zM639 362c9.33301 0 18.5 -2.33301 27.5 -7s15.833 -11.334 20.5 -20.001s7 -18 7 -28c0 -9.33301 -2 -18.5 -6 -27.5s-10.833 -15.833 -20.5 -20.5
s-19.167 -7 -28.5 -7c-8 0 -16.5 2.33301 -25.5 7s-15.833 11.5 -20.5 20.5s-7 18.167 -7 27.5c0 10 2.33301 19.333 7 28s11.5 15.334 20.5 20.001s17.5 7 25.5 7zM639 920c9.33301 0 18.5 -2.5 27.5 -7.5s15.833 -11.833 20.5 -20.5s7 -18 7 -28c0 -8 -2 -16.5 -6 -25.5
s-10.833 -15.833 -20.5 -20.5s-19.167 -7 -28.5 -7c-8 0 -16.5 2.33301 -25.5 7s-15.833 11.5 -20.5 20.5s-7 17.5 -7 25.5c0 10 2.33301 19.333 7 28s11.5 15.5 20.5 20.5s17.5 7.5 25.5 7.5z" />
    <glyph glyph-name="fi" unicode="fi" horiz-adv-x="561" 
d="M160 602l-0.00292969 -602.001h-62v602h-71v60h71v296c0 24.667 1 52.334 3 83.001s8.66699 57 20 79c14.667 27.333 35.334 47.833 62.001 61.5s55 20.5 85 20.5c8.66699 0 17.334 -1 26.001 -3l30 -7v-57c-11.333 2.66699 -21 4.66699 -29 6s-15.667 2 -23 2
c-27.333 0 -48.5 -6.16699 -63.5 -18.5s-26.167 -28.333 -33.5 -48s-11.666 -41.167 -12.999 -64.5s-2 -45.333 -2 -66v-284h164v-60h-164zM458.997 882.999c0 -16.667 -5.83301 -30.834 -17.5 -42.501s-24.834 -17.5 -39.501 -17.5c-16.667 0 -30.834 5.83301 -42.501 17.5
s-17.5 25.834 -17.5 42.501c0 16 5.83301 29.833 17.5 41.5s25.834 17.5 42.501 17.5c14.667 0 27.834 -5.83301 39.501 -17.5s17.5 -25.5 17.5 -41.5zM368.997 -0.000976562v662h61v-662h-61z" />
    <glyph glyph-name="fl" unicode="fl" horiz-adv-x="588" 
d="M184 602l-0.00292969 -602.001h-62v602h-71v60h71v296c0 24.667 1 52.334 3 83.001s8.66699 57 20 79c14.667 27.333 35.334 47.833 62.001 61.5s55 20.5 85 20.5c8.66699 0 17.334 -1 26.001 -3l30 -7v-57c-11.333 2.66699 -21 4.66699 -29 6s-15.667 2 -23 2
c-27.333 0 -48.5 -6.16699 -63.5 -18.5s-26.167 -28.333 -33.5 -48s-11.666 -41.167 -12.999 -64.5s-2 -45.333 -2 -66v-284h164v-60h-164zM419.997 -1.00098v1186h61v-1186h-61z" />
    <glyph glyph-name="ffi" unicode="ffi" horiz-adv-x="878" 
d="M160 602l-0.00292969 -602.001h-62v602h-71v60h71v296c0 24.667 1 52.334 3 83.001s8.66699 57 20 79c14.667 27.333 35.334 47.833 62.001 61.5s55 20.5 85 20.5c8.66699 0 17.334 -1 26.001 -3l30 -7v-57c-11.333 2.66699 -21 4.66699 -29 6s-15.667 2 -23 2
c-27.333 0 -48.5 -6.16699 -63.5 -18.5s-26.167 -28.333 -33.5 -48s-11.666 -41.167 -12.999 -64.5s-2 -45.333 -2 -66v-284h164v-60h-164zM499.997 601.999l-0.00292969 -602.001h-62v602h-71v60h71v296c0 24.667 1 52.334 3 83.001s8.66699 57 20 79
c14.667 27.333 35.334 47.833 62.001 61.5s55 20.5 85 20.5c8.66699 0 17.334 -1 26.001 -3l30 -7v-57c-11.333 2.66699 -21 4.66699 -29 6s-15.667 2 -23 2c-27.333 0 -48.5 -6.16699 -63.5 -18.5s-26.167 -28.333 -33.5 -48s-11.666 -41.167 -12.999 -64.5
s-2 -45.333 -2 -66v-284h164v-60h-164zM798.994 882.998c0 -16.667 -5.83301 -30.834 -17.5 -42.501s-24.834 -17.5 -39.501 -17.5c-16.667 0 -30.834 5.83301 -42.501 17.5s-17.5 25.834 -17.5 42.501c0 16 5.83301 29.833 17.5 41.5s25.834 17.5 42.501 17.5
c14.667 0 27.834 -5.83301 39.501 -17.5s17.5 -25.5 17.5 -41.5zM708.994 -0.00195312v662h61v-662h-61z" />
    <glyph glyph-name="ffl" unicode="ffl" horiz-adv-x="915" 
d="M160 602l-0.00292969 -602.001h-62v602h-71v60h71v296c0 24.667 1 52.334 3 83.001s8.66699 57 20 79c14.667 27.333 35.334 47.833 62.001 61.5s55 20.5 85 20.5c8.66699 0 17.334 -1 26.001 -3l30 -7v-57c-11.333 2.66699 -21 4.66699 -29 6s-15.667 2 -23 2
c-27.333 0 -48.5 -6.16699 -63.5 -18.5s-26.167 -28.333 -33.5 -48s-11.666 -41.167 -12.999 -64.5s-2 -45.333 -2 -66v-284h164v-60h-164zM499.997 601.999l-0.00292969 -602.001h-62v602h-71v60h71v296c0 24.667 1 52.334 3 83.001s8.66699 57 20 79
c14.667 27.333 35.334 47.833 62.001 61.5s55 20.5 85 20.5c8.66699 0 17.334 -1 26.001 -3l30 -7v-57c-11.333 2.66699 -21 4.66699 -29 6s-15.667 2 -23 2c-27.333 0 -48.5 -6.16699 -63.5 -18.5s-26.167 -28.333 -33.5 -48s-11.666 -41.167 -12.999 -64.5
s-2 -45.333 -2 -66v-284h164v-60h-164zM735.994 -1.00195v1186h61v-1186h-61z" />
    <glyph glyph-name="Rulakkhangyao" unicode="&#xc4;&#xd2;" horiz-adv-x="1321" 
d="M645 -307l-0.000976562 856c0 73.333 -24.833 128.833 -74.5 166.5s-110.167 56.5 -181.5 56.5c-113.333 0 -198.666 -41 -255.999 -123v-588h123v-61h-184v668c74.667 110.667 180.334 166 317.001 166c42.667 0 83 -5.5 121 -16.5s71.667 -27.833 101 -50.5
s52.666 -50.667 69.999 -84s26 -72 26 -116v-874h-62zM1138 -307l0.000976562 834.997c0 75.333 -18.833 135.5 -56.5 180.5s-94.167 67.5 -169.5 67.5c-35.333 0 -68 -6.16699 -98 -18.5s-50.667 -22.5 -62 -30.5v64c11.333 6.66699 32 15.5 62 26.5s63.333 16.5 100 16.5
c49.333 0 91.666 -7.66699 126.999 -23s65 -36.166 89 -62.499s41.5 -56.666 52.5 -90.999s16.5 -71.166 16.5 -110.499v-854h-61z" />
    <glyph glyph-name="Lulakkhangyao" unicode="&#xc6;&#xd2;" horiz-adv-x="1303" 
d="M1138 -307l0.000976562 834.997c0 75.333 -18.833 135.5 -56.5 180.5s-94.167 67.5 -169.5 67.5c-35.333 0 -68 -6.16699 -98 -18.5s-50.667 -22.5 -62 -30.5v64c11.333 6.66699 32 15.5 62 26.5s63.333 16.5 100 16.5c49.333 0 91.666 -7.66699 126.999 -23
s65 -36.166 89 -62.499s41.5 -56.666 52.5 -90.999s16.5 -71.166 16.5 -110.499v-854h-61zM655.001 -307.003v856c0 73.333 -24.833 128.833 -74.5 166.5s-110.167 56.5 -181.5 56.5c-113.333 0 -198.666 -41 -255.999 -123v-649h-143v61h82v607
c75.333 110.667 181 166 317 166c42.667 0 83.167 -5.5 121.5 -16.5s72.166 -27.833 101.499 -50.5s52.5 -50.667 69.5 -84s25.5 -72 25.5 -116v-874h-62z" />
    <glyph glyph-name=".notdef" horiz-adv-x="1536" 
d="M256 0v1280h1024v-1280h-1024zM299 33h938c6.66699 0 10 3.33301 10 10v1194c0 6.66699 -3.33301 10 -10 10h-938c-6.66699 0 -10 -3.33301 -10 -10v-1194c0 -6.66699 3.33301 -10 10 -10zM715 -2h-2v0h2h-2v0h2zM768 -2v-2h-2v2h2zM768 -4v2h-2v-2h2zM780 -2v0v-2v2h-4
v-2v2h2v0h2zM778 -2h2v0h-2zM799 -2h-4v-2h4v2h-2h2v-2h-4v2h4zM799 -2h4v0v-2v2h-4v-2v2zM717 0v-4h-6v4h6zM717 -4v4h-6v-4h6zM731 -2v-2h-2v2h2zM731 -4v2h-2v-2h2zM733 -2h2v0v-2v2h-2zM770 -2v-2h2h-2v2zM844 -2v-2h-4v2h4zM844 -4v2h-4v-2h4zM834 -2v-2h2v2v-2h-2v2z
M803 -2h4h-2v-2v2h-2zM758 -2h2v-2h-2v2h2v0h-2zM758 -4h2v2h-2v-2zM766 -2h-4v-2v2h4zM762 -2h4v0h-4zM795 -2v-2v2zM725 -4h-4h4zM725 -2h-4v-2v2h4v0h-4h4zM678 -2h-4v-2h4h-4v2h4zM727 -2v-2h-2v2h2zM727 -4v2h-2v-2h2zM684 -2h-2v-2v2h2zM682 -2h2v0h-2zM682 -2v-2h-4
v2h4zM682 -4v2h-4v-2h4zM686 -2h4v0v0h-2v-2v2h-2zM784 -2v-2h2h-2v2zM782 -2v-2h2h-2v2zM754 -4v2h2v-2v2h-2v-2zM815 -2h2v-2v2h-4v-2v2h2zM813 -2h2v0h-2zM762 -2v-2v2zM698 -2h-2v-2h2v2h-2h2v-2h-2v2h2zM700 -2h2v0v-2v2h-2v-2v2zM705 -2h4h-2v-2v2h-2zM694 -2v-2v2z
M692 -2h2v-2v2h-4v-2v2h2zM690 -2h2v0h-2zM831 -2h3v-2v2h-5v-2v2h2zM829 -2h2v0h-2zM836 -4h4h-4zM836 -2h4h-4zM836 -2h4h-4zM750 -4h2h-2zM752 -2v0v-2v2h-2v-2v2v0h2zM750 -2h2v0h-2zM829 -4h-4h4zM825 -2h4h-4zM825 -2h4h-4zM809 -2h2v-2h-2h2v2h-2zM809 -2h2h-2v0z
M821 -2h4v-2h-4h4v2h-4zM821 -2h4h-4v0zM817 -4h4h-4zM817 -2h4h-4zM817 -2h4h-4zM793 -2v0v-2v2h-2v-2v2h2zM791 -2h2v0h-2zM745 -4h3h-3zM745 -2h3h-3zM745 -2h3h-3zM739 -2v-2h4v2v-2h-4v2zM741 -2v-2v2z" />
    <glyph glyph-name="space" unicode=" " horiz-adv-x="690" 
 />
    <glyph glyph-name="exclam" unicode="!" horiz-adv-x="477" 
d="M266 307l-27.999 0.000976562l-80 676c-2.66699 27.333 5.83301 49.166 25.5 65.499s42.5 24.5 68.5 24.5s48.167 -8.83301 66.5 -26.5s26.166 -40.167 23.499 -67.5zM252.001 -3.99902c-30 0 -52.833 9.5 -68.5 28.5s-23.5 40.167 -23.5 63.5s7.83301 44.5 23.5 63.5
s38.5 28.5 68.5 28.5c31.333 0 54.5 -9.5 69.5 -28.5s22.5 -40.167 22.5 -63.5s-7.5 -44.5 -22.5 -63.5s-38.167 -28.5 -69.5 -28.5z" />
    <glyph glyph-name="quotedbl" unicode="&#x22;" horiz-adv-x="436" 
d="M238 637h-41l84 295h86zM106 637h-40l84 295h86z" />
    <glyph glyph-name="numbersign" unicode="#" horiz-adv-x="846" 
d="M610 629l-37 -234h164v-67h-176l-51 -328h-64l50 328h-187l-47 -328h-65l45 328h-168v67h178l33 234h-172v67h180l45 305h70l-46 -305h191l43 305h70l-45 -305h151v-67h-162zM352 629l-35 -234h191l33 234h-189z" />
    <glyph glyph-name="dollar" unicode="$" horiz-adv-x="846" 
d="M739 301c0 -38 -6.83398 -74.166 -20.501 -108.499s-32.334 -65.5 -56.001 -93.5s-51.667 -51.5 -84 -70.5s-66.833 -32.5 -103.5 -40.5v-162h-63v160c-74 4 -136.667 25.833 -188 65.5s-90.666 95.5 -117.999 167.5l60 27c22 -57.333 53.833 -103.833 95.5 -139.5
s91.834 -52.834 150.501 -51.501v496c-30 14.667 -59.667 30 -89 46s-55.666 34.167 -78.999 54.5s-42.166 44.166 -56.499 71.499s-21.5 60 -21.5 98c0 76.667 22.5 139.5 67.5 188.5s104.5 77.833 178.5 86.5v149h63v-155c44 -7.33301 84.667 -23.166 122 -47.499
s67.666 -56.5 90.999 -96.5l-53 -43c-19.333 31.333 -42 58 -68 80s-56.667 36.333 -92 43v-430l97.5 -51.5c32.333 -16.333 60.666 -35.333 84.999 -57s44 -47.167 59 -76.5s22.5 -66 22.5 -110zM411.999 1026c-26 -1.33301 -50.332 -8.16797 -72.999 -20.501
s-41.5 -27.666 -56.5 -45.999s-27 -39.5 -36 -63.5s-13.5 -48.333 -13.5 -73c0 -26 5.16699 -48.5 15.5 -67.5s23.666 -36 39.999 -51s35.5 -28.667 57.5 -41l66 -36.5v399zM672 306.999c0 27.333 -5.83398 51.666 -17.501 72.999s-26.667 40.166 -45 56.499
s-39.166 31 -62.499 44s-47.333 25.5 -72 37.5v-461c58.667 16.667 106.167 47.834 142.5 93.501s54.5 97.834 54.5 156.501z" />
    <glyph glyph-name="percent" unicode="%" horiz-adv-x="907" 
d="M453 879c0 -30 -5.49902 -58 -16.499 -84s-26.167 -48.333 -45.5 -67s-41.833 -33.334 -67.5 -44.001s-52.834 -16 -81.501 -16s-56 5.33301 -82 16s-48.667 25.334 -68 44.001s-34.333 41 -45 67s-16 54 -16 84c0 31.333 5.33301 60 16 86s25.667 48.167 45 66.5
s41.666 33 66.999 44s53 16.5 83 16.5c28.667 0 55.834 -5.5 81.501 -16.5s48.167 -25.667 67.5 -44s34.5 -40.5 45.5 -66.5s16.5 -54.667 16.5 -86zM164.001 -25l-43 27l620 1104l47 -23zM877.001 203c0 -61.333 -20.5 -111.832 -61.5 -151.499s-90.833 -59.5 -149.5 -59.5
c-28.667 0 -56 5.16699 -82 15.5s-49 25 -69 44s-35.333 41.5 -46 67.5s-16 54 -16 84c0 31.333 5.33301 59.666 16 84.999s25.667 47.5 45 66.5s42 33.667 68 44s54 15.5 84 15.5c58.667 0 108.5 -19.833 149.5 -59.5s61.5 -90.167 61.5 -151.5zM395.001 879.001
c0 43.333 -15.333 79.333 -46 108s-66.334 43 -107.001 43c-41.333 0 -77 -14.333 -107 -43s-45 -64.667 -45 -108c0 -42.667 15 -78.667 45 -108s65.667 -44 107 -44c40.667 0 76.334 14.667 107.001 44s46 65.333 46 108zM819.001 203.001
c0 43.333 -15.333 79.666 -46 108.999s-66.334 44 -107.001 44c-42.667 0 -79 -14.667 -109 -44s-45 -65.666 -45 -108.999c0 -44 15 -80.333 45 -109s66.333 -43 109 -43c40.667 0 76.334 14.333 107.001 43s46 65 46 109z" />
    <glyph glyph-name="ampersand" unicode="&#x26;" horiz-adv-x="877" 
d="M815 0l-129.001 178.001c-31.333 -26 -63 -50.833 -95 -74.5s-64.5 -44.834 -97.5 -63.501s-65.833 -33.334 -98.5 -44.001s-66 -16 -100 -16c-38 0 -73.5 7.5 -106.5 22.5s-61.667 35 -86 60s-43.666 55 -57.999 90s-21.5 72.167 -21.5 111.5
c0 46.667 9.5 88.667 28.5 126s43.833 71.833 74.5 103.5s65.167 61.167 103.5 88.5s76.5 53 114.5 77c-28.667 36 -55 72.667 -79 110s-36 79.333 -36 126c0 28.667 5.5 55.334 16.5 80.001s26 46.5 45 65.5s40.833 34 65.5 45s50.667 16.5 78 16.5
c56 0 101.833 -19.833 137.5 -59.5s53.5 -86.834 53.5 -141.501c0 -61.333 -19.167 -112.166 -57.5 -152.499s-84.833 -78.833 -139.5 -115.5l262 -363l139 140l48 -43l-148 -148l156 -219h-70zM558.999 901.001c0 36.667 -12.333 68.668 -37 96.001s-55.334 41 -92.001 41
s-68 -15.667 -94 -47s-39 -66 -39 -104c0 -37.333 10.5 -71.333 31.5 -102l64.5 -97l58.5 44.5c19.667 14.333 37.334 29.666 53.001 45.999s28.667 34.333 39 54s15.5 42.5 15.5 68.5zM378.999 602.002l-66 -44.999l-76.5 -53.5c-26.333 -19 -50.5 -40 -72.5 -63
s-39.833 -48.5 -53.5 -76.5s-20.5 -59.333 -20.5 -94c0 -30 5.16699 -59 15.5 -87s24.333 -52.5 42 -73.5s39.167 -37.667 64.5 -50s53 -18.5 83 -18.5c31.333 0 62.333 5.83301 93 17.5s60.667 26.667 90 45s58 39.166 86 62.499l81 67z" />
    <glyph glyph-name="quotesingle" unicode="'" horiz-adv-x="291" 
d="M164 737h-37l-14 344h65z" />
    <glyph glyph-name="parenleft" unicode="(" horiz-adv-x="365" 
d="M268 -205c-61.333 98.667 -109.332 205.667 -143.999 321s-52 231 -52 347c0 114.667 18 225.5 54 332.5s83.333 209.167 142 306.5l51 -2c-18.667 -27.333 -34.834 -57 -48.501 -89l-39.5 -96c-31.333 -70.667 -54.5 -144.5 -69.5 -221.5s-22.5 -155.167 -22.5 -234.5
c0 -67.333 4.16699 -129.333 12.5 -186s20 -110.5 35 -161.5s33.667 -101.833 56 -152.5s47.833 -104.667 76.5 -162z" />
    <glyph glyph-name="parenright" unicode=")" horiz-adv-x="365" 
d="M291 463c0 -54.667 -4.50098 -111.668 -13.501 -171.001s-22 -118 -39 -176s-37.5 -114.667 -61.5 -170s-51 -105.666 -81 -150.999h-51c28.667 54.667 54 107.667 76 159s40.833 103.5 56.5 156.5s27.5 107.833 35.5 164.5s12 118 12 184
c0 86 -9.16699 169.5 -27.5 250.5s-44.5 160.5 -78.5 238.5c-11.333 24.667 -22.666 50.667 -33.999 78s-24.666 52.666 -39.999 75.999h51c57.333 -96 104.166 -198.167 140.499 -306.5s54.5 -219.166 54.5 -332.499z" />
    <glyph glyph-name="asterisk" unicode="*" horiz-adv-x="721" 
d="M408 811l129.001 -172l-56 -43l-114 166l-16.5 -20.5c-11 -13.667 -23.333 -30 -37 -49l-41 -56.5c-13.667 -18.667 -23.834 -32 -30.501 -40l-56 43l129 172l-202 61l22 66l199 -70l-8 213h69l-6 -213l199 70l22 -66z" />
    <glyph glyph-name="plus" unicode="+" horiz-adv-x="778" 
d="M420 328v-297h-62v297h-297v61h297v297h62v-297h297v-61h-297z" />
    <glyph glyph-name="comma" unicode="," horiz-adv-x="303" 
d="M233 29c0 -30 -11.168 -62.499 -33.501 -97.499s-54.833 -66.167 -97.5 -93.5l-20 21c30 18.667 53.167 39.667 69.5 63s31.5 51.333 45.5 84c-15.333 -10.667 -32.666 -16 -51.999 -16c-17.333 0 -32.166 6.16699 -44.499 18.5s-18.5 27.166 -18.5 44.499
c0 18 6.5 33.833 19.5 47.5s29.833 20.5 50.5 20.5c27.333 0 47.666 -9.66699 60.999 -29s20 -40.333 20 -63z" />
    <glyph glyph-name="hyphen" unicode="-" horiz-adv-x="475" 
d="M88 328v61h299v-61h-299z" />
    <glyph glyph-name="period" unicode="." horiz-adv-x="303" 
d="M217 55c0 -18.667 -6.16699 -34.167 -18.5 -46.5s-27.833 -18.5 -46.5 -18.5c-19.333 0 -35.166 6.16699 -47.499 18.5s-18.5 27.833 -18.5 46.5c0 19.333 6.16699 35.166 18.5 47.499s28.166 18.5 47.499 18.5c18.667 0 34.167 -6.16699 46.5 -18.5
s18.5 -28.166 18.5 -47.499z" />
    <glyph glyph-name="slash" unicode="/" horiz-adv-x="874" 
d="M92 -203l-55 27l747 1358l52 -25z" />
    <glyph glyph-name="zero" unicode="0" horiz-adv-x="778" 
d="M752 547c0 -74 -8.33105 -145.167 -24.998 -213.5s-40.667 -128 -72 -179s-69.166 -91.833 -113.499 -122.5s-95.166 -46 -152.499 -46c-56 0 -106.5 15.333 -151.5 46s-82.833 71.5 -113.5 122.5s-54.167 110.667 -70.5 179s-24.5 139.5 -24.5 213.5
c0 74.667 8.16699 145.167 24.5 211.5s40.166 124.5 71.499 174.5s69.166 89.667 113.499 119s94.5 44 150.5 44s106.167 -14.667 150.5 -44s82.166 -69 113.499 -119s55.666 -108.167 72.999 -174.5s26 -136.833 26 -211.5zM680.002 547c0 57.333 -6.16699 115 -18.5 173
s-30.833 109.833 -55.5 155.5s-55 83.167 -91 112.5s-78 44 -126 44c-46.667 0 -88 -14.667 -124 -44s-66.333 -66.833 -91 -112.5s-43.5 -97.5 -56.5 -155.5s-19.5 -115.667 -19.5 -173c0 -64 6.5 -126.167 19.5 -186.5s31.833 -113.666 56.5 -159.999s55 -83.5 91 -111.5
s77.333 -42 124 -42c48 0 90 14 126 42s66.333 65.167 91 111.5s43.167 99.666 55.5 159.999s18.5 122.5 18.5 186.5z" />
    <glyph glyph-name="one" unicode="1" horiz-adv-x="778" 
d="M389 0v1018h-188l32 63h222v-1081h-66z" />
    <glyph glyph-name="two" unicode="2" horiz-adv-x="778" 
d="M707 778c0 -36.667 -6.16895 -71.3359 -18.502 -104.003s-28.166 -64 -47.499 -94s-40.5 -58.667 -63.5 -86l-69.5 -80l-305 -353h499v-61h-647l391 442l63 74c22.667 26 43.5 53.667 62.5 83s35 59.333 48 90s19.5 61.667 19.5 93c0 36 -6.5 69 -19.5 99
s-30.833 56.167 -53.5 78.5s-49 40 -79 53s-62 19.5 -96 19.5s-66.333 -6.16699 -97 -18.5s-57 -29.666 -79 -51.999s-39.5 -49.166 -52.5 -80.499s-19.5 -66.333 -19.5 -105h-67c1.33301 52 10.833 97.833 28.5 137.5s41.167 72.834 70.5 99.501s62.833 47.167 100.5 61.5
s76.167 21.5 115.5 21.5c44 0 85 -8.16699 123 -24.5s71.333 -38.5 100 -66.5s51.334 -61.5 68.001 -100.5s25 -81.167 25 -126.5z" />
    <glyph glyph-name="three" unicode="3" horiz-adv-x="778" 
d="M684 303c0 -44.667 -7.83203 -86.168 -23.499 -124.501s-37.167 -71.833 -64.5 -100.5s-59.833 -51.167 -97.5 -67.5s-78.167 -24.5 -121.5 -24.5c-38.667 0 -75.667 6.5 -111 19.5s-66.333 31.667 -93 56s-47.834 53.666 -63.501 87.999s-23.5 72.5 -23.5 114.5h66
c8 -64 31.5 -116.167 70.5 -156.5s89.833 -60.5 152.5 -60.5c32.667 0 63.667 6.83301 93 20.5s55 32.167 77 55.5s39.333 50 52 80s19 62 19 96c0 69.333 -22.5 124.5 -67.5 165.5s-101.5 62.833 -169.5 65.5v64c65.333 4 118.5 26.167 159.5 66.5
s61.5 93.166 61.5 158.499c0 30 -5.5 58 -16.5 84s-25.667 48.5 -44 67.5s-40.166 34 -65.499 45s-52.333 16.5 -81 16.5c-60 0 -107.333 -18.333 -142 -55s-55 -87.334 -61 -152.001h-65c6.66699 84.667 33.167 151 79.5 199s109.833 72 190.5 72
c37.333 0 72.666 -7.16699 105.999 -21.5s62.333 -34.166 87 -59.499s44.167 -54.666 58.5 -87.999s21.5 -70 21.5 -110c0 -52 -13 -100.167 -39 -144.5s-65 -80.166 -117 -107.499c57.333 -27.333 100.333 -64.166 129 -110.499s43 -96.833 43 -151.5z" />
    <glyph glyph-name="four" unicode="4" horiz-adv-x="778" 
d="M608 205v-205h-67v205h-545v8l604 903l8 2v-848h127v-65h-127zM541 922l-428 -652h428v652z" />
    <glyph glyph-name="five" unicode="5" horiz-adv-x="778" 
d="M721 367c0 -54.667 -9.83203 -105.668 -29.499 -153.001s-46.667 -87.666 -81 -120.999s-74.333 -59.5 -120 -78.5s-94.5 -28.5 -146.5 -28.5c-61.333 0 -119.333 15 -174 45s-99.667 75 -135 135l59 27c30 -44 67.167 -79.333 111.5 -106s91.166 -40 140.499 -40
c44 0 84.667 8.16699 122 24.5s70 38.833 98 67.5s49.833 62.5 65.5 101.5s23.5 81.833 23.5 128.5c0 43.333 -8.16699 83.5 -24.5 120.5s-38.5 68.833 -66.5 95.5s-60.333 47.834 -97 63.501s-75.667 23.5 -117 23.5c-44.667 0 -87.834 -7.5 -129.501 -22.5
s-74.167 -30.167 -97.5 -45.5v477h500v-63h-433v-322c16.667 7.33301 40 15.333 70 24s65 13 105 13c50 0 96.833 -9.5 140.5 -28.5s81.334 -44.833 113.001 -77.5s56.667 -71.334 75 -116.001s27.5 -92.667 27.5 -144z" />
    <glyph glyph-name="six" unicode="6" horiz-adv-x="778" 
d="M745 362c0 -47.333 -9.16699 -93.502 -27.5 -138.502s-43.166 -85.5 -74.499 -121.5c-32.667 -39.333 -71.167 -68.5 -115.5 -87.5s-90.5 -28.5 -138.5 -28.5s-93.5 9.5 -136.5 28.5s-80.5 45.5 -112.5 79.5s-57.5 74 -76.5 120s-28.5 95.333 -28.5 148
c0 46.667 6.5 88.834 19.5 126.501s31.167 74.834 54.5 111.501l321 496l53 -43l-219 -336c27.333 9.33301 50.5 16 69.5 20s39.5 6 61.5 6c48 0 93.5 -10.167 136.5 -30.5s80.167 -47.833 111.5 -82.5s56.166 -75 74.499 -121s27.5 -95 27.5 -147zM674 364.998
c0 43.333 -7.5 83.833 -22.5 121.5s-35.5 70.834 -61.5 99.501s-56 51.167 -90 67.5s-71 24.5 -111 24.5c-38 0 -74.5 -8.16699 -109.5 -24.5s-65 -38.833 -90 -67.5s-45.167 -61.834 -60.5 -99.501s-23 -78.167 -23 -121.5c0 -44 7.66699 -85.167 23 -123.5
s35.5 -71.833 60.5 -100.5s55 -51.167 90 -67.5s71.5 -24.5 109.5 -24.5c40 0 77 8.16699 111 24.5s64 38.833 90 67.5s46.5 62.167 61.5 100.5s22.5 79.5 22.5 123.5z" />
    <glyph glyph-name="seven" unicode="7" horiz-adv-x="778" 
d="M68 -12l-54 43l660 985h-617v65h740z" />
    <glyph glyph-name="eight" unicode="8" horiz-adv-x="778" 
d="M694 283c0 -42.667 -8.16797 -82.334 -24.501 -119.001s-38.166 -68 -65.499 -94s-59.666 -46.5 -96.999 -61.5s-76.666 -22.5 -117.999 -22.5c-40.667 0 -79.5 7.5 -116.5 22.5s-69.167 35.5 -96.5 61.5s-49.166 57.333 -65.499 94s-24.5 76.334 -24.5 119.001
c0 61.333 13.333 115.5 40 162.5s70 86.167 130 117.5c-48 28.667 -84.167 64.834 -108.5 108.501s-36.5 89.5 -36.5 137.5c0 40.667 7.16699 78.5 21.5 113.5s33.666 65.5 57.999 91.5s53.666 46.167 87.999 60.5s71.166 21.5 110.499 21.5c40 0 77 -7.16699 111 -21.5
s63.667 -34.5 89 -60.5s45.166 -56.5 59.499 -91.5s21.5 -72.833 21.5 -113.5c0 -48 -12 -93.833 -36 -137.5s-60 -79.834 -108 -108.501c58.667 -31.333 101.334 -70.5 128.001 -117.5s40 -101.167 40 -162.5zM603.999 811c0 30 -5.83203 58.333 -17.499 85
s-27 50.167 -46 70.5s-41.833 36.333 -68.5 48s-54.334 17.5 -83.001 17.5s-56 -5.83301 -82 -17.5s-48.833 -27.667 -68.5 -48s-35 -43.833 -46 -70.5s-16.5 -55 -16.5 -85s5.5 -58.333 16.5 -85s26 -49.5 45 -68.5s41.5 -34.333 67.5 -46s54 -17.5 84 -17.5
s58 5.83301 84 17.5s48.833 27 68.5 46s35 41.833 46 68.5s16.5 55 16.5 85zM629 289c0 32.667 -6.5 63.667 -19.5 93s-30.5 55 -52.5 77s-47.333 39 -76 51s-59.334 18 -92.001 18s-63.334 -6 -92.001 -18s-53.667 -29 -75 -51s-38.333 -47.667 -51 -77
s-19 -60.333 -19 -93s6.33301 -63.667 19 -93s29.667 -55 51 -77s46.333 -39.5 75 -52.5s59.334 -19.5 92.001 -19.5s63.334 6.5 92.001 19.5s54 30.5 76 52.5s39.5 47.667 52.5 77s19.5 60.333 19.5 93z" />
    <glyph glyph-name="nine" unicode="9" horiz-adv-x="778" 
d="M745 713c0 -44 -6.33203 -84.668 -18.999 -122.001s-30.667 -74 -54 -110l-318 -493l-53 45l209 317l-10 12c-16.667 -8 -34.5 -13.333 -53.5 -16s-39.5 -4 -61.5 -4c-46.667 0 -91.167 9.83301 -133.5 29.5s-79.5 47 -111.5 82s-57.167 75.333 -75.5 121
s-27.5 93.834 -27.5 144.501c0 53.333 9.5 102.833 28.5 148.5s45 85.5 78 119.5s71 60.667 114 80s88.167 29 135.5 29c49.333 0 95.5 -9.66699 138.5 -29s80.167 -46 111.5 -80s56.166 -74.5 74.499 -121.5s27.5 -97.833 27.5 -152.5zM674.001 718.999
c0 43.333 -7.5 83.833 -22.5 121.5s-35.167 70.5 -60.5 98.5s-55 50.167 -89 66.5s-70.333 24.5 -109 24.5c-38 0 -74.5 -8.16699 -109.5 -24.5s-65.333 -38.5 -91 -66.5s-46 -60.833 -61 -98.5s-22.5 -78.167 -22.5 -121.5c0 -42.667 7.5 -83 22.5 -121
s35.333 -71.333 61 -100s56 -51.167 91 -67.5s71.5 -24.5 109.5 -24.5c38.667 0 75 8.16699 109 24.5s63.667 38.833 89 67.5s45.5 62 60.5 100s22.5 78.333 22.5 121z" />
    <glyph glyph-name="colon" unicode=":" horiz-adv-x="303" 
d="M217 602c0 -19.333 -6.16699 -35 -18.5 -47s-27.833 -18 -46.5 -18c-19.333 0 -35.166 6 -47.499 18s-18.5 27.667 -18.5 47s6.16699 35.166 18.5 47.499s28.166 18.5 47.499 18.5c18.667 0 34.167 -6.16699 46.5 -18.5s18.5 -28.166 18.5 -47.499zM217 55
c0 -18.667 -6.16699 -34.167 -18.5 -46.5s-27.833 -18.5 -46.5 -18.5c-19.333 0 -35.166 6.16699 -47.499 18.5s-18.5 27.833 -18.5 46.5c0 19.333 6.16699 35.166 18.5 47.499s28.166 18.5 47.499 18.5c18.667 0 34.167 -6.16699 46.5 -18.5s18.5 -28.166 18.5 -47.499z
" />
    <glyph glyph-name="semicolon" unicode=";" horiz-adv-x="303" 
d="M217 602c0 -19.333 -6.16699 -35 -18.5 -47s-27.833 -18 -46.5 -18c-19.333 0 -35.166 6 -47.499 18s-18.5 27.667 -18.5 47s6.16699 35.166 18.5 47.499s28.166 18.5 47.499 18.5c18.667 0 34.167 -6.16699 46.5 -18.5s18.5 -28.166 18.5 -47.499zM233 29
c0 -30 -11.168 -62.499 -33.501 -97.499s-54.833 -66.167 -97.5 -93.5l-20 21c30 18.667 53.167 39.667 69.5 63s31.5 51.333 45.5 84c-15.333 -10.667 -32.666 -16 -51.999 -16c-17.333 0 -32.166 6.16699 -44.499 18.5s-18.5 27.166 -18.5 44.499
c0 18 6.5 33.833 19.5 47.5s29.833 20.5 50.5 20.5c27.333 0 47.666 -9.66699 60.999 -29s20 -40.333 20 -63z" />
    <glyph glyph-name="less" unicode="&#x3c;" horiz-adv-x="762" 
d="M61 326v75l637 318v-64l-571 -290l571 -310v-61z" />
    <glyph glyph-name="equal" unicode="=" horiz-adv-x="778" 
d="M61 420v61h656v-61h-656zM61 236v61h656v-61h-656z" />
    <glyph glyph-name="greater" unicode="&#x3e;" horiz-adv-x="762" 
d="M61 -6v61l574 310l-574 290v64l637 -318v-75z" />
    <glyph glyph-name="question" unicode="?" horiz-adv-x="700" 
d="M633 834c0 -53.333 -12.6641 -98.498 -37.9971 -135.498s-53.333 -71.5 -84 -103.5s-59 -64 -85 -96s-39 -70 -39 -114v-152h-65v156c0 48 12.5 89 37.5 123s52.833 67.5 83.5 100.5s58.667 66.833 84 101.5s38 75.334 38 122.001c0 24 -4.33301 48 -13 72
s-22.334 46 -41.001 66s-42 35.667 -70 47s-60.333 17 -97 17c-38 0 -72.667 -6.83301 -104 -20.5s-57.333 -32.334 -78 -56.001s-34.667 -51.334 -42 -83.001s-6.33301 -65.167 3 -100.5l-68 -18c-12 44.667 -13.167 87.5 -3.5 128.5s27.667 77.667 54 110
s60.333 57.666 102 75.999s87.167 27.5 136.5 27.5c45.333 0 85.666 -7.16699 120.999 -21.5s65.666 -33.833 90.999 -58.5s44.5 -53 57.5 -85s19.5 -66.333 19.5 -103zM420.003 57.002c0 -18.667 -6.16699 -34.5 -18.5 -47.5s-28.166 -19.5 -47.499 -19.5
c-18.667 0 -34.167 6.5 -46.5 19.5s-18.5 28.833 -18.5 47.5c0 19.333 6.16699 35.166 18.5 47.499s27.833 18.5 46.5 18.5c19.333 0 35.166 -6.16699 47.499 -18.5s18.5 -28.166 18.5 -47.499z" />
    <glyph glyph-name="at" unicode="@" horiz-adv-x="1130" 
d="M1081 633c0 -57.333 -10.166 -111.329 -30.499 -161.996s-46.5 -94.667 -78.5 -132s-67.833 -67 -107.5 -89s-78.5 -33 -116.5 -33c-50.667 0 -87 23.333 -109 70c-32.667 -27.333 -64.667 -45.833 -96 -55.5s-61.333 -14.5 -90 -14.5c-62 0 -109.333 19.833 -142 59.5
s-49 90.167 -49 151.5c0 49.333 8.16699 99.833 24.5 151.5s39.5 99.334 69.5 143.001s66.5 79.5 109.5 107.5s91.167 42 144.5 42c31.333 0 61.666 -7.5 90.999 -22.5s56.333 -38.833 81 -71.5l21 66h63l-147 -465c-4 -14 -7.33301 -27 -10 -39s-3 -22.833 -1 -32.5
s7.33301 -17.334 16 -23.001s23.334 -8.5 44.001 -8.5c30 0 60 11.667 90 35s57.333 52.5 82 87.5s44.5 74 59.5 117s22.5 83.5 22.5 121.5c0 60 -12.333 114.5 -37 163.5s-57.167 91 -97.5 126s-86.333 62 -138 81s-104.834 28.5 -159.501 28.5
c-67.333 0 -130 -13.667 -188 -41s-108.833 -63.833 -152.5 -109.5s-78 -98.834 -103 -159.501s-37.5 -124.334 -37.5 -191.001c0 -66 12.833 -128.667 38.5 -188s60.667 -111.5 105 -156.5s96 -80.833 155 -107.5s120.5 -40 184.5 -40c79.333 0 154.166 16.667 224.499 50
s125.833 82.333 166.5 147l82 2c-45.333 -80.667 -108.833 -143.5 -190.5 -188.5s-175.834 -67.5 -282.501 -67.5c-76.667 0 -148 14.667 -214 44s-123.333 69.166 -172 119.499s-87 109.333 -115 177s-42 140.5 -42 218.5c0 76 14.333 147.5 43 214.5
s67.667 125.5 117 175.5s106.333 89.333 171 118s133.334 43 206.001 43c69.333 0 134 -11.667 194 -35s112.333 -55.5 157 -96.5s79.834 -89.833 105.501 -146.5s38.5 -118.334 38.5 -185.001zM743.001 657.004c4.66699 12.667 4.50098 27.833 -0.499023 45.5
s-14 34.667 -27 51s-29.333 30 -49 41s-42.5 16.5 -68.5 16.5c-36.667 0 -71.834 -12.667 -105.501 -38s-63 -57 -88 -95s-44.667 -78.5 -59 -121.5s-21.5 -83.167 -21.5 -120.5c0 -42 12.5 -79.5 37.5 -112.5s62.833 -48.833 113.5 -47.5c23.333 0 45.833 5.5 67.5 16.5
s41.5 24.667 59.5 41s33.833 34.5 47.5 54.5s23.167 39.333 28.5 58z" />
    <glyph glyph-name="A" unicode="A" horiz-adv-x="877" 
d="M809 0l-141 356h-461l-139 -356h-70l442 1116l437 -1116h-68zM438 944l-207 -524h412z" />
    <glyph glyph-name="B" unicode="B" horiz-adv-x="768" 
d="M715 301c0 -43.333 -7.83105 -84.167 -23.498 -122.5s-40.167 -71.833 -73.5 -100.5c-36.667 -32.667 -74.834 -53.834 -114.501 -63.501s-83.167 -14.5 -130.5 -14.5h-269v1081h209c40 0 78.667 -3.33301 116 -10s71.666 -24.334 102.999 -53.001
c32 -28.667 54.833 -62.167 68.5 -100.5s20.5 -79.166 20.5 -122.499c0 -48 -9.33301 -89.5 -28 -124.5s-49.667 -66.833 -93 -95.5c68 -18.667 120.833 -52.667 158.5 -102s56.5 -106.666 56.5 -171.999zM553.002 804.999c0 35.333 -6.83301 68.6689 -20.5 100.002
s-35.5 56.666 -65.5 75.999c-27.333 19.333 -56.333 30.333 -87 33s-61.667 4 -93 4h-117v-428h117c35.333 0 68 1 98 3s60 14.667 90 38s50.5 48.666 61.5 75.999s16.5 60 16.5 98zM647.002 299.002c0 39.333 -8.83301 76.832 -26.5 112.499s-44.167 62.5 -79.5 80.5
c-31.333 16 -67.5 25.667 -108.5 29s-79.5 5 -115.5 5h-147v-465h162c36.667 0 73.5 1.83301 110.5 5.5s71.833 16.834 104.5 39.501c31.333 22 55.833 49.5 73.5 82.5s26.5 69.833 26.5 110.5z" />
    <glyph glyph-name="C" unicode="C" horiz-adv-x="1010" 
d="M940 123c-50.667 -42.667 -105.668 -76.1689 -165.001 -100.502s-121.666 -36.5 -186.999 -36.5c-74 0 -143.667 14.667 -209 44s-123.333 68.833 -174 118.5s-90.667 108.334 -120 176.001s-44 139.167 -44 214.5c0 76 14.667 147.833 44 215.5s69 126.834 119 177.501
s108 90.667 174 120s136.667 44 212 44c64 0 126 -12.667 186 -38s114 -60 162 -104v-94c-48 56 -103.333 98.667 -166 128s-124.667 44 -186 44c-66 0 -128 -13.667 -186 -41s-108.5 -63.833 -151.5 -109.5s-77 -98.5 -102 -158.5s-37.5 -123.667 -37.5 -191
c0 -62.667 12.167 -122.667 36.5 -180s58.5 -108.333 102.5 -153c44.667 -44 96.834 -80.333 156.501 -109s120.167 -43 181.5 -43c57.333 0 118.666 15 183.999 45s122 71.667 170 125v-94z" />
    <glyph glyph-name="D" unicode="D" horiz-adv-x="889" 
d="M850 539c0 -75.333 -13.668 -147.167 -41.001 -215.5s-67.666 -128.5 -120.999 -180.5c-57.333 -57.333 -118 -95.5 -182 -114.5s-135 -28.5 -213 -28.5h-189v1081h189c78 0 148 -8.83301 210 -26.5s122.333 -54.5 181 -110.5c54.667 -53.333 96 -114.833 124 -184.5
s42 -143.167 42 -220.5zM781.999 538.999c0 69.333 -12.5 134.666 -37.5 195.999s-62.833 116 -113.5 164c-49.333 46.667 -102 78.167 -158 94.5s-116.667 24.5 -182 24.5h-121v-957h121c69.333 0 133 9.33301 191 28s111.667 53.334 161 104.001
c45.333 47.333 79.833 100.333 103.5 159s35.5 121 35.5 187z" />
    <glyph glyph-name="E" unicode="E" horiz-adv-x="688" 
d="M104 0v1081h502v-63h-436v-395h424v-64h-424v-498h436v-61h-502z" />
    <glyph glyph-name="F" unicode="F" horiz-adv-x="602" 
d="M170 1018v-395h348v-64h-348v-559h-66v1081h422v-63h-356z" />
    <glyph glyph-name="G" unicode="G" horiz-adv-x="1130" 
d="M1087 520c2 -69.333 -4.16309 -133.665 -18.4961 -192.998s-44.833 -115 -91.5 -167c-49.333 -54.667 -109.5 -97.334 -180.5 -128.001s-143.167 -46 -216.5 -46c-72.667 0 -141.834 14.667 -207.501 44s-123 69.166 -172 119.499s-87.833 108.666 -116.5 174.999
s-43 137.166 -43 212.499c0 77.333 14.333 149.833 43 217.5s67.834 126.834 117.501 177.501s107.667 90.667 174 120s137.166 44 212.499 44c94 0 179.167 -22.5 255.5 -67.5s143.166 -106.5 200.499 -184.5l-55 -43c-50.667 72 -109.667 128.5 -177 169.5
s-143.333 61.5 -228 61.5c-64.667 0 -125.667 -13.333 -183 -40s-107.833 -62.5 -151.5 -107.5s-78 -97.167 -103 -156.5s-37.5 -121.666 -37.5 -186.999c0 -67.333 12.5 -130.666 37.5 -189.999s59 -111.5 102 -156.5s93.167 -80.833 150.5 -107.5s119 -40 185 -40
c57.333 0 112.166 11.667 164.499 35s100.5 52.666 144.5 87.999c43.333 38 74.666 79.5 93.999 124.5s30.333 99.167 33 162.5h-375v63h442z" />
    <glyph glyph-name="H" unicode="H" horiz-adv-x="979" 
d="M809 0v557h-639v-557h-66v1081h66v-458h639v458h65v-1081h-65z" />
    <glyph glyph-name="I" unicode="I" horiz-adv-x="276" 
d="M104 0v1081h66v-1081h-66z" />
    <glyph glyph-name="J" unicode="J" horiz-adv-x="287" 
d="M182 20c0 -34 -2.33203 -66 -6.99902 -96s-13.834 -56.167 -27.501 -78.5s-32.5 -40 -56.5 -53s-55 -19.5 -93 -19.5s-72.167 10.5 -102.5 31.5s-54.833 49.167 -73.5 84.5l53 41c14 -27.333 32.5 -49.5 55.5 -66.5s47.5 -25.5 73.5 -25.5s46.167 5.83301 60.5 17.5
s25.333 26 33 43s12.5 36.5 14.5 58.5s3 43 3 63v1061h67v-1061z" />
    <glyph glyph-name="K" unicode="K" horiz-adv-x="774" 
d="M702 0l-501 520l-31 -31v-489h-66v1081h66v-506l500 506h88l-512 -518l547 -563h-91z" />
    <glyph glyph-name="L" unicode="L" horiz-adv-x="438" 
d="M104 0v1081h66v-1020h268v-61h-334z" />
    <glyph glyph-name="M" unicode="M" horiz-adv-x="1231" 
d="M1161 -16l-176 919l-367 -938l-370 938l-180 -919h-64l225 1132l387 -985l388 985l223 -1132h-66z" />
    <glyph glyph-name="N" unicode="N" horiz-adv-x="1155" 
d="M170 928v-940h-66v1108l881 -957v942h66v-1116z" />
    <glyph glyph-name="O" unicode="O" horiz-adv-x="1171" 
d="M1130 541c0 -76.667 -14.667 -148.834 -44 -216.501s-68.5 -126.334 -117.5 -176.001s-106.667 -89.167 -173 -118.5s-136.166 -44 -209.499 -44c-74 0 -144.167 14.667 -210.5 44s-124.333 68.833 -174 118.5s-88.834 108.334 -117.501 176.001s-43 139.834 -43 216.501
c0 76 14.333 147.5 43 214.5s67.834 125.833 117.501 176.5s107.667 90.667 174 120s136.5 44 210.5 44c73.333 0 143.166 -14.667 209.499 -44s124 -69.333 173 -120s88.167 -109.5 117.5 -176.5s44 -138.5 44 -214.5zM1063 541c0 66.667 -12.667 129.667 -38 189
s-59.833 111.5 -103.5 156.5s-94.167 80.5 -151.5 106.5s-118.666 39 -183.999 39c-66 0 -128 -13 -186 -39s-108.5 -61.5 -151.5 -106.5s-77 -97.167 -102 -156.5s-37.5 -122.333 -37.5 -189c0 -67.333 12.5 -130.666 37.5 -189.999s59 -111.5 102 -156.5
s93.5 -80.833 151.5 -107.5s120 -40 186 -40c65.333 0 126.666 13.333 183.999 40s107.833 62.5 151.5 107.5s78.167 97.167 103.5 156.5s38 122.666 38 189.999z" />
    <glyph glyph-name="P" unicode="P" horiz-adv-x="639" 
d="M610 795c0 -38.667 -7.16602 -77.332 -21.499 -115.999s-36.5 -71 -66.5 -97c-31.333 -28.667 -67.833 -47.167 -109.5 -55.5s-82.834 -12.5 -123.501 -12.5h-119v-514h-66v1081h185c40.667 0 80.5 -3.33301 119.5 -10s74.833 -24.334 107.5 -53.001
c31.333 -27.333 54.833 -60.5 70.5 -99.5s23.5 -80.167 23.5 -123.5zM545.001 799.002c0 34 -6.83301 66.6689 -20.5 98.002s-34.167 56.666 -61.5 75.999c-26 23.333 -54.667 36.666 -86 39.999s-62.666 5 -93.999 5h-113v-440h121c34 0 66.667 3.33301 98 10
s60.666 23 87.999 49c45.333 43.333 68 97.333 68 162z" />
    <glyph glyph-name="Q" unicode="Q" horiz-adv-x="1171" 
d="M1130 545c0 -75.333 -12.834 -144.335 -38.501 -207.002s-63.167 -124 -112.5 -184l135 -154h-92l-90 115c-52 -41.333 -107.667 -73.166 -167 -95.499s-119 -33.5 -179 -33.5c-75.333 0 -146.166 14.333 -212.499 43s-124 68.167 -173 118.5s-87.833 109 -116.5 176
s-43 139.5 -43 217.5c0 76 14.333 147.833 43 215.5s67.834 126.834 117.501 177.501s107.667 90.334 174 119.001s137.166 43 212.499 43c73.333 0 142.833 -14.333 208.5 -43s123 -68.334 172 -119.001s88.167 -109.167 117.5 -175.5s44 -137.5 44 -213.5zM1063 531.998
c0 68.667 -12.333 132.999 -37 192.999s-58.167 112.833 -100.5 158.5s-92.5 81.834 -150.5 108.501s-120.333 40 -187 40c-66 0 -128 -13 -186 -39s-108.833 -61.5 -152.5 -106.5s-78 -97.167 -103 -156.5s-37.5 -122.333 -37.5 -189c0 -67.333 12.5 -131 37.5 -191
s59.333 -112.5 103 -157.5s95 -80.5 154 -106.5s121.167 -39 186.5 -39c52 0 102.833 11 152.5 33s96.5 50.667 140.5 86l-262 276h92l217 -237c42 50.667 74.667 102.167 98 154.5s35 109.833 35 172.5z" />
    <glyph glyph-name="R" unicode="R" horiz-adv-x="664" 
d="M547 0l-344 512.001l-33 2v-514h-66v1081h129c44 0 86.5 -2.33301 127.5 -7s79.167 -20.667 114.5 -48c38 -27.333 65 -60.833 81 -100.5s24 -83.167 24 -130.5c0 -90.667 -27.333 -159.834 -82 -207.501s-127 -72.167 -217 -73.5l344 -514h-78zM512 797.001
c0 39.333 -8.83301 77.5 -26.5 114.5s-45.834 63.5 -84.501 79.5c-27.333 15.333 -57.333 23.666 -90 24.999s-64.667 2 -96 2h-45v-443h86c32.667 0 64.334 2.83301 95.001 8.5s59 20.834 85 45.501c26 18.667 45.167 43.5 57.5 74.5s18.5 62.167 18.5 93.5z" />
    <glyph glyph-name="S" unicode="S" horiz-adv-x="741" 
d="M688 299c0 -45.333 -9.16309 -86.999 -27.4961 -124.999s-42.5 -71 -72.5 -99s-64.833 -49.833 -104.5 -65.5s-81.5 -23.5 -125.5 -23.5c-70.667 0 -132.667 20.833 -186 62.5s-93.666 98.5 -120.999 170.5l60 29c24 -61.333 56.5 -110.166 97.5 -146.499
s92.167 -54.5 153.5 -54.5c34.667 0 67.667 6.83301 99 20.5s58.666 32.167 81.999 55.5s42.166 50.666 56.499 81.999s21.5 64.666 21.5 99.999c0 31.333 -6.83301 58 -20.5 80s-30.834 41.5 -51.501 58.5s-43.334 32 -68.001 45l-69 35.5l-191 107
c-35.333 22 -62.166 48.333 -80.499 79s-27.5 67.667 -27.5 111c0 40 6.5 76.667 19.5 110s31.333 62.333 55 87s52 43.834 85 57.501s69.167 20.5 108.5 20.5c52 0 101.167 -13.333 147.5 -40s83.166 -63.334 110.499 -110.001l-49 -41c-26 40 -56 71.167 -90 93.5
s-75 33.5 -123 33.5c-28.667 0 -55 -5.5 -79 -16.5s-44.833 -26 -62.5 -45s-31.667 -41.167 -42 -66.5s-15.5 -52.333 -15.5 -81s6.16699 -53.167 18.5 -73.5s27.666 -38 45.999 -53s38.833 -28.333 61.5 -40l65 -33.5l198 -107c40 -27.333 70.167 -58 90.5 -92
s30.5 -75.667 30.5 -125z" />
    <glyph glyph-name="T" unicode="T" horiz-adv-x="610" 
d="M338 1018v-1018h-66v1018h-272v63h610v-63h-272z" />
    <glyph glyph-name="U" unicode="U" horiz-adv-x="901" 
d="M807 408c0 -56 -3.16992 -107.999 -9.50293 -155.999s-27.166 -93.667 -62.499 -137c-35.333 -42.667 -78.666 -74.834 -129.999 -96.501s-102.666 -32.5 -153.999 -32.5c-52 0 -104 11.167 -156 33.5s-95.667 54.166 -131 95.499c-34 43.333 -54.167 89.333 -60.5 138
s-9.5 100.334 -9.5 155.001v673h66v-653c0 -49.333 2.33301 -98.166 7 -146.499s21.334 -90.166 50.001 -125.499c27.333 -36 62.833 -63.167 106.5 -81.5s86.167 -27.5 127.5 -27.5c40.667 0 83.167 9.16699 127.5 27.5s80.166 45.5 107.499 81.5
c27.333 35.333 43.333 77.166 48 125.499s7 97.166 7 146.499v653h66v-673z" />
    <glyph glyph-name="V" unicode="V" horiz-adv-x="754" 
d="M375 -35l-377 1116h68l311 -923l311 923h68z" />
    <glyph glyph-name="W" unicode="W" horiz-adv-x="1520" 
d="M1159 -35l-401 1002l-400 -1002l-350 1116h68l293 -929l395 983l391 -983l289 929h67z" />
    <glyph glyph-name="X" unicode="X" horiz-adv-x="672" 
d="M590 0l-256 492l-252 -492h-74l289 551l-277 530h72l244 -463l237 463h74l-274 -530l289 -551h-72z" />
    <glyph glyph-name="Y" unicode="Y" horiz-adv-x="760" 
d="M414 461v-461h-70v461l-348 620h74l309 -551l309 551h74z" />
    <glyph glyph-name="Z" unicode="Z" horiz-adv-x="774" 
d="M125 61h623v-61h-740l639 1018h-577v63h694z" />
    <glyph glyph-name="bracketleft" unicode="[" horiz-adv-x="401" 
d="M82 -229v1372h235v-72h-167v-1229h167v-71h-235z" />
    <glyph glyph-name="backslash" unicode="\" horiz-adv-x="874" 
d="M784 0l-743 1157l49 25l744 -1153z" />
    <glyph glyph-name="bracketright" unicode="]" horiz-adv-x="401" 
d="M82 -229v71h170v1229h-170v72h235v-1372h-235z" />
    <glyph glyph-name="asciicircum" unicode="^" horiz-adv-x="844" 
d="M715 432l-293 584l-289 -584h-65l319 649h72l319 -649h-63z" />
    <glyph glyph-name="underscore" unicode="_" horiz-adv-x="717" 
d="M8 -158v56h701v-56h-701z" />
    <glyph glyph-name="grave" unicode="`" horiz-adv-x="418" 
d="M270 788l-174 207l86 29l140 -211z" />
    <glyph glyph-name="a" unicode="a" horiz-adv-x="762" 
d="M602 0l0.00195312 123.003c-32.667 -48 -71.167 -82.833 -115.5 -104.5s-88.5 -32.5 -132.5 -32.5c-48.667 0 -92.834 9.16699 -132.501 27.5s-73.167 43.166 -100.5 74.499s-48.5 68.166 -63.5 110.499s-22.5 88.166 -22.5 137.499c0 48 7.5 92.667 22.5 134
s36.167 77.5 63.5 108.5s60.5 55 99.5 72s82.833 25.5 131.5 25.5c46.667 0 91.167 -10.333 133.5 -31s81.166 -56.667 116.499 -108v125h62v-662h-62zM606.002 342.003c0 38 -6.16797 73.835 -18.501 107.502s-29.666 62.667 -51.999 87s-49.166 43.666 -80.499 57.999
s-67 21.5 -107 21.5c-36.667 0 -70.334 -7.83301 -101.001 -23.5s-57 -36.334 -79 -62.001s-39.167 -55.667 -51.5 -90s-18.5 -69.166 -18.5 -104.499c0 -38 5.83301 -74.5 17.5 -109.5s28.834 -65.833 51.501 -92.5s49.667 -48.167 81 -64.5s66 -24.5 104 -24.5
c41.333 0 77.666 8.16699 108.999 24.5s57.833 38.166 79.5 65.499s38 58.833 49 94.5s16.5 73.167 16.5 112.5z" />
    <glyph glyph-name="b" unicode="b" horiz-adv-x="762" 
d="M727 336c0 -49.333 -7.50098 -95.1689 -22.501 -137.502s-36.167 -79.166 -63.5 -110.499s-60.5 -56.166 -99.5 -74.499s-82.833 -27.5 -131.5 -27.5c-45.333 0 -90.166 11.167 -134.499 33.5s-82.833 57.5 -115.5 105.5v-125h-62v1182h62v-637
c35.333 46 74.5 79.333 117.5 100s87.833 31 134.5 31c47.333 0 90.5 -8.5 129.5 -25.5s72.167 -41 99.5 -72s48.5 -67.167 63.5 -108.5s22.5 -86 22.5 -134zM663.999 335.997c0 35.333 -6.16699 70.167 -18.5 104.5s-29.5 64.333 -51.5 90s-48.333 46.334 -79 62.001
s-64.334 23.5 -101.001 23.5c-41.333 0 -78 -7.16699 -110 -21.5s-58.5 -34.333 -79.5 -60s-37.333 -55.667 -49 -90s-17.5 -71.166 -17.5 -110.499c0 -38.667 5.83301 -75.667 17.5 -111s28.334 -66.333 50.001 -93s48.167 -47.834 79.5 -63.501s67 -23.5 107 -23.5
c39.333 0 74.333 8.16699 105 24.5s57 38.166 79 65.499s38.833 58.5 50.5 93.5s17.5 71.5 17.5 109.5z" />
    <glyph glyph-name="c" unicode="c" horiz-adv-x="647" 
d="M602 80c-32.667 -28.667 -69.5039 -51.4971 -110.504 -68.4971s-83.167 -25.5 -126.5 -25.5c-48 0 -92.167 8.83301 -132.5 26.5s-75.166 42.167 -104.499 73.5s-52.166 68.166 -68.499 110.499s-24.5 87.5 -24.5 135.5c0 47.333 8.5 92.166 25.5 134.499
s40.167 79 69.5 110s64.5 55.333 105.5 73s84.833 26.5 131.5 26.5c86 0 161 -27.333 225 -82v-86c-35.333 36.667 -71.166 63.834 -107.499 81.501s-76.166 26.5 -119.499 26.5c-38.667 0 -74 -7.83301 -106 -23.5s-60 -36.334 -84 -62.001s-42.833 -55.667 -56.5 -90
s-20.5 -70.5 -20.5 -108.5c0 -37.333 6.83301 -73.333 20.5 -108s32.167 -65.334 55.5 -92.001s51.333 -47.834 84 -63.501s67.334 -23.5 104.001 -23.5c44 0 86.167 9.83301 126.5 29.5s78.166 50.834 113.499 93.501v-88z" />
    <glyph glyph-name="d" unicode="d" horiz-adv-x="762" 
d="M602 0l0.00195312 123.003c-32.667 -48 -71.167 -82.833 -115.5 -104.5s-88.5 -32.5 -132.5 -32.5c-48.667 0 -92.834 9.16699 -132.501 27.5s-73.167 43.166 -100.5 74.499s-48.5 68.166 -63.5 110.499s-22.5 88.166 -22.5 137.499c0 48 7.5 92.667 22.5 134
s36.167 77.5 63.5 108.5s60.5 55 99.5 72s82.833 25.5 131.5 25.5c46.667 0 91.167 -10.667 133.5 -32s81.166 -56.333 116.499 -105v643h62v-1182h-62zM606.002 342.003c0 38 -6.16797 73.8359 -18.501 107.503s-29.666 62.667 -51.999 87s-49.166 43.666 -80.499 57.999
s-67 21.5 -107 21.5c-36.667 0 -70.334 -7.83301 -101.001 -23.5s-57 -36.334 -79 -62.001s-39.167 -55.667 -51.5 -90s-18.5 -69.166 -18.5 -104.499c0 -38 5.83301 -74.5 17.5 -109.5s28.834 -66.167 51.501 -93.5s49.667 -49.166 81 -65.499s66 -24.5 104 -24.5
c41.333 0 77.666 8.16699 108.999 24.5s57.833 38.166 79.5 65.499s38 59.166 49 95.499s16.5 74.166 16.5 113.499z" />
    <glyph glyph-name="e" unicode="e" horiz-adv-x="692" 
d="M98 326c0 -86 24.6709 -154.336 74.0039 -205.003s110.666 -76 183.999 -76c49.333 0 93.166 13.333 131.499 40s69.833 63.334 94.5 110.001l26 -15l27 -16c-62.667 -118.667 -158.334 -178 -287.001 -178c-48 0 -91 9.16699 -129 27.5s-70.667 43.5 -98 75.5
s-48.5 68.833 -63.5 110.5s-22.5 85.834 -22.5 132.501c0 46 7.5 89.833 22.5 131.5s36.167 78.334 63.5 110.001s60.5 56.667 99.5 75s81.5 27.5 127.5 27.5c48 0 91.167 -9.16699 129.5 -27.5s70.333 -43.333 96 -75s45.667 -68.667 60 -111s22.166 -87.833 23.499 -136.5
h-559zM594.004 384.997c-10.667 65.333 -37.998 120.167 -81.998 164.5s-98 66.5 -162 66.5c-32.667 0 -63.334 -6 -92.001 -18s-54.334 -28.333 -77.001 -49s-41.167 -45 -55.5 -73s-23.5 -58.333 -27.5 -91h496z" />
    <glyph glyph-name="f" unicode="f" horiz-adv-x="317" 
d="M160 602l-0.00292969 -602.001h-62v602h-71v60h71v296c0 24.667 1 52.334 3 83.001s8.66699 57 20 79c14.667 27.333 35.334 47.833 62.001 61.5s55 20.5 85 20.5c8.66699 0 17.334 -1 26.001 -3l30 -7v-57c-11.333 2.66699 -21 4.66699 -29 6s-15.667 2 -23 2
c-27.333 0 -48.5 -6.16699 -63.5 -18.5s-26.167 -28.333 -33.5 -48s-11.666 -41.167 -12.999 -64.5s-2 -45.333 -2 -66v-284h164v-60h-164z" />
    <glyph glyph-name="g" unicode="g" horiz-adv-x="772" 
d="M674 31c0 -50.667 -2.83203 -99.1709 -8.49902 -145.504s-24.167 -91.5 -55.5 -135.5c-30 -42 -67.5 -73.667 -112.5 -95s-92.833 -32 -143.5 -32c-42 0 -81.5 6.16699 -118.5 18.5s-69.833 30.5 -98.5 54.5s-51.834 53.667 -69.501 89s-28.5 76.333 -32.5 123h63
c5.33301 -74 32.333 -130.333 81 -169s105 -58 169 -58c40 0 78 8.16699 114 24.5s67 42.166 93 77.499c24.667 39.333 40 79.833 46 121.5s9 84.5 9 128.5v88c-34 -45.333 -72.833 -79.166 -116.5 -101.499s-89.5 -33.5 -137.5 -33.5c-46 0 -88.167 9.5 -126.5 28.5
s-71.166 44.167 -98.499 75.5s-48.5 67.833 -63.5 109.5s-22.5 85.834 -22.5 132.501c0 47.333 7.83301 91.833 23.5 133.5s37.834 78.334 66.501 110.001s62.5 56.334 101.5 74.001s81.833 26.5 128.5 26.5c51.333 0 96.166 -10.667 134.499 -32
s75.166 -55.666 110.499 -102.999v121h64v-631zM616.001 341.996c0 38 -6.00098 73.835 -18.001 107.502s-29.667 63 -53 88s-50.666 44.667 -81.999 59s-67 21.5 -107 21.5c-36.667 0 -70 -7.83301 -100 -23.5s-56 -36.667 -78 -63s-39 -56.333 -51 -90
s-18 -68.834 -18 -105.501c0 -38 5.66699 -74.5 17 -109.5s28 -65.833 50 -92.5s48.667 -48.167 80 -64.5s66 -24.5 104 -24.5c41.333 0 78 8.16699 110 24.5s59 38.166 81 65.499s38.333 58.833 49 94.5s16 73.167 16 112.5z" />
    <glyph glyph-name="h" unicode="h" horiz-adv-x="666" 
d="M504 0l0.00292969 399.002c0 31.333 -1.33301 60 -4 86s-9.5 49 -20.5 69s-26.5 35.333 -46.5 46s-47.667 16 -83 16c-40.667 0 -73.334 -8.83301 -98.001 -26.5s-43.834 -40.167 -57.501 -67.5s-22.834 -58.333 -27.501 -93s-7 -68.334 -7 -101.001v-328h-62v1182h62
v-623c23.333 39.333 52 68.666 86 87.999s70.667 29 110 29c82 0 137.333 -24.667 166 -74s43 -117 43 -203v-399h-61z" />
    <glyph glyph-name="i" unicode="i" horiz-adv-x="309" 
d="M213 883c0 -16.667 -5.83301 -30.834 -17.5 -42.501s-24.834 -17.5 -39.501 -17.5c-16.667 0 -30.834 5.83301 -42.501 17.5s-17.5 25.834 -17.5 42.501c0 16 5.83301 29.833 17.5 41.5s25.834 17.5 42.501 17.5c14.667 0 27.834 -5.83301 39.501 -17.5
s17.5 -25.5 17.5 -41.5zM123 0v662h61v-662h-61z" />
    <glyph glyph-name="j" unicode="j" horiz-adv-x="309" 
d="M213 883c0 -16.667 -5.83301 -30.834 -17.5 -42.501s-24.834 -17.5 -39.501 -17.5c-16.667 0 -30.834 5.83301 -42.501 17.5s-17.5 25.834 -17.5 42.501c0 16 5.83301 29.833 17.5 41.5s25.834 17.5 42.501 17.5c14.667 0 27.834 -5.83301 39.501 -17.5
s17.5 -25.5 17.5 -41.5zM123 -387v1049h61v-1049h-61z" />
    <glyph glyph-name="k" unicode="k" horiz-adv-x="578" 
d="M514 0l-317 336l-37 -41v-295h-62v1182h62v-799l264 279h82l-268 -285l358 -377h-82z" />
    <glyph glyph-name="l" unicode="l" horiz-adv-x="260" 
d="M98 0v1182h62v-1182h-62z" />
    <glyph glyph-name="m" unicode="m" horiz-adv-x="991" 
d="M829 0v423.998c0 26 -1.33301 50.5 -4 73.5s-8.66699 43.5 -18 61.5s-23 32 -41 42s-42.667 15 -74 15c-32.667 0 -59.834 -6.83301 -81.501 -20.5s-38.667 -31.667 -51 -54s-21 -47.166 -26 -74.499s-7.5 -55.333 -7.5 -84v-383h-61v408
c0 25.333 -1.66699 50.666 -5 75.999s-10.166 47.666 -20.499 66.999s-24.666 35 -42.999 47s-43.166 18 -74.499 18c-34.667 0 -62.5 -8.16699 -83.5 -24.5s-37.333 -36.666 -49 -60.999s-19.5 -51.166 -23.5 -80.499s-6 -57.666 -6 -84.999v-365h-62v662h62v-82
c23.333 35.333 49 60.166 77 74.499s57.667 21.5 89 21.5c77.333 0 137.333 -37.667 180 -113c23.333 40 50.666 68.833 81.999 86.5s66 26.5 104 26.5c42.667 0 77 -6.83301 103 -20.5s46.167 -32.167 60.5 -55.5s24.166 -50.666 29.499 -81.999s8 -65.333 8 -102v-416h-64
z" />
    <glyph glyph-name="n" unicode="n" horiz-adv-x="666" 
d="M504 0l0.00292969 399.003c0 30 -1.33301 58.333 -4 85s-9.5 49.667 -20.5 69s-26.5 34.666 -46.5 45.999s-47.667 17 -83 17c-40.667 0 -73.334 -8.83301 -98.001 -26.5s-43.834 -40.167 -57.501 -67.5s-22.834 -58.333 -27.501 -93s-7 -68.334 -7 -101.001v-328h-62
v662h62v-103c27.333 41.333 57 71.166 89 89.499s67.667 27.5 107 27.5c82 0 137.333 -24.667 166 -74s43 -117 43 -203v-399h-61z" />
    <glyph glyph-name="o" unicode="o" horiz-adv-x="745" 
d="M707 332c0 -49.333 -8.66699 -95.167 -26 -137.5s-41.333 -78.833 -72 -109.5s-66.5 -54.834 -107.5 -72.501s-85.167 -26.5 -132.5 -26.5c-46.667 0 -90.167 9.16699 -130.5 27.5s-75.5 42.833 -105.5 73.5s-53.833 67.167 -71.5 109.5s-26.5 86.833 -26.5 133.5
c0 47.333 8.83301 91.833 26.5 133.5s41.5 78.334 71.5 110.001s65.167 56.667 105.5 75s83.833 27.5 130.5 27.5c47.333 0 91.5 -8.5 132.5 -25.5s76.833 -41 107.5 -72s54.667 -67.5 72 -109.5s26 -87.667 26 -137zM645 329.999c0 40.667 -7.16699 78.501 -21.5 113.501
s-34.166 65.333 -59.499 91s-55 45.667 -89 60s-70.667 21.5 -110 21.5c-38.667 0 -74 -7.83301 -106 -23.5s-60 -36.334 -84 -62.001s-42.833 -56 -56.5 -91s-20.5 -71.5 -20.5 -109.5c0 -38.667 6.83301 -75 20.5 -109s32.5 -64 56.5 -90s52.333 -46.833 85 -62.5
s67.667 -23.5 105 -23.5c39.333 0 76 7.5 110 22.5s63.667 35.167 89 60.5s45.166 55.333 59.499 90s21.5 72 21.5 112z" />
    <glyph glyph-name="p" unicode="p" horiz-adv-x="762" 
d="M727 326c0 -49.333 -7.16797 -94.5 -21.501 -135.5s-35.166 -76.833 -62.499 -107.5s-60.5 -54.5 -99.5 -71.5s-82.833 -25.5 -131.5 -25.5c-48 0 -93.5 10.5 -136.5 31.5s-81.5 55.5 -115.5 103.5v-508h-62v1049h62v-123c34 47.333 72.833 82 116.5 104
s88.167 33 133.5 33c48.667 0 92.5 -9.16699 131.5 -27.5s72.5 -43.333 100.5 -75s49.167 -69 63.5 -112s21.5 -88.167 21.5 -135.5zM663.999 324c0 38 -5.83398 74.6699 -17.501 110.003s-28.5 66.666 -50.5 93.999s-48.333 49.166 -79 65.499s-65.667 24.5 -105 24.5
c-41.333 0 -78 -8.16699 -110 -24.5s-58.667 -38.5 -80 -66.5s-37.333 -60 -48 -96s-16 -74 -16 -114c0 -77.333 23.167 -142 69.5 -194s108.5 -78 186.5 -78c36.667 0 70.334 7.5 101.001 22.5s57 35.5 79 61.5s39.167 55.667 51.5 89s18.5 68.666 18.5 105.999z" />
    <glyph glyph-name="q" unicode="q" horiz-adv-x="762" 
d="M602 -387l-0.000976562 504.002c-34 -46.667 -72.833 -80.167 -116.5 -100.5s-88.167 -30.5 -133.5 -30.5c-48.667 0 -92.5 8.5 -131.5 25.5s-72.167 40.5 -99.5 70.5s-48.5 65.833 -63.5 107.5s-22.5 86.5 -22.5 134.5c0 48.667 7.5 94.167 22.5 136.5
s36.167 79.666 63.5 111.999s60.833 57.666 100.5 75.999s83.834 27.5 132.501 27.5c44 0 88.167 -10.667 132.5 -32s82.833 -55 115.5 -101v119h62v-1049h-62zM605.999 324.002c0 38 -5.83301 74.6699 -17.5 110.003s-28.667 66.666 -51 93.999
s-48.833 49.166 -79.5 65.499s-66 24.5 -106 24.5c-40.667 0 -76.667 -8.16699 -108 -24.5s-58 -38.5 -80 -66.5s-38.5 -60 -49.5 -96s-16.5 -74 -16.5 -114c0 -77.333 23.667 -142 71 -194s109.666 -78 186.999 -78c37.333 0 71.333 7.5 102 22.5s56.834 35.5 78.501 61.5
s38.667 55.667 51 89s18.5 68.666 18.5 105.999z" />
    <glyph glyph-name="r" unicode="r" horiz-adv-x="371" 
d="M340 606c-20.667 6.66699 -36.3311 10.001 -46.998 10.001c-34 0 -60.333 -9.83301 -79 -29.5s-32 -43.834 -40 -72.501s-12.333 -59 -13 -91s-1 -60.333 -1 -85v-338h-62v662h62v-95c1.33301 2.66699 2.66602 6.33398 3.99902 11.001
c2.66699 9.33301 6 16.666 10 21.999c14 23.333 31.167 41.833 51.5 55.5s46.166 20.5 77.499 20.5c12.667 0 24 -1 34 -3s22 -5 36 -9z" />
    <glyph glyph-name="s" unicode="s" horiz-adv-x="504" 
d="M459 193c0 -62 -20.165 -112.006 -60.498 -150.006s-89.166 -57 -146.499 -57c-52 0 -97.833 15.333 -137.5 46s-66.834 73.334 -81.501 128.001l57 22c15.333 -42 35.5 -75.333 60.5 -100s58.833 -37 101.5 -37c39.333 0 73.333 14.333 102 43s43 64.334 43 107.001
c0 40.667 -13 69.834 -39 87.501s-54.667 32.167 -86 43.5c-21.333 8 -43.333 16.833 -66 26.5s-42.834 21.334 -60.501 35.001s-32.334 30.334 -44.001 50.001s-17.5 43.167 -17.5 70.5c0 50.667 17 91.334 51 122.001s75 46 123 46c31.333 0 62.333 -8.83301 93 -26.5
s54.334 -43.167 71.001 -76.5l-53 -30c-12.667 24.667 -28.834 43 -48.501 55s-41.167 18 -64.5 18c-27.333 0 -52.333 -9.83301 -75 -29.5s-34 -43.834 -34 -72.501c0 -27.333 8 -48.5 24 -63.5s35.167 -27.667 57.5 -38s47.166 -20.166 74.499 -29.499
s52.333 -21.5 75 -36.5s41.834 -34.5 57.501 -58.5s23.5 -55.667 23.5 -95z" />
    <glyph glyph-name="t" unicode="t" horiz-adv-x="274" 
d="M168 602v-602h-64v602h-69v60h69v237h64v-237h115v-60h-115z" />
    <glyph glyph-name="u" unicode="u" horiz-adv-x="639" 
d="M551 264c0 -32.667 -1.33398 -65.334 -4.00098 -98.001s-14.334 -63.334 -35.001 -92.001c-23.333 -30 -52 -52.167 -86 -66.5s-69.667 -21.5 -107 -21.5c-35.333 0 -70.333 7.16699 -105 21.5s-63 36.5 -85 66.5c-20.667 28.667 -32.334 59.334 -35.001 92.001
s-4 65.334 -4 98.001v398h62v-373c0 -32.667 1.33301 -63.667 4 -93s9.83398 -55.333 21.501 -78s28.667 -40.5 51 -53.5s52.5 -19.5 90.5 -19.5c40 0 70.833 6.5 92.5 19.5s38.334 30.833 50.001 53.5s18.834 48.667 21.501 78s4 60.333 4 93v373h64v-398z" />
    <glyph glyph-name="v" unicode="v" horiz-adv-x="586" 
d="M295 -35l-297 697h65l234 -545l225 545h66z" />
    <glyph glyph-name="w" unicode="w" horiz-adv-x="1028" 
d="M743 -35l-231 576l-223 -576l-291 699h65l228 -545l225 579l229 -579l222 545h61z" />
    <glyph glyph-name="x" unicode="x" horiz-adv-x="600" 
d="M526 0l-227 305l-227 -305h-72l260 352l-237 310h71l207 -267l201 267h78l-236 -310l258 -352h-76z" />
    <glyph glyph-name="y" unicode="y" horiz-adv-x="623" 
d="M201 -387h-64l152 373l-307 676h65l277 -601l243 601h64z" />
    <glyph glyph-name="z" unicode="z" horiz-adv-x="651" 
d="M129 59h520v-59h-653l526 602h-440v60h569z" />
    <glyph glyph-name="braceleft" unicode="{" horiz-adv-x="401" 
d="M352 -229c-40.667 1.33301 -74 6.66602 -100 15.999s-46.5 23.333 -61.5 42s-25.167 42.334 -30.5 71.001s-8 63.334 -8 104.001v252c0 39.333 -9 72 -27 98s-42.667 50.667 -74 74v61c31.333 23.333 56 47 74 71s27 55.667 27 95v252c0 80.667 13.167 139.5 39.5 176.5
s79.833 56.833 160.5 59.5v-66c-17.333 0 -34.333 -1.33301 -51 -4s-31 -8.16699 -43 -16.5s-21.833 -20 -29.5 -35s-11.5 -34.5 -11.5 -58.5v-269c0 -35.333 -2.33301 -65.333 -7 -90s-11.5 -45.834 -20.5 -63.501s-20 -32.667 -33 -45s-27.5 -24.5 -43.5 -36.5v-2
c31.333 -22 56.5 -50 75.5 -84s28.5 -87.333 28.5 -160v-264c0 -24.667 3.83301 -44.5 11.5 -59.5s17.5 -26.667 29.5 -35s26.333 -13.833 43 -16.5s33.667 -4 51 -4v-63z" />
    <glyph glyph-name="bar" unicode="|" horiz-adv-x="428" 
d="M180 0v1182h68v-1182h-68z" />
    <glyph glyph-name="braceright" unicode="}" horiz-adv-x="401" 
d="M350 428c-31.333 -23.333 -55.832 -48.002 -73.499 -74.002s-26.5 -58.667 -26.5 -98v-252c0 -40.667 -2.83301 -75.334 -8.5 -104.001s-16 -52.334 -31 -71.001s-35.333 -32.667 -61 -42s-59.167 -14.666 -100.5 -15.999v63c18 0 35.167 1.33301 51.5 4
s30.666 8.16699 42.999 16.5s22.166 20 29.499 35s11 34.833 11 59.5v264c0 72.667 9.66699 126 29 160s44.666 62 75.999 84v2c-16.667 12 -31.5 24.167 -44.5 36.5s-23.833 27.333 -32.5 45s-15.5 38.834 -20.5 63.501s-7.5 54.667 -7.5 90v269
c0 24 -3.66699 43.5 -11 58.5s-17.166 26.667 -29.499 35s-26.666 13.833 -42.999 16.5s-33.5 4 -51.5 4v66c41.333 -1.33301 74.833 -6.83301 100.5 -16.5s46 -23.667 61 -42s25.333 -42.166 31 -71.499s8.5 -64.666 8.5 -105.999v-252c0 -39.333 8.83301 -71 26.5 -95
s42.167 -47.667 73.5 -71v-61z" />
    <glyph glyph-name="asciitilde" unicode="~" horiz-adv-x="844" 
d="M778 422c-26 -42.667 -55 -79.334 -87 -110.001s-70.667 -46 -116 -46c-24 0 -48.667 5.83301 -74 17.5s-51 25.167 -77 40.5c-26 13.333 -51.667 25.166 -77 35.499s-50.333 15.5 -75 15.5c-31.333 0 -57.166 -9.66699 -77.499 -29s-40.833 -44.666 -61.5 -75.999
l-63 33l38.5 51.5c13.667 17.667 28.667 33.334 45 47.001s34.166 25 53.499 34s41 13.5 65 13.5c24.667 0 50.667 -5.5 78 -16.5l84 -35.5l78 -37.5c24.667 -11.667 46.667 -17.5 66 -17.5c30 0 55.5 10.167 76.5 30.5s40.5 48.5 58.5 84.5z" />
    <glyph glyph-name="thothannobasethai" horiz-adv-x="752" 
d="M711 426c0 -64 -10.9961 -123.334 -32.9961 -178.001s-53.167 -101.834 -93.5 -141.501s-88.833 -69.667 -145.5 -90s-119.667 -27.833 -189 -22.5l-100 450h-82v52h133l98 -443c52 0 99.167 9.33301 141.5 28s79.166 45 110.499 79s55.5 73.5 72.5 118.5
s25.5 94.167 25.5 147.5c0 50.667 -7.5 97.167 -22.5 139.5s-36.5 78.833 -64.5 109.5s-61 54.5 -99 71.5s-81 25.5 -129 25.5c-62.667 0 -117.334 -11.167 -164.001 -33.5s-88.334 -52.166 -125.001 -89.499l-49 41c43.333 48 92.666 84 147.999 108s120 36 194 36
s137.333 -16.667 190 -50l80 97l49 -37l-77 -94c42 -37.333 74.333 -83.666 97 -138.999s34 -117 34 -185z" />
    <glyph glyph-name="thothannobasethai" unicode="&#xf700;" horiz-adv-x="752" 
d="M711 426c0 -64 -10.9961 -123.334 -32.9961 -178.001s-53.167 -101.834 -93.5 -141.501s-88.833 -69.667 -145.5 -90s-119.667 -27.833 -189 -22.5l-100 450h-82v52h133l98 -443c52 0 99.167 9.33301 141.5 28s79.166 45 110.499 79s55.5 73.5 72.5 118.5
s25.5 94.167 25.5 147.5c0 50.667 -7.5 97.167 -22.5 139.5s-36.5 78.833 -64.5 109.5s-61 54.5 -99 71.5s-81 25.5 -129 25.5c-62.667 0 -117.334 -11.167 -164.001 -33.5s-88.334 -52.166 -125.001 -89.499l-49 41c43.333 48 92.666 84 147.999 108s120 36 194 36
s137.333 -16.667 190 -50l80 97l49 -37l-77 -94c42 -37.333 74.333 -83.666 97 -138.999s34 -117 34 -185z" />
    <glyph glyph-name="thothannobasethai" unicode="&#x20ac;" horiz-adv-x="752" 
d="M711 426c0 -64 -10.9961 -123.334 -32.9961 -178.001s-53.167 -101.834 -93.5 -141.501s-88.833 -69.667 -145.5 -90s-119.667 -27.833 -189 -22.5l-100 450h-82v52h133l98 -443c52 0 99.167 9.33301 141.5 28s79.166 45 110.499 79s55.5 73.5 72.5 118.5
s25.5 94.167 25.5 147.5c0 50.667 -7.5 97.167 -22.5 139.5s-36.5 78.833 -64.5 109.5s-61 54.5 -99 71.5s-81 25.5 -129 25.5c-62.667 0 -117.334 -11.167 -164.001 -33.5s-88.334 -52.166 -125.001 -89.499l-49 41c43.333 48 92.666 84 147.999 108s120 36 194 36
s137.333 -16.667 190 -50l80 97l49 -37l-77 -94c42 -37.333 74.333 -83.666 97 -138.999s34 -117 34 -185z" />
    <glyph glyph-name="saraileftthai" 
d="M-829 922v61h593v-61h-593z" />
    <glyph glyph-name="saraileftthai" unicode="&#xf701;" 
d="M-829 922v61h593v-61h-593z" />
    <glyph glyph-name="saraiileftthai" 
d="M-829 922v61h532v102h61v-163h-593z" />
    <glyph glyph-name="saraiileftthai" unicode="&#xf702;" 
d="M-829 922v61h532v102h61v-163h-593z" />
    <glyph glyph-name="saraiileftthai" unicode="&#x201a;" 
d="M-829 922v61h532v102h61v-163h-593z" />
    <glyph glyph-name="saraueleftthai" 
d="M-178 1008c0 -23.333 -8.83301 -43.5 -26.5 -60.5s-38.167 -25.5 -61.5 -25.5h-563v61h479c-2.66699 10.667 -4 19 -4 25c0 22.667 8.83301 43 26.5 61s38.167 27 61.5 27s43.833 -9 61.5 -27s26.5 -38.333 26.5 -61zM-225 1008c0 10.667 -4.5 20.5 -13.5 29.5
s-18.833 13.5 -29.5 13.5c-11.333 0 -21.333 -4.5 -30 -13.5s-13 -18.833 -13 -29.5c0 -11.333 4.33301 -21.333 13 -30s18.667 -13 30 -13c10.667 0 20.5 4.33301 29.5 13s13.5 18.667 13.5 30z" />
    <glyph glyph-name="saraueleftthai" unicode="&#xf703;" 
d="M-178 1008c0 -23.333 -8.83301 -43.5 -26.5 -60.5s-38.167 -25.5 -61.5 -25.5h-563v61h479c-2.66699 10.667 -4 19 -4 25c0 22.667 8.83301 43 26.5 61s38.167 27 61.5 27s43.833 -9 61.5 -27s26.5 -38.333 26.5 -61zM-225 1008c0 10.667 -4.5 20.5 -13.5 29.5
s-18.833 13.5 -29.5 13.5c-11.333 0 -21.333 -4.5 -30 -13.5s-13 -18.833 -13 -29.5c0 -11.333 4.33301 -21.333 13 -30s18.667 -13 30 -13c10.667 0 20.5 4.33301 29.5 13s13.5 18.667 13.5 30z" />
    <glyph glyph-name="saraueleftthai" unicode="&#x192;" 
d="M-178 1008c0 -23.333 -8.83301 -43.5 -26.5 -60.5s-38.167 -25.5 -61.5 -25.5h-563v61h479c-2.66699 10.667 -4 19 -4 25c0 22.667 8.83301 43 26.5 61s38.167 27 61.5 27s43.833 -9 61.5 -27s26.5 -38.333 26.5 -61zM-225 1008c0 10.667 -4.5 20.5 -13.5 29.5
s-18.833 13.5 -29.5 13.5c-11.333 0 -21.333 -4.5 -30 -13.5s-13 -18.833 -13 -29.5c0 -11.333 4.33301 -21.333 13 -30s18.667 -13 30 -13c10.667 0 20.5 4.33301 29.5 13s13.5 18.667 13.5 30z" />
    <glyph glyph-name="saraueeleftthai" 
d="M-829 922v61h409v102h62v-102h61v102h61v-163h-593z" />
    <glyph glyph-name="saraueeleftthai" unicode="&#xf704;" 
d="M-829 922v61h409v102h62v-102h61v102h61v-163h-593z" />
    <glyph glyph-name="saraueeleftthai" unicode="&#x201e;" 
d="M-829 922v61h409v102h62v-102h61v102h61v-163h-593z" />
    <glyph glyph-name="ellipsis" unicode="&#x85;" horiz-adv-x="918" 
d="M823 63c0 -18.667 -6.16699 -34.167 -18.5 -46.5s-27.833 -18.5 -46.5 -18.5c-19.333 0 -35.166 6.16699 -47.499 18.5s-18.5 27.833 -18.5 46.5c0 19.333 6.16699 35.166 18.5 47.499s28.166 18.5 47.499 18.5c18.667 0 34.167 -6.16699 46.5 -18.5
s18.5 -28.166 18.5 -47.499zM524 63c0 -18.667 -6.16699 -34.167 -18.5 -46.5s-27.833 -18.5 -46.5 -18.5c-19.333 0 -35.166 6.16699 -47.499 18.5s-18.5 27.833 -18.5 46.5c0 19.333 6.16699 35.166 18.5 47.499s28.166 18.5 47.499 18.5
c18.667 0 34.167 -6.16699 46.5 -18.5s18.5 -28.166 18.5 -47.499zM225 63c0 -18.667 -6.16699 -34.167 -18.5 -46.5s-27.833 -18.5 -46.5 -18.5c-19.333 0 -35.166 6.16699 -47.499 18.5s-18.5 27.833 -18.5 46.5c0 19.333 6.16699 35.166 18.5 47.499
s28.166 18.5 47.499 18.5c18.667 0 34.167 -6.16699 46.5 -18.5s18.5 -28.166 18.5 -47.499z" />
    <glyph glyph-name="ellipsis" unicode="&#x2026;" horiz-adv-x="918" 
d="M823 63c0 -18.667 -6.16699 -34.167 -18.5 -46.5s-27.833 -18.5 -46.5 -18.5c-19.333 0 -35.166 6.16699 -47.499 18.5s-18.5 27.833 -18.5 46.5c0 19.333 6.16699 35.166 18.5 47.499s28.166 18.5 47.499 18.5c18.667 0 34.167 -6.16699 46.5 -18.5
s18.5 -28.166 18.5 -47.499zM524 63c0 -18.667 -6.16699 -34.167 -18.5 -46.5s-27.833 -18.5 -46.5 -18.5c-19.333 0 -35.166 6.16699 -47.499 18.5s-18.5 27.833 -18.5 46.5c0 19.333 6.16699 35.166 18.5 47.499s28.166 18.5 47.499 18.5
c18.667 0 34.167 -6.16699 46.5 -18.5s18.5 -28.166 18.5 -47.499zM225 63c0 -18.667 -6.16699 -34.167 -18.5 -46.5s-27.833 -18.5 -46.5 -18.5c-19.333 0 -35.166 6.16699 -47.499 18.5s-18.5 27.833 -18.5 46.5c0 19.333 6.16699 35.166 18.5 47.499
s28.166 18.5 47.499 18.5c18.667 0 34.167 -6.16699 46.5 -18.5s18.5 -28.166 18.5 -47.499z" />
    <glyph glyph-name="maieklowleftthai" 
d="M-338 922v184h62v-184h-62z" />
    <glyph glyph-name="maieklowleftthai" unicode="&#xf705;" 
d="M-338 922v184h62v-184h-62z" />
    <glyph glyph-name="maieklowleftthai" unicode="&#x2020;" 
d="M-338 922v184h62v-184h-62z" />
    <glyph glyph-name="maitholowleftthai" 
d="M-166 1268c1.33301 0 -0.333008 -7.83301 -5 -23.5s-13.167 -35.834 -25.5 -60.501s-29.5 -51 -51.5 -79s-49.333 -54.333 -82 -79c-34 -26 -72.5 -45.167 -115.5 -57.5s-83.333 -20.5 -121 -24.5s-69 -5.66699 -94 -5s-37.5 1.66699 -37.5 3v43
c0 1.33301 5.33301 3.33301 16 6s23 9 37 19c6.66699 4 11.667 8.33301 15 13l9 13c4.66699 5.33301 7.66699 10.333 9 15c1.33301 2.66699 -4.5 4.33398 -17.5 5.00098s-27.167 5 -42.5 13c-17.333 10.667 -29.5 24.667 -36.5 42s-9.83301 36 -8.5 56
c2.66699 34.667 15.667 60.5 39 77.5s49.333 25.5 78 25.5c43.333 1.33301 75 -11.334 95 -38.001s28 -57 24 -91c-2.66699 -23.333 -9.5 -44.166 -20.5 -62.499s-22.833 -33.833 -35.5 -46.5c-14.667 -14.667 -30.334 -26.334 -47.001 -35.001
c0 -1.33301 6.5 -1.33301 19.5 0s29.167 4.5 48.5 9.5s40.5 12.5 63.5 22.5s44.833 23.333 65.5 40c24.667 20.667 43.5 42.834 56.5 66.501s21.833 45.167 26.5 64.5s7.33398 35.5 8.00098 48.5l1 19.5h129zM-597.999 1100c18 0 31.665 6.16895 40.998 18.502
s14 25.666 14 39.999s-4.66699 27.666 -14 39.999s-23.666 18.5 -42.999 18.5s-33.666 -6.16699 -42.999 -18.5s-14 -26 -14 -41s5 -28.333 15 -40s24.667 -17.5 44 -17.5z" />
    <glyph glyph-name="maitholowleftthai" unicode="&#xf706;" 
d="M-166 1268c1.33301 0 -0.333008 -7.83301 -5 -23.5s-13.167 -35.834 -25.5 -60.501s-29.5 -51 -51.5 -79s-49.333 -54.333 -82 -79c-34 -26 -72.5 -45.167 -115.5 -57.5s-83.333 -20.5 -121 -24.5s-69 -5.66699 -94 -5s-37.5 1.66699 -37.5 3v43
c0 1.33301 5.33301 3.33301 16 6s23 9 37 19c6.66699 4 11.667 8.33301 15 13l9 13c4.66699 5.33301 7.66699 10.333 9 15c1.33301 2.66699 -4.5 4.33398 -17.5 5.00098s-27.167 5 -42.5 13c-17.333 10.667 -29.5 24.667 -36.5 42s-9.83301 36 -8.5 56
c2.66699 34.667 15.667 60.5 39 77.5s49.333 25.5 78 25.5c43.333 1.33301 75 -11.334 95 -38.001s28 -57 24 -91c-2.66699 -23.333 -9.5 -44.166 -20.5 -62.499s-22.833 -33.833 -35.5 -46.5c-14.667 -14.667 -30.334 -26.334 -47.001 -35.001
c0 -1.33301 6.5 -1.33301 19.5 0s29.167 4.5 48.5 9.5s40.5 12.5 63.5 22.5s44.833 23.333 65.5 40c24.667 20.667 43.5 42.834 56.5 66.501s21.833 45.167 26.5 64.5s7.33398 35.5 8.00098 48.5l1 19.5h129zM-597.999 1100c18 0 31.665 6.16895 40.998 18.502
s14 25.666 14 39.999s-4.66699 27.666 -14 39.999s-23.666 18.5 -42.999 18.5s-33.666 -6.16699 -42.999 -18.5s-14 -26 -14 -41s5 -28.333 15 -40s24.667 -17.5 44 -17.5z" />
    <glyph glyph-name="maitholowleftthai" unicode="&#x2021;" 
d="M-166 1268c1.33301 0 -0.333008 -7.83301 -5 -23.5s-13.167 -35.834 -25.5 -60.501s-29.5 -51 -51.5 -79s-49.333 -54.333 -82 -79c-34 -26 -72.5 -45.167 -115.5 -57.5s-83.333 -20.5 -121 -24.5s-69 -5.66699 -94 -5s-37.5 1.66699 -37.5 3v43
c0 1.33301 5.33301 3.33301 16 6s23 9 37 19c6.66699 4 11.667 8.33301 15 13l9 13c4.66699 5.33301 7.66699 10.333 9 15c1.33301 2.66699 -4.5 4.33398 -17.5 5.00098s-27.167 5 -42.5 13c-17.333 10.667 -29.5 24.667 -36.5 42s-9.83301 36 -8.5 56
c2.66699 34.667 15.667 60.5 39 77.5s49.333 25.5 78 25.5c43.333 1.33301 75 -11.334 95 -38.001s28 -57 24 -91c-2.66699 -23.333 -9.5 -44.166 -20.5 -62.499s-22.833 -33.833 -35.5 -46.5c-14.667 -14.667 -30.334 -26.334 -47.001 -35.001
c0 -1.33301 6.5 -1.33301 19.5 0s29.167 4.5 48.5 9.5s40.5 12.5 63.5 22.5s44.833 23.333 65.5 40c24.667 20.667 43.5 42.834 56.5 66.501s21.833 45.167 26.5 64.5s7.33398 35.5 8.00098 48.5l1 19.5h129zM-597.999 1100c18 0 31.665 6.16895 40.998 18.502
s14 25.666 14 39.999s-4.66699 27.666 -14 39.999s-23.666 18.5 -42.999 18.5s-33.666 -6.16699 -42.999 -18.5s-14 -26 -14 -41s5 -28.333 15 -40s24.667 -17.5 44 -17.5z" />
    <glyph glyph-name="maitrilowleftthai" 
d="M-236 1262c-1.33301 -20.667 -4.66504 -42.001 -9.99805 -64.001c-4 -19.333 -10 -39.5 -18 -60.5s-19 -41.167 -33 -60.5c-26 -32.667 -53.333 -58.167 -82 -76.5s-55.334 -32 -80.001 -41s-44.834 -14.167 -60.501 -15.5l-23.5 -2v41c0 1.33301 6.16699 10.5 18.5 27.5
s19.833 45.5 22.5 85.5c0 16 -2.33301 29.833 -7 41.5s-10.334 21.5 -17.001 29.5c-7.33301 10 -15.666 17.667 -24.999 23l-74 -64l-75 64c-7.33301 -1.33301 -13.666 -4.66602 -18.999 -9.99902c-5.33301 -4 -10.333 -8.83301 -15 -14.5s-9.33398 -13.834 -14.001 -24.501
c-6.66699 -18 -10 -36.5 -10 -55.5s3.33301 -36.833 10 -53.5c7.33301 -16 16.833 -27.5 28.5 -34.5s17.5 -9.83301 17.5 -8.5c1.33301 -1.33301 -1.16699 2.83398 -7.5 12.501s-6.16602 23.167 0.500977 40.5c6 15.333 17.833 24.666 35.5 27.999s33.834 1 48.501 -7
c10 -5.33301 17.333 -13.166 22 -23.499s7 -20.666 7 -30.999s-2 -20.166 -6 -29.499s-9.33301 -17 -16 -23c-26 -18.667 -54.5 -24.334 -85.5 -17.001s-55.167 20 -72.5 38c-26 26 -40.667 59.833 -44 101.5s3 76.834 19 105.501c18 30 38.5 49.667 61.5 59
s35.5 14 37.5 14l77 -71l78 69l11.5 -3c7.66699 -2 16.167 -5.33301 25.5 -10s19.166 -11.834 29.499 -21.501s18.833 -22.5 25.5 -38.5c11.333 -24.667 16 -48.334 14 -71.001s-6.16699 -42.167 -12.5 -58.5s-12.5 -29.666 -18.5 -39.999l-9 -15.5l13 4.5
c8.66699 3 19.5 8.5 32.5 16.5s26.667 19.167 41 33.5s27.166 33.166 38.499 56.499c8 19.333 14 37.833 18 55.5s6.66699 34 8 49s2 27 2 36v13.5h92z" />
    <glyph glyph-name="maitrilowleftthai" unicode="&#xf707;" 
d="M-236 1262c-1.33301 -20.667 -4.66504 -42.001 -9.99805 -64.001c-4 -19.333 -10 -39.5 -18 -60.5s-19 -41.167 -33 -60.5c-26 -32.667 -53.333 -58.167 -82 -76.5s-55.334 -32 -80.001 -41s-44.834 -14.167 -60.501 -15.5l-23.5 -2v41c0 1.33301 6.16699 10.5 18.5 27.5
s19.833 45.5 22.5 85.5c0 16 -2.33301 29.833 -7 41.5s-10.334 21.5 -17.001 29.5c-7.33301 10 -15.666 17.667 -24.999 23l-74 -64l-75 64c-7.33301 -1.33301 -13.666 -4.66602 -18.999 -9.99902c-5.33301 -4 -10.333 -8.83301 -15 -14.5s-9.33398 -13.834 -14.001 -24.501
c-6.66699 -18 -10 -36.5 -10 -55.5s3.33301 -36.833 10 -53.5c7.33301 -16 16.833 -27.5 28.5 -34.5s17.5 -9.83301 17.5 -8.5c1.33301 -1.33301 -1.16699 2.83398 -7.5 12.501s-6.16602 23.167 0.500977 40.5c6 15.333 17.833 24.666 35.5 27.999s33.834 1 48.501 -7
c10 -5.33301 17.333 -13.166 22 -23.499s7 -20.666 7 -30.999s-2 -20.166 -6 -29.499s-9.33301 -17 -16 -23c-26 -18.667 -54.5 -24.334 -85.5 -17.001s-55.167 20 -72.5 38c-26 26 -40.667 59.833 -44 101.5s3 76.834 19 105.501c18 30 38.5 49.667 61.5 59
s35.5 14 37.5 14l77 -71l78 69l11.5 -3c7.66699 -2 16.167 -5.33301 25.5 -10s19.166 -11.834 29.499 -21.501s18.833 -22.5 25.5 -38.5c11.333 -24.667 16 -48.334 14 -71.001s-6.16699 -42.167 -12.5 -58.5s-12.5 -29.666 -18.5 -39.999l-9 -15.5l13 4.5
c8.66699 3 19.5 8.5 32.5 16.5s26.667 19.167 41 33.5s27.166 33.166 38.499 56.499c8 19.333 14 37.833 18 55.5s6.66699 34 8 49s2 27 2 36v13.5h92z" />
    <glyph glyph-name="maitrilowleftthai" unicode="&#xf08d;" 
d="M-236 1262c-1.33301 -20.667 -4.66504 -42.001 -9.99805 -64.001c-4 -19.333 -10 -39.5 -18 -60.5s-19 -41.167 -33 -60.5c-26 -32.667 -53.333 -58.167 -82 -76.5s-55.334 -32 -80.001 -41s-44.834 -14.167 -60.501 -15.5l-23.5 -2v41c0 1.33301 6.16699 10.5 18.5 27.5
s19.833 45.5 22.5 85.5c0 16 -2.33301 29.833 -7 41.5s-10.334 21.5 -17.001 29.5c-7.33301 10 -15.666 17.667 -24.999 23l-74 -64l-75 64c-7.33301 -1.33301 -13.666 -4.66602 -18.999 -9.99902c-5.33301 -4 -10.333 -8.83301 -15 -14.5s-9.33398 -13.834 -14.001 -24.501
c-6.66699 -18 -10 -36.5 -10 -55.5s3.33301 -36.833 10 -53.5c7.33301 -16 16.833 -27.5 28.5 -34.5s17.5 -9.83301 17.5 -8.5c1.33301 -1.33301 -1.16699 2.83398 -7.5 12.501s-6.16602 23.167 0.500977 40.5c6 15.333 17.833 24.666 35.5 27.999s33.834 1 48.501 -7
c10 -5.33301 17.333 -13.166 22 -23.499s7 -20.666 7 -30.999s-2 -20.166 -6 -29.499s-9.33301 -17 -16 -23c-26 -18.667 -54.5 -24.334 -85.5 -17.001s-55.167 20 -72.5 38c-26 26 -40.667 59.833 -44 101.5s3 76.834 19 105.501c18 30 38.5 49.667 61.5 59
s35.5 14 37.5 14l77 -71l78 69l11.5 -3c7.66699 -2 16.167 -5.33301 25.5 -10s19.166 -11.834 29.499 -21.501s18.833 -22.5 25.5 -38.5c11.333 -24.667 16 -48.334 14 -71.001s-6.16699 -42.167 -12.5 -58.5s-12.5 -29.666 -18.5 -39.999l-9 -15.5l13 4.5
c8.66699 3 19.5 8.5 32.5 16.5s26.667 19.167 41 33.5s27.166 33.166 38.499 56.499c8 19.333 14 37.833 18 55.5s6.66699 34 8 49s2 27 2 36v13.5h92z" />
    <glyph glyph-name="maitrilowleftthai" unicode="&#x2c6;" 
d="M-236 1262c-1.33301 -20.667 -4.66504 -42.001 -9.99805 -64.001c-4 -19.333 -10 -39.5 -18 -60.5s-19 -41.167 -33 -60.5c-26 -32.667 -53.333 -58.167 -82 -76.5s-55.334 -32 -80.001 -41s-44.834 -14.167 -60.501 -15.5l-23.5 -2v41c0 1.33301 6.16699 10.5 18.5 27.5
s19.833 45.5 22.5 85.5c0 16 -2.33301 29.833 -7 41.5s-10.334 21.5 -17.001 29.5c-7.33301 10 -15.666 17.667 -24.999 23l-74 -64l-75 64c-7.33301 -1.33301 -13.666 -4.66602 -18.999 -9.99902c-5.33301 -4 -10.333 -8.83301 -15 -14.5s-9.33398 -13.834 -14.001 -24.501
c-6.66699 -18 -10 -36.5 -10 -55.5s3.33301 -36.833 10 -53.5c7.33301 -16 16.833 -27.5 28.5 -34.5s17.5 -9.83301 17.5 -8.5c1.33301 -1.33301 -1.16699 2.83398 -7.5 12.501s-6.16602 23.167 0.500977 40.5c6 15.333 17.833 24.666 35.5 27.999s33.834 1 48.501 -7
c10 -5.33301 17.333 -13.166 22 -23.499s7 -20.666 7 -30.999s-2 -20.166 -6 -29.499s-9.33301 -17 -16 -23c-26 -18.667 -54.5 -24.334 -85.5 -17.001s-55.167 20 -72.5 38c-26 26 -40.667 59.833 -44 101.5s3 76.834 19 105.501c18 30 38.5 49.667 61.5 59
s35.5 14 37.5 14l77 -71l78 69l11.5 -3c7.66699 -2 16.167 -5.33301 25.5 -10s19.166 -11.834 29.499 -21.501s18.833 -22.5 25.5 -38.5c11.333 -24.667 16 -48.334 14 -71.001s-6.16699 -42.167 -12.5 -58.5s-12.5 -29.666 -18.5 -39.999l-9 -15.5l13 4.5
c8.66699 3 19.5 8.5 32.5 16.5s26.667 19.167 41 33.5s27.166 33.166 38.499 56.499c8 19.333 14 37.833 18 55.5s6.66699 34 8 49s2 27 2 36v13.5h92z" />
    <glyph glyph-name="maichattawalowleftthai" 
d="M-393 1067v-127h-115v127h-113v70h113v123h115v-123h112v-70h-112z" />
    <glyph glyph-name="maichattawalowleftthai" unicode="&#xf708;" 
d="M-393 1067v-127h-115v127h-113v70h113v123h115v-123h112v-70h-112z" />
    <glyph glyph-name="maichattawalowleftthai" unicode="&#x2030;" 
d="M-393 1067v-127h-115v127h-113v70h113v123h115v-123h112v-70h-112z" />
    <glyph glyph-name="thanthakhatlowleftthai" 
d="M-213 1356c-1.33301 -18 -4.66699 -35 -10 -51c-5.33301 -15.333 -14.166 -30.5 -26.499 -45.5s-29.5 -28.5 -51.5 -40.5c-20.667 -11.333 -40.167 -20 -58.5 -26s-35.166 -10.333 -50.499 -13c-16 -4 -32.333 -7 -49 -9c8.66699 -6.66699 16.334 -14 23.001 -22
c14.667 -16.667 22.667 -40 24 -70c1.33301 -39.333 -12.334 -73.333 -41.001 -102s-67.334 -39.667 -116.001 -33c-30 4 -54 15 -72 33s-30.333 38.5 -37 61.5s-7.66699 46.833 -3 71.5s15.334 45 32.001 61c17.333 19.333 36.666 32.5 57.999 39.5
s43.666 12.5 66.999 16.5s46.833 8.66699 70.5 14s47.167 16.333 70.5 33c18 12 31.667 27 41 45s16 35 20 51c6 19.333 9 39.333 9 60zM-545.001 1008c22 0 38.833 7.16699 50.5 21.5s17.167 29.666 16.5 45.999s-6.83398 31.666 -18.501 45.999s-28.5 21.5 -50.5 21.5
c-23.333 0 -40.333 -7.16699 -51 -21.5s-15.667 -29.666 -15 -45.999s6.33398 -31.666 17.001 -45.999s27.667 -21.5 51 -21.5z" />
    <glyph glyph-name="thanthakhatlowleftthai" unicode="&#xf709;" 
d="M-213 1356c-1.33301 -18 -4.66699 -35 -10 -51c-5.33301 -15.333 -14.166 -30.5 -26.499 -45.5s-29.5 -28.5 -51.5 -40.5c-20.667 -11.333 -40.167 -20 -58.5 -26s-35.166 -10.333 -50.499 -13c-16 -4 -32.333 -7 -49 -9c8.66699 -6.66699 16.334 -14 23.001 -22
c14.667 -16.667 22.667 -40 24 -70c1.33301 -39.333 -12.334 -73.333 -41.001 -102s-67.334 -39.667 -116.001 -33c-30 4 -54 15 -72 33s-30.333 38.5 -37 61.5s-7.66699 46.833 -3 71.5s15.334 45 32.001 61c17.333 19.333 36.666 32.5 57.999 39.5
s43.666 12.5 66.999 16.5s46.833 8.66699 70.5 14s47.167 16.333 70.5 33c18 12 31.667 27 41 45s16 35 20 51c6 19.333 9 39.333 9 60zM-545.001 1008c22 0 38.833 7.16699 50.5 21.5s17.167 29.666 16.5 45.999s-6.83398 31.666 -18.501 45.999s-28.5 21.5 -50.5 21.5
c-23.333 0 -40.333 -7.16699 -51 -21.5s-15.667 -29.666 -15 -45.999s6.33398 -31.666 17.001 -45.999s27.667 -21.5 51 -21.5z" />
    <glyph glyph-name="thanthakhatlowleftthai" unicode="&#x160;" 
d="M-213 1356c-1.33301 -18 -4.66699 -35 -10 -51c-5.33301 -15.333 -14.166 -30.5 -26.499 -45.5s-29.5 -28.5 -51.5 -40.5c-20.667 -11.333 -40.167 -20 -58.5 -26s-35.166 -10.333 -50.499 -13c-16 -4 -32.333 -7 -49 -9c8.66699 -6.66699 16.334 -14 23.001 -22
c14.667 -16.667 22.667 -40 24 -70c1.33301 -39.333 -12.334 -73.333 -41.001 -102s-67.334 -39.667 -116.001 -33c-30 4 -54 15 -72 33s-30.333 38.5 -37 61.5s-7.66699 46.833 -3 71.5s15.334 45 32.001 61c17.333 19.333 36.666 32.5 57.999 39.5
s43.666 12.5 66.999 16.5s46.833 8.66699 70.5 14s47.167 16.333 70.5 33c18 12 31.667 27 41 45s16 35 20 51c6 19.333 9 39.333 9 60zM-545.001 1008c22 0 38.833 7.16699 50.5 21.5s17.167 29.666 16.5 45.999s-6.83398 31.666 -18.501 45.999s-28.5 21.5 -50.5 21.5
c-23.333 0 -40.333 -7.16699 -51 -21.5s-15.667 -29.666 -15 -45.999s6.33398 -31.666 17.001 -45.999s27.667 -21.5 51 -21.5z" />
    <glyph glyph-name="maieklowrightthai" 
d="M-164 1008h-88l-29 266h142z" />
    <glyph glyph-name="maieklowrightthai" unicode="&#xf70a;" 
d="M-164 1008h-88l-29 266h142z" />
    <glyph glyph-name="maieklowrightthai" unicode="&#x2039;" 
d="M-164 1008h-88l-29 266h142z" />
    <glyph glyph-name="maitholowrightthai" 
d="M72 1268c1.33301 0 -0.498047 -7.83301 -5.49805 -23.5s-13.5 -35.834 -25.5 -60.501s-29 -51 -51 -79s-49.333 -54.333 -82 -79c-34 -26 -72.5 -45.167 -115.5 -57.5s-83.333 -20.5 -121 -24.5s-69.167 -5.66699 -94.5 -5s-38 1.66699 -38 3v43
c0 1.33301 5.5 3.33301 16.5 6s23.167 9 36.5 19c7.33301 4 12.666 8.33301 15.999 13l9 13c4 5.33301 6.66699 10.333 8 15c1.33301 2.66699 -4.5 4.33398 -17.5 5.00098s-26.833 5 -41.5 13c-18 10.667 -30.333 24.667 -37 42s-9.33398 36 -8.00098 56
c2.66699 34.667 15.5 60.5 38.5 77.5s49.167 25.5 78.5 25.5c43.333 1.33301 74.833 -11.334 94.5 -38.001s27.5 -57 23.5 -91c-2.66699 -23.333 -9.5 -44.166 -20.5 -62.499s-22.5 -33.833 -34.5 -46.5c-15.333 -14.667 -31 -26.334 -47 -35.001
c0 -1.33301 6.5 -1.33301 19.5 0s29 4.5 48 9.5s40.167 12.5 63.5 22.5s45 23.333 65 40c24.667 20.667 43.5 42.834 56.5 66.501s22 45.167 27 64.5s7.83301 35.5 8.5 48.5l1 19.5h129zM-359.998 1100c17.333 0 30.835 6.16895 40.502 18.502s14.5 25.666 14.5 39.999
s-4.83301 27.666 -14.5 39.999s-23.834 18.5 -42.501 18.5c-19.333 0 -33.833 -6.16699 -43.5 -18.5s-14.5 -26 -14.5 -41s5.16699 -28.333 15.5 -40s25.166 -17.5 44.499 -17.5z" />
    <glyph glyph-name="maitholowrightthai" unicode="&#xf70b;" 
d="M72 1268c1.33301 0 -0.498047 -7.83301 -5.49805 -23.5s-13.5 -35.834 -25.5 -60.501s-29 -51 -51 -79s-49.333 -54.333 -82 -79c-34 -26 -72.5 -45.167 -115.5 -57.5s-83.333 -20.5 -121 -24.5s-69.167 -5.66699 -94.5 -5s-38 1.66699 -38 3v43
c0 1.33301 5.5 3.33301 16.5 6s23.167 9 36.5 19c7.33301 4 12.666 8.33301 15.999 13l9 13c4 5.33301 6.66699 10.333 8 15c1.33301 2.66699 -4.5 4.33398 -17.5 5.00098s-26.833 5 -41.5 13c-18 10.667 -30.333 24.667 -37 42s-9.33398 36 -8.00098 56
c2.66699 34.667 15.5 60.5 38.5 77.5s49.167 25.5 78.5 25.5c43.333 1.33301 74.833 -11.334 94.5 -38.001s27.5 -57 23.5 -91c-2.66699 -23.333 -9.5 -44.166 -20.5 -62.499s-22.5 -33.833 -34.5 -46.5c-15.333 -14.667 -31 -26.334 -47 -35.001
c0 -1.33301 6.5 -1.33301 19.5 0s29 4.5 48 9.5s40.167 12.5 63.5 22.5s45 23.333 65 40c24.667 20.667 43.5 42.834 56.5 66.501s22 45.167 27 64.5s7.83301 35.5 8.5 48.5l1 19.5h129zM-359.998 1100c17.333 0 30.835 6.16895 40.502 18.502s14.5 25.666 14.5 39.999
s-4.83301 27.666 -14.5 39.999s-23.834 18.5 -42.501 18.5c-19.333 0 -33.833 -6.16699 -43.5 -18.5s-14.5 -26 -14.5 -41s5.16699 -28.333 15.5 -40s25.166 -17.5 44.499 -17.5z" />
    <glyph glyph-name="maitholowrightthai" unicode="&#x152;" 
d="M72 1268c1.33301 0 -0.498047 -7.83301 -5.49805 -23.5s-13.5 -35.834 -25.5 -60.501s-29 -51 -51 -79s-49.333 -54.333 -82 -79c-34 -26 -72.5 -45.167 -115.5 -57.5s-83.333 -20.5 -121 -24.5s-69.167 -5.66699 -94.5 -5s-38 1.66699 -38 3v43
c0 1.33301 5.5 3.33301 16.5 6s23.167 9 36.5 19c7.33301 4 12.666 8.33301 15.999 13l9 13c4 5.33301 6.66699 10.333 8 15c1.33301 2.66699 -4.5 4.33398 -17.5 5.00098s-26.833 5 -41.5 13c-18 10.667 -30.333 24.667 -37 42s-9.33398 36 -8.00098 56
c2.66699 34.667 15.5 60.5 38.5 77.5s49.167 25.5 78.5 25.5c43.333 1.33301 74.833 -11.334 94.5 -38.001s27.5 -57 23.5 -91c-2.66699 -23.333 -9.5 -44.166 -20.5 -62.499s-22.5 -33.833 -34.5 -46.5c-15.333 -14.667 -31 -26.334 -47 -35.001
c0 -1.33301 6.5 -1.33301 19.5 0s29 4.5 48 9.5s40.167 12.5 63.5 22.5s45 23.333 65 40c24.667 20.667 43.5 42.834 56.5 66.501s22 45.167 27 64.5s7.83301 35.5 8.5 48.5l1 19.5h129zM-359.998 1100c17.333 0 30.835 6.16895 40.502 18.502s14.5 25.666 14.5 39.999
s-4.83301 27.666 -14.5 39.999s-23.834 18.5 -42.501 18.5c-19.333 0 -33.833 -6.16699 -43.5 -18.5s-14.5 -26 -14.5 -41s5.16699 -28.333 15.5 -40s25.166 -17.5 44.499 -17.5z" />
    <glyph glyph-name="maitrilowrightthai" 
d="M55 1262c-1.33301 -20.667 -4.66211 -42.001 -9.99512 -64.001c-4 -19.333 -9.83301 -39.5 -17.5 -60.5s-18.834 -41.167 -33.501 -60.5c-26 -32.667 -53.333 -58.167 -82 -76.5s-55.334 -32 -80.001 -41s-44.834 -14.167 -60.501 -15.5l-23.5 -2v41
c0 1.33301 6.16699 10.5 18.5 27.5s19.833 45.5 22.5 85.5c0 16 -2.33301 29.833 -7 41.5s-10.667 21.5 -18 29.5c-6.66699 10 -14.667 17.667 -24 23l-74 -64l-76 64c-6.66699 -1.33301 -12.667 -4.66602 -18 -9.99902c-5.33301 -4 -10.5 -8.83301 -15.5 -14.5
s-9.5 -13.834 -13.5 -24.501c-6.66699 -18 -10 -36.5 -10 -55.5s3.33301 -36.833 10 -53.5c7.33301 -16 16.666 -27.5 27.999 -34.5s17 -9.83301 17 -8.5c1.33301 -1.33301 -1 2.83398 -7 12.501s-5.66699 23.167 1 40.5c5.33301 15.333 17 24.666 35 27.999s34.333 1 49 -7
c10 -5.33301 17.333 -13.166 22 -23.499s7 -20.666 7 -30.999s-2 -20.166 -6 -29.499s-9.66699 -17 -17 -23c-26 -18.667 -54.333 -24.334 -85 -17.001s-54.667 20 -72 38c-26 26 -40.833 59.833 -44.5 101.5s2.83301 76.834 19.5 105.501c18 30 38.5 49.667 61.5 59
s35.167 14 36.5 14l78 -71l78 69l11.5 -3c7.66699 -2 16.167 -5.33301 25.5 -10s19.166 -11.834 29.499 -21.501s18.833 -22.5 25.5 -38.5c11.333 -24.667 15.833 -48.334 13.5 -71.001s-6.5 -42.167 -12.5 -58.5s-12 -29.666 -18 -39.999l-9 -15.5l13 4.5
c8.66699 3 19.5 8.5 32.5 16.5s26.667 19.167 41 33.5s26.833 33.166 37.5 56.499c8.66699 19.333 15 37.833 19 55.5s6.66699 34 8 49s2 27 2 36v13.5h92z" />
    <glyph glyph-name="maitrilowrightthai" unicode="&#xf70c;" 
d="M55 1262c-1.33301 -20.667 -4.66211 -42.001 -9.99512 -64.001c-4 -19.333 -9.83301 -39.5 -17.5 -60.5s-18.834 -41.167 -33.501 -60.5c-26 -32.667 -53.333 -58.167 -82 -76.5s-55.334 -32 -80.001 -41s-44.834 -14.167 -60.501 -15.5l-23.5 -2v41
c0 1.33301 6.16699 10.5 18.5 27.5s19.833 45.5 22.5 85.5c0 16 -2.33301 29.833 -7 41.5s-10.667 21.5 -18 29.5c-6.66699 10 -14.667 17.667 -24 23l-74 -64l-76 64c-6.66699 -1.33301 -12.667 -4.66602 -18 -9.99902c-5.33301 -4 -10.5 -8.83301 -15.5 -14.5
s-9.5 -13.834 -13.5 -24.501c-6.66699 -18 -10 -36.5 -10 -55.5s3.33301 -36.833 10 -53.5c7.33301 -16 16.666 -27.5 27.999 -34.5s17 -9.83301 17 -8.5c1.33301 -1.33301 -1 2.83398 -7 12.501s-5.66699 23.167 1 40.5c5.33301 15.333 17 24.666 35 27.999s34.333 1 49 -7
c10 -5.33301 17.333 -13.166 22 -23.499s7 -20.666 7 -30.999s-2 -20.166 -6 -29.499s-9.66699 -17 -17 -23c-26 -18.667 -54.333 -24.334 -85 -17.001s-54.667 20 -72 38c-26 26 -40.833 59.833 -44.5 101.5s2.83301 76.834 19.5 105.501c18 30 38.5 49.667 61.5 59
s35.167 14 36.5 14l78 -71l78 69l11.5 -3c7.66699 -2 16.167 -5.33301 25.5 -10s19.166 -11.834 29.499 -21.501s18.833 -22.5 25.5 -38.5c11.333 -24.667 15.833 -48.334 13.5 -71.001s-6.5 -42.167 -12.5 -58.5s-12 -29.666 -18 -39.999l-9 -15.5l13 4.5
c8.66699 3 19.5 8.5 32.5 16.5s26.667 19.167 41 33.5s26.833 33.166 37.5 56.499c8.66699 19.333 15 37.833 19 55.5s6.66699 34 8 49s2 27 2 36v13.5h92z" />
    <glyph glyph-name="maichattawalowrightthai" 
d="M-135 1067v-127h-115v127h-112v70h112v123h115v-123h112v-70h-112z" />
    <glyph glyph-name="maichattawalowrightthai" unicode="&#xf70d;" 
d="M-135 1067v-127h-115v127h-112v70h112v123h115v-123h112v-70h-112z" />
    <glyph glyph-name="maichattawalowrightthai" unicode="&#x17d;" 
d="M-135 1067v-127h-115v127h-112v70h112v123h115v-123h112v-70h-112z" />
    <glyph glyph-name="thanthakhatlowrightthai" 
d="M-319 922l0.000976562 39c0 13.333 -2.83301 23.833 -8.5 31.5s-15.834 11.5 -30.501 11.5h-23v61h37c27.333 0 48.5 -5.5 63.5 -16.5s22.5 -27.5 22.5 -49.5v-16h258v-61h-319z" />
    <glyph glyph-name="thanthakhatlowrightthai" unicode="&#xf70e;" 
d="M-319 922l0.000976562 39c0 13.333 -2.83301 23.833 -8.5 31.5s-15.834 11.5 -30.501 11.5h-23v61h37c27.333 0 48.5 -5.5 63.5 -16.5s22.5 -27.5 22.5 -49.5v-16h258v-61h-319z" />
    <glyph glyph-name="yoyingnobasethai" horiz-adv-x="1311" 
d="M1239 246c0 -41.333 -7.83496 -78 -23.502 -110s-37.167 -59.333 -64.5 -82s-58.666 -39.667 -93.999 -51s-73.666 -17 -114.999 -17c-40.667 0 -78.834 5.66699 -114.501 17s-67.167 28.333 -94.5 51s-48.833 50 -64.5 82s-23.5 68.667 -23.5 110v303
c0 73.333 -24.833 128.833 -74.5 166.5s-110.167 56.5 -181.5 56.5c-113.333 0 -198.666 -41 -255.999 -123v-588h123v-61h-184v668c74.667 110.667 180.334 166 317.001 166c42.667 0 83 -5.5 121 -16.5s71.667 -27.833 101 -50.5s52.666 -50.667 69.999 -84
s26 -72 26 -116v-321c0 -66 22.833 -115.667 68.5 -149s101.167 -50 166.5 -50s121 16.667 167 50s69 83 69 149v573h61v-573z" />
    <glyph glyph-name="yoyingnobasethai" unicode="&#xf70f;" horiz-adv-x="1311" 
d="M1239 246c0 -41.333 -7.83496 -78 -23.502 -110s-37.167 -59.333 -64.5 -82s-58.666 -39.667 -93.999 -51s-73.666 -17 -114.999 -17c-40.667 0 -78.834 5.66699 -114.501 17s-67.167 28.333 -94.5 51s-48.833 50 -64.5 82s-23.5 68.667 -23.5 110v303
c0 73.333 -24.833 128.833 -74.5 166.5s-110.167 56.5 -181.5 56.5c-113.333 0 -198.666 -41 -255.999 -123v-588h123v-61h-184v668c74.667 110.667 180.334 166 317.001 166c42.667 0 83 -5.5 121 -16.5s71.667 -27.833 101 -50.5s52.666 -50.667 69.999 -84
s26 -72 26 -116v-321c0 -66 22.833 -115.667 68.5 -149s101.167 -50 166.5 -50s121 16.667 167 50s69 83 69 149v573h61v-573z" />
    <glyph glyph-name="quoteleft" horiz-adv-x="385" 
d="M260 848c0 -19.333 -7.16699 -36.833 -21.5 -52.5s-33.166 -23.5 -56.499 -23.5c-30 0 -52.5 10.667 -67.5 32s-22.5 44.666 -22.5 69.999c0 33.333 12.333 69.333 37 108s61 73 109 103l22 -24c-32.667 -19.333 -57.834 -42 -75.501 -68s-33.5 -56 -47.5 -90
c14 6.66699 24.667 10.834 32 12.501s14.333 2.5 21 2.5c19.333 0 35.833 -6.83301 49.5 -20.5s20.5 -30.167 20.5 -49.5z" />
    <glyph glyph-name="quoteleft" unicode="&#x2018;" horiz-adv-x="385" 
d="M260 848c0 -19.333 -7.16699 -36.833 -21.5 -52.5s-33.166 -23.5 -56.499 -23.5c-30 0 -52.5 10.667 -67.5 32s-22.5 44.666 -22.5 69.999c0 33.333 12.333 69.333 37 108s61 73 109 103l22 -24c-32.667 -19.333 -57.834 -42 -75.501 -68s-33.5 -56 -47.5 -90
c14 6.66699 24.667 10.834 32 12.501s14.333 2.5 21 2.5c19.333 0 35.833 -6.83301 49.5 -20.5s20.5 -30.167 20.5 -49.5z" />
    <glyph glyph-name="quoteright" horiz-adv-x="385" 
d="M260 983c0 -32.667 -12.3301 -68.501 -36.9971 -107.501s-60.667 -73.5 -108 -103.5l-23 25c32.667 18.667 58 41 76 67s34.333 56.667 49 92c-14.667 -6.66699 -25.834 -11 -33.501 -13s-14.834 -3 -21.501 -3c-19.333 0 -35.833 6.83301 -49.5 20.5
s-20.5 30.167 -20.5 49.5c0 18.667 7.16699 35.834 21.5 51.501s33.166 23.5 56.499 23.5c30 0 52.5 -10.5 67.5 -31.5s22.5 -44.5 22.5 -70.5z" />
    <glyph glyph-name="quoteright" unicode="&#x2019;" horiz-adv-x="385" 
d="M260 983c0 -32.667 -12.3301 -68.501 -36.9971 -107.501s-60.667 -73.5 -108 -103.5l-23 25c32.667 18.667 58 41 76 67s34.333 56.667 49 92c-14.667 -6.66699 -25.834 -11 -33.501 -13s-14.834 -3 -21.501 -3c-19.333 0 -35.833 6.83301 -49.5 20.5
s-20.5 30.167 -20.5 49.5c0 18.667 7.16699 35.834 21.5 51.501s33.166 23.5 56.499 23.5c30 0 52.5 -10.5 67.5 -31.5s22.5 -44.5 22.5 -70.5z" />
    <glyph glyph-name="quotedblleft" horiz-adv-x="598" 
d="M506 848c0 -19.333 -7.16895 -36.833 -21.502 -52.5s-33.166 -23.5 -56.499 -23.5c-30 0 -52.5 10.667 -67.5 32s-22.5 44.666 -22.5 69.999c0 33.333 12.333 69.333 37 108s60.667 73 108 103l23 -24c-32.667 -19.333 -58 -42 -76 -68s-33.667 -56 -47 -90
c13.333 6.66699 23.833 10.834 31.5 12.501s14.834 2.5 21.501 2.5c19.333 0 35.833 -6.83301 49.5 -20.5s20.5 -30.167 20.5 -49.5zM259.998 848c0 -19.333 -7.16699 -36.833 -21.5 -52.5s-33.166 -23.5 -56.499 -23.5c-30 0 -52.5 10.667 -67.5 32
s-22.5 44.666 -22.5 69.999c0 33.333 12.333 69.333 37 108s61 73 109 103l22 -24c-32.667 -19.333 -57.834 -42 -75.501 -68s-33.5 -56 -47.5 -90c14 6.66699 24.667 10.834 32 12.501s14.333 2.5 21 2.5c19.333 0 35.833 -6.83301 49.5 -20.5s20.5 -30.167 20.5 -49.5z
" />
    <glyph glyph-name="quotedblleft" unicode="&#x201c;" horiz-adv-x="598" 
d="M506 848c0 -19.333 -7.16895 -36.833 -21.502 -52.5s-33.166 -23.5 -56.499 -23.5c-30 0 -52.5 10.667 -67.5 32s-22.5 44.666 -22.5 69.999c0 33.333 12.333 69.333 37 108s60.667 73 108 103l23 -24c-32.667 -19.333 -58 -42 -76 -68s-33.667 -56 -47 -90
c13.333 6.66699 23.833 10.834 31.5 12.501s14.834 2.5 21.501 2.5c19.333 0 35.833 -6.83301 49.5 -20.5s20.5 -30.167 20.5 -49.5zM259.998 848c0 -19.333 -7.16699 -36.833 -21.5 -52.5s-33.166 -23.5 -56.499 -23.5c-30 0 -52.5 10.667 -67.5 32
s-22.5 44.666 -22.5 69.999c0 33.333 12.333 69.333 37 108s61 73 109 103l22 -24c-32.667 -19.333 -57.834 -42 -75.501 -68s-33.5 -56 -47.5 -90c14 6.66699 24.667 10.834 32 12.501s14.333 2.5 21 2.5c19.333 0 35.833 -6.83301 49.5 -20.5s20.5 -30.167 20.5 -49.5z
" />
    <glyph glyph-name="quotedblright" horiz-adv-x="631" 
d="M506 983c0 -32.667 -12.334 -68.501 -37.001 -107.501s-61 -73.5 -109 -103.5l-22 25c32.667 18.667 57.834 41 75.501 67s34.167 56.667 49.5 92c-15.333 -6.66699 -26.666 -11 -33.999 -13s-14.333 -3 -21 -3c-19.333 0 -35.833 6.83301 -49.5 20.5
s-20.5 30.167 -20.5 49.5c0 18.667 7.16699 35.834 21.5 51.501s33.166 23.5 56.499 23.5c30 0 52.5 -10.5 67.5 -31.5s22.5 -44.5 22.5 -70.5zM259.999 982.999c0 -32.667 -12.3301 -68.501 -36.9971 -107.501s-60.667 -73.5 -108 -103.5l-23 25c32.667 18.667 58 41 76 67
s34.333 56.667 49 92c-14.667 -6.66699 -25.834 -11 -33.501 -13s-14.834 -3 -21.501 -3c-19.333 0 -35.833 6.83301 -49.5 20.5s-20.5 30.167 -20.5 49.5c0 18.667 7.16699 35.834 21.5 51.501s33.166 23.5 56.499 23.5c30 0 52.5 -10.5 67.5 -31.5s22.5 -44.5 22.5 -70.5z
" />
    <glyph glyph-name="quotedblright" unicode="&#x201d;" horiz-adv-x="631" 
d="M506 983c0 -32.667 -12.334 -68.501 -37.001 -107.501s-61 -73.5 -109 -103.5l-22 25c32.667 18.667 57.834 41 75.501 67s34.167 56.667 49.5 92c-15.333 -6.66699 -26.666 -11 -33.999 -13s-14.333 -3 -21 -3c-19.333 0 -35.833 6.83301 -49.5 20.5
s-20.5 30.167 -20.5 49.5c0 18.667 7.16699 35.834 21.5 51.501s33.166 23.5 56.499 23.5c30 0 52.5 -10.5 67.5 -31.5s22.5 -44.5 22.5 -70.5zM259.999 982.999c0 -32.667 -12.3301 -68.501 -36.9971 -107.501s-60.667 -73.5 -108 -103.5l-23 25c32.667 18.667 58 41 76 67
s34.333 56.667 49 92c-14.667 -6.66699 -25.834 -11 -33.501 -13s-14.834 -3 -21.501 -3c-19.333 0 -35.833 6.83301 -49.5 20.5s-20.5 30.167 -20.5 49.5c0 18.667 7.16699 35.834 21.5 51.501s33.166 23.5 56.499 23.5c30 0 52.5 -10.5 67.5 -31.5s22.5 -44.5 22.5 -70.5z
" />
    <glyph glyph-name="bullet" horiz-adv-x="737" 
d="M676 410c0 -42.667 -8.16699 -82.834 -24.5 -120.501s-38.166 -70 -65.499 -97s-59.833 -48.833 -97.5 -65.5s-77.5 -25 -119.5 -25c-42.667 0 -82.667 8.33301 -120 25s-69.666 38.5 -96.999 65.5s-49.333 59.333 -66 97s-25 77.834 -25 120.501
c0 42 8.33301 81.833 25 119.5s38.667 70.167 66 97.5s59.666 49.166 96.999 65.499s77.333 24.5 120 24.5c42 0 81.833 -8.16699 119.5 -24.5s70.167 -38.166 97.5 -65.499s49.166 -59.833 65.499 -97.5s24.5 -77.5 24.5 -119.5z" />
    <glyph glyph-name="bullet" unicode="&#x2022;" horiz-adv-x="737" 
d="M676 410c0 -42.667 -8.16699 -82.834 -24.5 -120.501s-38.166 -70 -65.499 -97s-59.833 -48.833 -97.5 -65.5s-77.5 -25 -119.5 -25c-42.667 0 -82.667 8.33301 -120 25s-69.666 38.5 -96.999 65.5s-49.333 59.333 -66 97s-25 77.834 -25 120.501
c0 42 8.33301 81.833 25 119.5s38.667 70.167 66 97.5s59.666 49.166 96.999 65.499s77.333 24.5 120 24.5c42 0 81.833 -8.16699 119.5 -24.5s70.167 -38.166 97.5 -65.499s49.166 -59.833 65.499 -97.5s24.5 -77.5 24.5 -119.5z" />
    <glyph glyph-name="endash" horiz-adv-x="778" 
d="M61 328v61h656v-61h-656z" />
    <glyph glyph-name="endash" unicode="&#x2013;" horiz-adv-x="778" 
d="M61 328v61h656v-61h-656z" />
    <glyph glyph-name="emdash" horiz-adv-x="1556" 
d="M61 328v61h1434v-61h-1434z" />
    <glyph glyph-name="emdash" unicode="&#x2014;" horiz-adv-x="1556" 
d="M61 328v61h1434v-61h-1434z" />
    <glyph glyph-name="maihanakatleftthai" 
d="M-461 922v122h62v-61h471v-61h-533z" />
    <glyph glyph-name="maihanakatleftthai" unicode="&#xf710;" 
d="M-461 922v122h62v-61h471v-61h-533z" />
    <glyph glyph-name="maihanakatleftthai" unicode="&#x2dc;" 
d="M-461 922v122h62v-61h471v-61h-533z" />
    <glyph glyph-name="nikhahitleftthai" 
d="M-178 1008c0 -23.333 -8.83301 -43.5 -26.5 -60.5s-38.167 -25.5 -61.5 -25.5s-43.833 8.5 -61.5 25.5s-26.5 37.167 -26.5 60.5c0 22.667 8.83301 43 26.5 61s38.167 27 61.5 27s43.833 -9 61.5 -27s26.5 -38.333 26.5 -61zM-225 1008c0 10.667 -4.5 20.5 -13.5 29.5
s-18.833 13.5 -29.5 13.5c-11.333 0 -21.333 -4.5 -30 -13.5s-13 -18.833 -13 -29.5c0 -11.333 4.33301 -21.333 13 -30s18.667 -13 30 -13c10.667 0 20.5 4.33301 29.5 13s13.5 18.667 13.5 30z" />
    <glyph glyph-name="nikhahitleftthai" unicode="&#xf711;" 
d="M-178 1008c0 -23.333 -8.83301 -43.5 -26.5 -60.5s-38.167 -25.5 -61.5 -25.5s-43.833 8.5 -61.5 25.5s-26.5 37.167 -26.5 60.5c0 22.667 8.83301 43 26.5 61s38.167 27 61.5 27s43.833 -9 61.5 -27s26.5 -38.333 26.5 -61zM-225 1008c0 10.667 -4.5 20.5 -13.5 29.5
s-18.833 13.5 -29.5 13.5c-11.333 0 -21.333 -4.5 -30 -13.5s-13 -18.833 -13 -29.5c0 -11.333 4.33301 -21.333 13 -30s18.667 -13 30 -13c10.667 0 20.5 4.33301 29.5 13s13.5 18.667 13.5 30z" />
    <glyph glyph-name="nikhahitleftthai" unicode="&#x2122;" 
d="M-178 1008c0 -23.333 -8.83301 -43.5 -26.5 -60.5s-38.167 -25.5 -61.5 -25.5s-43.833 8.5 -61.5 25.5s-26.5 37.167 -26.5 60.5c0 22.667 8.83301 43 26.5 61s38.167 27 61.5 27s43.833 -9 61.5 -27s26.5 -38.333 26.5 -61zM-225 1008c0 10.667 -4.5 20.5 -13.5 29.5
s-18.833 13.5 -29.5 13.5c-11.333 0 -21.333 -4.5 -30 -13.5s-13 -18.833 -13 -29.5c0 -11.333 4.33301 -21.333 13 -30s18.667 -13 30 -13c10.667 0 20.5 4.33301 29.5 13s13.5 18.667 13.5 30z" />
    <glyph glyph-name="maitaikhuleftthai" 
d="M-500 1079c-36.667 0 -66.333 -7.83203 -89 -23.499s-34 -38.5 -34 -68.5v-8h88l113 68l107 -68h118v-57h-127l-98 65l-100 -65h-162v57c0 43.333 15.333 80.166 46 110.499s78.667 45.5 144 45.5h363v-56h-369z" />
    <glyph glyph-name="maitaikhuleftthai" unicode="&#xf712;" 
d="M-500 1079c-36.667 0 -66.333 -7.83203 -89 -23.499s-34 -38.5 -34 -68.5v-8h88l113 68l107 -68h118v-57h-127l-98 65l-100 -65h-162v57c0 43.333 15.333 80.166 46 110.499s78.667 45.5 144 45.5h363v-56h-369z" />
    <glyph glyph-name="maitaikhuleftthai" unicode="&#x161;" 
d="M-500 1079c-36.667 0 -66.333 -7.83203 -89 -23.499s-34 -38.5 -34 -68.5v-8h88l113 68l107 -68h118v-57h-127l-98 65l-100 -65h-162v57c0 43.333 15.333 80.166 46 110.499s78.667 45.5 144 45.5h363v-56h-369z" />
    <glyph glyph-name="maiekupperleftthai" 
d="M-297 1147v143h61v-143h-61z" />
    <glyph glyph-name="maiekupperleftthai" unicode="&#xf713;" 
d="M-297 1147v143h61v-143h-61z" />
    <glyph glyph-name="maiekupperleftthai" unicode="&#x203a;" 
d="M-297 1147v143h61v-143h-61z" />
    <glyph glyph-name="maithoupperleftthai" 
d="M-356 1147v37c0 12 -2.5 21.833 -7.5 29.5s-14.833 11.5 -29.5 11.5h-21v57h35c54.667 0 82 -20.333 82 -61v-17h246v-57h-305z" />
    <glyph glyph-name="maithoupperleftthai" unicode="&#xf714;" 
d="M-356 1147v37c0 12 -2.5 21.833 -7.5 29.5s-14.833 11.5 -29.5 11.5h-21v57h35c54.667 0 82 -20.333 82 -61v-17h246v-57h-305z" />
    <glyph glyph-name="maithoupperleftthai" unicode="&#x153;" 
d="M-356 1147v37c0 12 -2.5 21.833 -7.5 29.5s-14.833 11.5 -29.5 11.5h-21v57h35c54.667 0 82 -20.333 82 -61v-17h246v-57h-305z" />
    <glyph glyph-name="maitriupperleftthai" 
d="M-74 1147l-0.000976562 57c0 42.667 -21.667 64 -65 64h-6l-78 -70l-78 70h-4c-44 0 -66 -21.333 -66 -64v-2h78v-55h-135v67c0 36 12.333 63.5 37 82.5s54.667 28.5 90 28.5h8l70 -63l71 63h7c36.667 0 67.334 -9.5 92.001 -28.5s37 -46.5 37 -82.5v-10h131v-57h-189z
" />
    <glyph glyph-name="maitriupperleftthai" unicode="&#xf715;" 
d="M-74 1147l-0.000976562 57c0 42.667 -21.667 64 -65 64h-6l-78 -70l-78 70h-4c-44 0 -66 -21.333 -66 -64v-2h78v-55h-135v67c0 36 12.333 63.5 37 82.5s54.667 28.5 90 28.5h8l70 -63l71 63h7c36.667 0 67.334 -9.5 92.001 -28.5s37 -46.5 37 -82.5v-10h131v-57h-189z
" />
    <glyph glyph-name="maichattawaupperleftthai" 
d="M-236 1212v-65h-61v65h-72v50h72v65h61v-65h72v-50h-72z" />
    <glyph glyph-name="maichattawaupperleftthai" unicode="&#xf716;" 
d="M-236 1212v-65h-61v65h-72v50h72v65h61v-65h72v-50h-72z" />
    <glyph glyph-name="maichattawaupperleftthai" unicode="&#x17e;" 
d="M-236 1212v-65h-61v65h-72v50h72v65h61v-65h72v-50h-72z" />
    <glyph glyph-name="thanthakhatupperleftthai" 
d="M-236 1139c-20 0 -35.501 -3.16797 -46.501 -9.50098s-16.5 -18.166 -16.5 -35.499v-29h-61v35c0 34 9.83301 57.833 29.5 71.5s41.834 20.5 66.501 20.5h88v-53h-60z" />
    <glyph glyph-name="thanthakhatupperleftthai" unicode="&#xf717;" 
d="M-236 1139c-20 0 -35.501 -3.16797 -46.501 -9.50098s-16.5 -18.166 -16.5 -35.499v-29h-61v35c0 34 9.83301 57.833 29.5 71.5s41.834 20.5 66.501 20.5h88v-53h-60z" />
    <glyph glyph-name="thanthakhatupperleftthai" unicode="&#x178;" 
d="M-236 1139c-20 0 -35.501 -3.16797 -46.501 -9.50098s-16.5 -18.166 -16.5 -35.499v-29h-61v35c0 34 9.83301 57.833 29.5 71.5s41.834 20.5 66.501 20.5h88v-53h-60z" />
    <glyph glyph-name="uni00A0" unicode="&#xa0;" horiz-adv-x="926" 
 />
    <glyph glyph-name="uni00A0" unicode="&#xe00;" horiz-adv-x="926" 
 />
    <glyph glyph-name="kokaithai" unicode="&#xa1;" horiz-adv-x="778" 
d="M645 0l-0.000976562 549c0 73.333 -24.833 128.833 -74.5 166.5s-110.167 56.5 -181.5 56.5c-113.333 0 -198.666 -41 -255.999 -123v-649h-61v668c74.667 110.667 180.334 166 317.001 166c42.667 0 83 -5.5 121 -16.5s71.667 -27.833 101 -50.5
s52.666 -50.667 69.999 -84s26 -72 26 -116v-567h-62z" />
    <glyph glyph-name="kokaithai" unicode="&#xe01;" horiz-adv-x="778" 
d="M645 0l-0.000976562 549c0 73.333 -24.833 128.833 -74.5 166.5s-110.167 56.5 -181.5 56.5c-113.333 0 -198.666 -41 -255.999 -123v-649h-61v668c74.667 110.667 180.334 166 317.001 166c42.667 0 83 -5.5 121 -16.5s71.667 -27.833 101 -50.5
s52.666 -50.667 69.999 -84s26 -72 26 -116v-567h-62z" />
    <glyph glyph-name="khokhaithai" unicode="&#xa2;" horiz-adv-x="707" 
d="M635 270c0 -40.667 -7.16797 -78.502 -21.501 -113.502s-34.166 -65 -59.499 -90s-55.333 -44.667 -90 -59s-72.667 -21.5 -114 -21.5c-44.667 0 -85.834 8.5 -123.501 25.5s-70.167 40.5 -97.5 70.5s-48.833 65.5 -64.5 106.5s-23.5 85.5 -23.5 133.5
c0 74.667 17.333 139.334 52 194.001s78 104 130 148l-94 133l51 34l123 -172c-61.333 -48.667 -110.166 -99.667 -146.499 -153s-54.5 -114.666 -54.5 -183.999c0 -38.667 6.16699 -74.667 18.5 -108s29.166 -62.333 50.499 -87s47.333 -44.167 78 -58.5
s64.334 -21.5 101.001 -21.5c66 0 119.667 21.167 161 63.5s62 95.5 62 159.5v549h62v-549z" />
    <glyph glyph-name="khokhaithai" unicode="&#xe02;" horiz-adv-x="707" 
d="M635 270c0 -40.667 -7.16797 -78.502 -21.501 -113.502s-34.166 -65 -59.499 -90s-55.333 -44.667 -90 -59s-72.667 -21.5 -114 -21.5c-44.667 0 -85.834 8.5 -123.501 25.5s-70.167 40.5 -97.5 70.5s-48.833 65.5 -64.5 106.5s-23.5 85.5 -23.5 133.5
c0 74.667 17.333 139.334 52 194.001s78 104 130 148l-94 133l51 34l123 -172c-61.333 -48.667 -110.166 -99.667 -146.499 -153s-54.5 -114.666 -54.5 -183.999c0 -38.667 6.16699 -74.667 18.5 -108s29.166 -62.333 50.499 -87s47.333 -44.167 78 -58.5
s64.334 -21.5 101.001 -21.5c66 0 119.667 21.167 161 63.5s62 95.5 62 159.5v549h62v-549z" />
    <glyph glyph-name="khokhuatthai" unicode="&#xa3;" horiz-adv-x="717" 
d="M645 270c0 -40.667 -7.16309 -78.501 -21.4961 -113.501s-34.166 -65 -59.499 -90s-55.333 -44.667 -90 -59s-72.667 -21.5 -114 -21.5c-44.667 0 -85.834 8.16699 -123.501 24.5s-70.167 38.833 -97.5 67.5s-48.833 63.167 -64.5 103.5s-23.5 84.166 -23.5 131.499
c0 72.667 18.5 135.667 55.5 189s84.833 97.666 143.5 132.999v117l-88 -82c-10 12 -22.333 25.667 -37 41c-12.667 12 -27.5 24.833 -44.5 38.5s-37.167 25.834 -60.5 36.501l33 43c19.333 -9.33301 36.166 -18.833 50.499 -28.5s26.166 -18.5 35.499 -26.5
c11.333 -9.33301 21 -19 29 -29l82 74h61v-211c-26 -13.333 -50.833 -29.666 -74.5 -48.999s-44.834 -41.166 -63.501 -65.499s-33.334 -51.5 -44.001 -81.5s-16 -63 -16 -99c0 -77.333 22.833 -141 68.5 -191s105.167 -75 178.5 -75c66 0 119.833 21.167 161.5 63.5
s62.5 95.5 62.5 159.5v549h61v-549z" />
    <glyph glyph-name="khokhuatthai" unicode="&#xe03;" horiz-adv-x="717" 
d="M645 270c0 -40.667 -7.16309 -78.501 -21.4961 -113.501s-34.166 -65 -59.499 -90s-55.333 -44.667 -90 -59s-72.667 -21.5 -114 -21.5c-44.667 0 -85.834 8.16699 -123.501 24.5s-70.167 38.833 -97.5 67.5s-48.833 63.167 -64.5 103.5s-23.5 84.166 -23.5 131.499
c0 72.667 18.5 135.667 55.5 189s84.833 97.666 143.5 132.999v117l-88 -82c-10 12 -22.333 25.667 -37 41c-12.667 12 -27.5 24.833 -44.5 38.5s-37.167 25.834 -60.5 36.501l33 43c19.333 -9.33301 36.166 -18.833 50.499 -28.5s26.166 -18.5 35.499 -26.5
c11.333 -9.33301 21 -19 29 -29l82 74h61v-211c-26 -13.333 -50.833 -29.666 -74.5 -48.999s-44.834 -41.166 -63.501 -65.499s-33.334 -51.5 -44.001 -81.5s-16 -63 -16 -99c0 -77.333 22.833 -141 68.5 -191s105.167 -75 178.5 -75c66 0 119.833 21.167 161.5 63.5
s62.5 95.5 62.5 159.5v549h61v-549z" />
    <glyph glyph-name="khokhwaithai" unicode="&#xa4;" horiz-adv-x="778" 
d="M645 0l-0.00292969 563c0 32.667 -7.16699 61.667 -21.5 87s-33.166 47.166 -56.499 65.499s-50.666 32.333 -81.999 42s-63.333 14.5 -96 14.5s-64.667 -4.83301 -96 -14.5s-58.666 -23.667 -81.999 -42s-42.166 -40.166 -56.499 -65.499s-21.5 -54.333 -21.5 -87v-117
h258v-61h-258v-385h-61v563c0 41.333 8.83301 78.333 26.5 111s41.167 61 70.5 85s63.166 42.5 101.499 55.5s77.833 19.5 118.5 19.5c41.333 0 81 -6.5 119 -19.5s71.667 -31.5 101 -55.5s53 -52.333 71 -85s27 -69.667 27 -111v-563h-62z" />
    <glyph glyph-name="khokhwaithai" unicode="&#xe04;" horiz-adv-x="778" 
d="M645 0l-0.00292969 563c0 32.667 -7.16699 61.667 -21.5 87s-33.166 47.166 -56.499 65.499s-50.666 32.333 -81.999 42s-63.333 14.5 -96 14.5s-64.667 -4.83301 -96 -14.5s-58.666 -23.667 -81.999 -42s-42.166 -40.166 -56.499 -65.499s-21.5 -54.333 -21.5 -87v-117
h258v-61h-258v-385h-61v563c0 41.333 8.83301 78.333 26.5 111s41.167 61 70.5 85s63.166 42.5 101.499 55.5s77.833 19.5 118.5 19.5c41.333 0 81 -6.5 119 -19.5s71.667 -31.5 101 -55.5s53 -52.333 71 -85s27 -69.667 27 -111v-563h-62z" />
    <glyph glyph-name="khokhonthai" unicode="&#xa5;" horiz-adv-x="819" 
d="M686 0l0.000976562 578c0 24 -3.33301 47.333 -10 70s-16.5 43.167 -29.5 61.5s-28.5 33.333 -46.5 45s-37 18.834 -57 21.501l-133 -162l-134 162c-20 -2.66699 -38.833 -9.83398 -56.5 -21.501s-33 -26.667 -46 -45s-23 -38.833 -30 -61.5s-10.5 -46 -10.5 -70v-132
h279v-61h-279v-385h-61v578c0 32.667 5 64.667 15 96s25 58.666 45 81.999s44 42.166 72 56.499s59 21.5 93 21.5l113 -134l112 134c35.333 0 66.666 -7.16699 93.999 -21.5s51 -33.166 71 -56.499s35.167 -50.666 45.5 -81.999s15.5 -63.333 15.5 -96v-578h-62z" />
    <glyph glyph-name="khokhonthai" unicode="&#xe05;" horiz-adv-x="819" 
d="M686 0l0.000976562 578c0 24 -3.33301 47.333 -10 70s-16.5 43.167 -29.5 61.5s-28.5 33.333 -46.5 45s-37 18.834 -57 21.501l-133 -162l-134 162c-20 -2.66699 -38.833 -9.83398 -56.5 -21.501s-33 -26.667 -46 -45s-23 -38.833 -30 -61.5s-10.5 -46 -10.5 -70v-132
h279v-61h-279v-385h-61v578c0 32.667 5 64.667 15 96s25 58.666 45 81.999s44 42.166 72 56.499s59 21.5 93 21.5l113 -134l112 134c35.333 0 66.666 -7.16699 93.999 -21.5s51 -33.166 71 -56.499s35.167 -50.666 45.5 -81.999s15.5 -63.333 15.5 -96v-578h-62z" />
    <glyph glyph-name="khorakhangthai" unicode="&#xa6;" horiz-adv-x="788" 
d="M717 256c0 -40.667 -7.83301 -77.502 -23.5 -110.502s-36.834 -61.333 -63.501 -85s-58.167 -42 -94.5 -55s-74.833 -19.5 -115.5 -19.5c-26 0 -52.667 3 -80 9s-53.333 14.833 -78 26.5s-47.167 25.334 -67.5 41.001s-37.5 33.167 -51.5 52.5v-115h-61v504
c0 26 6.83301 46.833 20.5 62.5s28.334 29.334 44.001 41.001s30.334 23.167 44.001 34.5s20.5 26.666 20.5 45.999v66l-96 -74c-8.66699 12 -18.334 24.333 -29.001 37c-9.33301 10.667 -20.833 22.5 -34.5 35.5s-30.167 24.833 -49.5 35.5l37 41
c13.333 -9.33301 25.166 -18.5 35.499 -27.5s18.833 -16.833 25.5 -23.5c8.66699 -8 15.667 -16 21 -24l90 65h61v-145c0 -20.667 -6.83301 -37.5 -20.5 -50.5s-28.334 -25.333 -44.001 -37s-30.334 -24.667 -44.001 -39s-20.5 -32.833 -20.5 -55.5v-218
c0 -32.667 8.33301 -62.667 25 -90s37.834 -51.166 63.501 -71.499s55.334 -36.333 89.001 -48s66.834 -17.5 99.501 -17.5c66.667 0 122.5 18.5 167.5 55.5s67.5 88.167 67.5 153.5v563h62v-563z" />
    <glyph glyph-name="khorakhangthai" unicode="&#xe06;" horiz-adv-x="788" 
d="M717 256c0 -40.667 -7.83301 -77.502 -23.5 -110.502s-36.834 -61.333 -63.501 -85s-58.167 -42 -94.5 -55s-74.833 -19.5 -115.5 -19.5c-26 0 -52.667 3 -80 9s-53.333 14.833 -78 26.5s-47.167 25.334 -67.5 41.001s-37.5 33.167 -51.5 52.5v-115h-61v504
c0 26 6.83301 46.833 20.5 62.5s28.334 29.334 44.001 41.001s30.334 23.167 44.001 34.5s20.5 26.666 20.5 45.999v66l-96 -74c-8.66699 12 -18.334 24.333 -29.001 37c-9.33301 10.667 -20.833 22.5 -34.5 35.5s-30.167 24.833 -49.5 35.5l37 41
c13.333 -9.33301 25.166 -18.5 35.499 -27.5s18.833 -16.833 25.5 -23.5c8.66699 -8 15.667 -16 21 -24l90 65h61v-145c0 -20.667 -6.83301 -37.5 -20.5 -50.5s-28.334 -25.333 -44.001 -37s-30.334 -24.667 -44.001 -39s-20.5 -32.833 -20.5 -55.5v-218
c0 -32.667 8.33301 -62.667 25 -90s37.834 -51.166 63.501 -71.499s55.334 -36.333 89.001 -48s66.834 -17.5 99.501 -17.5c66.667 0 122.5 18.5 167.5 55.5s67.5 88.167 67.5 153.5v563h62v-563z" />
    <glyph glyph-name="ngonguthai" unicode="&#xa7;" horiz-adv-x="737" 
d="M696 412c0 -71.333 -11.834 -134.665 -35.501 -189.998s-57 -100.333 -100 -135s-95.333 -59.5 -157 -74.5s-130.5 -18.5 -206.5 -10.5l-197 805l61 14l187 -764c57.333 -2.66699 109.833 3.16602 157.5 17.499s88.334 36.5 122.001 66.5s60 68 79 114
s28.5 98.333 28.5 157c0 116 -32.167 205.333 -96.5 268s-160.5 88.667 -288.5 78v61c148.667 12.667 260.167 -18.333 334.5 -93s111.5 -179.334 111.5 -314.001z" />
    <glyph glyph-name="ngonguthai" unicode="&#xe07;" horiz-adv-x="737" 
d="M696 412c0 -71.333 -11.834 -134.665 -35.501 -189.998s-57 -100.333 -100 -135s-95.333 -59.5 -157 -74.5s-130.5 -18.5 -206.5 -10.5l-197 805l61 14l187 -764c57.333 -2.66699 109.833 3.16602 157.5 17.499s88.334 36.5 122.001 66.5s60 68 79 114
s28.5 98.333 28.5 157c0 116 -32.167 205.333 -96.5 268s-160.5 88.667 -288.5 78v61c148.667 12.667 260.167 -18.333 334.5 -93s111.5 -179.334 111.5 -314.001z" />
    <glyph glyph-name="chochanthai" unicode="&#xa8;" horiz-adv-x="752" 
d="M711 426c0 -64 -10.9971 -123.333 -32.9971 -178s-53.167 -101.834 -93.5 -141.501s-88.833 -69.667 -145.5 -90s-119.667 -27.833 -189 -22.5l-98 440h-84v62h133l98 -443c52 0 99.167 9.33301 141.5 28s79.166 45 110.499 79s55.5 73.5 72.5 118.5
s25.5 94.167 25.5 147.5c0 50.667 -7.5 97.167 -22.5 139.5s-36.5 78.833 -64.5 109.5s-61 54.5 -99 71.5s-81 25.5 -129 25.5c-62.667 0 -117.334 -11.167 -164.001 -33.5s-88.334 -52.166 -125.001 -89.499l-49 41c43.333 48 92.666 84 147.999 108s120 36 194 36
c57.333 0 108.833 -10.333 154.5 -31s84.834 -48.667 117.501 -84s57.667 -78 75 -128s26 -105 26 -165z" />
    <glyph glyph-name="chochanthai" unicode="&#xe08;" horiz-adv-x="752" 
d="M711 426c0 -64 -10.9971 -123.333 -32.9971 -178s-53.167 -101.834 -93.5 -141.501s-88.833 -69.667 -145.5 -90s-119.667 -27.833 -189 -22.5l-98 440h-84v62h133l98 -443c52 0 99.167 9.33301 141.5 28s79.166 45 110.499 79s55.5 73.5 72.5 118.5
s25.5 94.167 25.5 147.5c0 50.667 -7.5 97.167 -22.5 139.5s-36.5 78.833 -64.5 109.5s-61 54.5 -99 71.5s-81 25.5 -129 25.5c-62.667 0 -117.334 -11.167 -164.001 -33.5s-88.334 -52.166 -125.001 -89.499l-49 41c43.333 48 92.666 84 147.999 108s120 36 194 36
c57.333 0 108.833 -10.333 154.5 -31s84.834 -48.667 117.501 -84s57.667 -78 75 -128s26 -105 26 -165z" />
    <glyph glyph-name="chochingthai" unicode="&#xa9;" horiz-adv-x="758" 
d="M625 0l0.000976562 115.003c-27.333 -40 -65.333 -71.5 -114 -94.5s-99.667 -34.5 -153 -34.5c-40.667 0 -78.334 6.5 -113.001 19.5s-65 31.333 -91 55s-46.167 52 -60.5 85s-21.5 69.833 -21.5 110.5v145h-62v62h123v-207c0 -65.333 21.5 -116.5 64.5 -153.5
s96.5 -55.5 160.5 -55.5c32 0 64 5.83301 96 17.5s60.667 27.667 86 48s45.833 44.166 61.5 71.499s23.5 57.333 23.5 90v289c0 32.667 -7.16699 61.667 -21.5 87s-33.5 47.166 -57.5 65.499s-51.333 32.333 -82 42s-62.334 14.5 -95.001 14.5
c-28.667 0 -57.334 -3.66699 -86.001 -11s-55.667 -17.5 -81 -30.5s-47.166 -29.5 -65.499 -49.5s-31.166 -42.333 -38.499 -67h-61c6.66699 33.333 20.667 63.5 42 90.5s47.333 50.167 78 69.5s64.334 34.166 101.001 44.499s73.667 15.5 111 15.5
c40.667 0 80.167 -6.5 118.5 -19.5s72.166 -31.5 101.499 -55.5s52.833 -52.333 70.5 -85s26.5 -69.667 26.5 -111v-522l21 -41h-82z" />
    <glyph glyph-name="chochingthai" unicode="&#xe09;" horiz-adv-x="758" 
d="M625 0l0.000976562 115.003c-27.333 -40 -65.333 -71.5 -114 -94.5s-99.667 -34.5 -153 -34.5c-40.667 0 -78.334 6.5 -113.001 19.5s-65 31.333 -91 55s-46.167 52 -60.5 85s-21.5 69.833 -21.5 110.5v145h-62v62h123v-207c0 -65.333 21.5 -116.5 64.5 -153.5
s96.5 -55.5 160.5 -55.5c32 0 64 5.83301 96 17.5s60.667 27.667 86 48s45.833 44.166 61.5 71.499s23.5 57.333 23.5 90v289c0 32.667 -7.16699 61.667 -21.5 87s-33.5 47.166 -57.5 65.499s-51.333 32.333 -82 42s-62.334 14.5 -95.001 14.5
c-28.667 0 -57.334 -3.66699 -86.001 -11s-55.667 -17.5 -81 -30.5s-47.166 -29.5 -65.499 -49.5s-31.166 -42.333 -38.499 -67h-61c6.66699 33.333 20.667 63.5 42 90.5s47.333 50.167 78 69.5s64.334 34.166 101.001 44.499s73.667 15.5 111 15.5
c40.667 0 80.167 -6.5 118.5 -19.5s72.166 -31.5 101.499 -55.5s52.833 -52.333 70.5 -85s26.5 -69.667 26.5 -111v-522l21 -41h-82z" />
    <glyph glyph-name="chochangthai" unicode="&#xaa;" horiz-adv-x="715" 
d="M674 322c0 -96 -30.8271 -175.001 -92.4941 -237.001s-151.834 -94.333 -270.501 -97c-35.333 -1.33301 -68 0.333984 -98 5.00098s-55.333 9.66699 -76 15c-24.667 5.33301 -46.334 12.333 -65.001 21v790h61v-743c15.333 -4 31.666 -9 48.999 -15
c15.333 -4 34.166 -7.33301 56.499 -10s47.166 -4 74.499 -4c94.667 2.66699 168.167 28.334 220.5 77.001s78.5 114.667 78.5 198c0 84.667 -25.833 153.167 -77.5 205.5s-119.834 88.166 -204.501 107.499l207 194l43 -36l-146 -140c74 -30 132.5 -71.167 175.5 -123.5
s64.5 -121.5 64.5 -207.5z" />
    <glyph glyph-name="chochangthai" unicode="&#xe0a;" horiz-adv-x="715" 
d="M674 322c0 -96 -30.8271 -175.001 -92.4941 -237.001s-151.834 -94.333 -270.501 -97c-35.333 -1.33301 -68 0.333984 -98 5.00098s-55.333 9.66699 -76 15c-24.667 5.33301 -46.334 12.333 -65.001 21v790h61v-743c15.333 -4 31.666 -9 48.999 -15
c15.333 -4 34.166 -7.33301 56.499 -10s47.166 -4 74.499 -4c94.667 2.66699 168.167 28.334 220.5 77.001s78.5 114.667 78.5 198c0 84.667 -25.833 153.167 -77.5 205.5s-119.834 88.166 -204.501 107.499l207 194l43 -36l-146 -140c74 -30 132.5 -71.167 175.5 -123.5
s64.5 -121.5 64.5 -207.5z" />
    <glyph glyph-name="sosothai" unicode="&#xab;" horiz-adv-x="735" 
d="M694 322c0 -96 -30.667 -175.002 -92 -237.002s-151.333 -94.333 -270 -97c-35.333 -1.33301 -68.166 0.333984 -98.499 5.00098s-55.5 9.66699 -75.5 15c-24.667 5.33301 -46.667 12.333 -66 21v469c0 26 5.83301 47.167 17.5 63.5s24 31 37 44l37 38
c11.667 12.333 17.5 27.166 17.5 44.499v66l-97 -74c-8 12 -17.333 24.333 -28 37c-10 10.667 -21.833 22.5 -35.5 35.5s-29.834 24.833 -48.501 35.5l37 41c13.333 -9.33301 25.166 -18.5 35.499 -27.5s18.833 -16.833 25.5 -23.5c8 -8 15 -16 21 -24l90 65h61v-139
c0 -19.333 -5.83301 -36.166 -17.5 -50.499s-24 -28.333 -37 -42s-25.167 -28.667 -36.5 -45s-17 -36.166 -17 -59.499v-407c14.667 -4 31 -9 49 -15c14.667 -4 33.334 -7.33301 56.001 -10s47.667 -4 75 -4c94 2.66699 167.333 28.334 220 77.001s79 114.667 79 198
c0 84.667 -26 153.167 -78 205.5s-120.333 88.166 -205 107.499l207 194l43 -36l-145 -140c73.333 -30 131.5 -71.167 174.5 -123.5s64.5 -121.5 64.5 -207.5z" />
    <glyph glyph-name="sosothai" unicode="&#xe0b;" horiz-adv-x="735" 
d="M694 322c0 -96 -30.667 -175.002 -92 -237.002s-151.333 -94.333 -270 -97c-35.333 -1.33301 -68.166 0.333984 -98.499 5.00098s-55.5 9.66699 -75.5 15c-24.667 5.33301 -46.667 12.333 -66 21v469c0 26 5.83301 47.167 17.5 63.5s24 31 37 44l37 38
c11.667 12.333 17.5 27.166 17.5 44.499v66l-97 -74c-8 12 -17.333 24.333 -28 37c-10 10.667 -21.833 22.5 -35.5 35.5s-29.834 24.833 -48.501 35.5l37 41c13.333 -9.33301 25.166 -18.5 35.499 -27.5s18.833 -16.833 25.5 -23.5c8 -8 15 -16 21 -24l90 65h61v-139
c0 -19.333 -5.83301 -36.166 -17.5 -50.499s-24 -28.333 -37 -42s-25.167 -28.667 -36.5 -45s-17 -36.166 -17 -59.499v-407c14.667 -4 31 -9 49 -15c14.667 -4 33.334 -7.33301 56.001 -10s47.667 -4 75 -4c94 2.66699 167.333 28.334 220 77.001s79 114.667 79 198
c0 84.667 -26 153.167 -78 205.5s-120.333 88.166 -205 107.499l207 194l43 -36l-145 -140c73.333 -30 131.5 -71.167 174.5 -123.5s64.5 -121.5 64.5 -207.5z" />
    <glyph glyph-name="chochoethai" unicode="&#xac;" horiz-adv-x="1311" 
d="M1239 256c0 -82 -25.6699 -147.502 -77.0029 -196.502s-117.666 -73.5 -198.999 -73.5c-52 0 -101.333 11.833 -148 35.5s-82.667 54.834 -108 93.501v-115h-62v549c0 73.333 -24.833 128.833 -74.5 166.5s-110.167 56.5 -181.5 56.5
c-113.333 0 -198.666 -41 -255.999 -123v-588h123v-61h-184v668c74.667 110.667 180.334 166 317.001 166c42.667 0 83 -5.5 121 -16.5s71.667 -27.833 101 -50.5s52.666 -50.667 69.999 -84s26 -72 26 -116v-293c0 -32.667 7.5 -62.667 22.5 -90s34.333 -51.166 58 -71.499
s50.834 -36.333 81.501 -48s62 -17.5 94 -17.5c65.333 0 117.5 18.5 156.5 55.5s58.5 88.167 58.5 153.5v563h61v-563z" />
    <glyph glyph-name="chochoethai" unicode="&#xe0c;" horiz-adv-x="1311" 
d="M1239 256c0 -82 -25.6699 -147.502 -77.0029 -196.502s-117.666 -73.5 -198.999 -73.5c-52 0 -101.333 11.833 -148 35.5s-82.667 54.834 -108 93.501v-115h-62v549c0 73.333 -24.833 128.833 -74.5 166.5s-110.167 56.5 -181.5 56.5
c-113.333 0 -198.666 -41 -255.999 -123v-588h123v-61h-184v668c74.667 110.667 180.334 166 317.001 166c42.667 0 83 -5.5 121 -16.5s71.667 -27.833 101 -50.5s52.666 -50.667 69.999 -84s26 -72 26 -116v-293c0 -32.667 7.5 -62.667 22.5 -90s34.333 -51.166 58 -71.499
s50.834 -36.333 81.501 -48s62 -17.5 94 -17.5c65.333 0 117.5 18.5 156.5 55.5s58.5 88.167 58.5 153.5v563h61v-563z" />
    <glyph glyph-name="yoyingthai" unicode="&#xad;" horiz-adv-x="1311" 
d="M1239 256c0 -40.667 -8.16992 -77.8311 -24.5029 -111.498s-38.833 -62 -67.5 -85s-61.834 -41 -99.501 -54s-77.5 -19.5 -119.5 -19.5c-57.333 0 -111 9.5 -161 28.5s-90.667 48.167 -122 87.5l45 43c61.333 -65.333 140 -98 236 -98
c32.667 0 64.334 4.83301 95.001 14.5s57.667 23.667 81 42s41.833 40.166 55.5 65.499s20.5 54.333 20.5 87v23c-26 -30.667 -60.5 -56.167 -103.5 -76.5s-88.5 -30.5 -136.5 -30.5c-86 0 -156.333 21.167 -211 63.5s-82 104.5 -82 186.5v127
c0 73.333 -24.833 128.833 -74.5 166.5s-110.167 56.5 -181.5 56.5c-113.333 0 -198.666 -41 -255.999 -123v-588h123v-61h-184v668c74.667 110.667 180.334 166 317.001 166c42.667 0 83 -5.5 121 -16.5s71.667 -27.833 101 -50.5s52.666 -50.667 69.999 -84
s26 -72 26 -116v-145c0 -64 22.833 -111.5 68.5 -142.5s99.834 -46.5 162.501 -46.5c32.667 0 63.334 5.16699 92.001 15.5s54 24.666 76 42.999s39.5 40.5 52.5 66.5s19.5 55.333 19.5 88v373h61v-563z" />
    <glyph glyph-name="yoyingthai" unicode="&#xe0d;" horiz-adv-x="1311" 
d="M1239 256c0 -40.667 -8.16992 -77.8311 -24.5029 -111.498s-38.833 -62 -67.5 -85s-61.834 -41 -99.501 -54s-77.5 -19.5 -119.5 -19.5c-57.333 0 -111 9.5 -161 28.5s-90.667 48.167 -122 87.5l45 43c61.333 -65.333 140 -98 236 -98
c32.667 0 64.334 4.83301 95.001 14.5s57.667 23.667 81 42s41.833 40.166 55.5 65.499s20.5 54.333 20.5 87v23c-26 -30.667 -60.5 -56.167 -103.5 -76.5s-88.5 -30.5 -136.5 -30.5c-86 0 -156.333 21.167 -211 63.5s-82 104.5 -82 186.5v127
c0 73.333 -24.833 128.833 -74.5 166.5s-110.167 56.5 -181.5 56.5c-113.333 0 -198.666 -41 -255.999 -123v-588h123v-61h-184v668c74.667 110.667 180.334 166 317.001 166c42.667 0 83 -5.5 121 -16.5s71.667 -27.833 101 -50.5s52.666 -50.667 69.999 -84
s26 -72 26 -116v-145c0 -64 22.833 -111.5 68.5 -142.5s99.834 -46.5 162.501 -46.5c32.667 0 63.334 5.16699 92.001 15.5s54 24.666 76 42.999s39.5 40.5 52.5 66.5s19.5 55.333 19.5 88v373h61v-563z" />
    <glyph glyph-name="yoyingthai" unicode="&#xde;" horiz-adv-x="1311" 
d="M1239 256c0 -40.667 -8.16992 -77.8311 -24.5029 -111.498s-38.833 -62 -67.5 -85s-61.834 -41 -99.501 -54s-77.5 -19.5 -119.5 -19.5c-57.333 0 -111 9.5 -161 28.5s-90.667 48.167 -122 87.5l45 43c61.333 -65.333 140 -98 236 -98
c32.667 0 64.334 4.83301 95.001 14.5s57.667 23.667 81 42s41.833 40.166 55.5 65.499s20.5 54.333 20.5 87v23c-26 -30.667 -60.5 -56.167 -103.5 -76.5s-88.5 -30.5 -136.5 -30.5c-86 0 -156.333 21.167 -211 63.5s-82 104.5 -82 186.5v127
c0 73.333 -24.833 128.833 -74.5 166.5s-110.167 56.5 -181.5 56.5c-113.333 0 -198.666 -41 -255.999 -123v-588h123v-61h-184v668c74.667 110.667 180.334 166 317.001 166c42.667 0 83 -5.5 121 -16.5s71.667 -27.833 101 -50.5s52.666 -50.667 69.999 -84
s26 -72 26 -116v-145c0 -64 22.833 -111.5 68.5 -142.5s99.834 -46.5 162.501 -46.5c32.667 0 63.334 5.16699 92.001 15.5s54 24.666 76 42.999s39.5 40.5 52.5 66.5s19.5 55.333 19.5 88v373h61v-563z" />
    <glyph glyph-name="dochadathai" unicode="&#xae;" horiz-adv-x="788" 
d="M655 -307l-184 143l-184 -143h-287v61h276l195 148l184 -142v789c0 73.333 -24.833 128.833 -74.5 166.5s-110.167 56.5 -181.5 56.5c-113.333 0 -198.666 -41 -255.999 -123v-649h-143v61h82v607c75.333 110.667 181 166 317 166c42.667 0 83.167 -5.5 121.5 -16.5
s72.166 -27.833 101.499 -50.5s52.5 -50.667 69.5 -84s25.5 -72 25.5 -116v-874h-62z" />
    <glyph glyph-name="dochadathai" unicode="&#xe0e;" horiz-adv-x="788" 
d="M655 -307l-184 143l-184 -143h-287v61h276l195 148l184 -142v789c0 73.333 -24.833 128.833 -74.5 166.5s-110.167 56.5 -181.5 56.5c-113.333 0 -198.666 -41 -255.999 -123v-649h-143v61h82v607c75.333 110.667 181 166 317 166c42.667 0 83.167 -5.5 121.5 -16.5
s72.166 -27.833 101.499 -50.5s52.5 -50.667 69.5 -84s25.5 -72 25.5 -116v-874h-62z" />
    <glyph glyph-name="topatakthai" unicode="&#xaf;" horiz-adv-x="788" 
d="M655 -307l-123 123l-112 -133l-113 133l-123 -123h-204v61h190l137 135l113 -131l112 131l123 -118v778c0 73.333 -24.833 128.833 -74.5 166.5s-110.167 56.5 -181.5 56.5c-113.333 0 -198.666 -41 -255.999 -123v-649h-143v61h82v607c75.333 110.667 181 166 317 166
c42.667 0 83.167 -5.5 121.5 -16.5s72.166 -27.833 101.499 -50.5s52.5 -50.667 69.5 -84s25.5 -72 25.5 -116v-874h-62z" />
    <glyph glyph-name="topatakthai" unicode="&#xe0f;" horiz-adv-x="788" 
d="M655 -307l-123 123l-112 -133l-113 133l-123 -123h-204v61h190l137 135l113 -131l112 131l123 -118v778c0 73.333 -24.833 128.833 -74.5 166.5s-110.167 56.5 -181.5 56.5c-113.333 0 -198.666 -41 -255.999 -123v-649h-143v61h82v607c75.333 110.667 181 166 317 166
c42.667 0 83.167 -5.5 121.5 -16.5s72.166 -27.833 101.499 -50.5s52.5 -50.667 69.5 -84s25.5 -72 25.5 -116v-874h-62z" />
    <glyph glyph-name="thothanthai" unicode="&#xb0;" horiz-adv-x="752" 
d="M711 426c0 -64 -10.9961 -123.334 -32.9961 -178.001s-53.167 -101.834 -93.5 -141.501s-88.833 -69.667 -145.5 -90s-119.667 -27.833 -189 -22.5l-100 450h-82v52h133l98 -443c52 0 99.167 9.33301 141.5 28s79.166 45 110.499 79s55.5 73.5 72.5 118.5
s25.5 94.167 25.5 147.5c0 50.667 -7.5 97.167 -22.5 139.5s-36.5 78.833 -64.5 109.5s-61 54.5 -99 71.5s-81 25.5 -129 25.5c-62.667 0 -117.334 -11.167 -164.001 -33.5s-88.334 -52.166 -125.001 -89.499l-49 41c43.333 48 92.666 84 147.999 108s120 36 194 36
s137.333 -16.667 190 -50l80 97l49 -37l-77 -94c42 -37.333 74.333 -83.666 97 -138.999s34 -117 34 -185zM651.004 -307.001l-123 123l-112 -133l-113 133l-123 -123h-184v61h170l137 135l113 -131l112 131l123 -118v123l-30 51h92v-252h-62z" />
    <glyph glyph-name="thothanthai" unicode="&#xe10;" horiz-adv-x="752" 
d="M711 426c0 -64 -10.9961 -123.334 -32.9961 -178.001s-53.167 -101.834 -93.5 -141.501s-88.833 -69.667 -145.5 -90s-119.667 -27.833 -189 -22.5l-100 450h-82v52h133l98 -443c52 0 99.167 9.33301 141.5 28s79.166 45 110.499 79s55.5 73.5 72.5 118.5
s25.5 94.167 25.5 147.5c0 50.667 -7.5 97.167 -22.5 139.5s-36.5 78.833 -64.5 109.5s-61 54.5 -99 71.5s-81 25.5 -129 25.5c-62.667 0 -117.334 -11.167 -164.001 -33.5s-88.334 -52.166 -125.001 -89.499l-49 41c43.333 48 92.666 84 147.999 108s120 36 194 36
s137.333 -16.667 190 -50l80 97l49 -37l-77 -94c42 -37.333 74.333 -83.666 97 -138.999s34 -117 34 -185zM651.004 -307.001l-123 123l-112 -133l-113 133l-123 -123h-184v61h170l137 135l113 -131l112 131l123 -118v123l-30 51h92v-252h-62z" />
    <glyph glyph-name="thonangmonthothai" unicode="&#xb1;" horiz-adv-x="788" 
d="M655 0l0.00195312 598c0 44 -11.833 81.667 -35.5 113s-51.167 47 -82.5 47l-394 -758h-61v504c0 26 6.83301 46.833 20.5 62.5s28.334 29.334 44.001 41.001s30.334 23.167 44.001 34.5s20.5 26.666 20.5 45.999v66l-96 -74c-8.66699 12 -18.334 24.333 -29.001 37
c-9.33301 10.667 -20.833 22.5 -34.5 35.5s-30.167 24.833 -49.5 35.5l37 41c13.333 -9.33301 25.166 -18.5 35.499 -27.5s18.833 -16.833 25.5 -23.5c8.66699 -8 15.667 -16 21 -24l90 65h61v-145c0 -20.667 -6.83301 -37.5 -20.5 -50.5s-28.334 -25.333 -44.001 -37
s-30.334 -24.667 -44.001 -39s-20.5 -32.833 -20.5 -55.5v-367l363 694c65.333 0 116.833 -20.833 154.5 -62.5s56.5 -95.167 56.5 -160.5v-596h-62z" />
    <glyph glyph-name="thonangmonthothai" unicode="&#xe11;" horiz-adv-x="788" 
d="M655 0l0.00195312 598c0 44 -11.833 81.667 -35.5 113s-51.167 47 -82.5 47l-394 -758h-61v504c0 26 6.83301 46.833 20.5 62.5s28.334 29.334 44.001 41.001s30.334 23.167 44.001 34.5s20.5 26.666 20.5 45.999v66l-96 -74c-8.66699 12 -18.334 24.333 -29.001 37
c-9.33301 10.667 -20.833 22.5 -34.5 35.5s-30.167 24.833 -49.5 35.5l37 41c13.333 -9.33301 25.166 -18.5 35.499 -27.5s18.833 -16.833 25.5 -23.5c8.66699 -8 15.667 -16 21 -24l90 65h61v-145c0 -20.667 -6.83301 -37.5 -20.5 -50.5s-28.334 -25.333 -44.001 -37
s-30.334 -24.667 -44.001 -39s-20.5 -32.833 -20.5 -55.5v-367l363 694c65.333 0 116.833 -20.833 154.5 -62.5s56.5 -95.167 56.5 -160.5v-596h-62z" />
    <glyph glyph-name="thophuthaothai" unicode="&#xb2;" horiz-adv-x="1356" 
d="M1284 256c0 -82 -25.668 -147.505 -77.001 -196.505s-117.666 -73.5 -198.999 -73.5c-52 0 -101.167 11.833 -147.5 35.5s-82.5 54.834 -108.5 93.501v-115h-62v573c0 48 -12 91.833 -36 131.5s-55.667 62.167 -95 67.5l-129 -158l-135 158
c-18 -6.66699 -37.833 -20.667 -59.5 -42s-42.5 -48.666 -62.5 -81.999s-36.833 -71.5 -50.5 -114.5s-20.5 -89.167 -20.5 -138.5c0 -43.333 4.5 -85.833 13.5 -127.5s22.333 -78.5 40 -110.5s40.834 -57.667 69.501 -77s62.334 -29 101.001 -29
c27.333 0 50.166 6.5 68.499 19.5s33.5 27.833 45.5 44.5l49 -37c-16 -23.333 -38.333 -43.833 -67 -61.5s-60.667 -26.5 -96 -26.5c-48 0 -89.833 9.83301 -125.5 29.5s-65.334 47.334 -89.001 83.001s-41.334 78.334 -53.001 128.001s-17.5 104.5 -17.5 164.5
c0 56 7.83301 109.667 23.5 161s36.5 96.5 62.5 135.5s55 71 87 96s65 40.5 99 46.5l117 -134l109 129c32.667 0 62.334 -6.83301 89.001 -20.5s49.167 -32 67.5 -55s32.333 -49.833 42 -80.5s14.5 -64 14.5 -100v-299c0 -32.667 7.5 -62.667 22.5 -90
s34.333 -51.166 58 -71.499s51 -36.333 82 -48s62.167 -17.5 93.5 -17.5c65.333 0 117.5 18.5 156.5 55.5s58.5 88.167 58.5 153.5v563h61v-563z" />
    <glyph glyph-name="thophuthaothai" unicode="&#xe12;" horiz-adv-x="1356" 
d="M1284 256c0 -82 -25.668 -147.505 -77.001 -196.505s-117.666 -73.5 -198.999 -73.5c-52 0 -101.167 11.833 -147.5 35.5s-82.5 54.834 -108.5 93.501v-115h-62v573c0 48 -12 91.833 -36 131.5s-55.667 62.167 -95 67.5l-129 -158l-135 158
c-18 -6.66699 -37.833 -20.667 -59.5 -42s-42.5 -48.666 -62.5 -81.999s-36.833 -71.5 -50.5 -114.5s-20.5 -89.167 -20.5 -138.5c0 -43.333 4.5 -85.833 13.5 -127.5s22.333 -78.5 40 -110.5s40.834 -57.667 69.501 -77s62.334 -29 101.001 -29
c27.333 0 50.166 6.5 68.499 19.5s33.5 27.833 45.5 44.5l49 -37c-16 -23.333 -38.333 -43.833 -67 -61.5s-60.667 -26.5 -96 -26.5c-48 0 -89.833 9.83301 -125.5 29.5s-65.334 47.334 -89.001 83.001s-41.334 78.334 -53.001 128.001s-17.5 104.5 -17.5 164.5
c0 56 7.83301 109.667 23.5 161s36.5 96.5 62.5 135.5s55 71 87 96s65 40.5 99 46.5l117 -134l109 129c32.667 0 62.334 -6.83301 89.001 -20.5s49.167 -32 67.5 -55s32.333 -49.833 42 -80.5s14.5 -64 14.5 -100v-299c0 -32.667 7.5 -62.667 22.5 -90
s34.333 -51.166 58 -71.499s51 -36.333 82 -48s62.167 -17.5 93.5 -17.5c65.333 0 117.5 18.5 156.5 55.5s58.5 88.167 58.5 153.5v563h61v-563z" />
    <glyph glyph-name="nonenthai" unicode="&#xb3;" horiz-adv-x="1311" 
d="M1178 0l-0.000976562 115.002c-26 -38.667 -62.333 -69.834 -109 -93.501s-95.667 -35.5 -147 -35.5c-82 0 -148.667 24.5 -200 73.5s-77 114.5 -77 196.5v293c0 73.333 -24.833 128.833 -74.5 166.5s-110.167 56.5 -181.5 56.5c-113.333 0 -198.666 -41 -255.999 -123
v-588h123v-61h-184v668c74.667 110.667 180.334 166 317.001 166c42.667 0 83 -5.5 121 -16.5s71.667 -27.833 101 -50.5s52.666 -50.667 69.999 -84s26 -72 26 -116v-311c0 -65.333 19.333 -116.5 58 -153.5s91 -55.5 157 -55.5c31.333 0 62.333 5.83301 93 17.5
s58 27.667 82 48s43.5 44.166 58.5 71.499s22.5 57.333 22.5 90v545h61v-819h-61z" />
    <glyph glyph-name="nonenthai" unicode="&#xe13;" horiz-adv-x="1311" 
d="M1178 0l-0.000976562 115.002c-26 -38.667 -62.333 -69.834 -109 -93.501s-95.667 -35.5 -147 -35.5c-82 0 -148.667 24.5 -200 73.5s-77 114.5 -77 196.5v293c0 73.333 -24.833 128.833 -74.5 166.5s-110.167 56.5 -181.5 56.5c-113.333 0 -198.666 -41 -255.999 -123
v-588h123v-61h-184v668c74.667 110.667 180.334 166 317.001 166c42.667 0 83 -5.5 121 -16.5s71.667 -27.833 101 -50.5s52.666 -50.667 69.999 -84s26 -72 26 -116v-311c0 -65.333 19.333 -116.5 58 -153.5s91 -55.5 157 -55.5c31.333 0 62.333 5.83301 93 17.5
s58 27.667 82 48s43.5 44.166 58.5 71.499s22.5 57.333 22.5 90v545h61v-819h-61z" />
    <glyph glyph-name="dodekthai" unicode="&#xb4;" horiz-adv-x="782" 
d="M649 0l0.00195312 544.999c0 32.667 -5.83301 62.667 -17.5 90s-28 51.166 -49 71.499s-45.833 36.333 -74.5 48s-60.667 17.5 -96 17.5c-46.667 0 -89.167 -10.5 -127.5 -31.5s-70.833 -49.667 -97.5 -86s-47.5 -77.666 -62.5 -123.999s-22.5 -94.166 -22.5 -143.499
c0 -45.333 4.16699 -88 12.5 -128s21.666 -75.5 39.999 -106.5s41.833 -55.667 70.5 -74s62.334 -27.5 101.001 -27.5c27.333 0 50.166 6.5 68.499 19.5s33.5 27.833 45.5 44.5l49 -37c-16 -23.333 -38.333 -43.833 -67 -61.5s-60.667 -26.5 -96 -26.5
c-49.333 0 -91.833 9.83301 -127.5 29.5s-65.334 47 -89.001 82s-41 77 -52 126s-16.5 102.167 -16.5 159.5c0 58.667 9.16699 115 27.5 169s44 101.5 77 142.5s72 73.833 117 98.5s94.833 37 149.5 37c44.667 0 85.5 -7.16699 122.5 -21.5s68.5 -34.5 94.5 -60.5
s46.167 -56.5 60.5 -91.5s21.5 -72.167 21.5 -111.5v-549h-62z" />
    <glyph glyph-name="dodekthai" unicode="&#xe14;" horiz-adv-x="782" 
d="M649 0l0.00195312 544.999c0 32.667 -5.83301 62.667 -17.5 90s-28 51.166 -49 71.499s-45.833 36.333 -74.5 48s-60.667 17.5 -96 17.5c-46.667 0 -89.167 -10.5 -127.5 -31.5s-70.833 -49.667 -97.5 -86s-47.5 -77.666 -62.5 -123.999s-22.5 -94.166 -22.5 -143.499
c0 -45.333 4.16699 -88 12.5 -128s21.666 -75.5 39.999 -106.5s41.833 -55.667 70.5 -74s62.334 -27.5 101.001 -27.5c27.333 0 50.166 6.5 68.499 19.5s33.5 27.833 45.5 44.5l49 -37c-16 -23.333 -38.333 -43.833 -67 -61.5s-60.667 -26.5 -96 -26.5
c-49.333 0 -91.833 9.83301 -127.5 29.5s-65.334 47 -89.001 82s-41 77 -52 126s-16.5 102.167 -16.5 159.5c0 58.667 9.16699 115 27.5 169s44 101.5 77 142.5s72 73.833 117 98.5s94.833 37 149.5 37c44.667 0 85.5 -7.16699 122.5 -21.5s68.5 -34.5 94.5 -60.5
s46.167 -56.5 60.5 -91.5s21.5 -72.167 21.5 -111.5v-549h-62z" />
    <glyph glyph-name="totaothai" unicode="&#xb5;" horiz-adv-x="823" 
d="M690 0l0.00292969 572.997c0 48 -12 91.833 -36 131.5s-55.667 62.167 -95 67.5l-129 -158l-135 158c-18 -6.66699 -37.833 -20.667 -59.5 -42s-42.5 -48.666 -62.5 -81.999s-36.833 -71.5 -50.5 -114.5s-20.5 -89.167 -20.5 -138.5
c0 -44.667 4.16699 -87.834 12.5 -129.501s21.666 -78.667 39.999 -111s41.5 -57.666 69.5 -75.999s62 -27.5 102 -27.5c27.333 0 50.166 6.5 68.499 19.5s33.5 27.833 45.5 44.5l49 -37c-16 -23.333 -38.333 -43.833 -67 -61.5s-60.667 -26.5 -96 -26.5
c-48 0 -89.833 9.83301 -125.5 29.5s-65.334 47.334 -89.001 83.001s-41.334 78.334 -53.001 128.001s-17.5 104.5 -17.5 164.5c0 56 7.83301 109.667 23.5 161s36.5 96.5 62.5 135.5s55 71 87 96s65 40.5 99 46.5l117 -134l109 129c32.667 0 62.334 -6.83301 89.001 -20.5
s49.167 -32 67.5 -55s32.333 -49.833 42 -80.5s14.5 -64 14.5 -100v-573h-62z" />
    <glyph glyph-name="totaothai" unicode="&#xe15;" horiz-adv-x="823" 
d="M690 0l0.00292969 572.997c0 48 -12 91.833 -36 131.5s-55.667 62.167 -95 67.5l-129 -158l-135 158c-18 -6.66699 -37.833 -20.667 -59.5 -42s-42.5 -48.666 -62.5 -81.999s-36.833 -71.5 -50.5 -114.5s-20.5 -89.167 -20.5 -138.5
c0 -44.667 4.16699 -87.834 12.5 -129.501s21.666 -78.667 39.999 -111s41.5 -57.666 69.5 -75.999s62 -27.5 102 -27.5c27.333 0 50.166 6.5 68.499 19.5s33.5 27.833 45.5 44.5l49 -37c-16 -23.333 -38.333 -43.833 -67 -61.5s-60.667 -26.5 -96 -26.5
c-48 0 -89.833 9.83301 -125.5 29.5s-65.334 47.334 -89.001 83.001s-41.334 78.334 -53.001 128.001s-17.5 104.5 -17.5 164.5c0 56 7.83301 109.667 23.5 161s36.5 96.5 62.5 135.5s55 71 87 96s65 40.5 99 46.5l117 -134l109 129c32.667 0 62.334 -6.83301 89.001 -20.5
s49.167 -32 67.5 -55s32.333 -49.833 42 -80.5s14.5 -64 14.5 -100v-573h-62z" />
    <glyph glyph-name="thothungthai" unicode="&#xb6;" horiz-adv-x="778" 
d="M645 0l-0.000976562 549c0 73.333 -24.833 128.833 -74.5 166.5s-110.167 56.5 -181.5 56.5c-113.333 0 -198.666 -41 -255.999 -123v-588h123v-61h-184v668c74.667 110.667 180.334 166 317.001 166c42.667 0 83 -5.5 121 -16.5s71.667 -27.833 101 -50.5
s52.666 -50.667 69.999 -84s26 -72 26 -116v-567h-62z" />
    <glyph glyph-name="thothungthai" unicode="&#xe16;" horiz-adv-x="778" 
d="M645 0l-0.000976562 549c0 73.333 -24.833 128.833 -74.5 166.5s-110.167 56.5 -181.5 56.5c-113.333 0 -198.666 -41 -255.999 -123v-588h123v-61h-184v668c74.667 110.667 180.334 166 317.001 166c42.667 0 83 -5.5 121 -16.5s71.667 -27.833 101 -50.5
s52.666 -50.667 69.999 -84s26 -72 26 -116v-567h-62z" />
    <glyph glyph-name="thothahanthai" unicode="&#xb7;" horiz-adv-x="778" 
d="M645 0v542.999c0 69.333 -21.167 124.833 -63.5 166.5s-98.166 62.5 -167.499 62.5c-32.667 0 -65.834 -5.83301 -99.501 -17.5s-63.834 -27.667 -90.501 -48s-48.5 -44.166 -65.5 -71.499s-25.5 -57.333 -25.5 -90v-545h-61v819h61v-114
c14 18.667 31.167 36.167 51.5 52.5s43.166 30 68.499 41s52 19.667 80 26s55 9.5 81 9.5c40.667 0 78.834 -6.5 114.501 -19.5s66.834 -31.167 93.501 -54.5s47.5 -52 62.5 -86s22.5 -72.333 22.5 -115v-559h-62z" />
    <glyph glyph-name="thothahanthai" unicode="&#xe17;" horiz-adv-x="778" 
d="M645 0v542.999c0 69.333 -21.167 124.833 -63.5 166.5s-98.166 62.5 -167.499 62.5c-32.667 0 -65.834 -5.83301 -99.501 -17.5s-63.834 -27.667 -90.501 -48s-48.5 -44.166 -65.5 -71.499s-25.5 -57.333 -25.5 -90v-545h-61v819h61v-114
c14 18.667 31.167 36.167 51.5 52.5s43.166 30 68.499 41s52 19.667 80 26s55 9.5 81 9.5c40.667 0 78.834 -6.5 114.501 -19.5s66.834 -31.167 93.501 -54.5s47.5 -52 62.5 -86s22.5 -72.333 22.5 -115v-559h-62z" />
    <glyph glyph-name="thothongthai" unicode="&#xb8;" horiz-adv-x="713" 
d="M674 248c0 -45.333 -9.6748 -83.9951 -29.0078 -115.995s-45.333 -59 -78 -81s-70.5 -38 -113.5 -48s-87.833 -15 -134.5 -15c-35.333 0 -68.666 2 -99.999 6s-58.666 8.66699 -81.999 14c-27.333 5.33301 -52.666 12.333 -75.999 21v391l62 20v-360
c16 -5.33301 34.333 -11 55 -17c18 -4 38.833 -7.66699 62.5 -11s49.834 -5 78.501 -5c36 0 71.333 4.16699 106 12.5s65.667 20.666 93 36.999s49.5 37.166 66.5 62.499s25.5 55 25.5 89s-7.5 63.333 -22.5 88s-34.667 45.5 -59 62.5s-51.666 30.667 -81.999 41
s-60.5 18.166 -90.5 23.499l-112.5 20.5c-37 7 -70.167 16.167 -99.5 27.5s-52.833 27 -70.5 47s-26.5 45.667 -26.5 77c0 30 8.83301 57.333 26.5 82s40.5 45.5 68.5 62.5s59.833 29.833 95.5 38.5s71.167 13 106.5 13c36.667 0 72.5 -4 107.5 -12
s67.167 -20.833 96.5 -38.5s54.833 -40.167 76.5 -67.5s37.5 -60.333 47.5 -99h-68c-9.33301 26 -23.666 48.667 -42.999 68s-41.5 35.5 -66.5 48.5s-51.167 22.833 -78.5 29.5s-54 10 -80 10c-27.333 0 -54.333 -3.66699 -81 -11s-50.167 -16.833 -70.5 -28.5
s-37 -25 -50 -40s-19.5 -30.833 -19.5 -47.5c0 -20.667 7.83301 -37.834 23.5 -51.501s35.834 -24.834 60.501 -33.501s52 -15.834 82 -21.501s59.333 -10.5 88 -14.5c36.667 -5.33301 73.5 -14.166 110.5 -26.499s69.833 -29 98.5 -50s51.834 -47.667 69.501 -80
s26.5 -71.5 26.5 -117.5z" />
    <glyph glyph-name="thothongthai" unicode="&#xe18;" horiz-adv-x="713" 
d="M674 248c0 -45.333 -9.6748 -83.9951 -29.0078 -115.995s-45.333 -59 -78 -81s-70.5 -38 -113.5 -48s-87.833 -15 -134.5 -15c-35.333 0 -68.666 2 -99.999 6s-58.666 8.66699 -81.999 14c-27.333 5.33301 -52.666 12.333 -75.999 21v391l62 20v-360
c16 -5.33301 34.333 -11 55 -17c18 -4 38.833 -7.66699 62.5 -11s49.834 -5 78.501 -5c36 0 71.333 4.16699 106 12.5s65.667 20.666 93 36.999s49.5 37.166 66.5 62.499s25.5 55 25.5 89s-7.5 63.333 -22.5 88s-34.667 45.5 -59 62.5s-51.666 30.667 -81.999 41
s-60.5 18.166 -90.5 23.499l-112.5 20.5c-37 7 -70.167 16.167 -99.5 27.5s-52.833 27 -70.5 47s-26.5 45.667 -26.5 77c0 30 8.83301 57.333 26.5 82s40.5 45.5 68.5 62.5s59.833 29.833 95.5 38.5s71.167 13 106.5 13c36.667 0 72.5 -4 107.5 -12
s67.167 -20.833 96.5 -38.5s54.833 -40.167 76.5 -67.5s37.5 -60.333 47.5 -99h-68c-9.33301 26 -23.666 48.667 -42.999 68s-41.5 35.5 -66.5 48.5s-51.167 22.833 -78.5 29.5s-54 10 -80 10c-27.333 0 -54.333 -3.66699 -81 -11s-50.167 -16.833 -70.5 -28.5
s-37 -25 -50 -40s-19.5 -30.833 -19.5 -47.5c0 -20.667 7.83301 -37.834 23.5 -51.501s35.834 -24.834 60.501 -33.501s52 -15.834 82 -21.501s59.333 -10.5 88 -14.5c36.667 -5.33301 73.5 -14.166 110.5 -26.499s69.833 -29 98.5 -50s51.834 -47.667 69.501 -80
s26.5 -71.5 26.5 -117.5z" />
    <glyph glyph-name="nonuthai" unicode="&#xb9;" horiz-adv-x="778" 
d="M645 0l0.00195312 115.002c-13.333 -19.333 -30.333 -36.833 -51 -52.5s-43.334 -29.334 -68.001 -41.001s-50.5 -20.5 -77.5 -26.5s-53.5 -9 -79.5 -9c-41.333 0 -80 6.5 -116 19.5s-67.333 31.333 -94 55s-47.834 52 -63.501 85s-23.5 69.833 -23.5 110.5v563h61v-563
c0 -65.333 22.5 -116.5 67.5 -153.5s101.167 -55.5 168.5 -55.5c32.667 0 65.667 5.83301 99 17.5s63 27.667 89 48s47.167 44.166 63.5 71.499s24.5 57.333 24.5 90v545h62v-819h-62z" />
    <glyph glyph-name="nonuthai" unicode="&#xe19;" horiz-adv-x="778" 
d="M645 0l0.00195312 115.002c-13.333 -19.333 -30.333 -36.833 -51 -52.5s-43.334 -29.334 -68.001 -41.001s-50.5 -20.5 -77.5 -26.5s-53.5 -9 -79.5 -9c-41.333 0 -80 6.5 -116 19.5s-67.333 31.333 -94 55s-47.834 52 -63.501 85s-23.5 69.833 -23.5 110.5v563h61v-563
c0 -65.333 22.5 -116.5 67.5 -153.5s101.167 -55.5 168.5 -55.5c32.667 0 65.667 5.83301 99 17.5s63 27.667 89 48s47.167 44.166 63.5 71.499s24.5 57.333 24.5 90v545h62v-819h-62z" />
    <glyph glyph-name="bobaimaithai" unicode="&#xba;" horiz-adv-x="778" 
d="M707 256c0 -40.667 -8.99707 -77.5 -26.9971 -110.5s-41.667 -61.333 -71 -85s-63 -42 -101 -55s-77.667 -19.5 -119 -19.5c-40.667 0 -80.167 6.5 -118.5 19.5s-72.166 31.333 -101.499 55s-52.833 52 -70.5 85s-26.5 69.833 -26.5 110.5v563h61v-563
c0 -32.667 7.16699 -61.667 21.5 -87s33.166 -47.166 56.499 -65.499s50.666 -32.333 81.999 -42s63.333 -14.5 96 -14.5s64.667 4.83301 96 14.5s58.666 23.667 81.999 42s42.166 40.166 56.499 65.499s21.5 54.333 21.5 87v563h62v-563z" />
    <glyph glyph-name="bobaimaithai" unicode="&#xe1a;" horiz-adv-x="778" 
d="M707 256c0 -40.667 -8.99707 -77.5 -26.9971 -110.5s-41.667 -61.333 -71 -85s-63 -42 -101 -55s-77.667 -19.5 -119 -19.5c-40.667 0 -80.167 6.5 -118.5 19.5s-72.166 31.333 -101.499 55s-52.833 52 -70.5 85s-26.5 69.833 -26.5 110.5v563h61v-563
c0 -32.667 7.16699 -61.667 21.5 -87s33.166 -47.166 56.499 -65.499s50.666 -32.333 81.999 -42s63.333 -14.5 96 -14.5s64.667 4.83301 96 14.5s58.666 23.667 81.999 42s42.166 40.166 56.499 65.499s21.5 54.333 21.5 87v563h62v-563z" />
    <glyph glyph-name="poplathai" unicode="&#xbb;" horiz-adv-x="778" 
d="M707 256c0 -40.667 -8.99707 -77.5 -26.9971 -110.5s-41.667 -61.333 -71 -85s-63 -42 -101 -55s-77.667 -19.5 -119 -19.5c-40.667 0 -80.167 6.5 -118.5 19.5s-72.166 31.333 -101.499 55s-52.833 52 -70.5 85s-26.5 69.833 -26.5 110.5v563h61v-563
c0 -32.667 7.16699 -61.667 21.5 -87s33.166 -47.166 56.499 -65.499s50.666 -32.333 81.999 -42s63.333 -14.5 96 -14.5s64.667 4.83301 96 14.5s58.666 23.667 81.999 42s42.166 40.166 56.499 65.499s21.5 54.333 21.5 87v768h62v-768z" />
    <glyph glyph-name="poplathai" unicode="&#xe1b;" horiz-adv-x="778" 
d="M707 256c0 -40.667 -8.99707 -77.5 -26.9971 -110.5s-41.667 -61.333 -71 -85s-63 -42 -101 -55s-77.667 -19.5 -119 -19.5c-40.667 0 -80.167 6.5 -118.5 19.5s-72.166 31.333 -101.499 55s-52.833 52 -70.5 85s-26.5 69.833 -26.5 110.5v563h61v-563
c0 -32.667 7.16699 -61.667 21.5 -87s33.166 -47.166 56.499 -65.499s50.666 -32.333 81.999 -42s63.333 -14.5 96 -14.5s64.667 4.83301 96 14.5s58.666 23.667 81.999 42s42.166 40.166 56.499 65.499s21.5 54.333 21.5 87v768h62v-768z" />
    <glyph glyph-name="phophungthai" unicode="&#xbc;" horiz-adv-x="983" 
d="M770 0h-53l-228 717l-223 -717h-51l-215 819h201v-61h-123l166 -656l219 717h55l223 -717l181 717h59z" />
    <glyph glyph-name="phophungthai" unicode="&#xe1c;" horiz-adv-x="983" 
d="M770 0h-53l-228 717l-223 -717h-51l-215 819h201v-61h-123l166 -656l219 717h55l223 -717l181 717h59z" />
    <glyph glyph-name="fofathai" unicode="&#xbd;" horiz-adv-x="983" 
d="M770 0h-53l-228 717l-223 -717h-51l-215 819h201v-61h-123l166 -656l219 717h55l223 -717l234 922h59z" />
    <glyph glyph-name="fofathai" unicode="&#xe1d;" horiz-adv-x="983" 
d="M770 0h-53l-228 717l-223 -717h-51l-215 819h201v-61h-123l166 -656l219 717h55l223 -717l234 922h59z" />
    <glyph glyph-name="phophanthai" unicode="&#xbe;" horiz-adv-x="983" 
d="M770 0h-53l-228 717l-223 -717h-51l-215 819h59l185 -717l219 717h55l223 -717l181 717h59z" />
    <glyph glyph-name="phophanthai" unicode="&#xe1e;" horiz-adv-x="983" 
d="M770 0h-53l-228 717l-223 -717h-51l-215 819h59l185 -717l219 717h55l223 -717l181 717h59z" />
    <glyph glyph-name="fofanthai" unicode="&#xbf;" horiz-adv-x="983" 
d="M770 0h-53l-228 717l-223 -717h-51l-215 819h59l185 -717l219 717h55l223 -717l234 922h59z" />
    <glyph glyph-name="fofanthai" unicode="&#xe1f;" horiz-adv-x="983" 
d="M770 0h-53l-228 717l-223 -717h-51l-215 819h59l185 -717l219 717h55l223 -717l234 922h59z" />
    <glyph glyph-name="phosamphaothai" unicode="&#xc0;" horiz-adv-x="788" 
d="M655 0v549c0 73.333 -24.833 128.833 -74.5 166.5s-110.167 56.5 -181.5 56.5c-113.333 0 -198.666 -41 -255.999 -123v-649h-143v61h82v607c75.333 110.667 181 166 317 166c42.667 0 83.167 -5.5 121.5 -16.5s72.166 -27.833 101.499 -50.5s52.5 -50.667 69.5 -84
s25.5 -72 25.5 -116v-567h-62z" />
    <glyph glyph-name="phosamphaothai" unicode="&#xe20;" horiz-adv-x="788" 
d="M655 0v549c0 73.333 -24.833 128.833 -74.5 166.5s-110.167 56.5 -181.5 56.5c-113.333 0 -198.666 -41 -255.999 -123v-649h-143v61h82v607c75.333 110.667 181 166 317 166c42.667 0 83.167 -5.5 121.5 -16.5s72.166 -27.833 101.499 -50.5s52.5 -50.667 69.5 -84
s25.5 -72 25.5 -116v-567h-62z" />
    <glyph glyph-name="momathai" unicode="&#xc1;" horiz-adv-x="778" 
d="M707 256c0 -40.667 -8 -77.502 -24 -110.502s-37.167 -61.333 -63.5 -85s-57.666 -42 -93.999 -55s-74.833 -19.5 -115.5 -19.5c-26 0 -52.667 3 -80 9s-53.333 14.833 -78 26.5s-47.167 25.334 -67.5 41.001s-37.5 33.167 -51.5 52.5v-115h-61v819h61v-545
c0 -32.667 8.16699 -62.667 24.5 -90s37.5 -51.166 63.5 -71.499s55.667 -36.333 89 -48s66.666 -17.5 99.999 -17.5c66.667 0 122.5 18.5 167.5 55.5s67.5 88.167 67.5 153.5v563h62v-563z" />
    <glyph glyph-name="momathai" unicode="&#xe21;" horiz-adv-x="778" 
d="M707 256c0 -40.667 -8 -77.502 -24 -110.502s-37.167 -61.333 -63.5 -85s-57.666 -42 -93.999 -55s-74.833 -19.5 -115.5 -19.5c-26 0 -52.667 3 -80 9s-53.333 14.833 -78 26.5s-47.167 25.334 -67.5 41.001s-37.5 33.167 -51.5 52.5v-115h-61v819h61v-545
c0 -32.667 8.16699 -62.667 24.5 -90s37.5 -51.166 63.5 -71.499s55.667 -36.333 89 -48s66.666 -17.5 99.999 -17.5c66.667 0 122.5 18.5 167.5 55.5s67.5 88.167 67.5 153.5v563h62v-563z" />
    <glyph glyph-name="yoyakthai" unicode="&#xc2;" horiz-adv-x="776" 
d="M705 113c-19.333 -23.333 -44 -43.999 -74 -61.999c-26 -14.667 -58.5 -28.834 -97.5 -42.501s-86.5 -20.5 -142.5 -20.5c-114.667 0 -201.667 25.5 -261 76.5s-89 114.167 -89 189.5c0 31.333 6.16699 60.333 18.5 87s27.333 49.834 45 69.501s36.834 36 57.501 49
s39.667 22.167 57 27.5c-40.667 3.33301 -77.5 18.833 -110.5 46.5s-49.5 65.5 -49.5 113.5c0 26 6.16699 50.333 18.5 73s28.833 42.167 49.5 58.5s45 28.833 73 37.5s57.667 13 89 13c26 0 47.167 -1.66699 63.5 -5s29.166 -6.33301 38.499 -9v-61
c-9.33301 2.66699 -22.166 5.66699 -38.499 9s-36.833 5 -61.5 5c-44 0 -82.667 -10.167 -116 -30.5s-50 -50.5 -50 -90.5c0 -22 5.83301 -41.167 17.5 -57.5s26.667 -29.5 45 -39.5s38.833 -17.5 61.5 -22.5s44.667 -7.5 66 -7.5h76v-61h-57
c-26 0 -52.667 -4.83301 -80 -14.5s-52 -23.334 -74 -41.001s-39.833 -38.834 -53.5 -63.501s-20.5 -52.667 -20.5 -84c0 -61.333 26 -111.166 78 -149.499s121 -57.5 207 -57.5c41.333 0 77.666 5.16699 108.999 15.5s58 20.833 80 31.5c24 14 45 29 63 45v678h62v-706z
" />
    <glyph glyph-name="yoyakthai" unicode="&#xe22;" horiz-adv-x="776" 
d="M705 113c-19.333 -23.333 -44 -43.999 -74 -61.999c-26 -14.667 -58.5 -28.834 -97.5 -42.501s-86.5 -20.5 -142.5 -20.5c-114.667 0 -201.667 25.5 -261 76.5s-89 114.167 -89 189.5c0 31.333 6.16699 60.333 18.5 87s27.333 49.834 45 69.501s36.834 36 57.501 49
s39.667 22.167 57 27.5c-40.667 3.33301 -77.5 18.833 -110.5 46.5s-49.5 65.5 -49.5 113.5c0 26 6.16699 50.333 18.5 73s28.833 42.167 49.5 58.5s45 28.833 73 37.5s57.667 13 89 13c26 0 47.167 -1.66699 63.5 -5s29.166 -6.33301 38.499 -9v-61
c-9.33301 2.66699 -22.166 5.66699 -38.499 9s-36.833 5 -61.5 5c-44 0 -82.667 -10.167 -116 -30.5s-50 -50.5 -50 -90.5c0 -22 5.83301 -41.167 17.5 -57.5s26.667 -29.5 45 -39.5s38.833 -17.5 61.5 -22.5s44.667 -7.5 66 -7.5h76v-61h-57
c-26 0 -52.667 -4.83301 -80 -14.5s-52 -23.334 -74 -41.001s-39.833 -38.834 -53.5 -63.501s-20.5 -52.667 -20.5 -84c0 -61.333 26 -111.166 78 -149.499s121 -57.5 207 -57.5c41.333 0 77.666 5.16699 108.999 15.5s58 20.833 80 31.5c24 14 45 29 63 45v678h62v-706z
" />
    <glyph glyph-name="roruathai" unicode="&#xc3;" horiz-adv-x="725" 
d="M684 250c0 -44 -8.83984 -82.3311 -26.5068 -114.998s-41.5 -60.334 -71.5 -83.001s-64.5 -39.667 -103.5 -51s-79.167 -17 -120.5 -17c-40.667 0 -80.5 5.66699 -119.5 17s-73.5 28.333 -103.5 51s-53.833 50.334 -71.5 83.001s-26.5 71 -26.5 115h61
c0 -34 7.16699 -64 21.5 -90s33.833 -47.5 58.5 -64.5s52.667 -29.667 84 -38s63.333 -12.5 96 -12.5c33.333 0 65.333 4.16699 96 12.5s58.334 21 83.001 38s44.5 38.5 59.5 64.5s22.5 56 22.5 90c0 30 -7.16699 54.833 -21.5 74.5s-33.5 36.334 -57.5 50.001
s-50.667 24.667 -80 33s-59.666 15.166 -90.999 20.499c-37.333 6.66699 -74.666 14.167 -111.999 22.5s-70.666 19 -99.999 32s-53.666 30 -72.999 51s-29 47.833 -29 80.5c0 33.333 8.33301 63.166 25 89.499s38.5 48.833 65.5 67.5s58.333 33 94 43s71.834 15 108.501 15
c37.333 0 74 -4.33301 110 -13s68.333 -21.834 97 -39.501s53.334 -39.834 74.001 -66.501s34.334 -58.667 41.001 -96h-66c-8 27.333 -20.833 50.666 -38.5 69.999s-38.167 35.166 -61.5 47.499s-48.333 21.5 -75 27.5s-53.667 9 -81 9c-26 0 -52.667 -3.33301 -80 -10
s-51.833 -16.167 -73.5 -28.5s-39.334 -27.5 -53.001 -45.5s-20.5 -38.333 -20.5 -61c0 -23.333 7.83301 -42.166 23.5 -56.499s36.167 -26.333 61.5 -36s53.333 -17.5 84 -23.5l91 -18c38 -6.66699 74.833 -15.5 110.5 -26.5s67.5 -25.667 95.5 -44
s50.5 -41.166 67.5 -68.499s25.5 -60.666 25.5 -99.999z" />
    <glyph glyph-name="roruathai" unicode="&#xe23;" horiz-adv-x="725" 
d="M684 250c0 -44 -8.83984 -82.3311 -26.5068 -114.998s-41.5 -60.334 -71.5 -83.001s-64.5 -39.667 -103.5 -51s-79.167 -17 -120.5 -17c-40.667 0 -80.5 5.66699 -119.5 17s-73.5 28.333 -103.5 51s-53.833 50.334 -71.5 83.001s-26.5 71 -26.5 115h61
c0 -34 7.16699 -64 21.5 -90s33.833 -47.5 58.5 -64.5s52.667 -29.667 84 -38s63.333 -12.5 96 -12.5c33.333 0 65.333 4.16699 96 12.5s58.334 21 83.001 38s44.5 38.5 59.5 64.5s22.5 56 22.5 90c0 30 -7.16699 54.833 -21.5 74.5s-33.5 36.334 -57.5 50.001
s-50.667 24.667 -80 33s-59.666 15.166 -90.999 20.499c-37.333 6.66699 -74.666 14.167 -111.999 22.5s-70.666 19 -99.999 32s-53.666 30 -72.999 51s-29 47.833 -29 80.5c0 33.333 8.33301 63.166 25 89.499s38.5 48.833 65.5 67.5s58.333 33 94 43s71.834 15 108.501 15
c37.333 0 74 -4.33301 110 -13s68.333 -21.834 97 -39.501s53.334 -39.834 74.001 -66.501s34.334 -58.667 41.001 -96h-66c-8 27.333 -20.833 50.666 -38.5 69.999s-38.167 35.166 -61.5 47.499s-48.333 21.5 -75 27.5s-53.667 9 -81 9c-26 0 -52.667 -3.33301 -80 -10
s-51.833 -16.167 -73.5 -28.5s-39.334 -27.5 -53.001 -45.5s-20.5 -38.333 -20.5 -61c0 -23.333 7.83301 -42.166 23.5 -56.499s36.167 -26.333 61.5 -36s53.333 -17.5 84 -23.5l91 -18c38 -6.66699 74.833 -15.5 110.5 -26.5s67.5 -25.667 95.5 -44
s50.5 -41.166 67.5 -68.499s25.5 -60.666 25.5 -99.999z" />
    <glyph glyph-name="ruthai" unicode="&#xc4;" horiz-adv-x="778" 
d="M645 -307l-0.000976562 856c0 73.333 -24.833 128.833 -74.5 166.5s-110.167 56.5 -181.5 56.5c-113.333 0 -198.666 -41 -255.999 -123v-588h123v-61h-184v668c74.667 110.667 180.334 166 317.001 166c42.667 0 83 -5.5 121 -16.5s71.667 -27.833 101 -50.5
s52.666 -50.667 69.999 -84s26 -72 26 -116v-874h-62z" />
    <glyph glyph-name="ruthai" unicode="&#xe24;" horiz-adv-x="778" 
d="M645 -307l-0.000976562 856c0 73.333 -24.833 128.833 -74.5 166.5s-110.167 56.5 -181.5 56.5c-113.333 0 -198.666 -41 -255.999 -123v-588h123v-61h-184v668c74.667 110.667 180.334 166 317.001 166c42.667 0 83 -5.5 121 -16.5s71.667 -27.833 101 -50.5
s52.666 -50.667 69.999 -84s26 -72 26 -116v-874h-62z" />
    <glyph glyph-name="lolingthai" unicode="&#xc5;" horiz-adv-x="797" 
d="M664 0l-0.00488281 332c-22 46 -58.667 84.833 -110 116.5s-109.666 47.5 -174.999 47.5c-44 0 -83 -6.83301 -117 -20.5s-63 -32.167 -87 -55.5s-42.167 -50.333 -54.5 -81s-18.5 -63 -18.5 -97c0 -24.667 4.16699 -48.667 12.5 -72s19.666 -43.5 33.999 -60.5
s31.333 -31 51 -42s41.834 -16.5 66.501 -16.5c22 0 40.833 2 56.5 6s31.834 11.667 48.501 23l37 -49c-23.333 -15.333 -45.333 -26 -66 -32s-46 -9 -76 -9c-34 0 -64.667 6.83301 -92 20.5s-50.833 32.334 -70.5 56.001s-35 50.667 -46 81s-16.5 61.833 -16.5 94.5
c0 40.667 7.5 79.834 22.5 117.501s36.833 71.167 65.5 100.5s63.834 52.833 105.501 70.5s89.834 26.5 144.501 26.5c69.333 0 126.5 -12 171.5 -36s82.833 -51.667 113.5 -83v125c0 32.667 -7.66699 61.667 -23 87s-35.166 47.166 -59.499 65.499
s-52.166 32.333 -83.499 42s-63.666 14.5 -96.999 14.5c-57.333 0 -110.166 -14.667 -158.499 -44s-80.833 -67.333 -97.5 -114h-65c8 33.333 23 63.166 45 89.499s47.667 49.5 77 69.5s61.666 35.167 96.999 45.5s71.666 15.5 108.999 15.5
c40.667 0 80.167 -6.5 118.5 -19.5s72.166 -31.5 101.499 -55.5s52.833 -52.333 70.5 -85s26.5 -69.667 26.5 -111v-563h-61z" />
    <glyph glyph-name="lolingthai" unicode="&#xe25;" horiz-adv-x="797" 
d="M664 0l-0.00488281 332c-22 46 -58.667 84.833 -110 116.5s-109.666 47.5 -174.999 47.5c-44 0 -83 -6.83301 -117 -20.5s-63 -32.167 -87 -55.5s-42.167 -50.333 -54.5 -81s-18.5 -63 -18.5 -97c0 -24.667 4.16699 -48.667 12.5 -72s19.666 -43.5 33.999 -60.5
s31.333 -31 51 -42s41.834 -16.5 66.501 -16.5c22 0 40.833 2 56.5 6s31.834 11.667 48.501 23l37 -49c-23.333 -15.333 -45.333 -26 -66 -32s-46 -9 -76 -9c-34 0 -64.667 6.83301 -92 20.5s-50.833 32.334 -70.5 56.001s-35 50.667 -46 81s-16.5 61.833 -16.5 94.5
c0 40.667 7.5 79.834 22.5 117.501s36.833 71.167 65.5 100.5s63.834 52.833 105.501 70.5s89.834 26.5 144.501 26.5c69.333 0 126.5 -12 171.5 -36s82.833 -51.667 113.5 -83v125c0 32.667 -7.66699 61.667 -23 87s-35.166 47.166 -59.499 65.499
s-52.166 32.333 -83.499 42s-63.666 14.5 -96.999 14.5c-57.333 0 -110.166 -14.667 -158.499 -44s-80.833 -67.333 -97.5 -114h-65c8 33.333 23 63.166 45 89.499s47.667 49.5 77 69.5s61.666 35.167 96.999 45.5s71.666 15.5 108.999 15.5
c40.667 0 80.167 -6.5 118.5 -19.5s72.166 -31.5 101.499 -55.5s52.833 -52.333 70.5 -85s26.5 -69.667 26.5 -111v-563h-61z" />
    <glyph glyph-name="luthai" unicode="&#xc6;" horiz-adv-x="788" 
d="M655 -307v856c0 73.333 -24.833 128.833 -74.5 166.5s-110.167 56.5 -181.5 56.5c-113.333 0 -198.666 -41 -255.999 -123v-649h-143v61h82v607c75.333 110.667 181 166 317 166c42.667 0 83.167 -5.5 121.5 -16.5s72.166 -27.833 101.499 -50.5s52.5 -50.667 69.5 -84
s25.5 -72 25.5 -116v-874h-62z" />
    <glyph glyph-name="luthai" unicode="&#xe26;" horiz-adv-x="788" 
d="M655 -307v856c0 73.333 -24.833 128.833 -74.5 166.5s-110.167 56.5 -181.5 56.5c-113.333 0 -198.666 -41 -255.999 -123v-649h-143v61h82v607c75.333 110.667 181 166 317 166c42.667 0 83.167 -5.5 121.5 -16.5s72.166 -27.833 101.499 -50.5s52.5 -50.667 69.5 -84
s25.5 -72 25.5 -116v-874h-62z" />
    <glyph glyph-name="wowaenthai" unicode="&#xc7;" horiz-adv-x="721" 
d="M680 410c0 -56 -7.16504 -109.668 -21.498 -161.001s-35.833 -96.5 -64.5 -135.5s-63.834 -70 -105.501 -93s-90.5 -34.5 -146.5 -34.5c-34 0 -67.333 5.33301 -100 16s-62.667 26 -90 46s-51.333 44 -72 72s-35 59 -43 93h63c19.333 -50.667 51.166 -91 95.499 -121
s93.166 -45 146.499 -45c46.667 0 87 10.333 121 31s62.667 48 86 82s40.666 72.5 51.999 115.5s17 87.833 17 134.5c0 46 -5.66699 90.833 -17 134.5s-28.666 82.334 -51.999 116.001s-52 60.667 -86 81s-74.333 30.5 -121 30.5c-52 0 -100.5 -15 -145.5 -45
s-76.5 -70.333 -94.5 -121h-65c8 34 22.333 65 43 93s44.667 52 72 72s57.333 35.5 90 46.5s66 16.5 100 16.5c56 0 104.833 -11.667 146.5 -35s76.834 -54.5 105.501 -93.5s50.167 -84 64.5 -135s21.5 -104.5 21.5 -160.5z" />
    <glyph glyph-name="wowaenthai" unicode="&#xe27;" horiz-adv-x="721" 
d="M680 410c0 -56 -7.16504 -109.668 -21.498 -161.001s-35.833 -96.5 -64.5 -135.5s-63.834 -70 -105.501 -93s-90.5 -34.5 -146.5 -34.5c-34 0 -67.333 5.33301 -100 16s-62.667 26 -90 46s-51.333 44 -72 72s-35 59 -43 93h63c19.333 -50.667 51.166 -91 95.499 -121
s93.166 -45 146.499 -45c46.667 0 87 10.333 121 31s62.667 48 86 82s40.666 72.5 51.999 115.5s17 87.833 17 134.5c0 46 -5.66699 90.833 -17 134.5s-28.666 82.334 -51.999 116.001s-52 60.667 -86 81s-74.333 30.5 -121 30.5c-52 0 -100.5 -15 -145.5 -45
s-76.5 -70.333 -94.5 -121h-65c8 34 22.333 65 43 93s44.667 52 72 72s57.333 35.5 90 46.5s66 16.5 100 16.5c56 0 104.833 -11.667 146.5 -35s76.834 -54.5 105.501 -93.5s50.167 -84 64.5 -135s21.5 -104.5 21.5 -160.5z" />
    <glyph glyph-name="sosalathai" unicode="&#xc8;" horiz-adv-x="778" 
d="M645 0l-0.00292969 563c0 32.667 -7.16699 61.667 -21.5 87s-33.166 47.166 -56.499 65.499s-50.666 32.333 -81.999 42s-63.333 14.5 -96 14.5s-64.667 -4.83301 -96 -14.5s-58.666 -23.667 -81.999 -42s-42.166 -40.166 -56.499 -65.499s-21.5 -54.333 -21.5 -87v-117
h258v-61h-258v-385h-61v563c0 41.333 8.83301 78.333 26.5 111s41.167 61 70.5 85s63.166 42.5 101.499 55.5s77.833 19.5 118.5 19.5c54.667 0 106.667 -11.667 156 -35l69 82l50 -37l-64 -76c31.333 -23.333 57 -52.333 77 -87s30 -74 30 -118v-563h-62z" />
    <glyph glyph-name="sosalathai" unicode="&#xe28;" horiz-adv-x="778" 
d="M645 0l-0.00292969 563c0 32.667 -7.16699 61.667 -21.5 87s-33.166 47.166 -56.499 65.499s-50.666 32.333 -81.999 42s-63.333 14.5 -96 14.5s-64.667 -4.83301 -96 -14.5s-58.666 -23.667 -81.999 -42s-42.166 -40.166 -56.499 -65.499s-21.5 -54.333 -21.5 -87v-117
h258v-61h-258v-385h-61v563c0 41.333 8.83301 78.333 26.5 111s41.167 61 70.5 85s63.166 42.5 101.499 55.5s77.833 19.5 118.5 19.5c54.667 0 106.667 -11.667 156 -35l69 82l50 -37l-64 -76c31.333 -23.333 57 -52.333 77 -87s30 -74 30 -118v-563h-62z" />
    <glyph glyph-name="sorusithai" unicode="&#xc9;" horiz-adv-x="788" 
d="M707 403l0.00292969 -147c0 -40.667 -9 -77.5 -27 -110.5s-41.667 -61.333 -71 -85s-63 -42 -101 -55s-77.667 -19.5 -119 -19.5c-40.667 0 -80.167 6.5 -118.5 19.5s-72.166 31.333 -101.499 55s-52.833 52 -70.5 85s-26.5 69.833 -26.5 110.5v563h61v-563
c0 -32.667 7.16699 -61.667 21.5 -87s33.166 -47.166 56.499 -65.499s50.666 -32.333 81.999 -42s63.333 -14.5 96 -14.5s64.667 4.83301 96 14.5s58.666 23.667 81.999 42s42.166 40.166 56.499 65.499s21.5 54.333 21.5 87v147h-237v93l51 -31h186v354h62v-354h81v-62h-81
z" />
    <glyph glyph-name="sorusithai" unicode="&#xe29;" horiz-adv-x="788" 
d="M707 403l0.00292969 -147c0 -40.667 -9 -77.5 -27 -110.5s-41.667 -61.333 -71 -85s-63 -42 -101 -55s-77.667 -19.5 -119 -19.5c-40.667 0 -80.167 6.5 -118.5 19.5s-72.166 31.333 -101.499 55s-52.833 52 -70.5 85s-26.5 69.833 -26.5 110.5v563h61v-563
c0 -32.667 7.16699 -61.667 21.5 -87s33.166 -47.166 56.499 -65.499s50.666 -32.333 81.999 -42s63.333 -14.5 96 -14.5s64.667 4.83301 96 14.5s58.666 23.667 81.999 42s42.166 40.166 56.499 65.499s21.5 54.333 21.5 87v147h-237v93l51 -31h186v354h62v-354h81v-62h-81
z" />
    <glyph glyph-name="sosuathai" unicode="&#xca;" horiz-adv-x="797" 
d="M664 0l-0.00585938 332c-22 46 -58.667 84.833 -110 116.5s-109.666 47.5 -174.999 47.5c-44 0 -83 -6.83301 -117 -20.5s-63 -32.167 -87 -55.5s-42.167 -50.333 -54.5 -81s-18.5 -63 -18.5 -97c0 -24.667 4.16699 -48.667 12.5 -72s19.666 -43.5 33.999 -60.5
s31.333 -31 51 -42s41.834 -16.5 66.501 -16.5c22 0 40.833 2 56.5 6s31.834 11.667 48.501 23l37 -49c-23.333 -15.333 -45.333 -26 -66 -32s-46 -9 -76 -9c-34 0 -64.667 6.83301 -92 20.5s-50.833 32.334 -70.5 56.001s-35 50.667 -46 81s-16.5 61.833 -16.5 94.5
c0 40.667 7.5 79.834 22.5 117.501s36.833 71.167 65.5 100.5s63.834 52.833 105.501 70.5s89.834 26.5 144.501 26.5c69.333 0 126.5 -12 171.5 -36s82.833 -51.667 113.5 -83v125c0 32.667 -7.66699 61.667 -23 87s-35.166 47.166 -59.499 65.499
s-52.166 32.333 -83.499 42s-63.666 14.5 -96.999 14.5c-57.333 0 -110.166 -14.667 -158.499 -44s-80.833 -67.333 -97.5 -114h-65c8 33.333 23 63.166 45 89.499s47.667 49.5 77 69.5s61.666 35.167 96.999 45.5s71.666 15.5 108.999 15.5c54 0 106.333 -11.667 157 -35
l68 82l49 -37l-64 -76c32 -23.333 57.833 -52.333 77.5 -87s29.5 -74 29.5 -118v-563h-61z" />
    <glyph glyph-name="sosuathai" unicode="&#xe2a;" horiz-adv-x="797" 
d="M664 0l-0.00585938 332c-22 46 -58.667 84.833 -110 116.5s-109.666 47.5 -174.999 47.5c-44 0 -83 -6.83301 -117 -20.5s-63 -32.167 -87 -55.5s-42.167 -50.333 -54.5 -81s-18.5 -63 -18.5 -97c0 -24.667 4.16699 -48.667 12.5 -72s19.666 -43.5 33.999 -60.5
s31.333 -31 51 -42s41.834 -16.5 66.501 -16.5c22 0 40.833 2 56.5 6s31.834 11.667 48.501 23l37 -49c-23.333 -15.333 -45.333 -26 -66 -32s-46 -9 -76 -9c-34 0 -64.667 6.83301 -92 20.5s-50.833 32.334 -70.5 56.001s-35 50.667 -46 81s-16.5 61.833 -16.5 94.5
c0 40.667 7.5 79.834 22.5 117.501s36.833 71.167 65.5 100.5s63.834 52.833 105.501 70.5s89.834 26.5 144.501 26.5c69.333 0 126.5 -12 171.5 -36s82.833 -51.667 113.5 -83v125c0 32.667 -7.66699 61.667 -23 87s-35.166 47.166 -59.499 65.499
s-52.166 32.333 -83.499 42s-63.666 14.5 -96.999 14.5c-57.333 0 -110.166 -14.667 -158.499 -44s-80.833 -67.333 -97.5 -114h-65c8 33.333 23 63.166 45 89.499s47.667 49.5 77 69.5s61.666 35.167 96.999 45.5s71.666 15.5 108.999 15.5c54 0 106.333 -11.667 157 -35
l68 82l49 -37l-64 -76c32 -23.333 57.833 -52.333 77.5 -87s29.5 -74 29.5 -118v-563h-61z" />
    <glyph glyph-name="hohipthai" unicode="&#xcb;" horiz-adv-x="788" 
d="M666 0v403.003c0 33.333 -8.33301 63.166 -25 89.499s-38.167 48.166 -64.5 65.499s-56 29.666 -89 36.999s-66.5 8.33301 -100.5 3l-254 -158v-440h-61v819h61v-309l508 309l47 -33l-215 -135c74 -8 134.833 -33.167 182.5 -75.5s71.5 -98.833 71.5 -169.5v-406h-61z
" />
    <glyph glyph-name="hohipthai" unicode="&#xe2b;" horiz-adv-x="788" 
d="M666 0v403.003c0 33.333 -8.33301 63.166 -25 89.499s-38.167 48.166 -64.5 65.499s-56 29.666 -89 36.999s-66.5 8.33301 -100.5 3l-254 -158v-440h-61v819h61v-309l508 309l47 -33l-215 -135c74 -8 134.833 -33.167 182.5 -75.5s71.5 -98.833 71.5 -169.5v-406h-61z
" />
    <glyph glyph-name="lochulathai" unicode="&#xcc;" horiz-adv-x="983" 
d="M1010 909c-14 -44.667 -33.668 -75.1699 -59.001 -91.5029s-53.666 -28.833 -84.999 -37.5c30 -18.667 50.167 -41.667 60.5 -69s10.166 -61.666 -0.500977 -102.999l-156 -608h-53l-228 717l-223 -717h-51l-215 819h59l185 -717l219 717h55l223 -717l127 502
c7.33301 27.333 8.83301 51.333 4.5 72s-12.333 37.834 -24 51.501s-26.667 23.834 -45 30.501s-38.5 10 -60.5 10h-71v51h82c60 0 105.333 7.5 136 22.5s51.334 42.5 62.001 82.5l29 100h61z" />
    <glyph glyph-name="lochulathai" unicode="&#xe2c;" horiz-adv-x="983" 
d="M1010 909c-14 -44.667 -33.668 -75.1699 -59.001 -91.5029s-53.666 -28.833 -84.999 -37.5c30 -18.667 50.167 -41.667 60.5 -69s10.166 -61.666 -0.500977 -102.999l-156 -608h-53l-228 717l-223 -717h-51l-215 819h59l185 -717l219 717h55l223 -717l127 502
c7.33301 27.333 8.83301 51.333 4.5 72s-12.333 37.834 -24 51.501s-26.667 23.834 -45 30.501s-38.5 10 -60.5 10h-71v51h82c60 0 105.333 7.5 136 22.5s51.334 42.5 62.001 82.5l29 100h61z" />
    <glyph glyph-name="oangthai" unicode="&#xcd;" horiz-adv-x="852" 
d="M811 410c0 -62 -9.16406 -118.832 -27.4971 -170.499s-44.333 -96.334 -78 -134.001s-74.334 -67 -122.001 -88s-100.167 -31.5 -157.5 -31.5s-109.833 10.5 -157.5 31.5s-88.334 50.333 -122.001 88s-59.667 82.334 -78 134.001s-27.5 108.5 -27.5 170.5
c0 14.667 0.666992 27.834 2 39.501s2.66602 22.167 3.99902 31.5h262v-61h-207v-10c0 -52 8 -100.167 24 -144.5s38.333 -82.666 67 -114.999s62.667 -57.666 102 -75.999s83 -27.5 131 -27.5s91.667 9.16699 131 27.5s73.333 43.666 102 75.999s51 70.666 67 114.999
s24 92.5 24 144.5c0 51.333 -7.5 99.333 -22.5 144s-37 83 -66 115s-63.167 57.167 -102.5 75.5s-83.666 27.5 -132.999 27.5c-69.333 0 -129.333 -17.667 -180 -53s-88.334 -84 -113.001 -146h-65c25.333 79.333 69.166 142.666 131.499 189.999s137.833 71 226.5 71
c57.333 0 109.833 -10.667 157.5 -32s88.334 -50.833 122.001 -88.5s59.667 -82.334 78 -134.001s27.5 -108.167 27.5 -169.5z" />
    <glyph glyph-name="oangthai" unicode="&#xe2d;" horiz-adv-x="852" 
d="M811 410c0 -62 -9.16406 -118.832 -27.4971 -170.499s-44.333 -96.334 -78 -134.001s-74.334 -67 -122.001 -88s-100.167 -31.5 -157.5 -31.5s-109.833 10.5 -157.5 31.5s-88.334 50.333 -122.001 88s-59.667 82.334 -78 134.001s-27.5 108.5 -27.5 170.5
c0 14.667 0.666992 27.834 2 39.501s2.66602 22.167 3.99902 31.5h262v-61h-207v-10c0 -52 8 -100.167 24 -144.5s38.333 -82.666 67 -114.999s62.667 -57.666 102 -75.999s83 -27.5 131 -27.5s91.667 9.16699 131 27.5s73.333 43.666 102 75.999s51 70.666 67 114.999
s24 92.5 24 144.5c0 51.333 -7.5 99.333 -22.5 144s-37 83 -66 115s-63.167 57.167 -102.5 75.5s-83.666 27.5 -132.999 27.5c-69.333 0 -129.333 -17.667 -180 -53s-88.334 -84 -113.001 -146h-65c25.333 79.333 69.166 142.666 131.499 189.999s137.833 71 226.5 71
c57.333 0 109.833 -10.667 157.5 -32s88.334 -50.833 122.001 -88.5s59.667 -82.334 78 -134.001s27.5 -108.167 27.5 -169.5z" />
    <glyph glyph-name="honokhukthai" unicode="&#xce;" horiz-adv-x="852" 
d="M811 410c0 -62 -9.16309 -118.835 -27.4961 -170.502s-44.333 -96.334 -78 -134.001s-74.334 -67 -122.001 -88s-100.167 -31.5 -157.5 -31.5s-109.833 10.5 -157.5 31.5s-88.334 50.333 -122.001 88s-59.667 82.334 -78 134.001s-27.5 108.5 -27.5 170.5
c0 10.667 0.666992 22.834 2 36.501s2.66602 25.167 3.99902 34.5h262v-61h-207v-10c0 -52 8 -100.167 24 -144.5s38.333 -82.666 67 -114.999s62.667 -57.666 102 -75.999s83 -27.5 131 -27.5s91.667 9.16699 131 27.5s73.333 43.666 102 75.999s51 70.666 67 114.999
s24 92.5 24 144.5c0 51.333 -7.5 99.333 -22.5 144s-37 83 -66 115s-63.167 57.167 -102.5 75.5s-83.666 27.5 -132.999 27.5c-69.333 0 -129.333 -17.667 -180 -53s-88.334 -84 -113.001 -146h-65c25.333 79.333 69.166 142.666 131.499 189.999s137.833 71 226.5 71
c60 0 117.333 -13 172 -39l70 86l45 -33l-66 -82c52 -35.333 92.333 -84.166 121 -146.499s43 -132.166 43 -209.499z" />
    <glyph glyph-name="honokhukthai" unicode="&#xe2e;" horiz-adv-x="852" 
d="M811 410c0 -62 -9.16309 -118.835 -27.4961 -170.502s-44.333 -96.334 -78 -134.001s-74.334 -67 -122.001 -88s-100.167 -31.5 -157.5 -31.5s-109.833 10.5 -157.5 31.5s-88.334 50.333 -122.001 88s-59.667 82.334 -78 134.001s-27.5 108.5 -27.5 170.5
c0 10.667 0.666992 22.834 2 36.501s2.66602 25.167 3.99902 34.5h262v-61h-207v-10c0 -52 8 -100.167 24 -144.5s38.333 -82.666 67 -114.999s62.667 -57.666 102 -75.999s83 -27.5 131 -27.5s91.667 9.16699 131 27.5s73.333 43.666 102 75.999s51 70.666 67 114.999
s24 92.5 24 144.5c0 51.333 -7.5 99.333 -22.5 144s-37 83 -66 115s-63.167 57.167 -102.5 75.5s-83.666 27.5 -132.999 27.5c-69.333 0 -129.333 -17.667 -180 -53s-88.334 -84 -113.001 -146h-65c25.333 79.333 69.166 142.666 131.499 189.999s137.833 71 226.5 71
c60 0 117.333 -13 172 -39l70 86l45 -33l-66 -82c52 -35.333 92.333 -84.166 121 -146.499s43 -132.166 43 -209.499z" />
    <glyph glyph-name="paiyannoithai" unicode="&#xcf;" horiz-adv-x="770" 
d="M637 0v597.998l-31.5 -30.5c-15.667 -15 -37.167 -29.667 -64.5 -44s-60.833 -27.333 -100.5 -39s-86.167 -17.5 -139.5 -17.5c-83.333 0 -147.5 18 -192.5 54s-67.5 79.333 -67.5 130c0 26 5.83301 50 17.5 72s27.667 40.833 48 56.5s44.166 27.834 71.499 36.501
s56.666 13 87.999 13c26 0 47.167 -1.66699 63.5 -5s29.5 -6.33301 39.5 -9v-61c-10 2.66699 -23.167 6 -39.5 10s-36.833 6 -61.5 6c-43.333 0 -81.833 -9.83301 -115.5 -29.5s-50.5 -49.5 -50.5 -89.5c0 -20 5.5 -38 16.5 -54s25.667 -29.333 44 -40
s39.833 -19.167 64.5 -25.5s50 -9.5 76 -9.5c53.333 0 99.833 6.5 139.5 19.5s72.834 28.333 99.501 46s47.834 35.834 63.501 54.501s26.167 32.667 31.5 42v135h61v-819h-61z" />
    <glyph glyph-name="paiyannoithai" unicode="&#xe2f;" horiz-adv-x="770" 
d="M637 0v597.998l-31.5 -30.5c-15.667 -15 -37.167 -29.667 -64.5 -44s-60.833 -27.333 -100.5 -39s-86.167 -17.5 -139.5 -17.5c-83.333 0 -147.5 18 -192.5 54s-67.5 79.333 -67.5 130c0 26 5.83301 50 17.5 72s27.667 40.833 48 56.5s44.166 27.834 71.499 36.501
s56.666 13 87.999 13c26 0 47.167 -1.66699 63.5 -5s29.5 -6.33301 39.5 -9v-61c-10 2.66699 -23.167 6 -39.5 10s-36.833 6 -61.5 6c-43.333 0 -81.833 -9.83301 -115.5 -29.5s-50.5 -49.5 -50.5 -89.5c0 -20 5.5 -38 16.5 -54s25.667 -29.333 44 -40
s39.833 -19.167 64.5 -25.5s50 -9.5 76 -9.5c53.333 0 99.833 6.5 139.5 19.5s72.834 28.333 99.501 46s47.834 35.834 63.501 54.501s26.167 32.667 31.5 42v135h61v-819h-61z" />
    <glyph glyph-name="saraathai" unicode="&#xd0;" horiz-adv-x="236" 
d="M41 602v115h61v-55h134v-60h-195zM41 102v115h61v-55h134v-60h-195z" />
    <glyph glyph-name="saraathai" unicode="&#xe30;" horiz-adv-x="236" 
d="M41 602v115h61v-55h134v-60h-195zM41 102v115h61v-55h134v-60h-195z" />
    <glyph glyph-name="maihanakatthai" unicode="&#xd1;" 
d="M-338 922v122h62v-61h471v-61h-533z" />
    <glyph glyph-name="maihanakatthai" unicode="&#xe31;" 
d="M-338 922v122h62v-61h471v-61h-533z" />
    <glyph glyph-name="saraaathai" unicode="&#xd2;" horiz-adv-x="539" 
d="M406 0l0.000976562 527.997c0 75.333 -18.833 135.5 -56.5 180.5s-94.167 67.5 -169.5 67.5c-35.333 0 -68 -6.16699 -98 -18.5s-50.667 -22.5 -62 -30.5v64c11.333 6.66699 32 15.5 62 26.5s63.333 16.5 100 16.5c49.333 0 91.666 -7.66699 126.999 -23
s65 -36.166 89 -62.499s41.5 -56.666 52.5 -90.999s16.5 -71.166 16.5 -110.499v-547h-61z" />
    <glyph glyph-name="saraaathai" unicode="&#xe32;" horiz-adv-x="539" 
d="M406 0l0.000976562 527.997c0 75.333 -18.833 135.5 -56.5 180.5s-94.167 67.5 -169.5 67.5c-35.333 0 -68 -6.16699 -98 -18.5s-50.667 -22.5 -62 -30.5v64c11.333 6.66699 32 15.5 62 26.5s63.333 16.5 100 16.5c49.333 0 91.666 -7.66699 126.999 -23
s65 -36.166 89 -62.499s41.5 -56.666 52.5 -90.999s16.5 -71.166 16.5 -110.499v-547h-61z" />
    <glyph glyph-name="saraamthai" unicode="&#xd3;" horiz-adv-x="657" 
d="M-276 961c0 -23.333 -9 -43.666 -27 -60.999s-38.667 -26 -62 -26c-22.667 0 -43 8.66699 -61 26s-27 37.666 -27 60.999c0 22.667 9 43 27 61s38.333 27 61 27c23.333 0 44 -9 62 -27s27 -38.333 27 -61zM461 0l-0.000976562 527.997
c0 75.333 -18.833 135.5 -56.5 180.5s-93.834 67.5 -168.501 67.5c-36 0 -69 -6.16699 -99 -18.5s-50.333 -22.5 -61 -30.5v64c10.667 6.66699 31 15.5 61 26.5s63.667 16.5 101 16.5c48.667 0 90.834 -7.66699 126.501 -23s65.334 -36.166 89.001 -62.499
s41 -56.666 52 -90.999s16.5 -71.166 16.5 -110.499v-547h-61zM-324.001 960.997c0 10.667 -4.33301 20.5 -13 29.5s-18.667 13.5 -30 13.5c-10.667 0 -20.5 -4.5 -29.5 -13.5s-13.5 -18.833 -13.5 -29.5c0 -11.333 4.5 -21.333 13.5 -30s18.833 -13 29.5 -13
c11.333 0 21.333 4.33301 30 13s13 18.667 13 30z" />
    <glyph glyph-name="saraamthai" unicode="&#xe33;" horiz-adv-x="657" 
d="M-276 961c0 -23.333 -9 -43.666 -27 -60.999s-38.667 -26 -62 -26c-22.667 0 -43 8.66699 -61 26s-27 37.666 -27 60.999c0 22.667 9 43 27 61s38.333 27 61 27c23.333 0 44 -9 62 -27s27 -38.333 27 -61zM461 0l-0.000976562 527.997
c0 75.333 -18.833 135.5 -56.5 180.5s-93.834 67.5 -168.501 67.5c-36 0 -69 -6.16699 -99 -18.5s-50.333 -22.5 -61 -30.5v64c10.667 6.66699 31 15.5 61 26.5s63.667 16.5 101 16.5c48.667 0 90.834 -7.66699 126.501 -23s65.334 -36.166 89.001 -62.499
s41 -56.666 52 -90.999s16.5 -71.166 16.5 -110.499v-547h-61zM-324.001 960.997c0 10.667 -4.33301 20.5 -13 29.5s-18.667 13.5 -30 13.5c-10.667 0 -20.5 -4.5 -29.5 -13.5s-13.5 -18.833 -13.5 -29.5c0 -11.333 4.5 -21.333 13.5 -30s18.833 -13 29.5 -13
c11.333 0 21.333 4.33301 30 13s13 18.667 13 30z" />
    <glyph glyph-name="saraithai" unicode="&#xd4;" 
d="M-666 922v61h594v-61h-594z" />
    <glyph glyph-name="saraithai" unicode="&#xe34;" 
d="M-666 922v61h594v-61h-594z" />
    <glyph glyph-name="saraiithai" unicode="&#xd5;" 
d="M-666 922v61h533v102h61v-163h-594z" />
    <glyph glyph-name="saraiithai" unicode="&#xe35;" 
d="M-666 922v61h533v102h61v-163h-594z" />
    <glyph glyph-name="sarauethai" unicode="&#xd6;" 
d="M-14 1008c0 -23.333 -9 -43.5 -27 -60.5s-38.333 -25.5 -61 -25.5h-564v61h480c-2.66699 10.667 -4 19 -4 25c0 22.667 8.83301 43 26.5 61s38.167 27 61.5 27c22.667 0 43 -9 61 -27s27 -38.333 27 -61zM-61 1008c0 10.667 -4.5 20.5 -13.5 29.5
s-18.833 13.5 -29.5 13.5c-11.333 0 -21.333 -4.5 -30 -13.5s-13 -18.833 -13 -29.5c0 -11.333 4.33301 -21.333 13 -30s18.667 -13 30 -13c10.667 0 20.5 4.33301 29.5 13s13.5 18.667 13.5 30z" />
    <glyph glyph-name="sarauethai" unicode="&#xe36;" 
d="M-14 1008c0 -23.333 -9 -43.5 -27 -60.5s-38.333 -25.5 -61 -25.5h-564v61h480c-2.66699 10.667 -4 19 -4 25c0 22.667 8.83301 43 26.5 61s38.167 27 61.5 27c22.667 0 43 -9 61 -27s27 -38.333 27 -61zM-61 1008c0 10.667 -4.5 20.5 -13.5 29.5
s-18.833 13.5 -29.5 13.5c-11.333 0 -21.333 -4.5 -30 -13.5s-13 -18.833 -13 -29.5c0 -11.333 4.33301 -21.333 13 -30s18.667 -13 30 -13c10.667 0 20.5 4.33301 29.5 13s13.5 18.667 13.5 30z" />
    <glyph glyph-name="saraueethai" unicode="&#xd7;" 
d="M-666 922v61h410v102h61v-102h62v102h61v-163h-594z" />
    <glyph glyph-name="saraueethai" unicode="&#xe37;" 
d="M-666 922v61h410v102h61v-102h62v102h61v-163h-594z" />
    <glyph glyph-name="sarauthai" unicode="&#xd8;" 
d="M-133 -307v164h-82v61h143v-225h-61z" />
    <glyph glyph-name="sarauthai" unicode="&#xe38;" 
d="M-133 -307v164h-82v61h143v-225h-61z" />
    <glyph glyph-name="sarauuthai" unicode="&#xd9;" 
d="M-72 -190c0 -37.333 -15.002 -67.167 -45.002 -89.5s-64 -33.5 -102 -33.5c-26 0 -52 5.33301 -78 16s-46.333 27 -61 49v105h-62v61h123v-145c10.667 -14 24.334 -23 41.001 -27s30.334 -6 41.001 -6c20.667 0 39.5 6.5 56.5 19.5s25.5 30.5 25.5 52.5v106h61v-108z" />
    <glyph glyph-name="sarauuthai" unicode="&#xe39;" 
d="M-72 -190c0 -37.333 -15.002 -67.167 -45.002 -89.5s-64 -33.5 -102 -33.5c-26 0 -52 5.33301 -78 16s-46.333 27 -61 49v105h-62v61h123v-145c10.667 -14 24.334 -23 41.001 -27s30.334 -6 41.001 -6c20.667 0 39.5 6.5 56.5 19.5s25.5 30.5 25.5 52.5v106h61v-108z" />
    <glyph glyph-name="phinthuthai" unicode="&#xda;" 
d="M-47 -137c0 -15.333 -5.5 -28.5 -16.5 -39.5s-23.833 -16.5 -38.5 -16.5c-15.333 0 -28.5 5.5 -39.5 16.5s-16.5 24.167 -16.5 39.5c0 14.667 5.5 27.5 16.5 38.5s24.167 16.5 39.5 16.5c14.667 0 27.5 -5.5 38.5 -16.5s16.5 -23.833 16.5 -38.5z" />
    <glyph glyph-name="phinthuthai" unicode="&#xe3a;" 
d="M-47 -137c0 -15.333 -5.5 -28.5 -16.5 -39.5s-23.833 -16.5 -38.5 -16.5c-15.333 0 -28.5 5.5 -39.5 16.5s-16.5 24.167 -16.5 39.5c0 14.667 5.5 27.5 16.5 38.5s24.167 16.5 39.5 16.5c14.667 0 27.5 -5.5 38.5 -16.5s16.5 -23.833 16.5 -38.5z" />
    <glyph glyph-name="PU2005.003" unicode="&#xdb;" 
 />
    <glyph glyph-name="PU2005.003" unicode="&#xe3b;" 
 />
    <glyph glyph-name="PU2005.002" unicode="&#xdc;" 
 />
    <glyph glyph-name="PU2005.002" unicode="&#xe3c;" 
 />
    <glyph glyph-name="PU2005.001" unicode="&#xdd;" 
 />
    <glyph glyph-name="PU2005.001" unicode="&#xe3d;" 
 />
    <glyph glyph-name="bahtthai" unicode="&#xdf;" horiz-adv-x="768" 
d="M715 301c0 -43.333 -7.83203 -84.168 -23.499 -122.501s-40.167 -71.833 -73.5 -100.5c-36.667 -32.667 -74.834 -53.834 -114.501 -63.501s-83.167 -14.5 -130.5 -14.5h-4v-174h-64v174h-201v1081h201v164h64v-166c30 -2.66699 58.667 -8 86 -16s53 -23 77 -45
c32 -28.667 54.833 -62.167 68.5 -100.5s20.5 -79.166 20.5 -122.499c0 -48 -9.33301 -89.5 -28 -124.5s-49.667 -66.833 -93 -95.5c68 -18.667 120.833 -52.667 158.5 -102s56.5 -106.666 56.5 -171.999zM553.001 804.998c0 35.333 -6.83398 68.668 -20.501 100.001
s-35.5 56.666 -65.5 75.999c-15.333 10.667 -31.166 18.167 -47.499 22.5s-33.166 7.83301 -50.499 10.5v-422c18.667 2.66699 36.667 6.33398 54 11.001s34.666 14 51.999 28c30 23.333 50.5 48.666 61.5 75.999s16.5 60 16.5 98zM305 1018h-18h-117v-428h117h18v428z
M647 299c0 39.333 -8.83301 76.832 -26.5 112.499s-44.167 62.5 -79.5 80.5c-24.667 12 -52 20.333 -82 25s-60 7.66699 -90 9v-465c31.333 0 62 2.83301 92 8.5s58.667 17.834 86 36.501c31.333 22 55.833 49.5 73.5 82.5s26.5 69.833 26.5 110.5zM305 525.999h-135v-465
h135v465z" />
    <glyph glyph-name="bahtthai" unicode="&#xe3f;" horiz-adv-x="768" 
d="M715 301c0 -43.333 -7.83203 -84.168 -23.499 -122.501s-40.167 -71.833 -73.5 -100.5c-36.667 -32.667 -74.834 -53.834 -114.501 -63.501s-83.167 -14.5 -130.5 -14.5h-4v-174h-64v174h-201v1081h201v164h64v-166c30 -2.66699 58.667 -8 86 -16s53 -23 77 -45
c32 -28.667 54.833 -62.167 68.5 -100.5s20.5 -79.166 20.5 -122.499c0 -48 -9.33301 -89.5 -28 -124.5s-49.667 -66.833 -93 -95.5c68 -18.667 120.833 -52.667 158.5 -102s56.5 -106.666 56.5 -171.999zM553.001 804.998c0 35.333 -6.83398 68.668 -20.501 100.001
s-35.5 56.666 -65.5 75.999c-15.333 10.667 -31.166 18.167 -47.499 22.5s-33.166 7.83301 -50.499 10.5v-422c18.667 2.66699 36.667 6.33398 54 11.001s34.666 14 51.999 28c30 23.333 50.5 48.666 61.5 75.999s16.5 60 16.5 98zM305 1018h-18h-117v-428h117h18v428z
M647 299c0 39.333 -8.83301 76.832 -26.5 112.499s-44.167 62.5 -79.5 80.5c-24.667 12 -52 20.333 -82 25s-60 7.66699 -90 9v-465c31.333 0 62 2.83301 92 8.5s58.667 17.834 86 36.501c31.333 22 55.833 49.5 73.5 82.5s26.5 69.833 26.5 110.5zM305 525.999h-135v-465
h135v465z" />
    <glyph glyph-name="saraethai" unicode="&#xe0;" horiz-adv-x="246" 
d="M92 0v819h62v-819h-62z" />
    <glyph glyph-name="saraethai" unicode="&#xe40;" horiz-adv-x="246" 
d="M92 0v819h62v-819h-62z" />
    <glyph glyph-name="saraaethai" unicode="&#xe1;" horiz-adv-x="430" 
d="M276 0v819h62v-819h-62zM92 0v819h62v-819h-62z" />
    <glyph glyph-name="saraaethai" unicode="&#xe41;" horiz-adv-x="430" 
d="M276 0v819h62v-819h-62zM92 0v819h62v-819h-62z" />
    <glyph glyph-name="saraothai" unicode="&#xe2;" horiz-adv-x="266" 
d="M96 1208c-20 0 -37.668 -4.00098 -53.001 -12.001s-23 -19.667 -23 -35c0 -17.333 8 -31.166 24 -41.499l53.5 -35c19.667 -13 37.334 -29.667 53.001 -50s23.5 -50.5 23.5 -90.5v-944h-61v946c0 30 -7.83301 53.167 -23.5 69.5s-33.5 31 -53.5 44
s-37.833 26.667 -53.5 41s-23.5 34.5 -23.5 60.5c0 35.333 15 62.333 45 81s65 28 105 28h251v-62h-264z" />
    <glyph glyph-name="saraothai" unicode="&#xe42;" horiz-adv-x="266" 
d="M96 1208c-20 0 -37.668 -4.00098 -53.001 -12.001s-23 -19.667 -23 -35c0 -17.333 8 -31.166 24 -41.499l53.5 -35c19.667 -13 37.334 -29.667 53.001 -50s23.5 -50.5 23.5 -90.5v-944h-61v946c0 30 -7.83301 53.167 -23.5 69.5s-33.5 31 -53.5 44
s-37.833 26.667 -53.5 41s-23.5 34.5 -23.5 60.5c0 35.333 15 62.333 45 81s65 28 105 28h251v-62h-264z" />
    <glyph glyph-name="saraaimaimuanthai" unicode="&#xe3;" horiz-adv-x="266" 
d="M279 1124c0 -27.333 -5.50098 -48.502 -16.501 -63.502s-23 -28.667 -36 -41s-25 -25.666 -36 -39.999s-16.5 -34.833 -16.5 -61.5v-918h-61v928c0 28.667 5.33301 51.167 16 67.5s22.5 30.666 35.5 42.999s25 24.333 36 36s16.5 26.834 16.5 45.501
c0 30 -11.667 55 -35 75s-54.666 30 -93.999 30s-72 -11 -98 -33s-39 -48.667 -39 -80h-62c0 46.667 19.167 86.334 57.5 119.001s85.5 49 141.5 49s101.833 -15 137.5 -45s53.5 -67 53.5 -111z" />
    <glyph glyph-name="saraaimaimuanthai" unicode="&#xe43;" horiz-adv-x="266" 
d="M279 1124c0 -27.333 -5.50098 -48.502 -16.501 -63.502s-23 -28.667 -36 -41s-25 -25.666 -36 -39.999s-16.5 -34.833 -16.5 -61.5v-918h-61v928c0 28.667 5.33301 51.167 16 67.5s22.5 30.666 35.5 42.999s25 24.333 36 36s16.5 26.834 16.5 45.501
c0 30 -11.667 55 -35 75s-54.666 30 -93.999 30s-72 -11 -98 -33s-39 -48.667 -39 -80h-62c0 46.667 19.167 86.334 57.5 119.001s85.5 49 141.5 49s101.833 -15 137.5 -45s53.5 -67 53.5 -111z" />
    <glyph glyph-name="saraaimaimalaithai" unicode="&#xe4;" horiz-adv-x="266" 
d="M268 1133c-23.333 -19.333 -44.833 -45 -64.5 -77s-29.5 -68 -29.5 -108v-948h-61v934c0 46.667 10.5 86 31.5 118s40.5 54.667 58.5 68l-49 58l-103 -88l-176 141l37 43l139 -111l115 94z" />
    <glyph glyph-name="saraaimaimalaithai" unicode="&#xe44;" horiz-adv-x="266" 
d="M268 1133c-23.333 -19.333 -44.833 -45 -64.5 -77s-29.5 -68 -29.5 -108v-948h-61v934c0 46.667 10.5 86 31.5 118s40.5 54.667 58.5 68l-49 58l-103 -88l-176 141l37 43l139 -111l115 94z" />
    <glyph glyph-name="lakkhangyaothai" unicode="&#xe5;" horiz-adv-x="539" 
d="M406 -307l0.000976562 834.997c0 75.333 -18.833 135.5 -56.5 180.5s-94.167 67.5 -169.5 67.5c-35.333 0 -68 -6.16699 -98 -18.5s-50.667 -22.5 -62 -30.5v64c11.333 6.66699 32 15.5 62 26.5s63.333 16.5 100 16.5c49.333 0 91.666 -7.66699 126.999 -23
s65 -36.166 89 -62.499s41.5 -56.666 52.5 -90.999s16.5 -71.166 16.5 -110.499v-854h-61z" />
    <glyph glyph-name="lakkhangyaothai" unicode="&#xe45;" horiz-adv-x="539" 
d="M406 -307l0.000976562 834.997c0 75.333 -18.833 135.5 -56.5 180.5s-94.167 67.5 -169.5 67.5c-35.333 0 -68 -6.16699 -98 -18.5s-50.667 -22.5 -62 -30.5v64c11.333 6.66699 32 15.5 62 26.5s63.333 16.5 100 16.5c49.333 0 91.666 -7.66699 126.999 -23
s65 -36.166 89 -62.499s41.5 -56.666 52.5 -90.999s16.5 -71.166 16.5 -110.499v-854h-61z" />
    <glyph glyph-name="maiyamokthai" unicode="&#xe6;" horiz-adv-x="776" 
d="M643 -307v901c0 52 -13 93.667 -39 125s-58.667 50.333 -98 57l-133 -141l-133 141c-40 -6.66699 -73 -25.667 -99 -57s-39 -73 -39 -125v-57h168v-62h-229v119c0 72 20.5 129.167 61.5 171.5s94.833 63.5 161.5 63.5l109 -112l108 112
c67.333 0 121.5 -21.167 162.5 -63.5s61.5 -99.5 61.5 -171.5v-901h-62z" />
    <glyph glyph-name="maiyamokthai" unicode="&#xe46;" horiz-adv-x="776" 
d="M643 -307v901c0 52 -13 93.667 -39 125s-58.667 50.333 -98 57l-133 -141l-133 141c-40 -6.66699 -73 -25.667 -99 -57s-39 -73 -39 -125v-57h168v-62h-229v119c0 72 20.5 129.167 61.5 171.5s94.833 63.5 161.5 63.5l109 -112l108 112
c67.333 0 121.5 -21.167 162.5 -63.5s61.5 -99.5 61.5 -171.5v-901h-62z" />
    <glyph glyph-name="maitaikhuthai" unicode="&#xe7;" 
d="M-438 1079c-37.333 0 -67.167 -7.83203 -89.5 -23.499s-33.5 -38.5 -33.5 -68.5v-8h88l113 68l106 -68h119v-57h-127l-98 65l-101 -65h-162v57c0 43.333 15.5 80.166 46.5 110.499s79.167 45.5 144.5 45.5h362v-56h-368z" />
    <glyph glyph-name="maitaikhuthai" unicode="&#xe47;" 
d="M-438 1079c-37.333 0 -67.167 -7.83203 -89.5 -23.499s-33.5 -38.5 -33.5 -68.5v-8h88l113 68l106 -68h119v-57h-127l-98 65l-101 -65h-162v57c0 43.333 15.5 80.166 46.5 110.499s79.167 45.5 144.5 45.5h362v-56h-368z" />
    <glyph glyph-name="maiekthai" unicode="&#xe8;" 
d="M-133 1147v143h61v-143h-61z" />
    <glyph glyph-name="maiekthai" unicode="&#xe48;" 
d="M-133 1147v143h61v-143h-61z" />
    <glyph glyph-name="maithothai" unicode="&#xe9;" 
d="M-233 1147v37c0 12 -2.5 21.833 -7.5 29.5s-14.833 11.5 -29.5 11.5h-21v57h35c54.667 0 82 -20.333 82 -61v-17h246v-57h-305z" />
    <glyph glyph-name="maithothai" unicode="&#xe49;" 
d="M-233 1147v37c0 12 -2.5 21.833 -7.5 29.5s-14.833 11.5 -29.5 11.5h-21v57h35c54.667 0 82 -20.333 82 -61v-17h246v-57h-305z" />
    <glyph glyph-name="maitrithai" unicode="&#xea;" 
d="M45 1147l0.000976562 57c0 42.667 -21.667 64 -65 64h-7l-77 -70l-78 70h-4c-44 0 -66 -21.333 -66 -64v-2h78v-55h-135v67c0 36 12.167 63.5 36.5 82.5s54.5 28.5 90.5 28.5h8l70 -63l71 63h6c37.333 0 68.166 -9.5 92.499 -28.5s36.5 -46.5 36.5 -82.5v-10h131v-57
h-188z" />
    <glyph glyph-name="maitrithai" unicode="&#xe4a;" 
d="M45 1147l0.000976562 57c0 42.667 -21.667 64 -65 64h-7l-77 -70l-78 70h-4c-44 0 -66 -21.333 -66 -64v-2h78v-55h-135v67c0 36 12.167 63.5 36.5 82.5s54.5 28.5 90.5 28.5h8l70 -63l71 63h6c37.333 0 68.166 -9.5 92.499 -28.5s36.5 -46.5 36.5 -82.5v-10h131v-57
h-188z" />
    <glyph glyph-name="maichattawathai" unicode="&#xeb;" 
d="M-72 1212v-65h-61v65h-72v50h72v65h61v-65h72v-50h-72z" />
    <glyph glyph-name="maichattawathai" unicode="&#xe4b;" 
d="M-72 1212v-65h-61v65h-72v50h72v65h61v-65h72v-50h-72z" />
    <glyph glyph-name="thanthakhatthai" unicode="&#xec;" 
d="M-80 1139c-20.667 0 -36.333 -3.16797 -47 -9.50098s-16 -18.166 -16 -35.499v-29h-62v35c0 34 10 57.833 30 71.5s42 20.5 66 20.5h89v-53h-60z" />
    <glyph glyph-name="thanthakhatthai" unicode="&#xe4c;" 
d="M-80 1139c-20.667 0 -36.333 -3.16797 -47 -9.50098s-16 -18.166 -16 -35.499v-29h-62v35c0 34 10 57.833 30 71.5s42 20.5 66 20.5h89v-53h-60z" />
    <glyph glyph-name="nikhahitthai" unicode="&#xed;" 
d="M-14 1008c0 -23.333 -9 -43.5 -27 -60.5s-38.333 -25.5 -61 -25.5c-23.333 0 -43.833 8.5 -61.5 25.5s-26.5 37.167 -26.5 60.5c0 22.667 8.83301 43 26.5 61s38.167 27 61.5 27c22.667 0 43 -9 61 -27s27 -38.333 27 -61zM-61 1008c0 10.667 -4.5 20.5 -13.5 29.5
s-18.833 13.5 -29.5 13.5c-11.333 0 -21.333 -4.5 -30 -13.5s-13 -18.833 -13 -29.5c0 -11.333 4.33301 -21.333 13 -30s18.667 -13 30 -13c10.667 0 20.5 4.33301 29.5 13s13.5 18.667 13.5 30z" />
    <glyph glyph-name="nikhahitthai" unicode="&#xe4d;" 
d="M-14 1008c0 -23.333 -9 -43.5 -27 -60.5s-38.333 -25.5 -61 -25.5c-23.333 0 -43.833 8.5 -61.5 25.5s-26.5 37.167 -26.5 60.5c0 22.667 8.83301 43 26.5 61s38.167 27 61.5 27c22.667 0 43 -9 61 -27s27 -38.333 27 -61zM-61 1008c0 10.667 -4.5 20.5 -13.5 29.5
s-18.833 13.5 -29.5 13.5c-11.333 0 -21.333 -4.5 -30 -13.5s-13 -18.833 -13 -29.5c0 -11.333 4.33301 -21.333 13 -30s18.667 -13 30 -13c10.667 0 20.5 4.33301 29.5 13s13.5 18.667 13.5 30z" />
    <glyph glyph-name="yamakkanthai" unicode="&#xee;" 
d="M-326 1233c-20 16 -30.001 35.665 -30.001 58.998c0 48 30.667 87.667 92 119c52 27.333 103 41 153 41c44 0 86.333 -6.66699 127 -20c15.333 -6 23 -15.667 23 -29c0 -22 -10.333 -33 -31 -33c-4 0 -7.33301 0.666992 -10 2c-35.333 12.667 -71.666 19 -108.999 19
c-31.333 0 -67.333 -9 -108 -27c-50.667 -22 -76 -46 -76 -72c0 -9.33301 26 -23.666 78 -42.999c14.667 -5.33301 22 -14.666 22 -27.999c0 -20.667 -10 -31 -30 -31c-2.66699 0 -6.5 0.333008 -11.5 1s-8.83301 1 -11.5 1c-24.667 0 -51.334 -11 -80.001 -33
s-43 -41.667 -43 -59c0 -22 9.66699 -39.833 29 -53.5s43.333 -20.5 72 -20.5c54.667 0 93.334 20.333 116.001 61c7.33301 11.333 16.333 17 27 17c22 0 33 -10.333 33 -31c0 -4 -1.33301 -8.66699 -4 -14c-36 -62.667 -93.333 -94 -172 -94c-40 0 -75.667 10 -107 30
c-36.667 26 -55 61 -55 105c0 54.667 35.333 99 106 133z" />
    <glyph glyph-name="yamakkanthai" unicode="&#xe4e;" 
d="M-326 1233c-20 16 -30.001 35.665 -30.001 58.998c0 48 30.667 87.667 92 119c52 27.333 103 41 153 41c44 0 86.333 -6.66699 127 -20c15.333 -6 23 -15.667 23 -29c0 -22 -10.333 -33 -31 -33c-4 0 -7.33301 0.666992 -10 2c-35.333 12.667 -71.666 19 -108.999 19
c-31.333 0 -67.333 -9 -108 -27c-50.667 -22 -76 -46 -76 -72c0 -9.33301 26 -23.666 78 -42.999c14.667 -5.33301 22 -14.666 22 -27.999c0 -20.667 -10 -31 -30 -31c-2.66699 0 -6.5 0.333008 -11.5 1s-8.83301 1 -11.5 1c-24.667 0 -51.334 -11 -80.001 -33
s-43 -41.667 -43 -59c0 -22 9.66699 -39.833 29 -53.5s43.333 -20.5 72 -20.5c54.667 0 93.334 20.333 116.001 61c7.33301 11.333 16.333 17 27 17c22 0 33 -10.333 33 -31c0 -4 -1.33301 -8.66699 -4 -14c-36 -62.667 -93.333 -94 -172 -94c-40 0 -75.667 10 -107 30
c-36.667 26 -55 61 -55 105c0 54.667 35.333 99 106 133z" />
    <glyph glyph-name="fongmanthai" unicode="&#xef;" horiz-adv-x="963" 
d="M901 410c0 -57.333 -10.833 -111.666 -32.5 -162.999s-51.667 -96.166 -90 -134.499s-83.166 -68.333 -134.499 -90s-105.666 -32.5 -162.999 -32.5s-111.5 10.833 -162.5 32.5s-95.667 51.667 -134 90s-68.5 83.166 -90.5 134.499s-33 105.666 -33 162.999
s11 111.5 33 162.5s52.167 95.667 90.5 134s83 68.333 134 90s105.167 32.5 162.5 32.5s111.666 -10.833 162.999 -32.5s96.166 -51.667 134.499 -90s68.333 -83 90 -134s32.5 -105.167 32.5 -162.5zM840 410c0 48.667 -9.66699 94.834 -29 138.501s-45 81.667 -77 114
s-69.833 58 -113.5 77s-90.167 28.5 -139.5 28.5c-48.667 0 -95 -9.5 -139 -28.5s-82 -44.667 -114 -77s-57.5 -70.333 -76.5 -114s-28.5 -89.834 -28.5 -138.501c0 -49.333 9.5 -95.833 28.5 -139.5s44.5 -81.5 76.5 -113.5s70 -57.667 114 -77s90.333 -29 139 -29
c49.333 0 95.833 9.66699 139.5 29s81.5 45 113.5 77s57.667 69.833 77 113.5s29 90.167 29 139.5zM737 410c0 -36 -6.83301 -69.333 -20.5 -100s-32 -57.5 -55 -80.5s-49.833 -41.333 -80.5 -55s-64 -20.5 -100 -20.5c-35.333 0 -68.333 6.83301 -99 20.5
s-57.667 32 -81 55s-41.833 49.833 -55.5 80.5s-20.5 64 -20.5 100c0 35.333 6.83301 68.333 20.5 99s32.167 57.667 55.5 81s50.333 41.833 81 55.5s63.667 20.5 99 20.5c36 0 69.333 -6.83301 100 -20.5s57.5 -32.167 80.5 -55.5s41.333 -50.333 55 -81
s20.5 -63.667 20.5 -99z" />
    <glyph glyph-name="fongmanthai" unicode="&#xe4f;" horiz-adv-x="963" 
d="M901 410c0 -57.333 -10.833 -111.666 -32.5 -162.999s-51.667 -96.166 -90 -134.499s-83.166 -68.333 -134.499 -90s-105.666 -32.5 -162.999 -32.5s-111.5 10.833 -162.5 32.5s-95.667 51.667 -134 90s-68.5 83.166 -90.5 134.499s-33 105.666 -33 162.999
s11 111.5 33 162.5s52.167 95.667 90.5 134s83 68.333 134 90s105.167 32.5 162.5 32.5s111.666 -10.833 162.999 -32.5s96.166 -51.667 134.499 -90s68.333 -83 90 -134s32.5 -105.167 32.5 -162.5zM840 410c0 48.667 -9.66699 94.834 -29 138.501s-45 81.667 -77 114
s-69.833 58 -113.5 77s-90.167 28.5 -139.5 28.5c-48.667 0 -95 -9.5 -139 -28.5s-82 -44.667 -114 -77s-57.5 -70.333 -76.5 -114s-28.5 -89.834 -28.5 -138.501c0 -49.333 9.5 -95.833 28.5 -139.5s44.5 -81.5 76.5 -113.5s70 -57.667 114 -77s90.333 -29 139 -29
c49.333 0 95.833 9.66699 139.5 29s81.5 45 113.5 77s57.667 69.833 77 113.5s29 90.167 29 139.5zM737 410c0 -36 -6.83301 -69.333 -20.5 -100s-32 -57.5 -55 -80.5s-49.833 -41.333 -80.5 -55s-64 -20.5 -100 -20.5c-35.333 0 -68.333 6.83301 -99 20.5
s-57.667 32 -81 55s-41.833 49.833 -55.5 80.5s-20.5 64 -20.5 100c0 35.333 6.83301 68.333 20.5 99s32.167 57.667 55.5 81s50.333 41.833 81 55.5s63.667 20.5 99 20.5c36 0 69.333 -6.83301 100 -20.5s57.5 -32.167 80.5 -55.5s41.333 -50.333 55 -81
s20.5 -63.667 20.5 -99z" />
    <glyph glyph-name="zerothai" unicode="&#xf0;" horiz-adv-x="721" 
d="M680 307c0 -43.333 -8.5 -84.5 -25.5 -123.5s-39.833 -72.833 -68.5 -101.5s-62.5 -51.5 -101.5 -68.5s-80.5 -25.5 -124.5 -25.5c-43.333 0 -84.5 8.5 -123.5 25.5s-72.833 39.833 -101.5 68.5s-51.5 62.5 -68.5 101.5s-25.5 80.167 -25.5 123.5
c0 44 8.5 85.333 25.5 124s39.833 72.334 68.5 101.001s62.5 51.667 101.5 69s80.167 26 123.5 26c44 0 85.5 -8.66699 124.5 -26s72.833 -40.333 101.5 -69s51.5 -62.334 68.5 -101.001s25.5 -80 25.5 -124zM621 307c0 36.667 -6.83301 70.834 -20.5 102.501
s-32.5 59.334 -56.5 83.001s-51.667 42.334 -83 56.001s-65.666 20.5 -102.999 20.5c-36.667 0 -70.667 -6.83301 -102 -20.5s-59 -32.334 -83 -56.001s-42.833 -51.334 -56.5 -83.001s-20.5 -65.834 -20.5 -102.501s6.83301 -70.667 20.5 -102s32.5 -59 56.5 -83
s51.667 -42.833 83 -56.5s65.333 -20.5 102 -20.5c37.333 0 71.666 6.83301 102.999 20.5s59 32.5 83 56.5s42.833 51.667 56.5 83s20.5 65.333 20.5 102z" />
    <glyph glyph-name="zerothai" unicode="&#xe50;" horiz-adv-x="721" 
d="M680 307c0 -43.333 -8.5 -84.5 -25.5 -123.5s-39.833 -72.833 -68.5 -101.5s-62.5 -51.5 -101.5 -68.5s-80.5 -25.5 -124.5 -25.5c-43.333 0 -84.5 8.5 -123.5 25.5s-72.833 39.833 -101.5 68.5s-51.5 62.5 -68.5 101.5s-25.5 80.167 -25.5 123.5
c0 44 8.5 85.333 25.5 124s39.833 72.334 68.5 101.001s62.5 51.667 101.5 69s80.167 26 123.5 26c44 0 85.5 -8.66699 124.5 -26s72.833 -40.333 101.5 -69s51.5 -62.334 68.5 -101.001s25.5 -80 25.5 -124zM621 307c0 36.667 -6.83301 70.834 -20.5 102.501
s-32.5 59.334 -56.5 83.001s-51.667 42.334 -83 56.001s-65.666 20.5 -102.999 20.5c-36.667 0 -70.667 -6.83301 -102 -20.5s-59 -32.334 -83 -56.001s-42.833 -51.334 -56.5 -83.001s-20.5 -65.834 -20.5 -102.501s6.83301 -70.667 20.5 -102s32.5 -59 56.5 -83
s51.667 -42.833 83 -56.5s65.333 -20.5 102 -20.5c37.333 0 71.666 6.83301 102.999 20.5s59 32.5 83 56.5s42.833 51.667 56.5 83s20.5 65.333 20.5 102z" />
    <glyph glyph-name="onethai" unicode="&#xf1;" horiz-adv-x="770" 
d="M729 313c0 -54.667 -11.999 -104.835 -35.999 -150.502s-54.667 -85.834 -92 -120.501s-78.833 -63 -124.5 -85s-91.167 -35.667 -136.5 -41l-29 55c42.667 4 85.167 15.667 127.5 35s80.5 44 114.5 74s61.667 64.833 83 104.5s32 82.5 32 128.5
c0 38.667 -7.5 73.667 -22.5 105s-35.833 58.166 -62.5 80.499s-57.5 39.666 -92.5 51.999s-72.167 18.5 -111.5 18.5c-36.667 0 -71.5 -5.66699 -104.5 -17s-62.5 -27.666 -88.5 -48.999s-46.5 -46.666 -61.5 -75.999s-22.5 -61.666 -22.5 -96.999
c0 -49.333 15.833 -92.5 47.5 -129.5s73.167 -55.5 124.5 -55.5c7.33301 0 15.666 0.333008 24.999 1s19 2.66699 29 6c-26 9.33301 -46.833 24.833 -62.5 46.5s-23.5 46.834 -23.5 75.501c0 37.333 12.833 69 38.5 95s57.167 39 94.5 39c36.667 0 68 -13 94 -39
s39 -57.667 39 -95c0 -27.333 -6.16699 -52.5 -18.5 -75.5s-29 -43.333 -50 -61s-45.5 -31.334 -73.5 -41.001s-58.667 -14.5 -92 -14.5c-34 0 -65.333 6.5 -94 19.5s-53.167 30.667 -73.5 53s-36.333 48.666 -48 78.999s-17.5 62.5 -17.5 96.5
c0 44.667 9.5 85.5 28.5 122.5s44.333 68.5 76 94.5s67.5 45.833 107.5 59.5s81.333 20.5 124 20.5c48 0 93.5 -7.16699 136.5 -21.5s80.5 -35.166 112.5 -62.499s57.167 -60.166 75.5 -98.499s27.5 -82.166 27.5 -131.499zM453.001 273.999c0 22 -7.5 40.5 -22.5 55.5
s-33.5 22.5 -55.5 22.5s-40.5 -7.5 -55.5 -22.5s-22.5 -33.5 -22.5 -55.5c0 -21.333 7.5 -39.5 22.5 -54.5s33.5 -22.5 55.5 -22.5s40.5 7.5 55.5 22.5s22.5 33.167 22.5 54.5z" />
    <glyph glyph-name="onethai" unicode="&#xe51;" horiz-adv-x="770" 
d="M729 313c0 -54.667 -11.999 -104.835 -35.999 -150.502s-54.667 -85.834 -92 -120.501s-78.833 -63 -124.5 -85s-91.167 -35.667 -136.5 -41l-29 55c42.667 4 85.167 15.667 127.5 35s80.5 44 114.5 74s61.667 64.833 83 104.5s32 82.5 32 128.5
c0 38.667 -7.5 73.667 -22.5 105s-35.833 58.166 -62.5 80.499s-57.5 39.666 -92.5 51.999s-72.167 18.5 -111.5 18.5c-36.667 0 -71.5 -5.66699 -104.5 -17s-62.5 -27.666 -88.5 -48.999s-46.5 -46.666 -61.5 -75.999s-22.5 -61.666 -22.5 -96.999
c0 -49.333 15.833 -92.5 47.5 -129.5s73.167 -55.5 124.5 -55.5c7.33301 0 15.666 0.333008 24.999 1s19 2.66699 29 6c-26 9.33301 -46.833 24.833 -62.5 46.5s-23.5 46.834 -23.5 75.501c0 37.333 12.833 69 38.5 95s57.167 39 94.5 39c36.667 0 68 -13 94 -39
s39 -57.667 39 -95c0 -27.333 -6.16699 -52.5 -18.5 -75.5s-29 -43.333 -50 -61s-45.5 -31.334 -73.5 -41.001s-58.667 -14.5 -92 -14.5c-34 0 -65.333 6.5 -94 19.5s-53.167 30.667 -73.5 53s-36.333 48.666 -48 78.999s-17.5 62.5 -17.5 96.5
c0 44.667 9.5 85.5 28.5 122.5s44.333 68.5 76 94.5s67.5 45.833 107.5 59.5s81.333 20.5 124 20.5c48 0 93.5 -7.16699 136.5 -21.5s80.5 -35.166 112.5 -62.499s57.167 -60.166 75.5 -98.499s27.5 -82.166 27.5 -131.499zM453.001 273.999c0 22 -7.5 40.5 -22.5 55.5
s-33.5 22.5 -55.5 22.5s-40.5 -7.5 -55.5 -22.5s-22.5 -33.5 -22.5 -55.5c0 -21.333 7.5 -39.5 22.5 -54.5s33.5 -22.5 55.5 -22.5s40.5 7.5 55.5 22.5s22.5 33.167 22.5 54.5z" />
    <glyph glyph-name="twothai" unicode="&#xf2;" horiz-adv-x="1087" 
d="M154 0c-7.33301 94 -17.1699 180.67 -29.5029 260.003s-31.833 160 -58.5 242c-23.333 69.333 -53.166 132.666 -89.499 189.999s-74.166 105.333 -113.499 144l49 41c40.667 -40 80.834 -92 120.501 -156s70.5 -130.333 92.5 -199
c23.333 -76 41.166 -150.333 53.499 -223s22.5 -152 30.5 -238h745v375c0 41.333 -12.833 72.833 -38.5 94.5s-54.5 32.5 -86.5 32.5c-22.667 0 -45.667 -6.16699 -69 -18.5s-44 -32.833 -62 -61.5v-329h-61v331c-19.333 27.333 -41.666 47.166 -66.999 59.499
s-50.666 18.5 -75.999 18.5c-41.333 0 -77.666 -13.667 -108.999 -41s-47 -62 -47 -104v-31c23.333 14 47.333 21 72 21c36.667 0 68 -13 94 -39s39 -57.667 39 -95c0 -36.667 -13 -67.667 -39 -93s-57.333 -38 -94 -38c-37.333 0 -69 12.667 -95 38s-39 56.333 -39 93v144
c0 30 5.83301 57.667 17.5 83s27.834 47.166 48.501 65.499s44 32.666 70 42.999s53.333 15.5 82 15.5c38 0 71.667 -7.16699 101 -21.5s53.666 -33.166 72.999 -56.499c17.333 22 39.666 40.5 66.999 55.5s58.666 22.5 93.999 22.5c24.667 0 48 -4.16699 70 -12.5
s41.833 -20 59.5 -35s31.667 -33.833 42 -56.5s15.5 -47.667 15.5 -75v-446h-862zM486.996 274.003c0 22 -7.5 40.5 -22.5 55.5s-33.167 22.5 -54.5 22.5c-22 0 -40.5 -7.5 -55.5 -22.5s-22.5 -33.5 -22.5 -55.5c0 -21.333 7.5 -39.5 22.5 -54.5s33.5 -22.5 55.5 -22.5
c21.333 0 39.5 7.5 54.5 22.5s22.5 33.167 22.5 54.5z" />
    <glyph glyph-name="twothai" unicode="&#xe52;" horiz-adv-x="1087" 
d="M154 0c-7.33301 94 -17.1699 180.67 -29.5029 260.003s-31.833 160 -58.5 242c-23.333 69.333 -53.166 132.666 -89.499 189.999s-74.166 105.333 -113.499 144l49 41c40.667 -40 80.834 -92 120.501 -156s70.5 -130.333 92.5 -199
c23.333 -76 41.166 -150.333 53.499 -223s22.5 -152 30.5 -238h745v375c0 41.333 -12.833 72.833 -38.5 94.5s-54.5 32.5 -86.5 32.5c-22.667 0 -45.667 -6.16699 -69 -18.5s-44 -32.833 -62 -61.5v-329h-61v331c-19.333 27.333 -41.666 47.166 -66.999 59.499
s-50.666 18.5 -75.999 18.5c-41.333 0 -77.666 -13.667 -108.999 -41s-47 -62 -47 -104v-31c23.333 14 47.333 21 72 21c36.667 0 68 -13 94 -39s39 -57.667 39 -95c0 -36.667 -13 -67.667 -39 -93s-57.333 -38 -94 -38c-37.333 0 -69 12.667 -95 38s-39 56.333 -39 93v144
c0 30 5.83301 57.667 17.5 83s27.834 47.166 48.501 65.499s44 32.666 70 42.999s53.333 15.5 82 15.5c38 0 71.667 -7.16699 101 -21.5s53.666 -33.166 72.999 -56.499c17.333 22 39.666 40.5 66.999 55.5s58.666 22.5 93.999 22.5c24.667 0 48 -4.16699 70 -12.5
s41.833 -20 59.5 -35s31.667 -33.833 42 -56.5s15.5 -47.667 15.5 -75v-446h-862zM486.996 274.003c0 22 -7.5 40.5 -22.5 55.5s-33.167 22.5 -54.5 22.5c-22 0 -40.5 -7.5 -55.5 -22.5s-22.5 -33.5 -22.5 -55.5c0 -21.333 7.5 -39.5 22.5 -54.5s33.5 -22.5 55.5 -22.5
c21.333 0 39.5 7.5 54.5 22.5s22.5 33.167 22.5 54.5z" />
    <glyph glyph-name="threethai" unicode="&#xf3;" horiz-adv-x="924" 
d="M791 0l0.000976562 436.003c0 41.333 -14.333 72.833 -43 94.5s-59.667 32.5 -93 32.5c-24.667 0 -50.167 -6.5 -76.5 -19.5s-47.833 -33.167 -64.5 -60.5v-483h-61v485c-19.333 27.333 -42.666 47.166 -69.999 59.499s-55.333 18.5 -84 18.5
c-20.667 0 -40.834 -3.66699 -60.501 -11s-37.334 -17.5 -53.001 -30.5s-28.334 -28.333 -38.001 -46s-14.5 -36.834 -14.5 -57.501v-185c23.333 14 47.333 21 72 21c36.667 0 68 -13 94 -39s39 -57.333 39 -94s-13 -67.667 -39 -93s-57.333 -38 -94 -38s-68 12.667 -94 38
s-39 56.333 -39 93v297c0 30 6.5 57.667 19.5 83s30.333 47.166 52 65.499s45.834 32.666 72.501 42.999s54.334 15.5 83.001 15.5c44 0 81 -7.16699 111 -21.5s54.333 -33.166 73 -56.499c18 22 42.333 40.5 73 55.5s63.667 22.5 99 22.5
c24.667 0 48.667 -4.16699 72 -12.5s44.166 -20 62.499 -35s33.333 -33.833 45 -56.5s17.5 -47.667 17.5 -75v-446h-61zM283.001 121.003c0 22 -7.5 40.5 -22.5 55.5s-33.5 22.5 -55.5 22.5s-40.5 -7.5 -55.5 -22.5s-22.5 -33.5 -22.5 -55.5s7.5 -40.5 22.5 -55.5
s33.5 -22.5 55.5 -22.5s40.5 7.5 55.5 22.5s22.5 33.5 22.5 55.5z" />
    <glyph glyph-name="threethai" unicode="&#xe53;" horiz-adv-x="924" 
d="M791 0l0.000976562 436.003c0 41.333 -14.333 72.833 -43 94.5s-59.667 32.5 -93 32.5c-24.667 0 -50.167 -6.5 -76.5 -19.5s-47.833 -33.167 -64.5 -60.5v-483h-61v485c-19.333 27.333 -42.666 47.166 -69.999 59.499s-55.333 18.5 -84 18.5
c-20.667 0 -40.834 -3.66699 -60.501 -11s-37.334 -17.5 -53.001 -30.5s-28.334 -28.333 -38.001 -46s-14.5 -36.834 -14.5 -57.501v-185c23.333 14 47.333 21 72 21c36.667 0 68 -13 94 -39s39 -57.333 39 -94s-13 -67.667 -39 -93s-57.333 -38 -94 -38s-68 12.667 -94 38
s-39 56.333 -39 93v297c0 30 6.5 57.667 19.5 83s30.333 47.166 52 65.499s45.834 32.666 72.501 42.999s54.334 15.5 83.001 15.5c44 0 81 -7.16699 111 -21.5s54.333 -33.166 73 -56.499c18 22 42.333 40.5 73 55.5s63.667 22.5 99 22.5
c24.667 0 48.667 -4.16699 72 -12.5s44.166 -20 62.499 -35s33.333 -33.833 45 -56.5s17.5 -47.667 17.5 -75v-446h-61zM283.001 121.003c0 22 -7.5 40.5 -22.5 55.5s-33.5 22.5 -55.5 22.5s-40.5 -7.5 -55.5 -22.5s-22.5 -33.5 -22.5 -55.5s7.5 -40.5 22.5 -55.5
s33.5 -22.5 55.5 -22.5s40.5 7.5 55.5 22.5s22.5 33.5 22.5 55.5z" />
    <glyph glyph-name="fourthai" unicode="&#xf4;" horiz-adv-x="831" 
d="M831 860c0 -34 -2.3291 -69.165 -6.99609 -105.498s-13.834 -69.5 -27.501 -99.5s-31.667 -54.5 -54 -73.5s-51.5 -28.5 -87.5 -28.5h-282c-37.333 0 -72.333 -6.5 -105 -19.5s-61.667 -31.167 -87 -54.5s-45.166 -51.333 -59.499 -84s-20.833 -68.667 -19.5 -108
c1.33301 -40 9.66602 -75 24.999 -105s34.5 -54.833 57.5 -74.5s49.5 -34.667 79.5 -45s60.667 -15.5 92 -15.5c24.667 0 46.667 1.66699 66 5s36.833 7.16602 52.5 11.499s30.667 7.83301 45 10.5s28.166 4 41.499 4c-30 13.333 -57.667 35.833 -83 67.5
s-38 67.167 -38 106.5s13.333 72.333 40 99s58.334 40 95.001 40c37.333 0 69 -13 95 -39s39 -57.333 39 -94c0 -35.333 -12 -65.333 -36 -90s-53.667 -38.334 -89 -41.001c10.667 -12 26.667 -21.167 48 -27.5s40.666 -10.833 57.999 -13.5c22 -4 45.667 -9.16699 71 -15.5
s45.333 -16.833 60 -31.5l-39 -49c-28.667 17.333 -59 28.166 -91 32.499s-56.333 6.5 -73 6.5c-20 0 -39.333 -2.16699 -58 -6.5l-58.5 -13.5c-20.333 -4.66699 -42.833 -9 -67.5 -13s-53.334 -6 -86.001 -6c-38 0 -75.167 5.83301 -111.5 17.5s-68.833 29.667 -97.5 54
s-51.834 55.333 -69.501 93s-27.167 81.834 -28.5 132.501c-1.33301 47.333 6.83398 91.166 24.501 131.499s41.834 74.833 72.501 103.5s66.167 51.167 106.5 67.5s83.166 24.5 128.499 24.5h282c23.333 0 42.5 8.33301 57.5 25s26.667 37.167 35 61.5
s14.166 50.833 17.499 79.5s5 55.334 5 80.001h61zM653.004 258.002c0 22 -7.5 40.5 -22.5 55.5s-33.5 22.5 -55.5 22.5c-21.333 0 -39.5 -7.5 -54.5 -22.5s-22.5 -33.5 -22.5 -55.5s7.5 -40.5 22.5 -55.5s33.167 -22.5 54.5 -22.5c22 0 40.5 7.5 55.5 22.5
s22.5 33.5 22.5 55.5z" />
    <glyph glyph-name="fourthai" unicode="&#xe54;" horiz-adv-x="831" 
d="M831 860c0 -34 -2.3291 -69.165 -6.99609 -105.498s-13.834 -69.5 -27.501 -99.5s-31.667 -54.5 -54 -73.5s-51.5 -28.5 -87.5 -28.5h-282c-37.333 0 -72.333 -6.5 -105 -19.5s-61.667 -31.167 -87 -54.5s-45.166 -51.333 -59.499 -84s-20.833 -68.667 -19.5 -108
c1.33301 -40 9.66602 -75 24.999 -105s34.5 -54.833 57.5 -74.5s49.5 -34.667 79.5 -45s60.667 -15.5 92 -15.5c24.667 0 46.667 1.66699 66 5s36.833 7.16602 52.5 11.499s30.667 7.83301 45 10.5s28.166 4 41.499 4c-30 13.333 -57.667 35.833 -83 67.5
s-38 67.167 -38 106.5s13.333 72.333 40 99s58.334 40 95.001 40c37.333 0 69 -13 95 -39s39 -57.333 39 -94c0 -35.333 -12 -65.333 -36 -90s-53.667 -38.334 -89 -41.001c10.667 -12 26.667 -21.167 48 -27.5s40.666 -10.833 57.999 -13.5c22 -4 45.667 -9.16699 71 -15.5
s45.333 -16.833 60 -31.5l-39 -49c-28.667 17.333 -59 28.166 -91 32.499s-56.333 6.5 -73 6.5c-20 0 -39.333 -2.16699 -58 -6.5l-58.5 -13.5c-20.333 -4.66699 -42.833 -9 -67.5 -13s-53.334 -6 -86.001 -6c-38 0 -75.167 5.83301 -111.5 17.5s-68.833 29.667 -97.5 54
s-51.834 55.333 -69.501 93s-27.167 81.834 -28.5 132.501c-1.33301 47.333 6.83398 91.166 24.501 131.499s41.834 74.833 72.501 103.5s66.167 51.167 106.5 67.5s83.166 24.5 128.499 24.5h282c23.333 0 42.5 8.33301 57.5 25s26.667 37.167 35 61.5
s14.166 50.833 17.499 79.5s5 55.334 5 80.001h61zM653.004 258.002c0 22 -7.5 40.5 -22.5 55.5s-33.5 22.5 -55.5 22.5c-21.333 0 -39.5 -7.5 -54.5 -22.5s-22.5 -33.5 -22.5 -55.5s7.5 -40.5 22.5 -55.5s33.167 -22.5 54.5 -22.5c22 0 40.5 7.5 55.5 22.5
s22.5 33.5 22.5 55.5z" />
    <glyph glyph-name="fivethai" unicode="&#xf5;" horiz-adv-x="831" 
d="M831 860c0 -34 -2.3291 -69.165 -6.99609 -105.498s-13.834 -69.5 -27.501 -99.5s-31.667 -54.5 -54 -73.5s-51.5 -28.5 -87.5 -28.5h-282c-37.333 0 -72.333 -6.5 -105 -19.5s-61.667 -31.167 -87 -54.5s-45.166 -51.333 -59.499 -84s-20.833 -68.667 -19.5 -108
c1.33301 -40 9.66602 -75 24.999 -105s34.5 -54.833 57.5 -74.5s49.5 -34.667 79.5 -45s60.667 -15.5 92 -15.5c24.667 0 46.667 1.66699 66 5s36.833 7.16602 52.5 11.499s30.667 7.83301 45 10.5s28.166 4 41.499 4c-30 13.333 -57.667 35.833 -83 67.5
s-38 67.167 -38 106.5s13.333 72.333 40 99s58.334 40 95.001 40c37.333 0 69 -13 95 -39s39 -57.333 39 -94c0 -35.333 -12 -65.333 -36 -90s-53.667 -38.334 -89 -41.001c10.667 -12 26.667 -21.167 48 -27.5s40.666 -10.833 57.999 -13.5c22 -4 45.667 -9.16699 71 -15.5
s45.333 -16.833 60 -31.5l-39 -49c-28.667 17.333 -59 28.166 -91 32.499s-56.333 6.5 -73 6.5c-20 0 -39.333 -2.16699 -58 -6.5l-58.5 -13.5c-20.333 -4.66699 -42.833 -9 -67.5 -13s-53.334 -6 -86.001 -6c-38 0 -75.167 5.83301 -111.5 17.5s-68.833 29.667 -97.5 54
s-51.834 55.333 -69.501 93s-27.167 81.834 -28.5 132.501c-1.33301 42 4.83398 81.167 18.501 117.5s32.834 68.166 57.501 95.499s53.667 50.5 87 69.5s68.333 31.833 105 38.5c-22 22 -33 50 -33 84c0 40 14 72.833 42 98.5s61.333 38.5 100 38.5
c38 0 71 -12.833 99 -38.5s42 -58.5 42 -98.5c0 -14.667 -2.33301 -28.5 -7 -41.5s-10.334 -25.167 -17.001 -36.5h120c23.333 0 42.5 8.33301 57.5 25s26.667 37.167 35 61.5s14.166 50.833 17.499 79.5s5 55.334 5 80.001h61zM500.004 692.002
c0 23.333 -7.83301 42.833 -23.5 58.5s-35.167 23.5 -58.5 23.5s-42.833 -7.83301 -58.5 -23.5s-23.5 -35.167 -23.5 -58.5s7.83301 -42.833 23.5 -58.5s35.167 -23.5 58.5 -23.5s42.833 7.83301 58.5 23.5s23.5 35.167 23.5 58.5zM653.004 258.002
c0 22 -7.5 40.5 -22.5 55.5s-33.5 22.5 -55.5 22.5c-21.333 0 -39.5 -7.5 -54.5 -22.5s-22.5 -33.5 -22.5 -55.5s7.5 -40.5 22.5 -55.5s33.167 -22.5 54.5 -22.5c22 0 40.5 7.5 55.5 22.5s22.5 33.5 22.5 55.5z" />
    <glyph glyph-name="fivethai" unicode="&#xe55;" horiz-adv-x="831" 
d="M831 860c0 -34 -2.3291 -69.165 -6.99609 -105.498s-13.834 -69.5 -27.501 -99.5s-31.667 -54.5 -54 -73.5s-51.5 -28.5 -87.5 -28.5h-282c-37.333 0 -72.333 -6.5 -105 -19.5s-61.667 -31.167 -87 -54.5s-45.166 -51.333 -59.499 -84s-20.833 -68.667 -19.5 -108
c1.33301 -40 9.66602 -75 24.999 -105s34.5 -54.833 57.5 -74.5s49.5 -34.667 79.5 -45s60.667 -15.5 92 -15.5c24.667 0 46.667 1.66699 66 5s36.833 7.16602 52.5 11.499s30.667 7.83301 45 10.5s28.166 4 41.499 4c-30 13.333 -57.667 35.833 -83 67.5
s-38 67.167 -38 106.5s13.333 72.333 40 99s58.334 40 95.001 40c37.333 0 69 -13 95 -39s39 -57.333 39 -94c0 -35.333 -12 -65.333 -36 -90s-53.667 -38.334 -89 -41.001c10.667 -12 26.667 -21.167 48 -27.5s40.666 -10.833 57.999 -13.5c22 -4 45.667 -9.16699 71 -15.5
s45.333 -16.833 60 -31.5l-39 -49c-28.667 17.333 -59 28.166 -91 32.499s-56.333 6.5 -73 6.5c-20 0 -39.333 -2.16699 -58 -6.5l-58.5 -13.5c-20.333 -4.66699 -42.833 -9 -67.5 -13s-53.334 -6 -86.001 -6c-38 0 -75.167 5.83301 -111.5 17.5s-68.833 29.667 -97.5 54
s-51.834 55.333 -69.501 93s-27.167 81.834 -28.5 132.501c-1.33301 42 4.83398 81.167 18.501 117.5s32.834 68.166 57.501 95.499s53.667 50.5 87 69.5s68.333 31.833 105 38.5c-22 22 -33 50 -33 84c0 40 14 72.833 42 98.5s61.333 38.5 100 38.5
c38 0 71 -12.833 99 -38.5s42 -58.5 42 -98.5c0 -14.667 -2.33301 -28.5 -7 -41.5s-10.334 -25.167 -17.001 -36.5h120c23.333 0 42.5 8.33301 57.5 25s26.667 37.167 35 61.5s14.166 50.833 17.499 79.5s5 55.334 5 80.001h61zM500.004 692.002
c0 23.333 -7.83301 42.833 -23.5 58.5s-35.167 23.5 -58.5 23.5s-42.833 -7.83301 -58.5 -23.5s-23.5 -35.167 -23.5 -58.5s7.83301 -42.833 23.5 -58.5s35.167 -23.5 58.5 -23.5s42.833 7.83301 58.5 23.5s23.5 35.167 23.5 58.5zM653.004 258.002
c0 22 -7.5 40.5 -22.5 55.5s-33.5 22.5 -55.5 22.5c-21.333 0 -39.5 -7.5 -54.5 -22.5s-22.5 -33.5 -22.5 -55.5s7.5 -40.5 22.5 -55.5s33.167 -22.5 54.5 -22.5c22 0 40.5 7.5 55.5 22.5s22.5 33.5 22.5 55.5z" />
    <glyph glyph-name="sixthai" unicode="&#xf6;" horiz-adv-x="778" 
d="M737 311c0 -47.333 -9.17383 -90.8281 -27.5068 -130.495s-43.5 -73.834 -75.5 -102.501s-69.5 -51.167 -112.5 -67.5s-89.167 -24.5 -138.5 -24.5c-46.667 0 -89 6.83301 -127 20.5s-71 31.667 -99 54s-49.5 48.166 -64.5 77.499s-22.5 59 -22.5 89
c0 40 13.333 72.5 40 97.5s58.334 37.5 95.001 37.5s68 -12.833 94 -38.5s39 -57.167 39 -94.5c0 -35.333 -11.667 -65.333 -35 -90s-52.666 -38.334 -87.999 -41.001c20.667 -16 45.667 -28.5 75 -37.5s60.333 -13.5 93 -13.5c39.333 0 76.833 6.5 112.5 19.5
s66.834 31.167 93.501 54.5s47.834 51 63.501 83s23.5 67.667 23.5 107c0 37.333 -7.5 71.333 -22.5 102s-35.167 57.167 -60.5 79.5s-54.666 39.666 -87.999 51.999s-68.666 18.5 -105.999 18.5c-39.333 0 -81.166 -7.83301 -125.499 -23.5s-86.5 -42.5 -126.5 -80.5
l-61 16c-12 71.333 -32.333 133.166 -61 185.499s-65 99.833 -109 142.5l47 39c54.667 -48 95.667 -98 123 -150s45.666 -103 54.999 -153c31.333 24 69.333 44.333 114 61s92.667 25 144 25c46.667 0 90.5 -7.5 131.5 -22.5s76.833 -36.5 107.5 -64.5
s54.834 -61.167 72.501 -99.5s26.5 -80.833 26.5 -127.5zM282.993 229.005c0 22 -7.5 40.5 -22.5 55.5s-33.5 22.5 -55.5 22.5s-40.5 -7.5 -55.5 -22.5s-22.5 -33.5 -22.5 -55.5c0 -21.333 7.5 -39.5 22.5 -54.5s33.5 -22.5 55.5 -22.5s40.5 7.5 55.5 22.5
s22.5 33.167 22.5 54.5z" />
    <glyph glyph-name="sixthai" unicode="&#xe56;" horiz-adv-x="778" 
d="M737 311c0 -47.333 -9.17383 -90.8281 -27.5068 -130.495s-43.5 -73.834 -75.5 -102.501s-69.5 -51.167 -112.5 -67.5s-89.167 -24.5 -138.5 -24.5c-46.667 0 -89 6.83301 -127 20.5s-71 31.667 -99 54s-49.5 48.166 -64.5 77.499s-22.5 59 -22.5 89
c0 40 13.333 72.5 40 97.5s58.334 37.5 95.001 37.5s68 -12.833 94 -38.5s39 -57.167 39 -94.5c0 -35.333 -11.667 -65.333 -35 -90s-52.666 -38.334 -87.999 -41.001c20.667 -16 45.667 -28.5 75 -37.5s60.333 -13.5 93 -13.5c39.333 0 76.833 6.5 112.5 19.5
s66.834 31.167 93.501 54.5s47.834 51 63.501 83s23.5 67.667 23.5 107c0 37.333 -7.5 71.333 -22.5 102s-35.167 57.167 -60.5 79.5s-54.666 39.666 -87.999 51.999s-68.666 18.5 -105.999 18.5c-39.333 0 -81.166 -7.83301 -125.499 -23.5s-86.5 -42.5 -126.5 -80.5
l-61 16c-12 71.333 -32.333 133.166 -61 185.499s-65 99.833 -109 142.5l47 39c54.667 -48 95.667 -98 123 -150s45.666 -103 54.999 -153c31.333 24 69.333 44.333 114 61s92.667 25 144 25c46.667 0 90.5 -7.5 131.5 -22.5s76.833 -36.5 107.5 -64.5
s54.834 -61.167 72.501 -99.5s26.5 -80.833 26.5 -127.5zM282.993 229.005c0 22 -7.5 40.5 -22.5 55.5s-33.5 22.5 -55.5 22.5s-40.5 -7.5 -55.5 -22.5s-22.5 -33.5 -22.5 -55.5c0 -21.333 7.5 -39.5 22.5 -54.5s33.5 -22.5 55.5 -22.5s40.5 7.5 55.5 22.5
s22.5 33.167 22.5 54.5z" />
    <glyph glyph-name="seventhai" unicode="&#xf7;" horiz-adv-x="1116" 
d="M1133 807c-22 -16.667 -42.333 -40.3301 -61 -70.9971s-28 -65.667 -28 -105v-447c0 -65.333 -23.833 -114.333 -71.5 -147s-108.167 -47.667 -181.5 -45v444c0 41.333 -14.333 72.833 -43 94.5s-59.667 32.5 -93 32.5c-24.667 0 -50.167 -6.5 -76.5 -19.5
s-47.833 -33.167 -64.5 -60.5v-483h-61v485c-19.333 27.333 -42.666 47.166 -69.999 59.499s-55.333 18.5 -84 18.5c-20.667 0 -40.834 -3.66699 -60.501 -11s-37.334 -17.5 -53.001 -30.5s-28.334 -28.333 -38.001 -46s-14.5 -36.834 -14.5 -57.501v-185
c23.333 14 47.333 21 72 21c36.667 0 68 -13 94 -39s39 -57.333 39 -94s-13 -67.667 -39 -93s-57.333 -38 -94 -38s-68 12.667 -94 38s-39 56.333 -39 93v297c0 30 6.5 57.667 19.5 83s30.333 47.166 52 65.499s45.834 32.666 72.501 42.999s54.334 15.5 83.001 15.5
c44 0 81 -7.16699 111 -21.5s54.333 -33.166 73 -56.499c18 22 42.333 40.5 73 55.5s63.667 22.5 99 22.5c24.667 0 48.667 -4.16699 72 -12.5s44.166 -20 62.499 -35s33.333 -33.833 45 -56.5s17.5 -47.667 17.5 -75v-395c31.333 0 61 11 89 33s42 52.667 42 92v463
c0 27.333 3.83301 51.5 11.5 72.5s16.834 40.167 27.501 57.5s21.5 32 32.5 44l28.5 31zM283 121.004c0 22 -7.5 40.5 -22.5 55.5s-33.5 22.5 -55.5 22.5s-40.5 -7.5 -55.5 -22.5s-22.5 -33.5 -22.5 -55.5s7.5 -40.5 22.5 -55.5s33.5 -22.5 55.5 -22.5s40.5 7.5 55.5 22.5
s22.5 33.5 22.5 55.5z" />
    <glyph glyph-name="seventhai" unicode="&#xe57;" horiz-adv-x="1116" 
d="M1133 807c-22 -16.667 -42.333 -40.3301 -61 -70.9971s-28 -65.667 -28 -105v-447c0 -65.333 -23.833 -114.333 -71.5 -147s-108.167 -47.667 -181.5 -45v444c0 41.333 -14.333 72.833 -43 94.5s-59.667 32.5 -93 32.5c-24.667 0 -50.167 -6.5 -76.5 -19.5
s-47.833 -33.167 -64.5 -60.5v-483h-61v485c-19.333 27.333 -42.666 47.166 -69.999 59.499s-55.333 18.5 -84 18.5c-20.667 0 -40.834 -3.66699 -60.501 -11s-37.334 -17.5 -53.001 -30.5s-28.334 -28.333 -38.001 -46s-14.5 -36.834 -14.5 -57.501v-185
c23.333 14 47.333 21 72 21c36.667 0 68 -13 94 -39s39 -57.333 39 -94s-13 -67.667 -39 -93s-57.333 -38 -94 -38s-68 12.667 -94 38s-39 56.333 -39 93v297c0 30 6.5 57.667 19.5 83s30.333 47.166 52 65.499s45.834 32.666 72.501 42.999s54.334 15.5 83.001 15.5
c44 0 81 -7.16699 111 -21.5s54.333 -33.166 73 -56.499c18 22 42.333 40.5 73 55.5s63.667 22.5 99 22.5c24.667 0 48.667 -4.16699 72 -12.5s44.166 -20 62.499 -35s33.333 -33.833 45 -56.5s17.5 -47.667 17.5 -75v-395c31.333 0 61 11 89 33s42 52.667 42 92v463
c0 27.333 3.83301 51.5 11.5 72.5s16.834 40.167 27.501 57.5s21.5 32 32.5 44l28.5 31zM283 121.004c0 22 -7.5 40.5 -22.5 55.5s-33.5 22.5 -55.5 22.5s-40.5 -7.5 -55.5 -22.5s-22.5 -33.5 -22.5 -55.5s7.5 -40.5 22.5 -55.5s33.5 -22.5 55.5 -22.5s40.5 7.5 55.5 22.5
s22.5 33.5 22.5 55.5z" />
    </font>
</defs>
</svg>
