<svg xmlns="http://www.w3.org/2000/svg">
<defs>
<font id="PSL-Kittithada-Italic" horiz-adv-x="0" >
  <font-face 
    font-family="PSL-Kittithada"
    font-weight="400"
    font-style="italic"
    font-stretch="normal"
    units-per-em="2048"
    panose-1="2 0 5 6 0 0 0 9 0 3"
    ascent="1638"
    descent="-410"
    x-height="662"
    cap-height="1081"
    bbox="-633 -600 2137.06 1452"
    underline-thickness="51"
    underline-position="-86"
    slope="-12"
    unicode-range="U+0020-U+F882"
  />
<missing-glyph horiz-adv-x="1536" 
d="M528 1280h1024l-272 -1280h-1024zM1244 33c6 0 10 3.33301 12 10l253 1194c2 6.66699 -0.333008 10 -7 10h-938c-6.66699 0 -11 -3.33301 -13 -10l-253 -1194c-2 -6.66699 0.666992 -10 8 -10h938zM712 -2h2h-2h2h-2zM767 -4h-2v2h2v-2zM767 -4h-2v2h2v-2zM779 -4v2h-4
v-2v2h2h2v-2zM779 -2h-2h2zM794 -2v-2h4v2h-2h2v-2h-4v2h4h-4zM802 -2v-2v2h-4v-2v2h4zM716 -4h-6l1 4h6zM716 -4h-6l1 4h6zM730 -4h-2v2h2v-2zM730 -4h-2v2h2v-2zM734 -2v-2v2h-2h2zM769 -4h2h-2v2v-2zM843 -4h-4v2h4v-2zM843 -4h-4v2h4v-2zM833 -4h2v2v-2h-2v2v-2zM806 -2
h-2v-2v2h-2h4zM759 -2v-2h-2v2h2h-2h2zM757 -4v2h2v-2h-2zM761 -2v-2v2h4h-4zM765 -2h-4h4zM794 -4v2v-2zM720 -4h4h-4zM720 -2v-2v2h4h-4h4h-4zM673 -2v-2h4h-4v2h4h-4zM726 -4h-2v2h2v-2zM726 -4h-2v2h2v-2zM681 -2v-2v2h2h-2zM683 -2h-2h2zM681 -4h-4v2h4v-2zM681 -4h-4
v2h4v-2zM689 -2h-2v-2v2h-2h4zM783 -4h2h-2v2v-2zM781 -4h2h-2v2v-2zM753 -2h2v-2v2h-2v-2v2zM816 -2v-2v2h-4v-2v2h2h2zM814 -2h-2h2zM761 -4v2v-2zM695 -2v-2h2v2h-2h2v-2h-2v2h2h-2zM701 -2v-2v2h-2v-2v2h2zM708 -2h-2v-2v2h-2h4zM693 -4v2v-2zM693 -2v-2v2h-4v-2v2h2h2z
M691 -2h-2h2zM833 -2v-2v2h-5v-2v2h2h3zM830 -2h-2h2zM839 -4h-4h4zM839 -2h-4h4zM839 -2h-4h4zM751 -4h-2h2zM751 -4v2h-2v-2v2h2v-2zM751 -2h-2h2zM824 -4h4h-4zM828 -2h-4h4zM828 -2h-4h4zM810 -2v-2h-2h2v2h-2h2zM810 -2h-2h2zM824 -2v-2h-4h4v2h-4h4zM824 -2h-4h4z
M820 -4h-4h4zM820 -2h-4h4zM820 -2h-4h4zM792 -4v2h-2v-2v2h2v-2zM792 -2h-2h2zM747 -4h-3h3zM747 -2h-3h3zM747 -2h-3h3zM738 -4h4v2v-2h-4v2v-2zM740 -4v2v-2z" />
    <glyph glyph-name="trademark" unicode="&#x3b;&#x3b;Trademark&#x3b;&#x3b;" horiz-adv-x="1993" 
d="M1169 1165c20 0 28 -9.33301 24 -28c-4 -22 -16.333 -33 -37 -33h-371l-107 -506c-2 -9.33301 -13.333 -14 -34 -14s-30 4.66699 -28 14l107 506h-368c-21.333 0 -30 11 -26 33c4 18.667 17 28 39 28h801zM2061 1077l-445 -485
c-7.33301 -6.66699 -17.666 -10 -30.999 -10c-11.333 0 -20 3.33301 -26 10l-237 485l-97 -459c-4.66699 -22.667 -17.334 -34 -38.001 -34c-22 0 -30.667 11.333 -26 34l111 521c4 18.667 16.333 28 37 28c12 0 24 -4 36 -12l254 -510l471 510c14.667 8 29.334 12 44 12
c18.667 0 26 -9.33301 22 -28l-111 -521c-4.66699 -22.667 -17 -34 -37 -34c-20.667 0 -28.667 11.333 -24 34z" />
    <glyph glyph-name="multiply" unicode="&#x3b;&#x3b;Multiply&#x3b;&#x3b;" horiz-adv-x="1083" 
d="M653 530l-315 -259.997c-11.333 -8 -20 -12 -26 -12c-6.66699 0 -13 4 -19 12c-6 7.33301 -8 15 -6 23c0.666992 5.33301 5.66699 12 15 20l318 262l-207 261c-5.33301 7.33301 -7.66602 14 -6.99902 20c2 8 7.33301 15.667 16 23c10 8 18.333 12 25 12
c6 0 12.667 -4 20 -12l205 -261l317 261c8.66699 8 16.334 12 23.001 12c8 0 14.667 -4 20 -12c5.33301 -6.66699 7 -14.334 5 -23.001c-0.666992 -6.66699 -5.33398 -13.334 -14.001 -20.001l-315 -261l204 -262c5.33301 -6 7.33301 -12.667 6 -20
c-2 -8.66699 -7 -16.334 -15 -23.001c-9.33301 -8 -18 -12 -26 -12c-6.66699 0 -12.334 4 -17.001 12z" />
    <glyph glyph-name="divide" unicode="&#x3b;&#x3b;Divide&#x3b;&#x3b;" horiz-adv-x="1292" 
d="M1175 606c20 0 27.999 -10.333 23.999 -31c-5.33301 -20 -17.666 -30 -36.999 -30h-801c-21.333 0 -29.333 10 -24 30c4 20.667 16.333 31 37 31h801zM714.999 362c15.333 0 27.332 -5.33301 35.999 -16s11.334 -23.667 8.00098 -39s-11.166 -28.333 -23.499 -39
s-26.833 -16 -43.5 -16c-13.333 0 -24.333 5.33301 -33 16s-11.334 23.667 -8.00098 39s11.5 28.333 24.5 39s26.167 16 39.5 16zM833.998 920c15.333 0 27.1689 -5.5 35.502 -16.5s10.833 -24.167 7.5 -39.5c-3.33301 -13.333 -11 -25.5 -23 -36.5s-26.333 -16.5 -43 -16.5
c-13.333 0 -24.5 5.5 -33.5 16.5s-11.833 23.167 -8.5 36.5c3.33301 15.333 11.666 28.5 24.999 39.5s26.666 16.5 39.999 16.5z" />
    <glyph glyph-name="fi" unicode="fi" horiz-adv-x="561" 
d="M287 602l-127.001 -602.001h-62l127 602h-71l13 60h71l63 296c5.33301 24.667 12.333 52.334 21 83.001s21 57 37 79c20 27.333 44.833 47.833 74.5 61.5s59.5 20.5 89.5 20.5c8.66699 0 17.167 -1 25.5 -3l28.5 -7l-12 -57c-10.667 2.66699 -20 4.66699 -28 6
s-15.667 2 -23 2c-27.333 0 -49.666 -6.16699 -66.999 -18.5s-31.833 -28.333 -43.5 -48s-20.667 -41.167 -27 -64.5s-11.5 -45.333 -15.5 -66l-61 -284h164l-13 -60h-164zM645.999 882.999c-3.33301 -16.667 -12.166 -30.834 -26.499 -42.501s-28.833 -17.5 -43.5 -17.5
c-16.667 0 -29.5 5.83301 -38.5 17.5s-11.833 25.834 -8.5 42.501c3.33301 16 12.166 29.833 26.499 41.5s29.833 17.5 46.5 17.5c14.667 0 26.5 -5.83301 35.5 -17.5s11.833 -25.5 8.5 -41.5zM368.999 -0.000976562l140 662h61l-140 -662h-61z" />
    <glyph glyph-name="fl" unicode="fl" horiz-adv-x="588" 
d="M311 602l-127.001 -602.001h-62l127 602h-71l13 60h71l63 296c5.33301 24.667 12.333 52.334 21 83.001s21 57 37 79c20 27.333 44.833 47.833 74.5 61.5s59.5 20.5 89.5 20.5c8.66699 0 17.167 -1 25.5 -3l28.5 -7l-12 -57c-10.667 2.66699 -20 4.66699 -28 6
s-15.667 2 -23 2c-27.333 0 -49.666 -6.16699 -66.999 -18.5s-31.833 -28.333 -43.5 -48s-20.667 -41.167 -27 -64.5s-11.5 -45.333 -15.5 -66l-61 -284h164l-13 -60h-164zM418.999 -1.00098l252 1186h61l-252 -1186h-61z" />
    <glyph glyph-name="ffi" unicode="ffi" horiz-adv-x="878" 
d="M287 602l-127.001 -602.001h-62l127 602h-71l13 60h71l63 296c5.33301 24.667 12.333 52.334 21 83.001s21 57 37 79c20 27.333 44.833 47.833 74.5 61.5s59.5 20.5 89.5 20.5c8.66699 0 17.167 -1 25.5 -3l28.5 -7l-12 -57c-10.667 2.66699 -20 4.66699 -28 6
s-15.667 2 -23 2c-27.333 0 -49.666 -6.16699 -66.999 -18.5s-31.833 -28.333 -43.5 -48s-20.667 -41.167 -27 -64.5s-11.5 -45.333 -15.5 -66l-61 -284h164l-13 -60h-164zM626.999 601.999l-127.001 -602.001h-62l127 602h-71l13 60h71l63 296
c5.33301 24.667 12.333 52.334 21 83.001s21 57 37 79c20 27.333 44.833 47.833 74.5 61.5s59.5 20.5 89.5 20.5c8.66699 0 17.167 -1 25.5 -3l28.5 -7l-12 -57c-10.667 2.66699 -20 4.66699 -28 6s-15.667 2 -23 2c-27.333 0 -49.666 -6.16699 -66.999 -18.5
s-31.833 -28.333 -43.5 -48s-20.667 -41.167 -27 -64.5s-11.5 -45.333 -15.5 -66l-61 -284h164l-13 -60h-164zM985.998 882.998c-3.33301 -16.667 -12.166 -30.834 -26.499 -42.501s-28.833 -17.5 -43.5 -17.5c-16.667 0 -29.5 5.83301 -38.5 17.5
s-11.833 25.834 -8.5 42.501c3.33301 16 12.166 29.833 26.499 41.5s29.833 17.5 46.5 17.5c14.667 0 26.5 -5.83301 35.5 -17.5s11.833 -25.5 8.5 -41.5zM708.998 -0.00195312l140 662h61l-140 -662h-61z" />
    <glyph glyph-name="ffl" unicode="ffl" horiz-adv-x="915" 
d="M287 602l-127.001 -602.001h-62l127 602h-71l13 60h71l63 296c5.33301 24.667 12.333 52.334 21 83.001s21 57 37 79c20 27.333 44.833 47.833 74.5 61.5s59.5 20.5 89.5 20.5c8.66699 0 17.167 -1 25.5 -3l28.5 -7l-12 -57c-10.667 2.66699 -20 4.66699 -28 6
s-15.667 2 -23 2c-27.333 0 -49.666 -6.16699 -66.999 -18.5s-31.833 -28.333 -43.5 -48s-20.667 -41.167 -27 -64.5s-11.5 -45.333 -15.5 -66l-61 -284h164l-13 -60h-164zM626.999 601.999l-127.001 -602.001h-62l127 602h-71l13 60h71l63 296
c5.33301 24.667 12.333 52.334 21 83.001s21 57 37 79c20 27.333 44.833 47.833 74.5 61.5s59.5 20.5 89.5 20.5c8.66699 0 17.167 -1 25.5 -3l28.5 -7l-12 -57c-10.667 2.66699 -20 4.66699 -28 6s-15.667 2 -23 2c-27.333 0 -49.666 -6.16699 -66.999 -18.5
s-31.833 -28.333 -43.5 -48s-20.667 -41.167 -27 -64.5s-11.5 -45.333 -15.5 -66l-61 -284h164l-13 -60h-164zM734.998 -1.00195l252 1186h61l-252 -1186h-61z" />
    <glyph glyph-name="Rulakkhangyao" unicode="&#xc4;&#xd2;" horiz-adv-x="1321" 
d="M579 -307l181.998 856c16 73.333 3.16699 128.833 -38.5 166.5s-98.167 56.5 -169.5 56.5c-113.333 0 -207.666 -41 -282.999 -123l-125 -588h123l-12 -61h-184l141 668c98.667 110.667 216.334 166 353.001 166c42.667 0 81.834 -5.5 117.501 -16.5
s65.667 -27.833 90 -50.5s41.666 -50.667 51.999 -84s10.833 -72 1.5 -116l-186 -874h-62zM1072 -307l177.997 834.997c16 75.333 9.83301 135.5 -18.5 180.5s-80.166 67.5 -155.499 67.5c-35.333 0 -69.166 -6.16699 -101.499 -18.5s-55.166 -22.5 -68.499 -30.5l14 64
c12.667 6.66699 35.167 15.5 67.5 26.5s66.833 16.5 103.5 16.5c49.333 0 90 -7.66699 122 -23s57.167 -36.166 75.5 -62.499s29.333 -56.666 33 -90.999s1.5 -71.166 -6.5 -110.499l-182 -854h-61z" />
    <glyph glyph-name="Lulakkhangyao" unicode="&#xc6;&#xd2;" horiz-adv-x="1303" 
d="M1072 -307l177.997 834.997c16 75.333 9.83301 135.5 -18.5 180.5s-80.166 67.5 -155.499 67.5c-35.333 0 -69.166 -6.16699 -101.499 -18.5s-55.166 -22.5 -68.499 -30.5l14 64c12.667 6.66699 35.167 15.5 67.5 26.5s66.833 16.5 103.5 16.5
c49.333 0 90 -7.66699 122 -23s57.167 -36.166 75.5 -62.499s29.333 -56.666 33 -90.999s1.5 -71.166 -6.5 -110.499l-182 -854h-61zM588.997 -307.003l181.999 856c16 73.333 3.16699 128.833 -38.5 166.5s-98.167 56.5 -169.5 56.5c-113.333 0 -207.666 -41 -282.999 -123
l-137 -649h-143l12 61h82l129 607c99.333 110.667 217 166 353 166c42.667 0 82 -5.5 118 -16.5s66.167 -27.833 90.5 -50.5s41.5 -50.667 51.5 -84s10.333 -72 1 -116l-186 -874h-62z" />
    <glyph glyph-name=".notdef" horiz-adv-x="1536" 
d="M528 1280h1024l-272 -1280h-1024zM1244 33c6 0 10 3.33301 12 10l253 1194c2 6.66699 -0.333008 10 -7 10h-938c-6.66699 0 -11 -3.33301 -13 -10l-253 -1194c-2 -6.66699 0.666992 -10 8 -10h938zM712 -2h2h-2h2h-2zM767 -4h-2v2h2v-2zM767 -4h-2v2h2v-2zM779 -4v2h-4
v-2v2h2h2v-2zM779 -2h-2h2zM794 -2v-2h4v2h-2h2v-2h-4v2h4h-4zM802 -2v-2v2h-4v-2v2h4zM716 -4h-6l1 4h6zM716 -4h-6l1 4h6zM730 -4h-2v2h2v-2zM730 -4h-2v2h2v-2zM734 -2v-2v2h-2h2zM769 -4h2h-2v2v-2zM843 -4h-4v2h4v-2zM843 -4h-4v2h4v-2zM833 -4h2v2v-2h-2v2v-2zM806 -2
h-2v-2v2h-2h4zM759 -2v-2h-2v2h2h-2h2zM757 -4v2h2v-2h-2zM761 -2v-2v2h4h-4zM765 -2h-4h4zM794 -4v2v-2zM720 -4h4h-4zM720 -2v-2v2h4h-4h4h-4zM673 -2v-2h4h-4v2h4h-4zM726 -4h-2v2h2v-2zM726 -4h-2v2h2v-2zM681 -2v-2v2h2h-2zM683 -2h-2h2zM681 -4h-4v2h4v-2zM681 -4h-4
v2h4v-2zM689 -2h-2v-2v2h-2h4zM783 -4h2h-2v2v-2zM781 -4h2h-2v2v-2zM753 -2h2v-2v2h-2v-2v2zM816 -2v-2v2h-4v-2v2h2h2zM814 -2h-2h2zM761 -4v2v-2zM695 -2v-2h2v2h-2h2v-2h-2v2h2h-2zM701 -2v-2v2h-2v-2v2h2zM708 -2h-2v-2v2h-2h4zM693 -4v2v-2zM693 -2v-2v2h-4v-2v2h2h2z
M691 -2h-2h2zM833 -2v-2v2h-5v-2v2h2h3zM830 -2h-2h2zM839 -4h-4h4zM839 -2h-4h4zM839 -2h-4h4zM751 -4h-2h2zM751 -4v2h-2v-2v2h2v-2zM751 -2h-2h2zM824 -4h4h-4zM828 -2h-4h4zM828 -2h-4h4zM810 -2v-2h-2h2v2h-2h2zM810 -2h-2h2zM824 -2v-2h-4h4v2h-4h4zM824 -2h-4h4z
M820 -4h-4h4zM820 -2h-4h4zM820 -2h-4h4zM792 -4v2h-2v-2v2h2v-2zM792 -2h-2h2zM747 -4h-3h3zM747 -2h-3h3zM747 -2h-3h3zM738 -4h4v2v-2h-4v2v-2zM740 -4v2v-2z" />
    <glyph glyph-name="space" unicode=" " horiz-adv-x="690" 
 />
    <glyph glyph-name="exclam" unicode="!" horiz-adv-x="477" 
d="M331 307l-27.999 0.000976562l63 676c3.33301 27.333 16.666 49.166 39.999 65.499s48 24.5 74 24.5s46.167 -8.83301 60.5 -26.5s17.5 -40.167 9.5 -67.5zM251.001 -3.99902c-30 0 -50.833 9.5 -62.5 28.5s-15 40.167 -10 63.5s17.333 44.5 37 63.5s44.5 28.5 74.5 28.5
c31.333 0 52.5 -9.5 63.5 -28.5s14 -40.167 9 -63.5s-17 -44.5 -36 -63.5s-44.167 -28.5 -75.5 -28.5z" />
    <glyph glyph-name="quotedbl" unicode="&#x22;" horiz-adv-x="436" 
d="M373 637h-41l147 295h86zM241 637h-40l147 295h86z" />
    <glyph glyph-name="numbersign" unicode="#" horiz-adv-x="846" 
d="M743 629l-87 -234h164l-14 -67h-176l-120 -328h-64l119 328h-187l-116 -328h-65l114 328h-168l14 67h178l83 234h-172l14 67h180l110 305h70l-111 -305h191l108 305h70l-110 -305h151l-14 -67h-162zM485 629l-85 -234h191l83 234h-189z" />
    <glyph glyph-name="dollar" unicode="$" horiz-adv-x="846" 
d="M802 301c-8 -38 -22.502 -74.166 -43.502 -108.499s-46.167 -65.5 -75.5 -93.5s-62.166 -51.5 -98.499 -70.5s-73.833 -32.5 -112.5 -40.5l-34 -162h-63l34 160c-73.333 4 -131.5 25.833 -174.5 65.5s-70.5 95.5 -82.5 167.5l66 27c10 -57.333 32 -103.833 66 -139.5
s80.333 -52.834 139 -51.501l106 496c-27.333 14.667 -54 30 -80 46s-48.5 34.167 -67.5 54.5s-32.667 44.166 -41 71.499s-8.5 60 -0.5 98c16 76.667 51.833 139.5 107.5 188.5s121.167 77.833 196.5 86.5l32 149h63l-33 -155c42.667 -7.33301 80 -23.166 112 -47.499
s55.667 -56.5 71 -96.5l-63 -43c-12.667 31.333 -29.667 58 -51 80s-48.666 36.333 -81.999 43l-92 -430c28.667 -18 57.5 -35.167 86.5 -51.5s53.333 -35.333 73 -57s34 -47.167 43 -76.5s8.5 -66 -1.5 -110zM629.998 1026
c-26.667 -1.33301 -52.668 -8.16797 -78.001 -20.501s-47.333 -27.666 -66 -45.999s-35.167 -39.5 -49.5 -63.5s-24.166 -48.333 -29.499 -73c-5.33301 -26 -4.83301 -48.5 1.5 -67.5s16 -36 29 -51s29.333 -28.667 49 -41l58.5 -36.5zM736.997 306.999
c5.33301 27.333 4.5 51.666 -2.5 72.999s-18 40.166 -33 56.499s-32.667 31 -53 44s-41.5 25.5 -63.5 37.5l-98 -461c62 16.667 116 47.834 162 93.501s75.333 97.834 88 156.501z" />
    <glyph glyph-name="percent" unicode="%" horiz-adv-x="907" 
d="M639 879c-6 -30 -17.3281 -58 -33.9951 -84s-36.667 -48.333 -60 -67s-49 -33.334 -77 -44.001s-56.333 -16 -85 -16s-54.834 5.33301 -78.501 16s-43.167 25.334 -58.5 44.001s-25.5 41 -30.5 67s-4.5 54 1.5 84c6.66699 31.333 18.167 60 34.5 86
s36.166 48.167 59.499 66.5s48.833 33 76.5 44s56.5 16.5 86.5 16.5c28.667 0 54.667 -5.5 78 -16.5s42.666 -25.667 57.999 -44s25.666 -40.5 30.999 -66.5s4.66602 -54.667 -2.00098 -86zM158.005 -25l-37 27l855 1104l42 -23zM920.005 203
c-13.333 -61.333 -44.6689 -111.832 -94.002 -151.499s-103.333 -59.5 -162 -59.5c-28.667 0 -55 5.16699 -79 15.5s-43.833 25 -59.5 44s-26.167 41.5 -31.5 67.5s-4.66602 54 2.00098 84c6.66699 31.333 18 59.666 34 84.999s35.667 47.5 59 66.5s49 33.667 77 44
s57 15.5 87 15.5c58.667 0 104.334 -19.833 137.001 -59.5s42.667 -90.167 30 -151.5zM581.002 879.001c9.33301 43.333 1.66797 79.333 -22.999 108s-57.334 43 -98.001 43c-41.333 0 -80 -14.333 -116 -43s-58.667 -64.667 -68 -108
c-8.66699 -42.667 -1.16699 -78.667 22.5 -108s56.167 -44 97.5 -44c40.667 0 79.5 14.667 116.5 44s59.833 65.333 68.5 108zM862.004 203.001c8.66699 43.333 0.831055 79.666 -23.502 108.999s-56.833 44 -97.5 44c-42.667 0 -82.167 -14.667 -118.5 -44
s-58.833 -65.666 -67.5 -108.999c-9.33301 -44 -2.16602 -80.333 21.501 -109s56.834 -43 99.501 -43c40.667 0 79.5 14.333 116.5 43s60.167 65 69.5 109z" />
    <glyph glyph-name="ampersand" unicode="&#x26;" horiz-adv-x="877" 
d="M815 0l-91.9971 178.001c-36.667 -26 -73.5 -50.833 -110.5 -74.5s-74 -44.834 -111 -63.501s-73 -33.334 -108 -44.001s-69.5 -16 -103.5 -16c-38 0 -71.833 7.5 -101.5 22.5s-54 35 -73 60s-32 55 -39 90s-6.16699 72.167 2.5 111.5
c9.33301 46.667 27.5 88.667 54.5 126s59.167 71.833 96.5 103.5s78.166 61.167 122.499 88.5s88.166 53 131.499 77c-21.333 36 -40 72.667 -56 110s-19 79.333 -9 126c6 28.667 17.167 55.334 33.5 80.001s36 46.5 59 65.5s48 34 75 45s54.167 16.5 81.5 16.5
c56 0 97.5 -19.833 124.5 -59.5s34.833 -86.834 23.5 -141.501c-13.333 -61.333 -43.333 -112.166 -90 -152.499s-101.334 -78.833 -164.001 -115.5l185 -363l169 140l39 -43l-180 -148l110 -219h-70zM750.003 901.001c8 36.667 2.5 68.668 -16.5 96.001
s-46.833 41 -83.5 41s-71.334 -15.667 -104.001 -47s-53 -66 -61 -104c-8 -37.333 -4.66699 -71.333 10 -102s29.334 -63 44.001 -97l68 44.5c22.667 14.333 43.5 29.666 62.5 45.999s35.833 34.333 50.5 54s24.667 42.5 30 68.5zM506.003 602.002l-74.9951 -44.999
l-88 -53.5c-30.667 -19 -59.334 -40 -86.001 -63s-49.834 -48.5 -69.501 -76.5s-33.167 -59.333 -40.5 -94c-6.66699 -30 -7.83398 -59 -3.50098 -87s13.166 -52.5 26.499 -73.5s31.333 -37.667 54 -50s49 -18.5 79 -18.5c31.333 0 63.666 5.83301 96.999 17.5
s66.5 26.667 99.5 45s66 39.166 99 62.499l95.5 67z" />
    <glyph glyph-name="quotesingle" unicode="'" horiz-adv-x="291" 
d="M320 737h-37l59 344h65z" />
    <glyph glyph-name="parenleft" unicode="(" horiz-adv-x="365" 
d="M224 -205c-40.667 98.667 -66 205.667 -76 321s-2.66699 231 22 347c24 114.667 65.5 225.5 124.5 332.5s128.167 209.167 207.5 306.5l50 -2c-24 -27.333 -46.333 -57 -67 -89l-60 -96c-46.667 -70.667 -85.667 -144.5 -117 -221.5s-55.333 -155.167 -72 -234.5
c-14 -67.333 -23 -129.333 -27 -186s-3.83301 -110.5 0.5 -161.5s12.333 -101.833 24 -152.5s25.5 -104.667 41.5 -162z" />
    <glyph glyph-name="parenright" unicode=")" horiz-adv-x="365" 
d="M389 463c-12 -54.667 -28.668 -111.668 -50.001 -171.001s-46.666 -118 -75.999 -176s-62 -114.667 -98 -170s-73.667 -105.666 -113 -150.999h-51c40 54.667 76.5 107.667 109.5 159s63 103.5 90 156.5s50.5 107.833 70.5 164.5s37 118 51 184
c18 86 26.5 169.5 25.5 250.5s-10.167 160.5 -27.5 238.5c-6 24.667 -11.833 50.667 -17.5 78s-13.5 52.666 -23.5 75.999h51c36.667 -96 61.667 -198.167 75 -306.5s8 -219.166 -16 -332.499z" />
    <glyph glyph-name="asterisk" unicode="*" horiz-adv-x="721" 
d="M580 811l92.001 -172l-65 -43l-79 166l-20.5 -20.5l-47 -49l-53 -56.5c-17.667 -18.667 -30.834 -32 -39.501 -40l-47 43l166 172l-189 61l36 66l184 -70l37 213h69l-51 -213l214 70l8 -66z" />
    <glyph glyph-name="plus" unicode="+" horiz-adv-x="778" 
d="M489 328l-63 -297h-62l63 297h-297l13 61h297l63 297h62l-63 -297h297l-13 -61h-297z" />
    <glyph glyph-name="comma" unicode="," horiz-adv-x="303" 
d="M239 29c-6.66699 -30 -24.8291 -62.499 -54.4961 -97.499s-68.834 -66.167 -117.501 -93.5l-15 21c33.333 18.667 60.666 39.667 81.999 63s42.666 51.333 63.999 84c-18 -10.667 -36.667 -16 -56 -16c-17.333 0 -30.833 6.16699 -40.5 18.5s-12.5 27.166 -8.5 44.499
c4 18 13.833 33.833 29.5 47.5s33.834 20.5 54.501 20.5c27.333 0 45.666 -9.66699 54.999 -29s11.666 -40.333 6.99902 -63z" />
    <glyph glyph-name="hyphen" unicode="-" horiz-adv-x="475" 
d="M157 328l13 61h299l-13 -61h-299z" />
    <glyph glyph-name="period" unicode="." horiz-adv-x="303" 
d="M228 55c-4 -18.667 -13.501 -34.167 -28.501 -46.5s-31.833 -18.5 -50.5 -18.5c-19.333 0 -33.833 6.16699 -43.5 18.5s-12.5 27.833 -8.5 46.5c4 19.333 13.5 35.166 28.5 47.499s32.167 18.5 51.5 18.5c18.667 0 32.834 -6.16699 42.501 -18.5
s12.5 -28.166 8.5 -47.499z" />
    <glyph glyph-name="slash" unicode="/" horiz-adv-x="874" 
d="M48 -203l-48 27l1035 1358l46 -25z" />
    <glyph glyph-name="zero" unicode="0" horiz-adv-x="778" 
d="M868 547c-16 -74 -39.499 -145.167 -70.499 -213.5s-67.667 -128 -110 -179s-88.833 -91.833 -139.5 -122.5s-104.667 -46 -162 -46c-56 0 -103.333 15.333 -142 46s-67.834 71.5 -87.501 122.5s-30.5 110.667 -32.5 179s5 139.5 21 213.5
c16 74.667 39.167 145.167 69.5 211.5s66.5 124.5 108.5 174.5s88.167 89.667 138.5 119s103.5 44 159.5 44s103.167 -14.667 141.5 -44s67.833 -69 88.5 -119s32.667 -108.167 36 -174.5s-3 -136.833 -19 -211.5zM796.001 547c12 57.333 17.998 115 17.998 173
s-7.5 109.833 -22.5 155.5s-37.333 83.167 -67 112.5s-68.5 44 -116.5 44c-46.667 0 -91.167 -14.667 -133.5 -44s-80.666 -66.833 -114.999 -112.5s-64.166 -97.5 -89.499 -155.5s-44 -115.667 -56 -173c-14 -64 -20.833 -126.167 -20.5 -186.5
s7.83301 -113.666 22.5 -159.999s37 -83.5 67 -111.5s68.333 -42 115 -42c48 0 93 14 135 42s80.333 65.167 115 111.5s64.5 99.666 89.5 159.999s44.5 122.5 58.5 186.5z" />
    <glyph glyph-name="one" unicode="1" horiz-adv-x="778" 
d="M389 0l216 1018h-188l45 63h222l-229 -1081h-66z" />
    <glyph glyph-name="two" unicode="2" horiz-adv-x="778" 
d="M872 778c-8 -36.667 -21.6641 -71.3359 -40.9971 -104.003s-41.833 -64 -67.5 -94s-52.834 -58.667 -81.501 -86l-87 -80l-380 -353h499l-12 -61h-647l484 442l79 74c28 26 54.667 53.667 80 83s47.833 59.333 67.5 90s32.834 61.667 39.501 93
c7.33301 36 7.66602 69 0.999023 99s-18.834 56.167 -36.501 78.5s-40.167 40 -67.5 53s-58 19.5 -92 19.5s-67.667 -6.16699 -101 -18.5s-63.333 -29.666 -90 -51.999s-49.834 -49.166 -69.501 -80.499s-33.834 -66.333 -42.501 -105h-67c12.667 52 32 97.833 58 137.5
s56.5 72.834 91.5 99.501s72.833 47.167 113.5 61.5s80.667 21.5 120 21.5c44 0 83.333 -8.16699 118 -24.5s63.334 -38.5 86.001 -66.5s38.167 -61.5 46.5 -100.5s7.83301 -81.167 -1.5 -126.5z" />
    <glyph glyph-name="three" unicode="3" horiz-adv-x="778" 
d="M748 303c-9.33301 -44.667 -25.9971 -86.168 -49.9971 -124.501s-52.667 -71.833 -86 -100.5s-70.5 -51.167 -111.5 -67.5s-83.167 -24.5 -126.5 -24.5c-38.667 0 -74.334 6.5 -107.001 19.5s-59.834 31.667 -81.501 56s-36.667 53.666 -45 87.999
s-7.83301 72.5 1.5 114.5h66c-6 -64 6.16699 -116.167 36.5 -156.5s76.833 -60.5 139.5 -60.5c32.667 0 65.167 6.83301 97.5 20.5s62 32.167 89 55.5s50 50 69 80s32.167 62 39.5 96c14.667 69.333 3.83398 124.5 -32.499 165.5s-88.166 62.833 -155.499 65.5l14 64
c66 4 123.833 26.167 173.5 66.5s81.5 93.166 95.5 158.499c6 30 6.33301 58 1 84s-15.166 48.5 -29.499 67.5s-33 34 -56 45s-48.833 16.5 -77.5 16.5c-60 0 -111.333 -18.333 -154 -55s-73.667 -87.334 -93 -152.001h-65c24.667 84.667 65.167 151 121.5 199
s124.833 72 205.5 72c37.333 0 71.166 -7.16699 101.499 -21.5s55.166 -34.166 74.499 -59.499s32.666 -54.666 39.999 -87.999s6.66602 -70 -2.00098 -110c-10.667 -52 -33.834 -100.167 -69.501 -144.5s-82.167 -80.166 -139.5 -107.499
c51.333 -27.333 86.333 -64.166 105 -110.499s22.334 -96.833 11.001 -151.5z" />
    <glyph glyph-name="four" unicode="4" horiz-adv-x="778" 
d="M651 205l-43 -205h-67l43 205h-545l2 8l796 903l8 2l-180 -848h127l-14 -65h-127zM736 922l-566 -652h428z" />
    <glyph glyph-name="five" unicode="5" horiz-adv-x="778" 
d="M799 367c-12 -54.667 -32.835 -105.668 -62.502 -153.001s-65.167 -87.666 -106.5 -120.999s-86.833 -59.5 -136.5 -78.5s-100.5 -28.5 -152.5 -28.5c-61.333 0 -116.166 15 -164.499 45s-83.833 75 -106.5 135l65 27c20 -44 49.333 -79.333 88 -106s82.667 -40 132 -40
c44 0 86.5 8.16699 127.5 24.5s78.5 38.833 112.5 67.5s63 62.5 87 101.5s41 81.833 51 128.5c9.33301 43.333 9.66602 83.5 0.999023 120.5s-24.167 68.833 -46.5 95.5s-50.166 47.834 -83.499 63.501s-70.666 23.5 -111.999 23.5c-44.667 0 -89.334 -7.5 -134.001 -22.5
s-80.334 -30.167 -107.001 -45.5l101 477h500l-13 -63h-433l-69 -322c18.667 7.33301 43.834 15.333 75.501 24s67.5 13 107.5 13c50 0 94.833 -9.5 134.5 -28.5s71.834 -44.833 96.501 -77.5s41.5 -71.334 50.5 -116.001s8.16699 -92.667 -2.5 -144z" />
    <glyph glyph-name="six" unicode="6" horiz-adv-x="778" 
d="M821 362c-10 -47.333 -28.834 -93.502 -56.501 -138.502s-61.167 -85.5 -100.5 -121.5c-40.667 -39.333 -85.167 -68.5 -133.5 -87.5s-96.5 -28.5 -144.5 -28.5s-91.5 9.5 -130.5 28.5s-71 45.5 -96 79.5s-42 74 -51 120s-8.16699 95.333 2.5 148
c10 46.667 25.5 88.834 46.5 126.501s47.167 74.834 78.5 111.501l426 496l44 -43l-290 -336c29.333 9.33301 53.833 16 73.5 20s40.5 6 62.5 6c48 0 91.333 -10.167 130 -30.5s70 -47.833 94 -82.5s40.333 -75 49 -121s7.33398 -95 -3.99902 -147zM750.999 364.998
c9.33301 43.333 10.499 83.833 3.49902 121.5s-20.5 70.834 -40.5 99.501s-45.167 51.167 -75.5 67.5s-65.5 24.5 -105.5 24.5c-38 0 -76.333 -8.16699 -115 -24.5s-73.5 -38.833 -104.5 -67.5s-58.167 -61.834 -81.5 -99.501s-39.666 -78.167 -48.999 -121.5
c-9.33301 -44 -10.333 -85.167 -3 -123.5s20.333 -71.833 39 -100.5s43.834 -51.167 75.501 -67.5s66.5 -24.5 104.5 -24.5c40 0 78.667 8.16699 116 24.5s72.166 38.833 104.499 67.5s60 62.167 83 100.5s39.167 79.5 48.5 123.5z" />
    <glyph glyph-name="seven" unicode="7" horiz-adv-x="778" 
d="M65 -12l-45 43l869 985h-617l14 65h740z" />
    <glyph glyph-name="eight" unicode="8" horiz-adv-x="778" 
d="M754 283c-9.33301 -42.667 -26 -82.334 -50 -119.001s-52.5 -68 -85.5 -94s-69.667 -46.5 -110 -61.5s-81.166 -22.5 -122.499 -22.5c-40.667 0 -78 7.5 -112 22.5s-61.833 35.5 -83.5 61.5s-36.834 57.333 -45.501 94s-8.33398 76.334 0.999023 119.001
c12.667 61.333 37.334 115.5 74.001 162.5s88.334 86.167 155.001 117.5c-42 28.667 -70.5 64.834 -85.5 108.501s-17.5 89.5 -7.5 137.5c8.66699 40.667 24 78.5 46 113.5s47.833 65.5 77.5 91.5s63.167 46.167 100.5 60.5s75.666 21.5 114.999 21.5
c40 0 75.5 -7.16699 106.5 -21.5s56.5 -34.5 76.5 -60.5s33.333 -56.5 40 -91.5s5.66699 -72.833 -3 -113.5c-10 -48 -31.667 -93.833 -65 -137.5s-77 -79.834 -131 -108.501c52 -31.333 86.333 -70.5 103 -117.5s18.667 -101.167 6 -162.5zM776 811c6 30 6 58.333 0 85
s-16.333 50.167 -31 70.5s-34 36.333 -58 48s-50.333 17.5 -79 17.5s-57.334 -5.83301 -86.001 -17.5s-55 -27.667 -79 -48s-44.333 -43.833 -61 -70.5s-28 -55 -34 -85c-6.66699 -30 -7.33398 -58.333 -2.00098 -85s15.5 -49.5 30.5 -68.5s34.333 -34.333 58 -46
s50.5 -17.5 80.5 -17.5s59.167 5.83301 87.5 17.5s54.333 27 78 46s43.834 41.833 60.501 68.5s28.334 55 35.001 85zM690 289c6.66699 32.667 6.66406 63.667 -0.00292969 93s-18.667 55 -36 77s-39 39 -65 51s-55.333 18 -88 18s-64.667 -6 -96 -18s-60 -29 -86 -51
s-48.5 -47.667 -67.5 -77s-31.833 -60.333 -38.5 -93s-6.83398 -63.667 -0.500977 -93s17.833 -55 34.5 -77s37.834 -39.5 63.501 -52.5s54.834 -19.5 87.501 -19.5s64.834 6.5 96.501 19.5s60.834 30.5 87.501 52.5s49.667 47.667 69 77s32.333 60.333 39 93z" />
    <glyph glyph-name="nine" unicode="9" horiz-adv-x="778" 
d="M896 713c-9.33301 -44 -24.3311 -84.668 -44.998 -122.001s-46.334 -74 -77.001 -110l-423 -493l-43 45l276 317l-8 12c-18 -8 -36.833 -13.333 -56.5 -16s-40.5 -4 -62.5 -4c-46.667 0 -89 9.83301 -127 29.5s-69.333 47 -94 82s-41.334 75.333 -50.001 121
s-7.66699 93.834 3 144.501c11.333 53.333 31.333 102.833 60 148.5s63.167 85.5 103.5 119.5s84 60.667 131 80s94.167 29 141.5 29c49.333 0 93.5 -9.66699 132.5 -29s70.5 -46 94.5 -80s40.167 -74.5 48.5 -121.5s6.83301 -97.833 -4.5 -152.5zM826.002 718.999
c9.33301 43.333 10.501 83.833 3.50098 121.5s-20.167 70.5 -39.5 98.5s-44.333 50.167 -75 66.5s-65.334 24.5 -104.001 24.5c-38 0 -76.167 -8.16699 -114.5 -24.5s-73.333 -38.5 -105 -66.5s-59 -60.833 -82 -98.5s-39.167 -78.167 -48.5 -121.5
c-8.66699 -42.667 -9.66699 -83 -3 -121s19.834 -71.333 39.501 -100s45.334 -51.167 77.001 -67.5s66.5 -24.5 104.5 -24.5c38.667 0 76.667 8.16699 114 24.5s71.666 38.833 102.999 67.5s58.666 62 81.999 100s39.333 78.333 48 121z" />
    <glyph glyph-name="colon" unicode=":" horiz-adv-x="303" 
d="M344 602c-4 -19.333 -13.333 -35 -28 -47s-31.334 -18 -50.001 -18c-19.333 0 -34 6 -44 18s-13 27.667 -9 47c4.66699 19.333 14.334 35.166 29.001 47.499s31.667 18.5 51 18.5c18.667 0 33 -6.16699 43 -18.5s12.667 -28.166 8 -47.499zM228 55
c-4 -18.667 -13.501 -34.167 -28.501 -46.5s-31.833 -18.5 -50.5 -18.5c-19.333 0 -33.833 6.16699 -43.5 18.5s-12.5 27.833 -8.5 46.5c4 19.333 13.5 35.166 28.5 47.499s32.167 18.5 51.5 18.5c18.667 0 32.834 -6.16699 42.501 -18.5s12.5 -28.166 8.5 -47.499z" />
    <glyph glyph-name="semicolon" unicode=";" horiz-adv-x="303" 
d="M344 602c-4 -19.333 -13.333 -35 -28 -47s-31.334 -18 -50.001 -18c-19.333 0 -34 6 -44 18s-13 27.667 -9 47c4.66699 19.333 14.334 35.166 29.001 47.499s31.667 18.5 51 18.5c18.667 0 33 -6.16699 43 -18.5s12.667 -28.166 8 -47.499zM239 29
c-6.66699 -30 -24.8291 -62.499 -54.4961 -97.499s-68.834 -66.167 -117.501 -93.5l-15 21c33.333 18.667 60.666 39.667 81.999 63s42.666 51.333 63.999 84c-18 -10.667 -36.667 -16 -56 -16c-17.333 0 -30.833 6.16699 -40.5 18.5s-12.5 27.166 -8.5 44.499
c4 18 13.833 33.833 29.5 47.5s33.834 20.5 54.501 20.5c27.333 0 45.666 -9.66699 54.999 -29s11.666 -40.333 6.99902 -63z" />
    <glyph glyph-name="less" unicode="&#x3c;" horiz-adv-x="762" 
d="M130 326l16 75l704 318l-13 -64l-633 -290l505 -310l-13 -61z" />
    <glyph glyph-name="equal" unicode="=" horiz-adv-x="778" 
d="M150 420l13 61h656l-13 -61h-656zM111 236l13 61h656l-13 -61h-656z" />
    <glyph glyph-name="greater" unicode="&#x3e;" horiz-adv-x="762" 
d="M59 -6l13 61l640 310l-512 290l13 64l570 -318l-16 -75z" />
    <glyph glyph-name="question" unicode="?" horiz-adv-x="700" 
d="M810 834c-11.333 -53.333 -33.6641 -98.498 -66.9971 -135.498s-68.666 -71.5 -105.999 -103.5s-72.5 -64 -105.5 -96s-54.167 -70 -63.5 -114l-32 -152h-65l33 156c10 48 31.167 89 63.5 123s67.333 67.5 105 100.5s72.834 66.833 105.501 101.5s54 75.334 64 122.001
c5.33301 24 6.16602 48 2.49902 72s-12.667 46 -27 66s-34.333 35.667 -60 47s-56.834 17 -93.501 17c-38 0 -74.167 -6.83301 -108.5 -20.5s-64.333 -32.334 -90 -56.001s-45.5 -51.334 -59.5 -83.001s-20 -65.167 -18 -100.5l-72 -18
c-2.66699 44.667 5.16602 87.5 23.499 128.5s44.166 77.667 77.499 110s72.833 57.666 118.5 75.999s93.167 27.5 142.5 27.5c45.333 0 84.166 -7.16699 116.499 -21.5s58.5 -33.833 78.5 -58.5s33 -53 39 -85s5.33301 -66.333 -2 -103zM432.002 57.002
c-4 -18.667 -13.668 -34.5 -29.001 -47.5s-32.666 -19.5 -51.999 -19.5c-18.667 0 -32.667 6.5 -42 19.5s-12 28.833 -8 47.5c4 19.333 13.5 35.166 28.5 47.499s31.833 18.5 50.5 18.5c19.333 0 33.833 -6.16699 43.5 -18.5s12.5 -28.166 8.5 -47.499z" />
    <glyph glyph-name="at" unicode="@" horiz-adv-x="1130" 
d="M1215 633c-12 -57.333 -33.667 -111.329 -65 -161.996s-66.833 -94.667 -106.5 -132s-81.667 -67 -126 -89s-85.5 -33 -123.5 -33c-50.667 0 -82 23.333 -94 70c-38.667 -27.333 -74.667 -45.833 -108 -55.5s-64.333 -14.5 -93 -14.5c-62 0 -105.167 19.833 -129.5 59.5
s-30.166 90.167 -17.499 151.5c10.667 49.333 29.667 99.833 57 151.5s60.666 99.334 99.999 143.001s83.5 79.5 132.5 107.5s100.167 42 153.5 42c31.333 0 60 -7.5 86 -22.5s48 -38.833 66 -71.5l35 66h63l-246 -465l-18 -39c-5.33301 -12 -8 -22.833 -8 -32.5
s3.66699 -17.334 11 -23.001s21.333 -8.5 42 -8.5c30 0 62.5 11.667 97.5 35s68.5 52.5 100.5 87.5s60.167 74 84.5 117s40.5 83.5 48.5 121.5c12.667 60 11.834 114.5 -2.49902 163.5s-37.833 91 -70.5 126s-72.834 62 -120.501 81s-98.834 28.5 -153.501 28.5
c-67.333 0 -133 -13.667 -197 -41s-122.667 -63.833 -176 -109.5s-99 -98.834 -137 -159.501s-64 -124.334 -78 -191.001c-14 -66 -14.5 -128.667 -1.5 -188s37 -111.5 72 -156.5s79.167 -80.833 132.5 -107.5s112 -40 176 -40c79.333 0 157.666 16.667 234.999 50
s143.333 82.333 198 147l82 2c-62.667 -80.667 -139.5 -143.5 -230.5 -188.5s-189.833 -67.5 -296.5 -67.5c-76.667 0 -145 14.667 -205 44s-109 69.166 -147 119.499s-63.833 109.333 -77.5 177s-12.167 140.5 4.5 218.5c16.667 76 46.334 147.5 89.001 214.5
s94 125.5 154 175.5s125.333 89.333 196 118s142.334 43 215.001 43c69.333 0 131.666 -11.667 186.999 -35s100.833 -55.5 136.5 -96.5s60.334 -89.833 74.001 -146.5s13.5 -118.334 -0.5 -185.001zM882 657.004c7.33301 12.667 10.3291 27.833 8.99609 45.5
s-6.66602 34.667 -15.999 51s-22.666 30 -39.999 41s-39 16.5 -65 16.5c-36.667 0 -74.5 -12.667 -113.5 -38s-75.167 -57 -108.5 -95s-61.666 -78.5 -84.999 -121.5s-39 -83.167 -47 -120.5c-8.66699 -42 -4 -79.5 14 -112.5s52.333 -48.833 103 -47.5
c23.333 0 47 5.5 71 16.5s46.833 24.667 68.5 41s41.334 34.5 59.001 54.5s31.167 39.333 40.5 58z" />
    <glyph glyph-name="A" unicode="A" horiz-adv-x="877" 
d="M809 0l-66 356h-461l-214 -356h-70l679 1116l200 -1116h-68zM638 944l-318 -524h412z" />
    <glyph glyph-name="B" unicode="B" horiz-adv-x="768" 
d="M778 301c-8.66699 -43.333 -25 -84.167 -49 -122.5s-55.667 -71.833 -95 -100.5c-43.333 -32.667 -85.833 -53.834 -127.5 -63.501s-86.167 -14.5 -133.5 -14.5h-269l229 1081h209c40 0 78 -3.33301 114 -10s66.667 -24.334 92 -53.001
c26 -28.667 41.667 -62.167 47 -100.5s3.33301 -79.166 -6 -122.499c-10 -48 -28 -89.5 -54 -124.5s-63.667 -66.833 -113 -95.5c64 -18.667 109.5 -52.667 136.5 -102s33.5 -106.666 19.5 -171.999zM724 804.999c7.33301 35.333 7.5 68.6689 0.5 100.002
s-23.5 56.666 -49.5 75.999c-23.333 19.333 -50 30.333 -80 33s-60.667 4 -92 4h-117l-91 -428h117c35.333 0 68.166 1 98.499 3s63.166 14.667 98.499 38c34.667 23.333 60.334 48.666 77.001 75.999s29.334 60 38.001 98zM710 299.002
c8.66699 39.333 7.83105 76.832 -2.50195 112.499s-31.166 62.5 -62.499 80.5c-28 16 -62.167 25.667 -102.5 29s-78.5 5 -114.5 5h-147l-99 -465h162c36.667 0 74 1.83301 112 5.5s75.667 16.834 113 39.501c36 22 66.333 49.5 91 82.5s41.334 69.833 50.001 110.5z" />
    <glyph glyph-name="C" unicode="C" horiz-adv-x="1010" 
d="M966 123c-60 -42.667 -122.167 -76.1689 -186.5 -100.502s-129.166 -36.5 -194.499 -36.5c-74 0 -140.667 14.667 -200 44s-109 68.833 -149 118.5s-67.5 108.334 -82.5 176.001s-14.5 139.167 1.5 214.5c16 76 45.833 147.833 89.5 215.5s96 126.834 157 177.501
s127.5 90.667 199.5 120s145.667 44 221 44c64 0 123.333 -12.667 178 -38s101.334 -60 140.001 -104l-20 -94c-36 56 -82.167 98.667 -138.5 128s-115.166 44 -176.499 44c-66 0 -131 -13.667 -195 -41s-122.333 -63.833 -175 -109.5s-97.834 -98.5 -135.501 -158.5
s-63.5 -123.667 -77.5 -191c-13.333 -62.667 -14 -122.667 -2 -180s35.333 -108.333 70 -153c35.333 -44 79.666 -80.333 132.999 -109s110.666 -43 171.999 -43c57.333 0 122 15 194 45s137.667 71.667 197 125z" />
    <glyph glyph-name="D" unicode="D" horiz-adv-x="889" 
d="M964 539c-16 -75.333 -44.998 -147.167 -86.998 -215.5s-95 -128.5 -159 -180.5c-69.333 -57.333 -138 -95.5 -206 -114.5s-141 -28.5 -219 -28.5h-189l229 1081h189c78 0 146.167 -8.83301 204.5 -26.5s110.833 -54.5 157.5 -110.5
c43.333 -53.333 71.666 -114.833 84.999 -184.5s11.666 -143.167 -5.00098 -220.5zM896.002 538.999c14.667 69.333 15.999 134.666 3.99902 195.999s-38 116 -78 164c-40 46.667 -86.167 78.167 -138.5 94.5s-111.166 24.5 -176.499 24.5h-121l-204 -957h121
c69.333 0 135 9.33301 197 28s123.333 53.334 184 104.001c55.333 47.333 101 100.333 137 159s61 121 75 187z" />
    <glyph glyph-name="E" unicode="E" horiz-adv-x="688" 
d="M104 0l229 1081h502l-13 -63h-436l-84 -395h424l-14 -64h-424l-106 -498h436l-12 -61h-502z" />
    <glyph glyph-name="F" unicode="F" horiz-adv-x="602" 
d="M386 1018l-84 -395h348l-14 -64h-348l-118 -559h-66l229 1081h422l-13 -63h-356z" />
    <glyph glyph-name="G" unicode="G" horiz-adv-x="1130" 
d="M1197 520c-12.667 -69.333 -32.499 -133.665 -59.499 -192.998s-69.167 -115 -126.5 -167c-61.333 -54.667 -130.666 -97.334 -207.999 -128.001s-152.666 -46 -225.999 -46c-72.667 0 -138.834 14.667 -198.501 44s-108.667 69.166 -147 119.499
s-64.666 108.666 -78.999 174.999s-13.5 137.166 2.5 212.499c16 77.333 45.5 149.833 88.5 217.5s94.833 126.834 155.5 177.501s127.167 90.667 199.5 120s146.166 44 221.499 44c94 0 174.5 -22.5 241.5 -67.5s120.833 -106.5 161.5 -184.5l-64 -43
c-35.333 72 -82.333 128.5 -141 169.5s-130.334 61.5 -215.001 61.5c-64.667 0 -128.5 -13.333 -191.5 -40s-121.167 -62.5 -174.5 -107.5s-98.833 -97.167 -136.5 -156.5s-63.5 -121.666 -77.5 -186.999c-14 -67.333 -14.833 -130.666 -2.5 -189.999
s35.166 -111.5 68.499 -156.5s75.833 -80.833 127.5 -107.5s110.5 -40 176.5 -40c57.333 0 114.666 11.667 171.999 35s112 52.666 164 87.999c51.333 38 91.333 79.5 120 124.5s51.334 99.167 68.001 162.5h-375l13 63h442z" />
    <glyph glyph-name="H" unicode="H" horiz-adv-x="979" 
d="M809 0l118 557h-639l-118 -557h-66l229 1081h66l-97 -458h639l97 458h65l-229 -1081h-65z" />
    <glyph glyph-name="I" unicode="I" horiz-adv-x="276" 
d="M104 0l229 1081h66l-229 -1081h-66z" />
    <glyph glyph-name="J" unicode="J" horiz-adv-x="287" 
d="M186 20c-7.33301 -34 -16.501 -66 -27.501 -96s-25.667 -56.167 -44 -78.5s-41 -40 -68 -53s-59.167 -19.5 -96.5 -19.5c-38 0 -69.833 10.5 -95.5 31.5s-44.167 49.167 -55.5 84.5l62 41c8 -27.333 21.667 -49.5 41 -66.5s42 -25.5 68 -25.5
c25.333 0 46.5 5.83301 63.5 17.5s31 26 42 43s19.833 36.5 26.5 58.5s12.334 43 17.001 63l225 1061h67z" />
    <glyph glyph-name="K" unicode="K" horiz-adv-x="774" 
d="M702 0l-391 520l-38 -31l-103 -489h-66l229 1081h66l-107 -506l607 506h88l-622 -518l428 -563h-91z" />
    <glyph glyph-name="L" unicode="L" horiz-adv-x="438" 
d="M104 0l229 1081h66l-217 -1020h268l-12 -61h-334z" />
    <glyph glyph-name="M" unicode="M" horiz-adv-x="1231" 
d="M1157 -16l19 919l-566 -938l-171 938l-375 -919h-64l466 1132l177 -985l598 985l-18 -1132h-66z" />
    <glyph glyph-name="N" unicode="N" horiz-adv-x="1155" 
d="M367 928l-200 -940h-66l235 1108l678 -957l200 942h66l-237 -1116z" />
    <glyph glyph-name="O" unicode="O" horiz-adv-x="1171" 
d="M1244 541c-16 -76.667 -45.833 -148.834 -89.5 -216.501s-95.334 -126.334 -155.001 -176.001s-125.667 -89.167 -198 -118.5s-145.166 -44 -218.499 -44c-74 0 -141.167 14.667 -201.5 44s-110 68.833 -149 118.5s-65.667 108.334 -80 176.001
s-13.5 139.834 2.5 216.501c16.667 76 46.334 147.5 89.001 214.5s94.334 125.833 155.001 176.5s127.167 90.667 199.5 120s145.5 44 219.5 44c73.333 0 140.166 -14.667 200.499 -44s109.5 -69.333 147.5 -120s64.667 -109.5 80 -176.5s14.666 -138.5 -2.00098 -214.5z
M1177 541c14.667 66.667 15.6699 129.667 3.00293 189s-36.167 111.5 -70.5 156.5s-77.333 80.5 -129 106.5s-110.167 39 -175.5 39c-66 0 -130.833 -13 -194.5 -39s-121.667 -61.5 -174 -106.5s-97.333 -97.167 -135 -156.5s-63.834 -122.333 -78.501 -189
c-14 -67.333 -14.833 -130.666 -2.5 -189.999s35.166 -111.5 68.499 -156.5s76.166 -80.833 128.499 -107.5s111.5 -40 177.5 -40c65.333 0 129.5 13.333 192.5 40s121.167 62.5 174.5 107.5s99 97.167 137 156.5s64 122.666 78 189.999z" />
    <glyph glyph-name="P" unicode="P" horiz-adv-x="639" 
d="M778 795c-8 -38.667 -23.335 -77.332 -46.002 -115.999s-51.667 -71 -87 -97c-37.333 -28.667 -77.666 -47.167 -120.999 -55.5s-85.333 -12.5 -126 -12.5h-119l-109 -514h-66l229 1081h185c40.667 0 79.834 -3.33301 117.501 -10s69.834 -24.334 96.501 -53.001
c25.333 -27.333 41.666 -60.5 48.999 -99.5s6.33301 -80.167 -3 -123.5zM713.998 799.002c7.33301 34 7.50098 66.6689 0.500977 98.002s-22.167 56.666 -45.5 75.999c-20.667 23.333 -46.334 36.666 -77.001 39.999s-61.667 5 -93 5h-113l-94 -440h121
c34 0 67.5 3.33301 100.5 10s65.833 23 98.5 49c54.667 43.333 88.667 97.333 102 162z" />
    <glyph glyph-name="Q" unicode="Q" horiz-adv-x="1171" 
d="M1245 545c-16 -75.333 -43.499 -144.335 -82.499 -207.002s-89.5 -124 -151.5 -184l103 -154h-92l-66 115c-60.667 -41.333 -123 -73.166 -187 -95.499s-126 -33.5 -186 -33.5c-75.333 0 -143.166 14.333 -203.499 43s-109.666 68.167 -147.999 118.5
s-64.666 109 -78.999 176s-13.5 139.5 2.5 217.5c16.667 76 46.5 147.833 89.5 215.5s94.667 126.834 155 177.501s126.666 90.334 198.999 119.001s146.166 43 221.499 43c73.333 0 139.833 -14.333 199.5 -43s108.667 -68.334 147 -119.001s65.166 -109.167 80.499 -175.5
s14.666 -137.5 -2.00098 -213.5zM1176 531.998c14 68.667 15.1689 132.999 3.50195 192.999s-33.834 112.833 -66.501 158.5s-75.167 81.834 -127.5 108.501s-111.833 40 -178.5 40c-66 0 -130.833 -13 -194.5 -39s-122 -61.5 -175 -106.5s-98.333 -97.167 -136 -156.5
s-63.834 -122.333 -78.501 -189c-14 -67.333 -14.833 -131 -2.5 -191s35.5 -112.5 69.5 -157.5s77.667 -80.5 131 -106.5s112.666 -39 177.999 -39c52 0 105.333 11 160 33s107.667 50.667 159 86l-204 276h92l167 -237c52.667 50.667 96.334 102.167 131.001 154.5
s58.667 109.833 72 172.5z" />
    <glyph glyph-name="R" unicode="R" horiz-adv-x="664" 
d="M547 0l-236 512.001l-32 2l-109 -514h-66l229 1081h129c44 0 86 -2.33301 126 -7s75 -20.667 105 -48c32 -27.333 51.833 -60.833 59.5 -100.5s6.16699 -83.167 -4.5 -130.5c-18.667 -90.667 -60.5 -159.834 -125.5 -207.501s-142.5 -72.167 -232.5 -73.5l235 -514h-78z
M681 797.001c8 39.333 7.16504 77.5 -2.50195 114.5s-32.167 63.5 -67.5 79.5c-24 15.333 -52.167 23.666 -84.5 24.999s-64.166 2 -95.499 2h-45l-94 -443h86c32.667 0 64.834 2.83301 96.501 8.5s63.167 20.834 94.5 45.501c30 18.667 54.5 43.5 73.5 74.5
s31.833 62.167 38.5 93.5z" />
    <glyph glyph-name="S" unicode="S" horiz-adv-x="741" 
d="M751 299c-9.33301 -45.333 -27.3281 -86.999 -53.9951 -124.999s-57.834 -71 -93.501 -99s-75 -49.833 -118 -65.5s-86.5 -23.5 -130.5 -23.5c-70.667 0 -128.334 20.833 -173.001 62.5s-73 98.5 -85 170.5l66 29c11.333 -61.333 33.5 -110.166 66.5 -146.499
s80.167 -54.5 141.5 -54.5c34.667 0 69.167 6.83301 103.5 20.5s65.666 32.167 93.999 55.5s53 50.666 74 81.999s35.167 64.666 42.5 99.999c6.66699 31.333 5.5 58 -3.5 80s-22 41.5 -39 58.5s-36.5 32 -58.5 45l-61 35.5l-168 107c-30.667 22 -52 48.333 -64 79
s-13.333 67.667 -4 111c8.66699 40 23 76.667 43 110s44.5 62.333 73.5 87s61.333 43.834 97 57.501s73.167 20.5 112.5 20.5c52 0 98.333 -13.333 139 -40s70 -63.334 88 -110.001l-58 -41c-17.333 40 -40.666 71.167 -69.999 93.5s-68 33.5 -116 33.5
c-28.667 0 -56.167 -5.5 -82.5 -16.5s-50.333 -26 -72 -45s-40.334 -41.167 -56.001 -66.5s-26.834 -52.333 -33.501 -81c-6 -28.667 -5 -53.167 3 -73.5s19.667 -38 35 -53s33 -28.333 53 -40l58 -33.5l175 -107c34 -27.333 57.667 -58 71 -92s14.666 -75.667 3.99902 -125
z" />
    <glyph glyph-name="T" unicode="T" horiz-adv-x="610" 
d="M554 1018l-216 -1018h-66l216 1018h-272l13 63h610l-13 -63h-272z" />
    <glyph glyph-name="U" unicode="U" horiz-adv-x="901" 
d="M893 408c-12 -56 -26.1641 -107.999 -42.4971 -155.999s-46.833 -93.667 -91.5 -137c-44.667 -42.667 -94.834 -74.834 -150.501 -96.501s-109.167 -32.5 -160.5 -32.5c-52 0 -101.667 11.167 -149 33.5s-84.333 54.166 -111 95.499c-24.667 43.333 -35 89.333 -31 138
s11.667 100.334 23 155.001l143 673h66l-139 -653c-10 -49.333 -17.833 -98.166 -23.5 -146.499s2.16602 -90.166 23.499 -125.499c19.333 -36 48.833 -63.167 88.5 -81.5s80.167 -27.5 121.5 -27.5c40.667 0 85.167 9.16699 133.5 27.5s90.166 45.5 125.499 81.5
c34.667 35.333 59.5 77.166 74.5 125.499s27.5 97.166 37.5 146.499l139 653h66z" />
    <glyph glyph-name="V" unicode="V" horiz-adv-x="754" 
d="M367 -35l-140 1116h68l115 -923l507 923h68z" />
    <glyph glyph-name="W" unicode="W" horiz-adv-x="1520" 
d="M1151 -35l-188 1002l-613 -1002l-113 1116h68l96 -929l604 983l182 -983l486 929h67z" />
    <glyph glyph-name="X" unicode="X" horiz-adv-x="672" 
d="M590 0l-152 492l-356 -492h-74l406 551l-165 530h72l146 -463l335 463h74l-386 -530l172 -551h-72z" />
    <glyph glyph-name="Y" unicode="Y" horiz-adv-x="760" 
d="M511 461l-97 -461h-70l97 461l-216 620h74l192 -551l426 551h74z" />
    <glyph glyph-name="Z" unicode="Z" horiz-adv-x="774" 
d="M137 61h623l-12 -61h-740l855 1018h-577l13 63h694z" />
    <glyph glyph-name="bracketleft" unicode="[" horiz-adv-x="401" 
d="M33 -229l291 1372h235l-15 -72h-167l-261 -1229h167l-15 -71h-235z" />
    <glyph glyph-name="backslash" unicode="\" horiz-adv-x="874" 
d="M784 0l-498 1157l55 25l499 -1153z" />
    <glyph glyph-name="bracketright" unicode="]" horiz-adv-x="401" 
d="M33 -229l15 71h170l261 1229h-170l15 72h235l-291 -1372h-235z" />
    <glyph glyph-name="asciicircum" unicode="^" horiz-adv-x="844" 
d="M806 432l-169 584l-413 -584h-65l457 649h72l181 -649h-63z" />
    <glyph glyph-name="underscore" unicode="_" horiz-adv-x="717" 
d="M-25 -158l12 56h700l-12 -56h-700z" />
    <glyph glyph-name="grave" unicode="`" horiz-adv-x="418" 
d="M437 788l-130 207l92 29l95 -211z" />
    <glyph glyph-name="a" unicode="a" horiz-adv-x="762" 
d="M602 0l25.998 123.003c-43.333 -48 -89.333 -82.833 -138 -104.5s-95 -32.5 -139 -32.5c-48.667 0 -91 9.16699 -127 27.5s-64.333 43.166 -85 74.499s-34 68.166 -40 110.499s-3.66699 88.166 7 137.499c10 48 27 92.667 51 134s52.833 77.5 86.5 108.5
s71.834 55 114.501 72s88.334 25.5 137.001 25.5c46.667 0 89 -10.333 127 -31s69.333 -56.667 94 -108l26 125h62l-140 -662h-62zM677.998 342.003c8 38 9.49707 73.835 4.49707 107.502s-16.167 62.667 -33.5 87s-40.166 43.666 -68.499 57.999s-62.5 21.5 -102.5 21.5
c-36.667 0 -72 -7.83301 -106 -23.5s-64.667 -36.334 -92 -62.001s-50.833 -55.667 -70.5 -90s-33.167 -69.166 -40.5 -104.499c-8 -38 -10 -74.5 -6 -109.5s14.5 -65.833 31.5 -92.5s39.5 -48.167 67.5 -64.5s61 -24.5 99 -24.5c41.333 0 79.333 8.16699 114 24.5
s65.834 38.166 93.501 65.499s50.834 58.833 69.501 94.5s32 73.167 40 112.5z" />
    <glyph glyph-name="b" unicode="b" horiz-adv-x="762" 
d="M798 336c-10.667 -49.333 -27.9961 -95.1689 -51.9961 -137.502s-53 -79.166 -87 -110.499s-72.333 -56.166 -115 -74.499s-88.334 -27.5 -137.001 -27.5c-45.333 0 -87.833 11.167 -127.5 33.5s-70.834 57.5 -93.501 105.5l-26 -125h-62l251 1182h62l-136 -637
c45.333 46 91.666 79.333 138.999 100s94.333 31 141 31c47.333 0 88.666 -8.5 123.999 -25.5s63.5 -41 84.5 -72s34.5 -67.167 40.5 -108.5s4 -86 -6 -134zM735.004 335.997c7.33301 35.333 8.5 70.167 3.5 104.5s-15.833 64.333 -32.5 90s-38.667 46.334 -66 62.001
s-59.333 23.5 -96 23.5c-41.333 0 -79.5 -7.16699 -114.5 -21.5s-65.667 -34.333 -92 -60s-49 -55.667 -68 -90s-32.833 -71.166 -41.5 -110.499c-8 -38.667 -9.83301 -75.667 -5.5 -111s14.5 -66.333 30.5 -93s38 -47.834 66 -63.501s62 -23.5 102 -23.5
c39.333 0 76 8.16699 110 24.5s64.833 38.166 92.5 65.499s51.167 58.5 70.5 93.5s33 71.5 41 109.5z" />
    <glyph glyph-name="c" unicode="c" horiz-adv-x="647" 
d="M619 80c-39.333 -28.667 -81.1689 -51.4971 -125.502 -68.4971s-88.166 -25.5 -131.499 -25.5c-48 0 -90.333 8.83301 -127 26.5s-66.334 42.167 -89.001 73.5s-37.667 68.166 -45 110.499s-6 87.5 4 135.5c10 47.333 28 92.166 54 134.499s57 79 93 110
s76.333 55.333 121 73s90.334 26.5 137.001 26.5c86 0 155.333 -27.333 208 -82l-19 -86c-27.333 36.667 -57.333 63.834 -90 81.501s-70.667 26.5 -114 26.5c-38.667 0 -75.667 -7.83301 -111 -23.5s-67.666 -36.334 -96.999 -62.001s-54.5 -55.667 -75.5 -90
s-35.5 -70.5 -43.5 -108.5c-8 -37.333 -8.83301 -73.333 -2.5 -108s18.333 -65.334 36 -92.001s41.167 -47.834 70.5 -63.501s62.333 -23.5 99 -23.5c44 0 88.333 9.83301 133 29.5s89 50.834 133 93.501z" />
    <glyph glyph-name="d" unicode="d" horiz-adv-x="762" 
d="M602 0l25.998 123.003c-43.333 -48 -89.333 -82.833 -138 -104.5s-95 -32.5 -139 -32.5c-48.667 0 -91 9.16699 -127 27.5s-64.333 43.166 -85 74.499s-34 68.166 -40 110.499s-3.66699 88.166 7 137.499c10 48 27 92.667 51 134s52.833 77.5 86.5 108.5
s71.834 55 114.501 72s88.334 25.5 137.001 25.5c46.667 0 89 -10.667 127 -32s69.333 -56.333 94 -105l137 643h62l-251 -1182h-62zM677.998 342.003c8 38 9.49902 73.8359 4.49902 107.503s-16.167 62.667 -33.5 87s-40.166 43.666 -68.499 57.999s-62.5 21.5 -102.5 21.5
c-36.667 0 -72 -7.83301 -106 -23.5s-64.667 -36.334 -92 -62.001s-50.833 -55.667 -70.5 -90s-33.167 -69.166 -40.5 -104.499c-8 -38 -10 -74.5 -6 -109.5s14.5 -66.167 31.5 -93.5s39.5 -49.166 67.5 -65.499s61 -24.5 99 -24.5c41.333 0 79.333 8.16699 114 24.5
s65.667 38.166 93 65.499s50.5 59.166 69.5 95.499s32.5 74.166 40.5 113.499z" />
    <glyph glyph-name="e" unicode="e" horiz-adv-x="692" 
d="M167 326c-18.667 -86 -8.66797 -154.336 29.999 -205.003s94.667 -76 168 -76c49.333 0 96 13.333 140 40s83.333 63.334 118 110.001l23 -15l23 -16c-87.333 -118.667 -195.333 -178 -324 -178c-48 0 -89.167 9.16699 -123.5 27.5s-61.666 43.5 -81.999 75.5
s-33.666 68.833 -39.999 110.5s-4.5 85.834 5.5 132.501c10 46 26.833 89.833 50.5 131.5s52.5 78.334 86.5 110.001s72.5 56.667 115.5 75s87.5 27.5 133.5 27.5c48 0 89.167 -9.16699 123.5 -27.5s61 -43.333 80 -75s31.167 -68.667 36.5 -111
s3.66602 -87.833 -5.00098 -136.5h-559zM674.999 384.997c3.33301 65.333 -12.334 120.167 -47.001 164.5s-84 66.5 -148 66.5c-32.667 0 -64.5 -6 -95.5 -18s-60 -28.333 -87 -49s-50.667 -45 -71 -73s-36.166 -58.333 -47.499 -91h496z" />
    <glyph glyph-name="f" unicode="f" horiz-adv-x="317" 
d="M287 602l-127.001 -602.001h-62l127 602h-71l13 60h71l63 296c5.33301 24.667 12.333 52.334 21 83.001s21 57 37 79c20 27.333 44.833 47.833 74.5 61.5s59.5 20.5 89.5 20.5c8.66699 0 17.167 -1 25.5 -3l28.5 -7l-12 -57c-10.667 2.66699 -20 4.66699 -28 6
s-15.667 2 -23 2c-27.333 0 -49.666 -6.16699 -66.999 -18.5s-31.833 -28.333 -43.5 -48s-20.667 -41.167 -27 -64.5s-11.5 -45.333 -15.5 -66l-61 -284h164l-13 -60h-164z" />
    <glyph glyph-name="g" unicode="g" horiz-adv-x="772" 
d="M680 31c-10.667 -50.667 -23.833 -99.1709 -39.5 -145.504s-43.834 -91.5 -84.501 -135.5c-38.667 -42 -82.834 -73.667 -132.501 -95s-99.834 -32 -150.501 -32c-42 0 -80.167 6.16699 -114.5 18.5s-63.166 30.5 -86.499 54.5s-40.166 53.667 -50.499 89
s-12.5 76.333 -6.5 123h63c-10.667 -74 4.33301 -130.333 45 -169s93 -58 157 -58c40 0 79.667 8.16699 119 24.5s75.666 42.166 108.999 77.499c33.333 39.333 57.333 79.833 72 121.5s27 84.5 37 128.5l18 88c-43.333 -45.333 -89.166 -79.166 -137.499 -101.499
s-96.5 -33.5 -144.5 -33.5c-46 0 -86.167 9.5 -120.5 28.5s-61.833 44.167 -82.5 75.5s-34.167 67.833 -40.5 109.5s-4.5 85.834 5.5 132.501c10 47.333 27.333 91.833 52 133.5s54.667 78.334 90 110.001s74.333 56.334 117 74.001s87.334 26.5 134.001 26.5
c51.333 0 94 -10.667 128 -32s63.333 -55.666 88 -102.999l26 121h64zM688.001 341.996c8 38 9.66797 73.835 5.00098 107.502s-16 63 -34 88s-41.167 44.667 -69.5 59s-62.5 21.5 -102.5 21.5c-36.667 0 -71.667 -7.83301 -105 -23.5s-63.833 -36.667 -91.5 -63
s-51 -56.333 -70 -90s-32.5 -68.834 -40.5 -105.501c-8 -38 -10.167 -74.5 -6.5 -109.5s13.667 -65.833 30 -92.5s38.5 -48.167 66.5 -64.5s61 -24.5 99 -24.5c41.333 0 79.666 8.16699 114.999 24.5s67 38.166 95 65.499s51.167 58.833 69.5 94.5s31.5 73.167 39.5 112.5z
" />
    <glyph glyph-name="h" unicode="h" horiz-adv-x="666" 
d="M504 0l84 399.002c6.66699 31.333 11.5 60 14.5 86s1.16699 49 -5.5 69s-19 35.333 -37 46s-44.667 16 -80 16c-40.667 0 -75.167 -8.83301 -103.5 -26.5s-52.166 -40.167 -71.499 -67.5s-35 -58.333 -47 -93s-21.667 -68.334 -29 -101.001l-69 -328h-62l251 1182h62
l-133 -623c32 39.333 67 68.666 105 87.999s76.667 29 116 29c82 0 132.167 -24.667 150.5 -74s18.166 -117 -0.500977 -203l-84 -399h-61z" />
    <glyph glyph-name="i" unicode="i" horiz-adv-x="309" 
d="M400 883c-3.33301 -16.667 -12.166 -30.834 -26.499 -42.501s-28.833 -17.5 -43.5 -17.5c-16.667 0 -29.5 5.83301 -38.5 17.5s-11.833 25.834 -8.5 42.501c3.33301 16 12.166 29.833 26.499 41.5s29.833 17.5 46.5 17.5c14.667 0 26.5 -5.83301 35.5 -17.5
s11.833 -25.5 8.5 -41.5zM123 0l140 662h61l-140 -662h-61z" />
    <glyph glyph-name="j" unicode="j" horiz-adv-x="309" 
d="M400 883c-3.33301 -16.667 -12.166 -30.834 -26.499 -42.501s-28.833 -17.5 -43.5 -17.5c-16.667 0 -29.5 5.83301 -38.5 17.5s-11.833 25.834 -8.5 42.501c3.33301 16 12.166 29.833 26.499 41.5s29.833 17.5 46.5 17.5c14.667 0 26.5 -5.83301 35.5 -17.5
s11.833 -25.5 8.5 -41.5zM40 -387l223 1049h61l-223 -1049h-61z" />
    <glyph glyph-name="k" unicode="k" horiz-adv-x="578" 
d="M514 0l-246 336l-46 -41l-62 -295h-62l251 1182h62l-170 -799l323 279h82l-328 -285l278 -377h-82z" />
    <glyph glyph-name="l" unicode="l" horiz-adv-x="260" 
d="M98 0l251 1182h62l-251 -1182h-62z" />
    <glyph glyph-name="m" unicode="m" horiz-adv-x="991" 
d="M829 0l90 423.998c5.33301 26 9.16602 50.5 11.499 73.5s0.666016 43.5 -5.00098 61.5s-16.5 32 -32.5 42s-39.667 15 -71 15c-32.667 0 -61.167 -6.83301 -85.5 -20.5s-45.166 -31.667 -62.499 -54s-31.333 -47.166 -42 -74.499s-19 -55.333 -25 -84l-81 -383h-61
l86 408c5.33301 25.333 9 50.666 11 75.999s0 47.666 -6 66.999s-17 35 -33 47s-39.667 18 -71 18c-34.667 0 -64.167 -8.16699 -88.5 -24.5s-44.833 -36.666 -61.5 -60.999s-30.167 -51.166 -40.5 -80.499s-18.5 -57.666 -24.5 -84.999l-77 -365h-62l140 662h62l-17 -82
c30.667 35.333 61.5 60.166 92.5 74.499s62.167 21.5 93.5 21.5c77.333 0 129.333 -37.667 156 -113c32 40 65.5 68.833 100.5 86.5s71.5 26.5 109.5 26.5c42.667 0 75.5 -6.83301 98.5 -20.5s39.333 -32.167 49 -55.5s13.834 -50.666 12.501 -81.999s-6 -65.333 -14 -102
l-88 -416h-64z" />
    <glyph glyph-name="n" unicode="n" horiz-adv-x="666" 
d="M504 0l84 399.003c6.66699 30 11.5 58.333 14.5 85s1 49.667 -6 69s-19.333 34.666 -37 45.999s-44.167 17 -79.5 17c-40.667 0 -75.167 -8.83301 -103.5 -26.5s-52.166 -40.167 -71.499 -67.5s-35 -58.333 -47 -93s-21.667 -68.334 -29 -101.001l-69 -328h-62l140 662
h62l-22 -103c36 41.333 72 71.166 108 89.499s73.667 27.5 113 27.5c82 0 132.167 -24.667 150.5 -74s18.166 -117 -0.500977 -203l-84 -399h-61z" />
    <glyph glyph-name="o" unicode="o" horiz-adv-x="745" 
d="M777 332c-10.667 -49.333 -29.1621 -95.167 -55.4951 -137.5s-58 -78.833 -95 -109.5s-77.833 -54.834 -122.5 -72.501s-90.667 -26.5 -138 -26.5c-46.667 0 -88.334 9.16699 -125.001 27.5s-66.667 42.833 -90 73.5s-39.333 67.167 -48 109.5s-8 86.833 2 133.5
c10 47.333 28.167 91.833 54.5 133.5s57.833 78.334 94.5 110.001s77.167 56.667 121.5 75s89.833 27.5 136.5 27.5c47.333 0 89.666 -8.5 126.999 -25.5s68.166 -41 92.499 -72s40.666 -67.5 48.999 -109.5s7.16602 -87.667 -3.50098 -137zM715.005 329.999
c8.66699 40.667 9.5 78.501 2.5 113.501s-20.5 65.333 -40.5 91s-45.5 45.667 -76.5 60s-66.167 21.5 -105.5 21.5c-38.667 0 -75.667 -7.83301 -111 -23.5s-67.666 -36.334 -96.999 -62.001s-54.5 -56 -75.5 -91s-35.5 -71.5 -43.5 -109.5
c-8.66699 -38.667 -9.66699 -75 -3 -109s19.167 -64 37.5 -90s42.166 -46.833 71.499 -62.5s62.666 -23.5 99.999 -23.5c39.333 0 77.666 7.5 114.999 22.5s71.333 35.167 102 60.5s56.834 55.333 78.501 90s36.834 72 45.501 112z" />
    <glyph glyph-name="p" unicode="p" horiz-adv-x="762" 
d="M796 326c-10.667 -49.333 -27.498 -94.5 -50.498 -135.5s-51.5 -76.833 -85.5 -107.5s-72.167 -54.5 -114.5 -71.5s-87.833 -25.5 -136.5 -25.5c-48 0 -91.333 10.5 -130 31.5s-70 55.5 -94 103.5l-108 -508h-62l223 1049h62l-26 -123c44 47.333 90.167 82 138.5 104
s95.166 33 140.499 33c48.667 0 90.5 -9.16699 125.5 -27.5s63.167 -43.333 84.5 -75s34.666 -69 39.999 -112s3 -88.167 -7 -135.5zM732.002 324c8 38 10.002 74.6699 6.00195 110.003s-14.167 66.666 -30.5 93.999s-38 49.166 -65 65.499s-60.167 24.5 -99.5 24.5
c-41.333 0 -79.833 -8.16699 -115.5 -24.5s-67 -38.5 -94 -66.5s-49.667 -60 -68 -96s-31.833 -74 -40.5 -114c-16.667 -77.333 -7.33398 -142 27.999 -194s92 -78 170 -78c36.667 0 72 7.5 106 22.5s64.667 35.5 92 61.5s50.666 55.667 69.999 89s33 68.666 41 105.999z
" />
    <glyph glyph-name="q" unicode="q" horiz-adv-x="762" 
d="M519 -387l107 504.002c-44 -46.667 -89.833 -80.167 -137.5 -100.5s-94.167 -30.5 -139.5 -30.5c-48.667 0 -90.834 8.5 -126.501 25.5s-64 40.5 -85 70.5s-34.5 65.833 -40.5 107.5s-4 86.5 6 134.5c10.667 48.667 28 94.167 52 136.5s53 79.666 87 111.999
s72.833 57.666 116.5 75.999s89.834 27.5 138.501 27.5c44 0 86 -10.667 126 -32s71.333 -55 94 -101l25 119h62l-223 -1049h-62zM674 324.002c8 38 10.0039 74.6699 6.00391 110.003s-14.333 66.666 -31 93.999s-38.5 49.166 -65.5 65.499s-60.5 24.5 -100.5 24.5
c-40.667 0 -78.5 -8.16699 -113.5 -24.5s-66.333 -38.5 -94 -66.5s-50.834 -60 -69.501 -96s-32.334 -74 -41.001 -114c-16.667 -77.333 -6.83398 -142 29.499 -194s93.166 -78 170.499 -78c37.333 0 73 7.5 107 22.5s64.5 35.5 91.5 61.5s50.167 55.667 69.5 89
s33 68.666 41 105.999z" />
    <glyph glyph-name="r" unicode="r" horiz-adv-x="371" 
d="M468 606c-19.333 6.66699 -34.333 10.001 -45 10.001c-34 0 -62.333 -9.83301 -85 -29.5s-41 -43.834 -55 -72.501s-24.833 -59 -32.5 -91s-14.167 -60.333 -19.5 -85l-71 -338h-62l140 662h62l-20 -95c2 2.66699 4 6.33398 6 11.001
c4.66699 9.33301 9.66699 16.666 15 21.999c18.667 23.333 39.667 41.833 63 55.5s50.666 20.5 81.999 20.5c12.667 0 23.834 -1 33.501 -3s21.167 -5 34.5 -9z" />
    <glyph glyph-name="s" unicode="s" horiz-adv-x="504" 
d="M500 193c-13.333 -62 -44.1699 -112.006 -92.5029 -150.006s-101.166 -57 -158.499 -57c-52 0 -94.667 15.333 -128 46s-51.333 73.334 -54 128.001l61 22c6.66699 -42 19.834 -75.333 39.501 -100s50.834 -37 93.501 -37c39.333 0 76.333 14.333 111 43
s56.667 64.334 66 107.001c8.66699 40.667 1.83398 69.834 -20.499 87.501s-47.833 32.167 -76.5 43.5c-20 8 -40.167 16.833 -60.5 26.5s-38 21.334 -53 35.001s-26.167 30.334 -33.5 50.001s-8.33301 43.167 -3 70.5c11.333 50.667 37.166 91.334 77.499 122.001
s84.5 46 132.5 46c31.333 0 60.5 -8.83301 87.5 -26.5s45.167 -43.167 54.5 -76.5l-59 -30c-7.33301 24.667 -19.666 43 -36.999 55s-37.666 18 -60.999 18c-27.333 0 -54.333 -9.83301 -81 -29.5s-43 -43.834 -49 -72.501c-6 -27.333 -2.66699 -48.5 10 -63.5
s29.167 -27.667 49.5 -38s43.166 -20.166 68.499 -29.499s47.666 -21.5 66.999 -36.5s34.333 -34.5 45 -58.5s12 -55.667 4 -95z" />
    <glyph glyph-name="t" unicode="t" horiz-adv-x="274" 
d="M295 602l-127 -602h-64l127 602h-69l13 60h69l51 237h64l-51 -237h115l-13 -60h-115z" />
    <glyph glyph-name="u" unicode="u" horiz-adv-x="639" 
d="M607 264c-7.33301 -32.667 -15.8301 -65.334 -25.4971 -98.001s-27.834 -63.334 -54.501 -92.001c-29.333 -30 -62.5 -52.167 -99.5 -66.5s-74.167 -21.5 -111.5 -21.5c-35.333 0 -68.833 7.16699 -100.5 21.5s-55.5 36.5 -71.5 66.5
c-14.667 28.667 -19.834 59.334 -15.501 92.001s10.166 65.334 17.499 98.001l84 398h62l-79 -373c-6.66699 -32.667 -11.834 -63.667 -15.501 -93s-2.16699 -55.333 4.5 -78s19.834 -40.5 39.501 -53.5s48.5 -19.5 86.5 -19.5c40 0 72.167 6.5 96.5 19.5
s44.833 30.833 61.5 53.5s29.5 48.667 38.5 78s16.833 60.333 23.5 93l79 373h64z" />
    <glyph glyph-name="v" unicode="v" horiz-adv-x="586" 
d="M287 -35l-149 697h65l118 -545l341 545h66z" />
    <glyph glyph-name="w" unicode="w" horiz-adv-x="1028" 
d="M735 -35l-109 576l-345 -576l-142 699h65l112 -545l348 579l106 -579l338 545h61z" />
    <glyph glyph-name="x" unicode="x" horiz-adv-x="600" 
d="M526 0l-163 305l-291 -305h-72l334 352l-171 310h71l150 -267l258 267h78l-302 -310l184 -352h-76z" />
    <glyph glyph-name="y" unicode="y" horiz-adv-x="623" 
d="M118 -387h-64l232 373l-164 676h65l149 -601l371 601h64z" />
    <glyph glyph-name="z" unicode="z" horiz-adv-x="651" 
d="M141 59h520l-12 -59h-653l653 602h-440l13 60h569z" />
    <glyph glyph-name="braceleft" unicode="{" horiz-adv-x="401" 
d="M303 -229c-40.667 1.33301 -72.999 6.66602 -96.999 15.999s-41.5 23.333 -52.5 42s-16.167 42.334 -15.5 71.001s5.33398 63.334 14.001 104.001l54 252c8 39.333 5.83301 72 -6.5 98s-31.833 50.667 -58.5 74l13 61c36.667 23.333 66.5 47 89.5 71
s38.833 55.667 47.5 95l53 252c17.333 80.667 43.166 139.5 77.499 176.5s91.833 56.833 172.5 59.5l-14 -66c-17.333 0 -34.5 -1.33301 -51.5 -4s-32.5 -8.16699 -46.5 -16.5s-26.333 -20 -37 -35s-18.667 -34.5 -24 -58.5l-57 -269c-7.33301 -35.333 -16 -65.333 -26 -90
s-21.333 -45.834 -34 -63.501s-26.834 -32.667 -42.501 -45s-32.834 -24.5 -51.501 -36.5v-2c26.667 -22 45.834 -50 57.501 -84s9.83398 -87.333 -5.49902 -160l-56 -264c-5.33301 -24.667 -5.83301 -44.5 -1.5 -59.5s11.666 -26.667 21.999 -35s23.5 -13.833 39.5 -16.5
s32.667 -4 50 -4z" />
    <glyph glyph-name="bar" unicode="|" horiz-adv-x="428" 
d="M180 0l251 1182h68l-251 -1182h-68z" />
    <glyph glyph-name="braceright" unicode="}" horiz-adv-x="401" 
d="M440 428c-36 -23.333 -65.665 -48.002 -88.998 -74.002s-39 -58.667 -47 -98l-54 -252c-8.66699 -40.667 -18.834 -75.334 -30.501 -104.001s-27 -52.334 -46 -71.001s-42.333 -32.667 -70 -42s-62.167 -14.666 -103.5 -15.999l13 63c18 0 35.5 1.33301 52.5 4
s32.5 8.16699 46.5 16.5s26.333 20 37 35s18.667 34.833 24 59.5l56 264c15.333 72.667 36.333 126 63 160s58 62 94 84v2c-14 12 -26.167 24.167 -36.5 36.5s-18 27.333 -23 45s-7.33301 38.834 -7 63.501s4.16602 54.667 11.499 90l57 269
c5.33301 24 5.83301 43.5 1.5 58.5s-11.666 26.667 -21.999 35s-23.5 13.833 -39.5 16.5s-33 4 -51 4l14 66c41.333 -1.33301 73.833 -6.83301 97.5 -16.5s41 -23.667 52 -42s16.167 -42.166 15.5 -71.499s-5.33398 -64.666 -14.001 -105.999l-53 -252
c-8.66699 -39.333 -6.66699 -71 6 -95s32 -47.667 58 -71z" />
    <glyph glyph-name="asciitilde" unicode="~" horiz-adv-x="844" 
d="M867 422c-34.667 -42.667 -71.333 -79.334 -110 -110.001s-80.667 -46 -126 -46c-24 0 -47.5 5.83301 -70.5 17.5s-45.833 25.167 -68.5 40.5c-22.667 13.333 -45.667 25.166 -69 35.499s-47.333 15.5 -72 15.5c-31.333 0 -59.166 -9.66699 -83.499 -29
s-50.166 -44.666 -77.499 -75.999l-56 33l49 51.5c17.333 17.667 35.666 33.334 54.999 47.001s39.666 25 60.999 34s44 13.5 68 13.5c24.667 0 49.5 -5.5 74.5 -16.5s50.5 -22.833 76.5 -35.5l70 -37.5c22 -11.667 42.667 -17.5 62 -17.5c30 0 57.667 10.167 83 30.5
s51 48.5 77 84.5z" />
    <glyph glyph-name="thothannobasethai" horiz-adv-x="752" 
d="M801 426c-13.333 -64 -36.8301 -123.334 -70.4971 -178.001s-75 -101.834 -124 -141.501s-103.833 -69.667 -164.5 -90s-125.334 -27.833 -194.001 -22.5l-4 450h-82l11 52h133l4 -443c52 0 101.167 9.33301 147.5 28s88.666 45 126.999 79s70.833 73.5 97.5 118.5
s45.667 94.167 57 147.5c10.667 50.667 13 97.167 7 139.5s-19.667 78.833 -41 109.5s-49.166 54.5 -83.499 71.5s-75.5 25.5 -123.5 25.5c-62.667 0 -119.834 -11.167 -171.501 -33.5s-99.834 -52.166 -144.501 -89.499l-40 41c53.333 48 110.333 84 171 108s128 36 202 36
s133.667 -16.667 179 -50l101 97l41 -37l-97 -94c34 -37.333 56.5 -83.666 67.5 -138.999s9.16699 -117 -5.5 -185z" />
    <glyph glyph-name="thothannobasethai" unicode="&#xf700;" horiz-adv-x="752" 
d="M801 426c-13.333 -64 -36.8301 -123.334 -70.4971 -178.001s-75 -101.834 -124 -141.501s-103.833 -69.667 -164.5 -90s-125.334 -27.833 -194.001 -22.5l-4 450h-82l11 52h133l4 -443c52 0 101.167 9.33301 147.5 28s88.666 45 126.999 79s70.833 73.5 97.5 118.5
s45.667 94.167 57 147.5c10.667 50.667 13 97.167 7 139.5s-19.667 78.833 -41 109.5s-49.166 54.5 -83.499 71.5s-75.5 25.5 -123.5 25.5c-62.667 0 -119.834 -11.167 -171.501 -33.5s-99.834 -52.166 -144.501 -89.499l-40 41c53.333 48 110.333 84 171 108s128 36 202 36
s133.667 -16.667 179 -50l101 97l41 -37l-97 -94c34 -37.333 56.5 -83.666 67.5 -138.999s9.16699 -117 -5.5 -185z" />
    <glyph glyph-name="thothannobasethai" unicode="&#x20ac;" horiz-adv-x="752" 
d="M801 426c-13.333 -64 -36.8301 -123.334 -70.4971 -178.001s-75 -101.834 -124 -141.501s-103.833 -69.667 -164.5 -90s-125.334 -27.833 -194.001 -22.5l-4 450h-82l11 52h133l4 -443c52 0 101.167 9.33301 147.5 28s88.666 45 126.999 79s70.833 73.5 97.5 118.5
s45.667 94.167 57 147.5c10.667 50.667 13 97.167 7 139.5s-19.667 78.833 -41 109.5s-49.166 54.5 -83.499 71.5s-75.5 25.5 -123.5 25.5c-62.667 0 -119.834 -11.167 -171.501 -33.5s-99.834 -52.166 -144.501 -89.499l-40 41c53.333 48 110.333 84 171 108s128 36 202 36
s133.667 -16.667 179 -50l101 97l41 -37l-97 -94c34 -37.333 56.5 -83.666 67.5 -138.999s9.16699 -117 -5.5 -185z" />
    <glyph glyph-name="saraileftthai" 
d="M-633 922l13 61h593l-13 -61h-593z" />
    <glyph glyph-name="saraileftthai" unicode="&#xf701;" 
d="M-633 922l13 61h593l-13 -61h-593z" />
    <glyph glyph-name="saraiileftthai" 
d="M-633 922l13 61h532l22 102h61l-35 -163h-593z" />
    <glyph glyph-name="saraiileftthai" unicode="&#xf702;" 
d="M-633 922l13 61h532l22 102h61l-35 -163h-593z" />
    <glyph glyph-name="saraiileftthai" unicode="&#x201a;" 
d="M-633 922l13 61h532l22 102h61l-35 -163h-593z" />
    <glyph glyph-name="saraueleftthai" 
d="M36 1008c-5.33301 -23.333 -18.499 -43.5 -39.499 -60.5s-43.167 -25.5 -66.5 -25.5h-563l13 61h479c0 10.667 0.666992 19 2 25c4.66699 22.667 17.667 43 39 61s43.666 27 66.999 27c22.667 0 41 -9 55 -27s18.667 -38.333 14 -61zM-9.99902 1008
c2 10.667 -0.501953 20.5 -7.50195 29.5s-15.833 13.5 -26.5 13.5c-11.333 0 -22.333 -4.5 -33 -13.5s-17 -18.833 -19 -29.5c-2.66699 -11.333 -0.5 -21.333 6.5 -30s16.167 -13 27.5 -13c10.667 0 21.334 4.33301 32.001 13s17.334 18.667 20.001 30z" />
    <glyph glyph-name="saraueleftthai" unicode="&#xf703;" 
d="M36 1008c-5.33301 -23.333 -18.499 -43.5 -39.499 -60.5s-43.167 -25.5 -66.5 -25.5h-563l13 61h479c0 10.667 0.666992 19 2 25c4.66699 22.667 17.667 43 39 61s43.666 27 66.999 27c22.667 0 41 -9 55 -27s18.667 -38.333 14 -61zM-9.99902 1008
c2 10.667 -0.501953 20.5 -7.50195 29.5s-15.833 13.5 -26.5 13.5c-11.333 0 -22.333 -4.5 -33 -13.5s-17 -18.833 -19 -29.5c-2.66699 -11.333 -0.5 -21.333 6.5 -30s16.167 -13 27.5 -13c10.667 0 21.334 4.33301 32.001 13s17.334 18.667 20.001 30z" />
    <glyph glyph-name="saraueleftthai" unicode="&#x192;" 
d="M36 1008c-5.33301 -23.333 -18.499 -43.5 -39.499 -60.5s-43.167 -25.5 -66.5 -25.5h-563l13 61h479c0 10.667 0.666992 19 2 25c4.66699 22.667 17.667 43 39 61s43.666 27 66.999 27c22.667 0 41 -9 55 -27s18.667 -38.333 14 -61zM-9.99902 1008
c2 10.667 -0.501953 20.5 -7.50195 29.5s-15.833 13.5 -26.5 13.5c-11.333 0 -22.333 -4.5 -33 -13.5s-17 -18.833 -19 -29.5c-2.66699 -11.333 -0.5 -21.333 6.5 -30s16.167 -13 27.5 -13c10.667 0 21.334 4.33301 32.001 13s17.334 18.667 20.001 30z" />
    <glyph glyph-name="saraueeleftthai" 
d="M-633 922l13 61h409l22 102h62l-22 -102h61l22 102h61l-35 -163h-593z" />
    <glyph glyph-name="saraueeleftthai" unicode="&#xf704;" 
d="M-633 922l13 61h409l22 102h62l-22 -102h61l22 102h61l-35 -163h-593z" />
    <glyph glyph-name="saraueeleftthai" unicode="&#x201e;" 
d="M-633 922l13 61h409l22 102h62l-22 -102h61l22 102h61l-35 -163h-593z" />
    <glyph glyph-name="ellipsis" unicode="&#x85;" horiz-adv-x="918" 
d="M836 63c-4 -18.667 -13.501 -34.167 -28.501 -46.5s-31.833 -18.5 -50.5 -18.5c-19.333 0 -33.833 6.16699 -43.5 18.5s-12.5 27.833 -8.5 46.5c4 19.333 13.5 35.166 28.5 47.499s32.167 18.5 51.5 18.5c18.667 0 32.834 -6.16699 42.501 -18.5
s12.5 -28.166 8.5 -47.499zM536.999 63c-4 -18.667 -13.501 -34.167 -28.501 -46.5s-31.833 -18.5 -50.5 -18.5c-19.333 0 -33.833 6.16699 -43.5 18.5s-12.5 27.833 -8.5 46.5c4 19.333 13.5 35.166 28.5 47.499s32.167 18.5 51.5 18.5
c18.667 0 32.834 -6.16699 42.501 -18.5s12.5 -28.166 8.5 -47.499zM237.998 63c-4 -18.667 -13.501 -34.167 -28.501 -46.5s-31.833 -18.5 -50.5 -18.5c-19.333 0 -33.833 6.16699 -43.5 18.5s-12.5 27.833 -8.5 46.5c4 19.333 13.5 35.166 28.5 47.499
s32.167 18.5 51.5 18.5c18.667 0 32.834 -6.16699 42.501 -18.5s12.5 -28.166 8.5 -47.499z" />
    <glyph glyph-name="ellipsis" unicode="&#x2026;" horiz-adv-x="918" 
d="M836 63c-4 -18.667 -13.501 -34.167 -28.501 -46.5s-31.833 -18.5 -50.5 -18.5c-19.333 0 -33.833 6.16699 -43.5 18.5s-12.5 27.833 -8.5 46.5c4 19.333 13.5 35.166 28.5 47.499s32.167 18.5 51.5 18.5c18.667 0 32.834 -6.16699 42.501 -18.5
s12.5 -28.166 8.5 -47.499zM536.999 63c-4 -18.667 -13.501 -34.167 -28.501 -46.5s-31.833 -18.5 -50.5 -18.5c-19.333 0 -33.833 6.16699 -43.5 18.5s-12.5 27.833 -8.5 46.5c4 19.333 13.5 35.166 28.5 47.499s32.167 18.5 51.5 18.5
c18.667 0 32.834 -6.16699 42.501 -18.5s12.5 -28.166 8.5 -47.499zM237.998 63c-4 -18.667 -13.501 -34.167 -28.501 -46.5s-31.833 -18.5 -50.5 -18.5c-19.333 0 -33.833 6.16699 -43.5 18.5s-12.5 27.833 -8.5 46.5c4 19.333 13.5 35.166 28.5 47.499
s32.167 18.5 51.5 18.5c18.667 0 32.834 -6.16699 42.501 -18.5s12.5 -28.166 8.5 -47.499z" />
    <glyph glyph-name="maieklowleftthai" 
d="M-142 922l40 184h62l-40 -184h-62z" />
    <glyph glyph-name="maieklowleftthai" unicode="&#xf705;" 
d="M-142 922l40 184h62l-40 -184h-62z" />
    <glyph glyph-name="maieklowleftthai" unicode="&#x2020;" 
d="M-142 922l40 184h62l-40 -184h-62z" />
    <glyph glyph-name="maitholowleftthai" 
d="M103 1268c1.33301 0 -1.99902 -7.83301 -9.99902 -23.5s-20.833 -35.834 -38.5 -60.501s-40.334 -51 -68.001 -79s-60.167 -54.333 -97.5 -79c-40 -26 -82.833 -45.167 -128.5 -57.5s-87.667 -20.5 -126 -24.5s-70 -5.66699 -95 -5s-37.167 1.66699 -36.5 3l9 43
c0 1.33301 5.66699 3.33301 17 6s25 9 41 19c7.33301 4 13.166 8.33301 17.499 13l12.5 13c5.33301 5.33301 9.33301 10.333 12 15c2 2.66699 -3.5 4.33398 -16.5 5.00098s-26.167 5 -39.5 13c-15.333 10.667 -24.666 24.667 -27.999 42s-2 36 4 56
c10 34.667 28.333 60.5 55 77.5s54.334 25.5 83.001 25.5c44 1.33301 73.167 -11.334 87.5 -38.001s15.833 -57 4.5 -91c-7.33301 -23.333 -18.5 -44.166 -33.5 -62.499s-30.167 -33.833 -45.5 -46.5c-18 -14.667 -36.333 -26.334 -55 -35.001
c0 -1.33301 6.66699 -1.33301 20 0s30.166 4.5 50.499 9.5s43 12.5 68 22.5s49.833 23.333 74.5 40c28.667 20.667 52 42.834 70 66.501s31.5 45.167 40.5 64.5s15.167 35.5 18.5 48.5l5 19.5h128zM-363.999 1100c18 0 33.001 6.16895 45.001 18.502
s19.5 25.666 22.5 39.999s1.16699 27.666 -5.5 39.999s-19.667 18.5 -39 18.5s-35 -6.16699 -47 -18.5s-19.5 -26 -22.5 -41s-0.833008 -28.333 6.5 -40s20.666 -17.5 39.999 -17.5z" />
    <glyph glyph-name="maitholowleftthai" unicode="&#xf706;" 
d="M103 1268c1.33301 0 -1.99902 -7.83301 -9.99902 -23.5s-20.833 -35.834 -38.5 -60.501s-40.334 -51 -68.001 -79s-60.167 -54.333 -97.5 -79c-40 -26 -82.833 -45.167 -128.5 -57.5s-87.667 -20.5 -126 -24.5s-70 -5.66699 -95 -5s-37.167 1.66699 -36.5 3l9 43
c0 1.33301 5.66699 3.33301 17 6s25 9 41 19c7.33301 4 13.166 8.33301 17.499 13l12.5 13c5.33301 5.33301 9.33301 10.333 12 15c2 2.66699 -3.5 4.33398 -16.5 5.00098s-26.167 5 -39.5 13c-15.333 10.667 -24.666 24.667 -27.999 42s-2 36 4 56
c10 34.667 28.333 60.5 55 77.5s54.334 25.5 83.001 25.5c44 1.33301 73.167 -11.334 87.5 -38.001s15.833 -57 4.5 -91c-7.33301 -23.333 -18.5 -44.166 -33.5 -62.499s-30.167 -33.833 -45.5 -46.5c-18 -14.667 -36.333 -26.334 -55 -35.001
c0 -1.33301 6.66699 -1.33301 20 0s30.166 4.5 50.499 9.5s43 12.5 68 22.5s49.833 23.333 74.5 40c28.667 20.667 52 42.834 70 66.501s31.5 45.167 40.5 64.5s15.167 35.5 18.5 48.5l5 19.5h128zM-363.999 1100c18 0 33.001 6.16895 45.001 18.502
s19.5 25.666 22.5 39.999s1.16699 27.666 -5.5 39.999s-19.667 18.5 -39 18.5s-35 -6.16699 -47 -18.5s-19.5 -26 -22.5 -41s-0.833008 -28.333 6.5 -40s20.666 -17.5 39.999 -17.5z" />
    <glyph glyph-name="maitholowleftthai" unicode="&#x2021;" 
d="M103 1268c1.33301 0 -1.99902 -7.83301 -9.99902 -23.5s-20.833 -35.834 -38.5 -60.501s-40.334 -51 -68.001 -79s-60.167 -54.333 -97.5 -79c-40 -26 -82.833 -45.167 -128.5 -57.5s-87.667 -20.5 -126 -24.5s-70 -5.66699 -95 -5s-37.167 1.66699 -36.5 3l9 43
c0 1.33301 5.66699 3.33301 17 6s25 9 41 19c7.33301 4 13.166 8.33301 17.499 13l12.5 13c5.33301 5.33301 9.33301 10.333 12 15c2 2.66699 -3.5 4.33398 -16.5 5.00098s-26.167 5 -39.5 13c-15.333 10.667 -24.666 24.667 -27.999 42s-2 36 4 56
c10 34.667 28.333 60.5 55 77.5s54.334 25.5 83.001 25.5c44 1.33301 73.167 -11.334 87.5 -38.001s15.833 -57 4.5 -91c-7.33301 -23.333 -18.5 -44.166 -33.5 -62.499s-30.167 -33.833 -45.5 -46.5c-18 -14.667 -36.333 -26.334 -55 -35.001
c0 -1.33301 6.66699 -1.33301 20 0s30.166 4.5 50.499 9.5s43 12.5 68 22.5s49.833 23.333 74.5 40c28.667 20.667 52 42.834 70 66.501s31.5 45.167 40.5 64.5s15.167 35.5 18.5 48.5l5 19.5h128zM-363.999 1100c18 0 33.001 6.16895 45.001 18.502
s19.5 25.666 22.5 39.999s1.16699 27.666 -5.5 39.999s-19.667 18.5 -39 18.5s-35 -6.16699 -47 -18.5s-19.5 -26 -22.5 -41s-0.833008 -28.333 6.5 -40s20.666 -17.5 39.999 -17.5z" />
    <glyph glyph-name="maitrilowleftthai" 
d="M32 1262c-6 -20.667 -13.999 -42.001 -23.999 -64.001c-7.33301 -19.333 -17.166 -39.5 -29.499 -60.5s-27.833 -41.167 -46.5 -60.5c-32.667 -32.667 -65.334 -58.167 -98.001 -76.5s-62.167 -32 -88.5 -41s-47.5 -14.167 -63.5 -15.5l-24 -2l8 41
c0.666992 1.33301 9 10.5 25 27.5s29.333 45.5 40 85.5c4 16 4.83301 29.833 2.5 41.5s-5.83301 21.5 -10.5 29.5c-5.33301 10 -12.333 17.667 -21 23l-87 -64l-62 64c-7.33301 -1.33301 -14.333 -4.66602 -21 -9.99902c-6 -4 -12 -8.83301 -18 -14.5
s-12.333 -13.834 -19 -24.501c-10.667 -18 -18 -36.5 -22 -55.5s-4.33301 -36.833 -1 -53.5c4 -16 11 -27.5 21 -34.5s15.333 -9.83301 16 -8.5c0.666992 -1.33301 -1.16602 2.83398 -5.49902 12.501s-1.16602 23.167 9.50098 40.5
c9.33301 15.333 23.166 24.666 41.499 27.999s33.833 1 46.5 -7c9.33301 -5.33301 15.166 -13.166 17.499 -23.499s2.5 -20.666 0.5 -30.999s-6 -20.166 -12 -29.499s-13 -17 -21 -23c-30 -18.667 -59.833 -24.334 -89.5 -17.001s-51.167 20 -64.5 38
c-20.667 26 -28.167 59.833 -22.5 101.5s19.5 76.834 41.5 105.501c24.667 30 49.5 49.667 74.5 59s38.5 14 40.5 14l62 -71l92 69l11 -3c7.33301 -2 15.166 -5.33301 23.499 -10s16.666 -11.834 24.999 -21.501s14.166 -22.5 17.499 -38.5
c6 -24.667 5.5 -48.334 -1.5 -71.001s-15.333 -42.167 -25 -58.5s-18.667 -29.666 -27 -39.999l-12.5 -15.5l14 4.5c9.33301 3 21.333 8.5 36 16.5s30.834 19.167 48.501 33.5s34.5 33.166 50.5 56.499c12 19.333 21.833 37.833 29.5 55.5s13.834 34 18.501 49s8 27 10 36
l3 13.5h91z" />
    <glyph glyph-name="maitrilowleftthai" unicode="&#xf707;" 
d="M32 1262c-6 -20.667 -13.999 -42.001 -23.999 -64.001c-7.33301 -19.333 -17.166 -39.5 -29.499 -60.5s-27.833 -41.167 -46.5 -60.5c-32.667 -32.667 -65.334 -58.167 -98.001 -76.5s-62.167 -32 -88.5 -41s-47.5 -14.167 -63.5 -15.5l-24 -2l8 41
c0.666992 1.33301 9 10.5 25 27.5s29.333 45.5 40 85.5c4 16 4.83301 29.833 2.5 41.5s-5.83301 21.5 -10.5 29.5c-5.33301 10 -12.333 17.667 -21 23l-87 -64l-62 64c-7.33301 -1.33301 -14.333 -4.66602 -21 -9.99902c-6 -4 -12 -8.83301 -18 -14.5
s-12.333 -13.834 -19 -24.501c-10.667 -18 -18 -36.5 -22 -55.5s-4.33301 -36.833 -1 -53.5c4 -16 11 -27.5 21 -34.5s15.333 -9.83301 16 -8.5c0.666992 -1.33301 -1.16602 2.83398 -5.49902 12.501s-1.16602 23.167 9.50098 40.5
c9.33301 15.333 23.166 24.666 41.499 27.999s33.833 1 46.5 -7c9.33301 -5.33301 15.166 -13.166 17.499 -23.499s2.5 -20.666 0.5 -30.999s-6 -20.166 -12 -29.499s-13 -17 -21 -23c-30 -18.667 -59.833 -24.334 -89.5 -17.001s-51.167 20 -64.5 38
c-20.667 26 -28.167 59.833 -22.5 101.5s19.5 76.834 41.5 105.501c24.667 30 49.5 49.667 74.5 59s38.5 14 40.5 14l62 -71l92 69l11 -3c7.33301 -2 15.166 -5.33301 23.499 -10s16.666 -11.834 24.999 -21.501s14.166 -22.5 17.499 -38.5
c6 -24.667 5.5 -48.334 -1.5 -71.001s-15.333 -42.167 -25 -58.5s-18.667 -29.666 -27 -39.999l-12.5 -15.5l14 4.5c9.33301 3 21.333 8.5 36 16.5s30.834 19.167 48.501 33.5s34.5 33.166 50.5 56.499c12 19.333 21.833 37.833 29.5 55.5s13.834 34 18.501 49s8 27 10 36
l3 13.5h91z" />
    <glyph glyph-name="maitrilowleftthai" unicode="&#xf08d;" 
d="M32 1262c-6 -20.667 -13.999 -42.001 -23.999 -64.001c-7.33301 -19.333 -17.166 -39.5 -29.499 -60.5s-27.833 -41.167 -46.5 -60.5c-32.667 -32.667 -65.334 -58.167 -98.001 -76.5s-62.167 -32 -88.5 -41s-47.5 -14.167 -63.5 -15.5l-24 -2l8 41
c0.666992 1.33301 9 10.5 25 27.5s29.333 45.5 40 85.5c4 16 4.83301 29.833 2.5 41.5s-5.83301 21.5 -10.5 29.5c-5.33301 10 -12.333 17.667 -21 23l-87 -64l-62 64c-7.33301 -1.33301 -14.333 -4.66602 -21 -9.99902c-6 -4 -12 -8.83301 -18 -14.5
s-12.333 -13.834 -19 -24.501c-10.667 -18 -18 -36.5 -22 -55.5s-4.33301 -36.833 -1 -53.5c4 -16 11 -27.5 21 -34.5s15.333 -9.83301 16 -8.5c0.666992 -1.33301 -1.16602 2.83398 -5.49902 12.501s-1.16602 23.167 9.50098 40.5
c9.33301 15.333 23.166 24.666 41.499 27.999s33.833 1 46.5 -7c9.33301 -5.33301 15.166 -13.166 17.499 -23.499s2.5 -20.666 0.5 -30.999s-6 -20.166 -12 -29.499s-13 -17 -21 -23c-30 -18.667 -59.833 -24.334 -89.5 -17.001s-51.167 20 -64.5 38
c-20.667 26 -28.167 59.833 -22.5 101.5s19.5 76.834 41.5 105.501c24.667 30 49.5 49.667 74.5 59s38.5 14 40.5 14l62 -71l92 69l11 -3c7.33301 -2 15.166 -5.33301 23.499 -10s16.666 -11.834 24.999 -21.501s14.166 -22.5 17.499 -38.5
c6 -24.667 5.5 -48.334 -1.5 -71.001s-15.333 -42.167 -25 -58.5s-18.667 -29.666 -27 -39.999l-12.5 -15.5l14 4.5c9.33301 3 21.333 8.5 36 16.5s30.834 19.167 48.501 33.5s34.5 33.166 50.5 56.499c12 19.333 21.833 37.833 29.5 55.5s13.834 34 18.501 49s8 27 10 36
l3 13.5h91z" />
    <glyph glyph-name="maitrilowleftthai" unicode="&#x2c6;" 
d="M32 1262c-6 -20.667 -13.999 -42.001 -23.999 -64.001c-7.33301 -19.333 -17.166 -39.5 -29.499 -60.5s-27.833 -41.167 -46.5 -60.5c-32.667 -32.667 -65.334 -58.167 -98.001 -76.5s-62.167 -32 -88.5 -41s-47.5 -14.167 -63.5 -15.5l-24 -2l8 41
c0.666992 1.33301 9 10.5 25 27.5s29.333 45.5 40 85.5c4 16 4.83301 29.833 2.5 41.5s-5.83301 21.5 -10.5 29.5c-5.33301 10 -12.333 17.667 -21 23l-87 -64l-62 64c-7.33301 -1.33301 -14.333 -4.66602 -21 -9.99902c-6 -4 -12 -8.83301 -18 -14.5
s-12.333 -13.834 -19 -24.501c-10.667 -18 -18 -36.5 -22 -55.5s-4.33301 -36.833 -1 -53.5c4 -16 11 -27.5 21 -34.5s15.333 -9.83301 16 -8.5c0.666992 -1.33301 -1.16602 2.83398 -5.49902 12.501s-1.16602 23.167 9.50098 40.5
c9.33301 15.333 23.166 24.666 41.499 27.999s33.833 1 46.5 -7c9.33301 -5.33301 15.166 -13.166 17.499 -23.499s2.5 -20.666 0.5 -30.999s-6 -20.166 -12 -29.499s-13 -17 -21 -23c-30 -18.667 -59.833 -24.334 -89.5 -17.001s-51.167 20 -64.5 38
c-20.667 26 -28.167 59.833 -22.5 101.5s19.5 76.834 41.5 105.501c24.667 30 49.5 49.667 74.5 59s38.5 14 40.5 14l62 -71l92 69l11 -3c7.33301 -2 15.166 -5.33301 23.499 -10s16.666 -11.834 24.999 -21.501s14.166 -22.5 17.499 -38.5
c6 -24.667 5.5 -48.334 -1.5 -71.001s-15.333 -42.167 -25 -58.5s-18.667 -29.666 -27 -39.999l-12.5 -15.5l14 4.5c9.33301 3 21.333 8.5 36 16.5s30.834 19.167 48.501 33.5s34.5 33.166 50.5 56.499c12 19.333 21.833 37.833 29.5 55.5s13.834 34 18.501 49s8 27 10 36
l3 13.5h91z" />
    <glyph glyph-name="maichattawalowleftthai" 
d="M-166 1067l-27 -127h-115l27 127h-113l15 70h113l26 123h115l-26 -123h112l-15 -70h-112z" />
    <glyph glyph-name="maichattawalowleftthai" unicode="&#xf708;" 
d="M-166 1067l-27 -127h-115l27 127h-113l15 70h113l26 123h115l-26 -123h112l-15 -70h-112z" />
    <glyph glyph-name="maichattawalowleftthai" unicode="&#x2030;" 
d="M-166 1067l-27 -127h-115l27 127h-113l15 70h113l26 123h115l-26 -123h112l-15 -70h-112z" />
    <glyph glyph-name="thanthakhatlowleftthai" 
d="M75 1356c-5.33301 -18 -12.332 -35 -20.999 -51c-8.66699 -15.333 -20.667 -30.5 -36 -45.5s-35 -28.5 -59 -40.5c-23.333 -11.333 -44.833 -20 -64.5 -26s-37.5 -10.333 -53.5 -13c-16.667 -4 -33.667 -7 -51 -9c7.33301 -6.66699 13.666 -14 18.999 -22
c10.667 -16.667 13.667 -40 9 -70c-7.33301 -39.333 -28.333 -73.333 -63 -102s-75.667 -39.667 -123 -33c-29.333 4 -51 15 -65 33s-21.833 38.5 -23.5 61.5s2.33301 46.833 12 71.5s24.5 45 44.5 61c22 19.333 44.333 32.5 67 39.5s46.167 12.5 70.5 16.5
s48.833 8.66699 73.5 14s50.334 16.333 77.001 33c20.667 12 37.667 27 51 45s23.666 35 30.999 51c10 19.333 17 39.333 21 60zM-329.999 1008c22 0 40.333 7.16699 55 21.5s23.334 29.666 26.001 45.999s-0.333008 31.666 -9 45.999s-24 21.5 -46 21.5
c-23.333 0 -41.833 -7.16699 -55.5 -21.5s-21.834 -29.666 -24.501 -45.999s-0.166992 -31.666 7.5 -45.999s23.167 -21.5 46.5 -21.5z" />
    <glyph glyph-name="thanthakhatlowleftthai" unicode="&#xf709;" 
d="M75 1356c-5.33301 -18 -12.332 -35 -20.999 -51c-8.66699 -15.333 -20.667 -30.5 -36 -45.5s-35 -28.5 -59 -40.5c-23.333 -11.333 -44.833 -20 -64.5 -26s-37.5 -10.333 -53.5 -13c-16.667 -4 -33.667 -7 -51 -9c7.33301 -6.66699 13.666 -14 18.999 -22
c10.667 -16.667 13.667 -40 9 -70c-7.33301 -39.333 -28.333 -73.333 -63 -102s-75.667 -39.667 -123 -33c-29.333 4 -51 15 -65 33s-21.833 38.5 -23.5 61.5s2.33301 46.833 12 71.5s24.5 45 44.5 61c22 19.333 44.333 32.5 67 39.5s46.167 12.5 70.5 16.5
s48.833 8.66699 73.5 14s50.334 16.333 77.001 33c20.667 12 37.667 27 51 45s23.666 35 30.999 51c10 19.333 17 39.333 21 60zM-329.999 1008c22 0 40.333 7.16699 55 21.5s23.334 29.666 26.001 45.999s-0.333008 31.666 -9 45.999s-24 21.5 -46 21.5
c-23.333 0 -41.833 -7.16699 -55.5 -21.5s-21.834 -29.666 -24.501 -45.999s-0.166992 -31.666 7.5 -45.999s23.167 -21.5 46.5 -21.5z" />
    <glyph glyph-name="thanthakhatlowleftthai" unicode="&#x160;" 
d="M75 1356c-5.33301 -18 -12.332 -35 -20.999 -51c-8.66699 -15.333 -20.667 -30.5 -36 -45.5s-35 -28.5 -59 -40.5c-23.333 -11.333 -44.833 -20 -64.5 -26s-37.5 -10.333 -53.5 -13c-16.667 -4 -33.667 -7 -51 -9c7.33301 -6.66699 13.666 -14 18.999 -22
c10.667 -16.667 13.667 -40 9 -70c-7.33301 -39.333 -28.333 -73.333 -63 -102s-75.667 -39.667 -123 -33c-29.333 4 -51 15 -65 33s-21.833 38.5 -23.5 61.5s2.33301 46.833 12 71.5s24.5 45 44.5 61c22 19.333 44.333 32.5 67 39.5s46.167 12.5 70.5 16.5
s48.833 8.66699 73.5 14s50.334 16.333 77.001 33c20.667 12 37.667 27 51 45s23.666 35 30.999 51c10 19.333 17 39.333 21 60zM-329.999 1008c22 0 40.333 7.16699 55 21.5s23.334 29.666 26.001 45.999s-0.333008 31.666 -9 45.999s-24 21.5 -46 21.5
c-23.333 0 -41.833 -7.16699 -55.5 -21.5s-21.834 -29.666 -24.501 -45.999s-0.166992 -31.666 7.5 -45.999s23.167 -21.5 46.5 -21.5z" />
    <glyph glyph-name="maieklowrightthai" 
d="M50 1008h-87l27 266h141z" />
    <glyph glyph-name="maieklowrightthai" unicode="&#xf70a;" 
d="M50 1008h-87l27 266h141z" />
    <glyph glyph-name="maieklowrightthai" unicode="&#x2039;" 
d="M50 1008h-87l27 266h141z" />
    <glyph glyph-name="maitholowrightthai" 
d="M341 1268c1.33301 0 -2.16992 -7.83301 -10.5029 -23.5s-21.166 -35.834 -38.499 -60.501s-40 -51 -68 -79s-60.667 -54.333 -98 -79c-40 -26 -82.667 -45.167 -128 -57.5s-87.166 -20.5 -125.499 -24.5s-70.166 -5.66699 -95.499 -5s-37.666 1.66699 -36.999 3l9 43
c0 1.33301 5.83301 3.33301 17.5 6s25.167 9 40.5 19c8 4 14.167 8.33301 18.5 13l12.5 13c4.66699 5.33301 8.33398 10.333 11.001 15c2 2.66699 -3.5 4.33398 -16.5 5.00098s-25.833 5 -38.5 13c-16 10.667 -25.5 24.667 -28.5 42s-1.5 36 4.5 56
c10 34.667 28.167 60.5 54.5 77.5s54.166 25.5 83.499 25.5c44 1.33301 72.833 -11.334 86.5 -38.001s15.167 -57 4.5 -91c-7.33301 -23.333 -18.5 -44.166 -33.5 -62.499s-29.833 -33.833 -44.5 -46.5c-18.667 -14.667 -37 -26.334 -55 -35.001
c0 -1.33301 6.66699 -1.33301 20 0s30 4.5 50 9.5s42.5 12.5 67.5 22.5s49.5 23.333 73.5 40c28.667 20.667 52 42.834 70 66.501s31.667 45.167 41 64.5s15.666 35.5 18.999 48.5l5 19.5h129zM-126.003 1100c17.333 0 32.166 6.16895 44.499 18.502s20 25.666 23 39.999
s1 27.666 -6 39.999s-19.833 18.5 -38.5 18.5c-19.333 0 -35.166 -6.16699 -47.499 -18.5s-20 -26 -23 -41s-0.666992 -28.333 7 -40s21.167 -17.5 40.5 -17.5z" />
    <glyph glyph-name="maitholowrightthai" unicode="&#xf70b;" 
d="M341 1268c1.33301 0 -2.16992 -7.83301 -10.5029 -23.5s-21.166 -35.834 -38.499 -60.501s-40 -51 -68 -79s-60.667 -54.333 -98 -79c-40 -26 -82.667 -45.167 -128 -57.5s-87.166 -20.5 -125.499 -24.5s-70.166 -5.66699 -95.499 -5s-37.666 1.66699 -36.999 3l9 43
c0 1.33301 5.83301 3.33301 17.5 6s25.167 9 40.5 19c8 4 14.167 8.33301 18.5 13l12.5 13c4.66699 5.33301 8.33398 10.333 11.001 15c2 2.66699 -3.5 4.33398 -16.5 5.00098s-25.833 5 -38.5 13c-16 10.667 -25.5 24.667 -28.5 42s-1.5 36 4.5 56
c10 34.667 28.167 60.5 54.5 77.5s54.166 25.5 83.499 25.5c44 1.33301 72.833 -11.334 86.5 -38.001s15.167 -57 4.5 -91c-7.33301 -23.333 -18.5 -44.166 -33.5 -62.499s-29.833 -33.833 -44.5 -46.5c-18.667 -14.667 -37 -26.334 -55 -35.001
c0 -1.33301 6.66699 -1.33301 20 0s30 4.5 50 9.5s42.5 12.5 67.5 22.5s49.5 23.333 73.5 40c28.667 20.667 52 42.834 70 66.501s31.667 45.167 41 64.5s15.666 35.5 18.999 48.5l5 19.5h129zM-126.003 1100c17.333 0 32.166 6.16895 44.499 18.502s20 25.666 23 39.999
s1 27.666 -6 39.999s-19.833 18.5 -38.5 18.5c-19.333 0 -35.166 -6.16699 -47.499 -18.5s-20 -26 -23 -41s-0.666992 -28.333 7 -40s21.167 -17.5 40.5 -17.5z" />
    <glyph glyph-name="maitholowrightthai" unicode="&#x152;" 
d="M341 1268c1.33301 0 -2.16992 -7.83301 -10.5029 -23.5s-21.166 -35.834 -38.499 -60.501s-40 -51 -68 -79s-60.667 -54.333 -98 -79c-40 -26 -82.667 -45.167 -128 -57.5s-87.166 -20.5 -125.499 -24.5s-70.166 -5.66699 -95.499 -5s-37.666 1.66699 -36.999 3l9 43
c0 1.33301 5.83301 3.33301 17.5 6s25.167 9 40.5 19c8 4 14.167 8.33301 18.5 13l12.5 13c4.66699 5.33301 8.33398 10.333 11.001 15c2 2.66699 -3.5 4.33398 -16.5 5.00098s-25.833 5 -38.5 13c-16 10.667 -25.5 24.667 -28.5 42s-1.5 36 4.5 56
c10 34.667 28.167 60.5 54.5 77.5s54.166 25.5 83.499 25.5c44 1.33301 72.833 -11.334 86.5 -38.001s15.167 -57 4.5 -91c-7.33301 -23.333 -18.5 -44.166 -33.5 -62.499s-29.833 -33.833 -44.5 -46.5c-18.667 -14.667 -37 -26.334 -55 -35.001
c0 -1.33301 6.66699 -1.33301 20 0s30 4.5 50 9.5s42.5 12.5 67.5 22.5s49.5 23.333 73.5 40c28.667 20.667 52 42.834 70 66.501s31.667 45.167 41 64.5s15.666 35.5 18.999 48.5l5 19.5h129zM-126.003 1100c17.333 0 32.166 6.16895 44.499 18.502s20 25.666 23 39.999
s1 27.666 -6 39.999s-19.833 18.5 -38.5 18.5c-19.333 0 -35.166 -6.16699 -47.499 -18.5s-20 -26 -23 -41s-0.666992 -28.333 7 -40s21.167 -17.5 40.5 -17.5z" />
    <glyph glyph-name="maitrilowrightthai" 
d="M323 1262c-6 -20.667 -14.0049 -42.001 -24.0049 -64.001c-8 -19.333 -18 -39.5 -30 -60.5s-27.667 -41.167 -47 -60.5c-32.667 -32.667 -65.334 -58.167 -98.001 -76.5s-62 -32 -88 -41s-47 -14.167 -63 -15.5l-24 -2l8 41c0.666992 1.33301 8.83398 10.5 24.501 27.5
s28.834 45.5 39.501 85.5c4 16 4.83301 29.833 2.5 41.5s-6.16602 21.5 -11.499 29.5c-4.66699 10 -11 17.667 -19 23l-87 -64l-63 64c-6.66699 -1.33301 -13.334 -4.66602 -20.001 -9.99902c-6 -4 -12.167 -8.83301 -18.5 -14.5s-12.5 -13.834 -18.5 -24.501
c-10.667 -18 -18 -36.5 -22 -55.5s-4.33301 -36.833 -1 -53.5c4 -16 10.833 -27.5 20.5 -34.5s14.834 -9.83301 15.501 -8.5c0.666992 -1.33301 -1 2.83398 -5 12.501s-0.666992 23.167 10 40.5c8.66699 15.333 22.334 24.666 41.001 27.999s34.334 1 47.001 -7
c9.33301 -5.33301 15.166 -13.166 17.499 -23.499s2.5 -20.666 0.5 -30.999s-6 -20.166 -12 -29.499s-13.333 -17 -22 -23c-30 -18.667 -59.667 -24.334 -89 -17.001s-50.666 20 -63.999 38c-20.667 26 -28.334 59.833 -23.001 101.5s19.333 76.834 42 105.501
c24.667 30 49.5 49.667 74.5 59s38.167 14 39.5 14l63 -71l91 69l11 -3c7.33301 -2 15.166 -5.33301 23.499 -10s16.666 -11.834 24.999 -21.501s14.166 -22.5 17.499 -38.5c6 -24.667 5.33301 -48.334 -2 -71.001s-15.666 -42.167 -24.999 -58.5
s-18.166 -29.666 -26.499 -39.999l-12.5 -15.5l14 4.5c9.33301 3 21.333 8.5 36 16.5s30.834 19.167 48.501 33.5s34.167 33.166 49.5 56.499c12.667 19.333 22.834 37.833 30.501 55.5s13.834 34 18.501 49s8 27 10 36l3 13.5h92z" />
    <glyph glyph-name="maitrilowrightthai" unicode="&#xf70c;" 
d="M323 1262c-6 -20.667 -14.0049 -42.001 -24.0049 -64.001c-8 -19.333 -18 -39.5 -30 -60.5s-27.667 -41.167 -47 -60.5c-32.667 -32.667 -65.334 -58.167 -98.001 -76.5s-62 -32 -88 -41s-47 -14.167 -63 -15.5l-24 -2l8 41c0.666992 1.33301 8.83398 10.5 24.501 27.5
s28.834 45.5 39.501 85.5c4 16 4.83301 29.833 2.5 41.5s-6.16602 21.5 -11.499 29.5c-4.66699 10 -11 17.667 -19 23l-87 -64l-63 64c-6.66699 -1.33301 -13.334 -4.66602 -20.001 -9.99902c-6 -4 -12.167 -8.83301 -18.5 -14.5s-12.5 -13.834 -18.5 -24.501
c-10.667 -18 -18 -36.5 -22 -55.5s-4.33301 -36.833 -1 -53.5c4 -16 10.833 -27.5 20.5 -34.5s14.834 -9.83301 15.501 -8.5c0.666992 -1.33301 -1 2.83398 -5 12.501s-0.666992 23.167 10 40.5c8.66699 15.333 22.334 24.666 41.001 27.999s34.334 1 47.001 -7
c9.33301 -5.33301 15.166 -13.166 17.499 -23.499s2.5 -20.666 0.5 -30.999s-6 -20.166 -12 -29.499s-13.333 -17 -22 -23c-30 -18.667 -59.667 -24.334 -89 -17.001s-50.666 20 -63.999 38c-20.667 26 -28.334 59.833 -23.001 101.5s19.333 76.834 42 105.501
c24.667 30 49.5 49.667 74.5 59s38.167 14 39.5 14l63 -71l91 69l11 -3c7.33301 -2 15.166 -5.33301 23.499 -10s16.666 -11.834 24.999 -21.501s14.166 -22.5 17.499 -38.5c6 -24.667 5.33301 -48.334 -2 -71.001s-15.666 -42.167 -24.999 -58.5
s-18.166 -29.666 -26.499 -39.999l-12.5 -15.5l14 4.5c9.33301 3 21.333 8.5 36 16.5s30.834 19.167 48.501 33.5s34.167 33.166 49.5 56.499c12.667 19.333 22.834 37.833 30.501 55.5s13.834 34 18.501 49s8 27 10 36l3 13.5h92z" />
    <glyph glyph-name="maichattawalowrightthai" 
d="M91 1067l-27 -127h-114l27 127h-112l15 70h112l25 123h115l-26 -123h112l-15 -70h-112z" />
    <glyph glyph-name="maichattawalowrightthai" unicode="&#xf70d;" 
d="M91 1067l-27 -127h-114l27 127h-112l15 70h112l25 123h115l-26 -123h112l-15 -70h-112z" />
    <glyph glyph-name="maichattawalowrightthai" unicode="&#x17d;" 
d="M91 1067l-27 -127h-114l27 127h-112l15 70h112l25 123h115l-26 -123h112l-15 -70h-112z" />
    <glyph glyph-name="thanthakhatlowrightthai" 
d="M-123 922l9 39c2.66699 13.333 2 23.833 -2 31.5s-13.333 11.5 -28 11.5h-23l13 61h37c27.333 0 47.333 -5.5 60 -16.5s16.667 -27.5 12 -49.5l-4 -16h257l-13 -61h-318z" />
    <glyph glyph-name="thanthakhatlowrightthai" unicode="&#xf70e;" 
d="M-123 922l9 39c2.66699 13.333 2 23.833 -2 31.5s-13.333 11.5 -28 11.5h-23l13 61h37c27.333 0 47.333 -5.5 60 -16.5s16.667 -27.5 12 -49.5l-4 -16h257l-13 -61h-318z" />
    <glyph glyph-name="yoyingnobasethai" horiz-adv-x="1311" 
d="M1291 246c-8.66699 -41.333 -24.332 -78 -46.999 -110s-50 -59.333 -82 -82s-66.833 -39.667 -104.5 -51s-77.167 -17 -118.5 -17c-40.667 0 -77.667 5.66699 -111 17s-61.333 28.333 -84 51s-38.334 50 -47.001 82s-8.66699 68.667 0 110l64 303
c16 73.333 3.16699 128.833 -38.5 166.5s-98.167 56.5 -169.5 56.5c-113.333 0 -207.666 -41 -282.999 -123l-125 -588h123l-12 -61h-184l141 668c98.667 110.667 216.334 166 353.001 166c42.667 0 81.834 -5.5 117.501 -16.5s65.667 -27.833 90 -50.5
s41.666 -50.667 51.999 -84s10.833 -72 1.5 -116l-68 -321c-14 -66 -1.83301 -115.667 36.5 -149s90.166 -50 155.499 -50s124.666 16.667 177.999 50s87 83 101 149l122 573h61z" />
    <glyph glyph-name="yoyingnobasethai" unicode="&#xf70f;" horiz-adv-x="1311" 
d="M1291 246c-8.66699 -41.333 -24.332 -78 -46.999 -110s-50 -59.333 -82 -82s-66.833 -39.667 -104.5 -51s-77.167 -17 -118.5 -17c-40.667 0 -77.667 5.66699 -111 17s-61.333 28.333 -84 51s-38.334 50 -47.001 82s-8.66699 68.667 0 110l64 303
c16 73.333 3.16699 128.833 -38.5 166.5s-98.167 56.5 -169.5 56.5c-113.333 0 -207.666 -41 -282.999 -123l-125 -588h123l-12 -61h-184l141 668c98.667 110.667 216.334 166 353.001 166c42.667 0 81.834 -5.5 117.501 -16.5s65.667 -27.833 90 -50.5
s41.666 -50.667 51.999 -84s10.833 -72 1.5 -116l-68 -321c-14 -66 -1.83301 -115.667 36.5 -149s90.166 -50 155.499 -50s124.666 16.667 177.999 50s87 83 101 149l122 573h61z" />
    <glyph glyph-name="quoteleft" horiz-adv-x="385" 
d="M440 848c-4 -19.333 -14.834 -36.833 -32.501 -52.5s-38.167 -23.5 -61.5 -23.5c-30 0 -50.333 10.667 -61 32s-13.334 44.666 -8.00098 69.999c7.33301 33.333 27.5 69.333 60.5 108s76.5 73 130.5 103l17 -24c-36.667 -19.333 -66.667 -42 -90 -68
s-45.666 -56 -66.999 -90c16 6.66699 27.833 10.834 35.5 12.501s14.834 2.5 21.501 2.5c19.333 0 34.333 -6.83301 45 -20.5s14 -30.167 10 -49.5z" />
    <glyph glyph-name="quoteleft" unicode="&#x2018;" horiz-adv-x="385" 
d="M440 848c-4 -19.333 -14.834 -36.833 -32.501 -52.5s-38.167 -23.5 -61.5 -23.5c-30 0 -50.333 10.667 -61 32s-13.334 44.666 -8.00098 69.999c7.33301 33.333 27.5 69.333 60.5 108s76.5 73 130.5 103l17 -24c-36.667 -19.333 -66.667 -42 -90 -68
s-45.666 -56 -66.999 -90c16 6.66699 27.833 10.834 35.5 12.501s14.834 2.5 21.501 2.5c19.333 0 34.333 -6.83301 45 -20.5s14 -30.167 10 -49.5z" />
    <glyph glyph-name="quoteright" horiz-adv-x="385" 
d="M468 983c-6.66699 -32.667 -26.5 -68.501 -59.5 -107.501s-76.167 -73.5 -129.5 -103.5l-18 25c36.667 18.667 66.667 41 90 67s46.333 56.667 69 92c-16 -6.66699 -28.167 -11 -36.5 -13s-15.833 -3 -22.5 -3c-19.333 0 -34.333 6.83301 -45 20.5s-14 30.167 -10 49.5
c4 18.667 14.833 35.834 32.5 51.501s38.167 23.5 61.5 23.5c30 0 50.333 -10.5 61 -31.5s13 -44.5 7 -70.5z" />
    <glyph glyph-name="quoteright" unicode="&#x2019;" horiz-adv-x="385" 
d="M468 983c-6.66699 -32.667 -26.5 -68.501 -59.5 -107.501s-76.167 -73.5 -129.5 -103.5l-18 25c36.667 18.667 66.667 41 90 67s46.333 56.667 69 92c-16 -6.66699 -28.167 -11 -36.5 -13s-15.833 -3 -22.5 -3c-19.333 0 -34.333 6.83301 -45 20.5s-14 30.167 -10 49.5
c4 18.667 14.833 35.834 32.5 51.501s38.167 23.5 61.5 23.5c30 0 50.333 -10.5 61 -31.5s13 -44.5 7 -70.5z" />
    <glyph glyph-name="quotedblleft" horiz-adv-x="598" 
d="M686 848c-4 -19.333 -14.8301 -36.833 -32.4971 -52.5s-38.167 -23.5 -61.5 -23.5c-30 0 -50.333 10.667 -61 32s-13.334 44.666 -8.00098 69.999c7.33301 33.333 27.5 69.333 60.5 108s76.167 73 129.5 103l18 -24c-36.667 -19.333 -66.834 -42 -90.501 -68
s-45.834 -56 -66.501 -90c15.333 6.66699 27 10.834 35 12.501s15.333 2.5 22 2.5c19.333 0 34.333 -6.83301 45 -20.5s14 -30.167 10 -49.5zM440.003 848c-4 -19.333 -14.834 -36.833 -32.501 -52.5s-38.167 -23.5 -61.5 -23.5c-30 0 -50.333 10.667 -61 32
s-13.334 44.666 -8.00098 69.999c7.33301 33.333 27.5 69.333 60.5 108s76.5 73 130.5 103l17 -24c-36.667 -19.333 -66.667 -42 -90 -68s-45.666 -56 -66.999 -90c16 6.66699 27.833 10.834 35.5 12.501s14.834 2.5 21.501 2.5c19.333 0 34.333 -6.83301 45 -20.5
s14 -30.167 10 -49.5z" />
    <glyph glyph-name="quotedblleft" unicode="&#x201c;" horiz-adv-x="598" 
d="M686 848c-4 -19.333 -14.8301 -36.833 -32.4971 -52.5s-38.167 -23.5 -61.5 -23.5c-30 0 -50.333 10.667 -61 32s-13.334 44.666 -8.00098 69.999c7.33301 33.333 27.5 69.333 60.5 108s76.167 73 129.5 103l18 -24c-36.667 -19.333 -66.834 -42 -90.501 -68
s-45.834 -56 -66.501 -90c15.333 6.66699 27 10.834 35 12.501s15.333 2.5 22 2.5c19.333 0 34.333 -6.83301 45 -20.5s14 -30.167 10 -49.5zM440.003 848c-4 -19.333 -14.834 -36.833 -32.501 -52.5s-38.167 -23.5 -61.5 -23.5c-30 0 -50.333 10.667 -61 32
s-13.334 44.666 -8.00098 69.999c7.33301 33.333 27.5 69.333 60.5 108s76.5 73 130.5 103l17 -24c-36.667 -19.333 -66.667 -42 -90 -68s-45.666 -56 -66.999 -90c16 6.66699 27.833 10.834 35.5 12.501s14.834 2.5 21.501 2.5c19.333 0 34.333 -6.83301 45 -20.5
s14 -30.167 10 -49.5z" />
    <glyph glyph-name="quotedblright" horiz-adv-x="631" 
d="M714 983c-6.66699 -32.667 -26.5 -68.501 -59.5 -107.501s-76.5 -73.5 -130.5 -103.5l-17 25c36.667 18.667 66.5 41 89.5 67s46.167 56.667 69.5 92c-16.667 -6.66699 -29 -11 -37 -13s-15.333 -3 -22 -3c-19.333 0 -34.333 6.83301 -45 20.5s-14 30.167 -10 49.5
c4 18.667 14.833 35.834 32.5 51.501s38.167 23.5 61.5 23.5c30 0 50.333 -10.5 61 -31.5s13 -44.5 7 -70.5zM468 982.999c-6.66699 -32.667 -26.5 -68.501 -59.5 -107.501s-76.167 -73.5 -129.5 -103.5l-18 25c36.667 18.667 66.667 41 90 67s46.333 56.667 69 92
c-16 -6.66699 -28.167 -11 -36.5 -13s-15.833 -3 -22.5 -3c-19.333 0 -34.333 6.83301 -45 20.5s-14 30.167 -10 49.5c4 18.667 14.833 35.834 32.5 51.501s38.167 23.5 61.5 23.5c30 0 50.333 -10.5 61 -31.5s13 -44.5 7 -70.5z" />
    <glyph glyph-name="quotedblright" unicode="&#x201d;" horiz-adv-x="631" 
d="M714 983c-6.66699 -32.667 -26.5 -68.501 -59.5 -107.501s-76.5 -73.5 -130.5 -103.5l-17 25c36.667 18.667 66.5 41 89.5 67s46.167 56.667 69.5 92c-16.667 -6.66699 -29 -11 -37 -13s-15.333 -3 -22 -3c-19.333 0 -34.333 6.83301 -45 20.5s-14 30.167 -10 49.5
c4 18.667 14.833 35.834 32.5 51.501s38.167 23.5 61.5 23.5c30 0 50.333 -10.5 61 -31.5s13 -44.5 7 -70.5zM468 982.999c-6.66699 -32.667 -26.5 -68.501 -59.5 -107.501s-76.167 -73.5 -129.5 -103.5l-18 25c36.667 18.667 66.667 41 90 67s46.333 56.667 69 92
c-16 -6.66699 -28.167 -11 -36.5 -13s-15.833 -3 -22.5 -3c-19.333 0 -34.333 6.83301 -45 20.5s-14 30.167 -10 49.5c4 18.667 14.833 35.834 32.5 51.501s38.167 23.5 61.5 23.5c30 0 50.333 -10.5 61 -31.5s13 -44.5 7 -70.5z" />
    <glyph glyph-name="bullet" horiz-adv-x="737" 
d="M763 410c-9.33301 -42.667 -26.1631 -82.834 -50.4961 -120.501s-53 -70 -86 -97s-70.167 -48.833 -111.5 -65.5s-83 -25 -125 -25c-42.667 0 -80.834 8.33301 -114.501 25s-61.334 38.5 -83.001 65.5s-36.834 59.333 -45.501 97s-8.33398 77.834 0.999023 120.501
c8.66699 42 25.334 81.833 50.001 119.5s53.5 70.167 86.5 97.5s70 49.166 111 65.499s82.833 24.5 125.5 24.5c42 0 80 -8.16699 114 -24.5s61.833 -38.166 83.5 -65.499s36.667 -59.833 45 -97.5s8.16602 -77.5 -0.500977 -119.5z" />
    <glyph glyph-name="bullet" unicode="&#x2022;" horiz-adv-x="737" 
d="M763 410c-9.33301 -42.667 -26.1631 -82.834 -50.4961 -120.501s-53 -70 -86 -97s-70.167 -48.833 -111.5 -65.5s-83 -25 -125 -25c-42.667 0 -80.834 8.33301 -114.501 25s-61.334 38.5 -83.001 65.5s-36.834 59.333 -45.501 97s-8.33398 77.834 0.999023 120.501
c8.66699 42 25.334 81.833 50.001 119.5s53.5 70.167 86.5 97.5s70 49.166 111 65.499s82.833 24.5 125.5 24.5c42 0 80 -8.16699 114 -24.5s61.833 -38.166 83.5 -65.499s36.667 -59.833 45 -97.5s8.16602 -77.5 -0.500977 -119.5z" />
    <glyph glyph-name="endash" horiz-adv-x="778" 
d="M130 328l13 61h656l-13 -61h-656z" />
    <glyph glyph-name="endash" unicode="&#x2013;" horiz-adv-x="778" 
d="M130 328l13 61h656l-13 -61h-656z" />
    <glyph glyph-name="emdash" horiz-adv-x="1556" 
d="M130 328l13 61h1434l-13 -61h-1434z" />
    <glyph glyph-name="emdash" unicode="&#x2014;" horiz-adv-x="1556" 
d="M130 328l13 61h1434l-13 -61h-1434z" />
    <glyph glyph-name="maihanakatleftthai" 
d="M-265 922l26 122h62l-13 -61h470l-13 -61h-532z" />
    <glyph glyph-name="maihanakatleftthai" unicode="&#xf710;" 
d="M-265 922l26 122h62l-13 -61h470l-13 -61h-532z" />
    <glyph glyph-name="maihanakatleftthai" unicode="&#x2dc;" 
d="M-265 922l26 122h62l-13 -61h470l-13 -61h-532z" />
    <glyph glyph-name="nikhahitleftthai" 
d="M36 1008c-5.33301 -23.333 -18.499 -43.5 -39.499 -60.5s-43.167 -25.5 -66.5 -25.5s-42 8.5 -56 25.5s-18.333 37.167 -13 60.5c4.66699 22.667 17.667 43 39 61s43.666 27 66.999 27c22.667 0 41 -9 55 -27s18.667 -38.333 14 -61zM-9.99902 1008
c2 10.667 -0.501953 20.5 -7.50195 29.5s-15.833 13.5 -26.5 13.5c-11.333 0 -22.333 -4.5 -33 -13.5s-17 -18.833 -19 -29.5c-2.66699 -11.333 -0.5 -21.333 6.5 -30s16.167 -13 27.5 -13c10.667 0 21.334 4.33301 32.001 13s17.334 18.667 20.001 30z" />
    <glyph glyph-name="nikhahitleftthai" unicode="&#xf711;" 
d="M36 1008c-5.33301 -23.333 -18.499 -43.5 -39.499 -60.5s-43.167 -25.5 -66.5 -25.5s-42 8.5 -56 25.5s-18.333 37.167 -13 60.5c4.66699 22.667 17.667 43 39 61s43.666 27 66.999 27c22.667 0 41 -9 55 -27s18.667 -38.333 14 -61zM-9.99902 1008
c2 10.667 -0.501953 20.5 -7.50195 29.5s-15.833 13.5 -26.5 13.5c-11.333 0 -22.333 -4.5 -33 -13.5s-17 -18.833 -19 -29.5c-2.66699 -11.333 -0.5 -21.333 6.5 -30s16.167 -13 27.5 -13c10.667 0 21.334 4.33301 32.001 13s17.334 18.667 20.001 30z" />
    <glyph glyph-name="nikhahitleftthai" unicode="&#x2122;" 
d="M36 1008c-5.33301 -23.333 -18.499 -43.5 -39.499 -60.5s-43.167 -25.5 -66.5 -25.5s-42 8.5 -56 25.5s-18.333 37.167 -13 60.5c4.66699 22.667 17.667 43 39 61s43.666 27 66.999 27c22.667 0 41 -9 55 -27s18.667 -38.333 14 -61zM-9.99902 1008
c2 10.667 -0.501953 20.5 -7.50195 29.5s-15.833 13.5 -26.5 13.5c-11.333 0 -22.333 -4.5 -33 -13.5s-17 -18.833 -19 -29.5c-2.66699 -11.333 -0.5 -21.333 6.5 -30s16.167 -13 27.5 -13c10.667 0 21.334 4.33301 32.001 13s17.334 18.667 20.001 30z" />
    <glyph glyph-name="maitaikhuleftthai" 
d="M-270 1079c-36.667 0 -67.999 -7.83203 -93.999 -23.499s-42.333 -38.5 -49 -68.5l-1 -8h88l127 68l93 -68h117l-12 -57h-127l-84 65l-114 -65h-162l13 57c8.66699 43.333 31.667 80.166 69 110.499s88.666 45.5 153.999 45.5h362l-12 -56h-368z" />
    <glyph glyph-name="maitaikhuleftthai" unicode="&#xf712;" 
d="M-270 1079c-36.667 0 -67.999 -7.83203 -93.999 -23.499s-42.333 -38.5 -49 -68.5l-1 -8h88l127 68l93 -68h117l-12 -57h-127l-84 65l-114 -65h-162l13 57c8.66699 43.333 31.667 80.166 69 110.499s88.666 45.5 153.999 45.5h362l-12 -56h-368z" />
    <glyph glyph-name="maitaikhuleftthai" unicode="&#x161;" 
d="M-270 1079c-36.667 0 -67.999 -7.83203 -93.999 -23.499s-42.333 -38.5 -49 -68.5l-1 -8h88l127 68l93 -68h117l-12 -57h-127l-84 65l-114 -65h-162l13 57c8.66699 43.333 31.667 80.166 69 110.499s88.666 45.5 153.999 45.5h362l-12 -56h-368z" />
    <glyph glyph-name="maiekupperleftthai" 
d="M-53 1147l31 143h60l-31 -143h-60z" />
    <glyph glyph-name="maiekupperleftthai" unicode="&#xf713;" 
d="M-53 1147l31 143h60l-31 -143h-60z" />
    <glyph glyph-name="maiekupperleftthai" unicode="&#x203a;" 
d="M-53 1147l31 143h60l-31 -143h-60z" />
    <glyph glyph-name="maithoupperleftthai" 
d="M-112 1147l7.99902 37c2.66699 12 2.33398 21.833 -0.999023 29.5s-12.333 11.5 -27 11.5h-21l12 57h35c54.667 0 77.667 -20.333 69 -61l-4 -17h245l-12 -57h-304z" />
    <glyph glyph-name="maithoupperleftthai" unicode="&#xf714;" 
d="M-112 1147l7.99902 37c2.66699 12 2.33398 21.833 -0.999023 29.5s-12.333 11.5 -27 11.5h-21l12 57h35c54.667 0 77.667 -20.333 69 -61l-4 -17h245l-12 -57h-304z" />
    <glyph glyph-name="maithoupperleftthai" unicode="&#x153;" 
d="M-112 1147l7.99902 37c2.66699 12 2.33398 21.833 -0.999023 29.5s-12.333 11.5 -27 11.5h-21l12 57h35c54.667 0 77.667 -20.333 69 -61l-4 -17h245l-12 -57h-304z" />
    <glyph glyph-name="maitriupperleftthai" 
d="M169 1147l11.998 57c9.33301 42.667 -7.66699 64 -51 64h-6l-93 -70l-62 70h-4c-44 0 -70.667 -21.333 -80 -64v-2h78l-12 -55h-135l15 67c7.33301 36 25.333 63.5 54 82.5s60.667 28.5 96 28.5h8l56 -63l84 63h7c36.667 0 65.334 -9.5 86.001 -28.5
s27.334 -46.5 20.001 -82.5l-3 -10h131l-12 -57h-189z" />
    <glyph glyph-name="maitriupperleftthai" unicode="&#xf715;" 
d="M169 1147l11.998 57c9.33301 42.667 -7.66699 64 -51 64h-6l-93 -70l-62 70h-4c-44 0 -70.667 -21.333 -80 -64v-2h78l-12 -55h-135l15 67c7.33301 36 25.333 63.5 54 82.5s60.667 28.5 96 28.5h8l56 -63l84 63h7c36.667 0 65.334 -9.5 86.001 -28.5
s27.334 -46.5 20.001 -82.5l-3 -10h131l-12 -57h-189z" />
    <glyph glyph-name="maichattawaupperleftthai" 
d="M21 1212l-14 -65h-60l14 65h-72l11 50h72l14 65h60l-14 -65h72l-11 -50h-72z" />
    <glyph glyph-name="maichattawaupperleftthai" unicode="&#xf716;" 
d="M21 1212l-14 -65h-60l14 65h-72l11 50h72l14 65h60l-14 -65h72l-11 -50h-72z" />
    <glyph glyph-name="maichattawaupperleftthai" unicode="&#x17e;" 
d="M21 1212l-14 -65h-60l14 65h-72l11 50h72l14 65h60l-14 -65h72l-11 -50h-72z" />
    <glyph glyph-name="thanthakhatupperleftthai" 
d="M6 1139c-19.333 0 -35.168 -3.16797 -47.501 -9.50098s-20.5 -18.166 -24.5 -35.499l-6 -29h-61l7 35c7.33301 34 22.333 57.833 45 71.5s46.334 20.5 71.001 20.5h87l-11 -53h-60z" />
    <glyph glyph-name="thanthakhatupperleftthai" unicode="&#xf717;" 
d="M6 1139c-19.333 0 -35.168 -3.16797 -47.501 -9.50098s-20.5 -18.166 -24.5 -35.499l-6 -29h-61l7 35c7.33301 34 22.333 57.833 45 71.5s46.334 20.5 71.001 20.5h87l-11 -53h-60z" />
    <glyph glyph-name="thanthakhatupperleftthai" unicode="&#x178;" 
d="M6 1139c-19.333 0 -35.168 -3.16797 -47.501 -9.50098s-20.5 -18.166 -24.5 -35.499l-6 -29h-61l7 35c7.33301 34 22.333 57.833 45 71.5s46.334 20.5 71.001 20.5h87l-11 -53h-60z" />
    <glyph glyph-name="uni00A0" unicode="&#xa0;" horiz-adv-x="926" 
 />
    <glyph glyph-name="uni00A0" unicode="&#xe00;" horiz-adv-x="926" 
 />
    <glyph glyph-name="kokaithai" unicode="&#xa1;" horiz-adv-x="778" 
d="M645 0l115.998 549c16 73.333 3.16699 128.833 -38.5 166.5s-98.167 56.5 -169.5 56.5c-113.333 0 -207.666 -41 -282.999 -123l-137 -649h-61l141 668c98.667 110.667 216.334 166 353.001 166c42.667 0 81.834 -5.5 117.501 -16.5s65.667 -27.833 90 -50.5
s41.666 -50.667 51.999 -84s10.833 -72 1.5 -116l-120 -567h-62z" />
    <glyph glyph-name="kokaithai" unicode="&#xe01;" horiz-adv-x="778" 
d="M645 0l115.998 549c16 73.333 3.16699 128.833 -38.5 166.5s-98.167 56.5 -169.5 56.5c-113.333 0 -207.666 -41 -282.999 -123l-137 -649h-61l141 668c98.667 110.667 216.334 166 353.001 166c42.667 0 81.834 -5.5 117.501 -16.5s65.667 -27.833 90 -50.5
s41.666 -50.667 51.999 -84s10.833 -72 1.5 -116l-120 -567h-62z" />
    <glyph glyph-name="khokhaithai" unicode="&#xa2;" horiz-adv-x="707" 
d="M692 270c-8.66699 -40.667 -23.8281 -78.502 -45.4951 -113.502s-47.834 -65 -78.501 -90s-64.834 -44.667 -102.501 -59s-77.167 -21.5 -118.5 -21.5c-44.667 0 -84.167 8.5 -118.5 25.5s-62 40.5 -83 70.5s-34.833 65.5 -41.5 106.5s-5 85.5 5 133.5
c16 74.667 47.167 139.334 93.5 194.001s100.166 104 161.499 148l-66 133l58 34l87 -172c-72 -48.667 -131.833 -99.667 -179.5 -153s-78.834 -114.666 -93.501 -183.999c-8 -38.667 -9.5 -74.667 -4.5 -108s15.667 -62.333 32 -87s38.166 -44.167 65.499 -58.5
s59.333 -21.5 96 -21.5c66 0 124.167 21.167 174.5 63.5s82.5 95.5 96.5 159.5l117 549h62z" />
    <glyph glyph-name="khokhaithai" unicode="&#xe02;" horiz-adv-x="707" 
d="M692 270c-8.66699 -40.667 -23.8281 -78.502 -45.4951 -113.502s-47.834 -65 -78.501 -90s-64.834 -44.667 -102.501 -59s-77.167 -21.5 -118.5 -21.5c-44.667 0 -84.167 8.5 -118.5 25.5s-62 40.5 -83 70.5s-34.833 65.5 -41.5 106.5s-5 85.5 5 133.5
c16 74.667 47.167 139.334 93.5 194.001s100.166 104 161.499 148l-66 133l58 34l87 -172c-72 -48.667 -131.833 -99.667 -179.5 -153s-78.834 -114.666 -93.501 -183.999c-8 -38.667 -9.5 -74.667 -4.5 -108s15.667 -62.333 32 -87s38.166 -44.167 65.499 -58.5
s59.333 -21.5 96 -21.5c66 0 124.167 21.167 174.5 63.5s82.5 95.5 96.5 159.5l117 549h62z" />
    <glyph glyph-name="khokhuatthai" unicode="&#xa3;" horiz-adv-x="717" 
d="M702 270c-8.66699 -40.667 -23.8291 -78.501 -45.4961 -113.501s-47.834 -65 -78.501 -90s-64.834 -44.667 -102.501 -59s-77.167 -21.5 -118.5 -21.5c-44.667 0 -84.167 8.16699 -118.5 24.5s-62.166 38.833 -83.499 67.5s-35.5 63.167 -42.5 103.5
s-5.5 84.166 4.5 131.499c15.333 72.667 47.166 135.667 95.499 189s105.5 97.666 171.5 132.999l25 117l-105 -82c-7.33301 12 -16.666 25.667 -27.999 41c-10.667 12 -23 24.833 -37 38.5s-31.333 25.834 -52 36.501l42 43c17.333 -9.33301 32.166 -18.833 44.499 -28.5
s22.166 -18.5 29.499 -26.5c9.33301 -9.33301 17 -19 23 -29l98 74h61l-45 -211c-29.333 -13.333 -57.833 -29.666 -85.5 -48.999s-53.334 -41.166 -77.001 -65.499s-44 -51.5 -61 -81.5s-29.5 -63 -37.5 -99c-16.667 -77.333 -7.5 -141 27.5 -191s89.167 -75 162.5 -75
c66 0 124.333 21.167 175 63.5s83 95.5 97 159.5l117 549h61z" />
    <glyph glyph-name="khokhuatthai" unicode="&#xe03;" horiz-adv-x="717" 
d="M702 270c-8.66699 -40.667 -23.8291 -78.501 -45.4961 -113.501s-47.834 -65 -78.501 -90s-64.834 -44.667 -102.501 -59s-77.167 -21.5 -118.5 -21.5c-44.667 0 -84.167 8.16699 -118.5 24.5s-62.166 38.833 -83.499 67.5s-35.5 63.167 -42.5 103.5
s-5.5 84.166 4.5 131.499c15.333 72.667 47.166 135.667 95.499 189s105.5 97.666 171.5 132.999l25 117l-105 -82c-7.33301 12 -16.666 25.667 -27.999 41c-10.667 12 -23 24.833 -37 38.5s-31.333 25.834 -52 36.501l42 43c17.333 -9.33301 32.166 -18.833 44.499 -28.5
s22.166 -18.5 29.499 -26.5c9.33301 -9.33301 17 -19 23 -29l98 74h61l-45 -211c-29.333 -13.333 -57.833 -29.666 -85.5 -48.999s-53.334 -41.166 -77.001 -65.499s-44 -51.5 -61 -81.5s-29.5 -63 -37.5 -99c-16.667 -77.333 -7.5 -141 27.5 -191s89.167 -75 162.5 -75
c66 0 124.333 21.167 175 63.5s83 95.5 97 159.5l117 549h61z" />
    <glyph glyph-name="khokhwaithai" unicode="&#xa4;" horiz-adv-x="778" 
d="M645 0l119.001 563c7.33301 32.667 6.5 61.667 -2.5 87s-23.333 47.166 -43 65.499s-44 32.333 -73 42s-59.833 14.5 -92.5 14.5s-65.834 -4.83301 -99.501 -14.5s-64 -23.667 -91 -42s-50.333 -40.166 -70 -65.499s-33.167 -54.333 -40.5 -87l-25 -117h258l-13 -61h-258
l-81 -385h-61l119 563c8.66699 41.333 25.334 78.333 50.001 111s54.167 61 88.5 85s72.166 42.5 113.499 55.5s82.333 19.5 123 19.5c41.333 0 79.5 -6.5 114.5 -19.5s64.667 -31.5 89 -55.5s42 -52.333 53 -85s12.167 -69.667 3.5 -111l-119 -563h-62z" />
    <glyph glyph-name="khokhwaithai" unicode="&#xe04;" horiz-adv-x="778" 
d="M645 0l119.001 563c7.33301 32.667 6.5 61.667 -2.5 87s-23.333 47.166 -43 65.499s-44 32.333 -73 42s-59.833 14.5 -92.5 14.5s-65.834 -4.83301 -99.501 -14.5s-64 -23.667 -91 -42s-50.333 -40.166 -70 -65.499s-33.167 -54.333 -40.5 -87l-25 -117h258l-13 -61h-258
l-81 -385h-61l119 563c8.66699 41.333 25.334 78.333 50.001 111s54.167 61 88.5 85s72.166 42.5 113.499 55.5s82.333 19.5 123 19.5c41.333 0 79.5 -6.5 114.5 -19.5s64.667 -31.5 89 -55.5s42 -52.333 53 -85s12.167 -69.667 3.5 -111l-119 -563h-62z" />
    <glyph glyph-name="khokhonthai" unicode="&#xa5;" horiz-adv-x="819" 
d="M686 0l122 578c5.33301 24 7 47.333 5 70s-7.5 43.167 -16.5 61.5s-21.167 33.333 -36.5 45s-33 18.834 -53 21.501l-167 -162l-100 162c-20 -2.66699 -40.167 -9.83398 -60.5 -21.501s-39 -26.667 -56 -45s-31.333 -38.833 -43 -61.5s-20.167 -46 -25.5 -70l-28 -132
h279l-13 -61h-279l-81 -385h-61l122 578c7.33301 32.667 19.333 64.667 36 96s37.5 58.666 62.5 81.999s53 42.166 84 56.499s63.5 21.5 97.5 21.5l84 -134l141 134c35.333 0 65.166 -7.16699 89.499 -21.5s44 -33.166 59 -56.499s24.333 -50.666 28 -81.999
s1.83398 -63.333 -5.49902 -96l-122 -578h-62z" />
    <glyph glyph-name="khokhonthai" unicode="&#xe05;" horiz-adv-x="819" 
d="M686 0l122 578c5.33301 24 7 47.333 5 70s-7.5 43.167 -16.5 61.5s-21.167 33.333 -36.5 45s-33 18.834 -53 21.501l-167 -162l-100 162c-20 -2.66699 -40.167 -9.83398 -60.5 -21.501s-39 -26.667 -56 -45s-31.333 -38.833 -43 -61.5s-20.167 -46 -25.5 -70l-28 -132
h279l-13 -61h-279l-81 -385h-61l122 578c7.33301 32.667 19.333 64.667 36 96s37.5 58.666 62.5 81.999s53 42.166 84 56.499s63.5 21.5 97.5 21.5l84 -134l141 134c35.333 0 65.166 -7.16699 89.499 -21.5s44 -33.166 59 -56.499s24.333 -50.666 28 -81.999
s1.83398 -63.333 -5.49902 -96l-122 -578h-62z" />
    <glyph glyph-name="khorakhangthai" unicode="&#xa6;" horiz-adv-x="788" 
d="M771 256c-8.66699 -40.667 -24.3301 -77.502 -46.9971 -110.502s-49.834 -61.333 -81.501 -85s-67 -42 -106 -55s-78.833 -19.5 -119.5 -19.5c-26 0 -52.167 3 -78.5 9s-50.5 14.833 -72.5 26.5s-41.5 25.334 -58.5 41.001s-30.5 33.167 -40.5 52.5l-24 -115h-61l107 504
c5.33301 26 16.5 46.833 33.5 62.5s34.5 29.334 52.5 41.001l51.5 34.5c16.333 11.333 26.5 26.666 30.5 45.999l14 66l-112 -74c-6 12 -13 24.333 -21 37c-7.33301 10.667 -16.333 22.5 -27 35.5s-24.667 24.833 -42 35.5l46 41c11.333 -9.33301 21.166 -18.5 29.499 -27.5
s15.166 -16.833 20.499 -23.5c6.66699 -8 12 -16 16 -24l104 65h61l-31 -145c-4.66699 -20.667 -15.167 -37.5 -31.5 -50.5s-33.666 -25.333 -51.999 -37s-35.833 -24.667 -52.5 -39s-27.334 -32.833 -32.001 -55.5l-46 -218c-7.33301 -32.667 -5.5 -62.667 5.5 -90
s27.167 -51.166 48.5 -71.499s47.5 -36.333 78.5 -48s62.833 -17.5 95.5 -17.5c66.667 0 126.5 18.5 179.5 55.5s86.5 88.167 100.5 153.5l120 563h62z" />
    <glyph glyph-name="khorakhangthai" unicode="&#xe06;" horiz-adv-x="788" 
d="M771 256c-8.66699 -40.667 -24.3301 -77.502 -46.9971 -110.502s-49.834 -61.333 -81.501 -85s-67 -42 -106 -55s-78.833 -19.5 -119.5 -19.5c-26 0 -52.167 3 -78.5 9s-50.5 14.833 -72.5 26.5s-41.5 25.334 -58.5 41.001s-30.5 33.167 -40.5 52.5l-24 -115h-61l107 504
c5.33301 26 16.5 46.833 33.5 62.5s34.5 29.334 52.5 41.001l51.5 34.5c16.333 11.333 26.5 26.666 30.5 45.999l14 66l-112 -74c-6 12 -13 24.333 -21 37c-7.33301 10.667 -16.333 22.5 -27 35.5s-24.667 24.833 -42 35.5l46 41c11.333 -9.33301 21.166 -18.5 29.499 -27.5
s15.166 -16.833 20.499 -23.5c6.66699 -8 12 -16 16 -24l104 65h61l-31 -145c-4.66699 -20.667 -15.167 -37.5 -31.5 -50.5s-33.666 -25.333 -51.999 -37s-35.833 -24.667 -52.5 -39s-27.334 -32.833 -32.001 -55.5l-46 -218c-7.33301 -32.667 -5.5 -62.667 5.5 -90
s27.167 -51.166 48.5 -71.499s47.5 -36.333 78.5 -48s62.833 -17.5 95.5 -17.5c66.667 0 126.5 18.5 179.5 55.5s86.5 88.167 100.5 153.5l120 563h62z" />
    <glyph glyph-name="ngonguthai" unicode="&#xa7;" horiz-adv-x="737" 
d="M783 412c-15.333 -71.333 -40.668 -134.665 -76.001 -189.998s-78.166 -100.333 -128.499 -135s-108 -59.5 -173 -74.5s-134.5 -18.5 -208.5 -10.5l-26 805l64 14l25 -764c56.667 -2.66699 110.334 3.16602 161.001 17.499s96 36.5 136 66.5s74.333 68 103 114
s49.334 98.333 62.001 157c24.667 116 11.5 205.333 -39.5 268s-141.5 88.667 -271.5 78l13 61c151.333 12.667 256.166 -18.333 314.499 -93s73.166 -179.334 44.499 -314.001z" />
    <glyph glyph-name="ngonguthai" unicode="&#xe07;" horiz-adv-x="737" 
d="M783 412c-15.333 -71.333 -40.668 -134.665 -76.001 -189.998s-78.166 -100.333 -128.499 -135s-108 -59.5 -173 -74.5s-134.5 -18.5 -208.5 -10.5l-26 805l64 14l25 -764c56.667 -2.66699 110.334 3.16602 161.001 17.499s96 36.5 136 66.5s74.333 68 103 114
s49.334 98.333 62.001 157c24.667 116 11.5 205.333 -39.5 268s-141.5 88.667 -271.5 78l13 61c151.333 12.667 256.166 -18.333 314.499 -93s73.166 -179.334 44.499 -314.001z" />
    <glyph glyph-name="chochanthai" unicode="&#xa8;" horiz-adv-x="752" 
d="M801 426c-13.333 -64 -36.8291 -123.333 -70.4961 -178s-75 -101.834 -124 -141.501s-103.833 -69.667 -164.5 -90s-125.334 -27.833 -194.001 -22.5l-4 440h-84l13 62h133l4 -443c52 0 101.167 9.33301 147.5 28s88.666 45 126.999 79s70.833 73.5 97.5 118.5
s45.667 94.167 57 147.5c10.667 50.667 13 97.167 7 139.5s-19.667 78.833 -41 109.5s-49.166 54.5 -83.499 71.5s-75.5 25.5 -123.5 25.5c-62.667 0 -119.834 -11.167 -171.501 -33.5s-99.834 -52.166 -144.501 -89.499l-40 41c53.333 48 110.333 84 171 108s128 36 202 36
c57.333 0 106.666 -10.333 147.999 -31s74.5 -48.667 99.5 -84s40.833 -78 47.5 -128s3.66699 -105 -9 -165z" />
    <glyph glyph-name="chochanthai" unicode="&#xe08;" horiz-adv-x="752" 
d="M801 426c-13.333 -64 -36.8291 -123.333 -70.4961 -178s-75 -101.834 -124 -141.501s-103.833 -69.667 -164.5 -90s-125.334 -27.833 -194.001 -22.5l-4 440h-84l13 62h133l4 -443c52 0 101.167 9.33301 147.5 28s88.666 45 126.999 79s70.833 73.5 97.5 118.5
s45.667 94.167 57 147.5c10.667 50.667 13 97.167 7 139.5s-19.667 78.833 -41 109.5s-49.166 54.5 -83.499 71.5s-75.5 25.5 -123.5 25.5c-62.667 0 -119.834 -11.167 -171.501 -33.5s-99.834 -52.166 -144.501 -89.499l-40 41c53.333 48 110.333 84 171 108s128 36 202 36
c57.333 0 106.666 -10.333 147.999 -31s74.5 -48.667 99.5 -84s40.833 -78 47.5 -128s3.66699 -105 -9 -165z" />
    <glyph glyph-name="chochingthai" unicode="&#xa9;" horiz-adv-x="758" 
d="M625 0l23.999 115.003c-36 -40 -80.667 -71.5 -134 -94.5s-106.666 -34.5 -159.999 -34.5c-40.667 0 -77 6.5 -109 19.5s-58.5 31.333 -79.5 55s-35.167 52 -42.5 85s-6.66602 69.833 2.00098 110.5l31 145h-62l13 62h123l-44 -207c-14 -65.333 -3.5 -116.5 31.5 -153.5
s84.5 -55.5 148.5 -55.5c32 0 65.333 5.83301 100 17.5s66.834 27.667 96.501 48s55.167 44.166 76.5 71.499s35.666 57.333 42.999 90l61 289c7.33301 32.667 6.5 61.667 -2.5 87s-23.667 47.166 -44 65.499s-44.666 32.333 -72.999 42s-58.833 14.5 -91.5 14.5
c-28.667 0 -58.167 -3.66699 -88.5 -11s-59.5 -17.5 -87.5 -30.5s-53.333 -29.5 -76 -49.5s-40.334 -42.333 -53.001 -67h-61c14 33.333 34.5 63.5 61.5 90.5s57.833 50.167 92.5 69.5s71.5 34.166 110.5 44.499s77.167 15.5 114.5 15.5c40.667 0 78.667 -6.5 114 -19.5
s65.166 -31.5 89.499 -55.5s41.833 -52.333 52.5 -85s11.667 -69.667 3 -111l-111 -522l13 -41h-82z" />
    <glyph glyph-name="chochingthai" unicode="&#xe09;" horiz-adv-x="758" 
d="M625 0l23.999 115.003c-36 -40 -80.667 -71.5 -134 -94.5s-106.666 -34.5 -159.999 -34.5c-40.667 0 -77 6.5 -109 19.5s-58.5 31.333 -79.5 55s-35.167 52 -42.5 85s-6.66602 69.833 2.00098 110.5l31 145h-62l13 62h123l-44 -207c-14 -65.333 -3.5 -116.5 31.5 -153.5
s84.5 -55.5 148.5 -55.5c32 0 65.333 5.83301 100 17.5s66.834 27.667 96.501 48s55.167 44.166 76.5 71.499s35.666 57.333 42.999 90l61 289c7.33301 32.667 6.5 61.667 -2.5 87s-23.667 47.166 -44 65.499s-44.666 32.333 -72.999 42s-58.833 14.5 -91.5 14.5
c-28.667 0 -58.167 -3.66699 -88.5 -11s-59.5 -17.5 -87.5 -30.5s-53.333 -29.5 -76 -49.5s-40.334 -42.333 -53.001 -67h-61c14 33.333 34.5 63.5 61.5 90.5s57.833 50.167 92.5 69.5s71.5 34.166 110.5 44.499s77.167 15.5 114.5 15.5c40.667 0 78.667 -6.5 114 -19.5
s65.166 -31.5 89.499 -55.5s41.833 -52.333 52.5 -85s11.667 -69.667 3 -111l-111 -522l13 -41h-82z" />
    <glyph glyph-name="chochangthai" unicode="&#xaa;" horiz-adv-x="715" 
d="M742 322c-20.667 -96 -68.333 -175.001 -143 -237.001s-171.667 -94.333 -291 -97c-35.333 -1.33301 -67.5 0.333984 -96.5 5.00098s-53.5 9.66699 -73.5 15c-23.333 5.33301 -43.333 12.333 -60 21l168 790h61l-158 -743c14 -4 29 -9 45 -15
c14.667 -4 32.834 -7.33301 54.501 -10s46.167 -4 73.5 -4c95.333 2.66699 174.333 28.334 237 77.001s103 114.667 121 198c18 84.667 6.66699 153.167 -34 205.5s-101.334 88.166 -182.001 107.499l249 194l35 -36l-176 -140c68 -30 117.833 -71.167 149.5 -123.5
s38.5 -121.5 20.5 -207.5z" />
    <glyph glyph-name="chochangthai" unicode="&#xe0a;" horiz-adv-x="715" 
d="M742 322c-20.667 -96 -68.333 -175.001 -143 -237.001s-171.667 -94.333 -291 -97c-35.333 -1.33301 -67.5 0.333984 -96.5 5.00098s-53.5 9.66699 -73.5 15c-23.333 5.33301 -43.333 12.333 -60 21l168 790h61l-158 -743c14 -4 29 -9 45 -15
c14.667 -4 32.834 -7.33301 54.501 -10s46.167 -4 73.5 -4c95.333 2.66699 174.333 28.334 237 77.001s103 114.667 121 198c18 84.667 6.66699 153.167 -34 205.5s-101.334 88.166 -182.001 107.499l249 194l35 -36l-176 -140c68 -30 117.833 -71.167 149.5 -123.5
s38.5 -121.5 20.5 -207.5z" />
    <glyph glyph-name="sosothai" unicode="&#xab;" horiz-adv-x="735" 
d="M762 322c-20.667 -96 -68.168 -175.002 -142.501 -237.002s-171.166 -94.333 -290.499 -97c-35.333 -1.33301 -67.666 0.333984 -96.999 5.00098s-53.666 9.66699 -72.999 15c-23.333 5.33301 -43.666 12.333 -60.999 21l99 469c6 26 16.5 47.167 31.5 63.5
s30.333 31 46 44l45 38c14.333 12.333 23.5 27.166 27.5 44.499l14 66l-113 -74c-5.33301 12 -12 24.333 -20 37c-8 10.667 -17.333 22.5 -28 35.5s-24.334 24.833 -41.001 35.5l46 41c11.333 -9.33301 21.166 -18.5 29.499 -27.5s15.166 -16.833 20.499 -23.5
c6 -8 11.333 -16 16 -24l104 65h61l-30 -139c-4 -19.333 -13.333 -36.166 -28 -50.499s-30 -28.333 -46 -42s-31.333 -28.667 -46 -45s-24.667 -36.166 -30 -59.499l-86 -407c13.333 -4 28.333 -9 45 -15c14 -4 32 -7.33301 54 -10s46.667 -4 74 -4
c94.667 2.66699 173.5 28.334 236.5 77.001s103.5 114.667 121.5 198c18 84.667 6.5 153.167 -34.5 205.5s-101.833 88.166 -182.5 107.499l249 194l35 -36l-175 -140c67.333 -30 116.833 -71.167 148.5 -123.5s38.5 -121.5 20.5 -207.5z" />
    <glyph glyph-name="sosothai" unicode="&#xe0b;" horiz-adv-x="735" 
d="M762 322c-20.667 -96 -68.168 -175.002 -142.501 -237.002s-171.166 -94.333 -290.499 -97c-35.333 -1.33301 -67.666 0.333984 -96.999 5.00098s-53.666 9.66699 -72.999 15c-23.333 5.33301 -43.666 12.333 -60.999 21l99 469c6 26 16.5 47.167 31.5 63.5
s30.333 31 46 44l45 38c14.333 12.333 23.5 27.166 27.5 44.499l14 66l-113 -74c-5.33301 12 -12 24.333 -20 37c-8 10.667 -17.333 22.5 -28 35.5s-24.334 24.833 -41.001 35.5l46 41c11.333 -9.33301 21.166 -18.5 29.499 -27.5s15.166 -16.833 20.499 -23.5
c6 -8 11.333 -16 16 -24l104 65h61l-30 -139c-4 -19.333 -13.333 -36.166 -28 -50.499s-30 -28.333 -46 -42s-31.333 -28.667 -46 -45s-24.667 -36.166 -30 -59.499l-86 -407c13.333 -4 28.333 -9 45 -15c14 -4 32 -7.33301 54 -10s46.667 -4 74 -4
c94.667 2.66699 173.5 28.334 236.5 77.001s103.5 114.667 121.5 198c18 84.667 6.5 153.167 -34.5 205.5s-101.833 88.166 -182.5 107.499l249 194l35 -36l-175 -140c67.333 -30 116.833 -71.167 148.5 -123.5s38.5 -121.5 20.5 -207.5z" />
    <glyph glyph-name="chochoethai" unicode="&#xac;" horiz-adv-x="1311" 
d="M1293 256c-17.333 -82 -56.834 -147.502 -118.501 -196.502s-133.167 -73.5 -214.5 -73.5c-52 0 -98.833 11.833 -140.5 35.5s-71.167 54.834 -88.5 93.501l-24 -115h-62l116 549c16 73.333 3.16699 128.833 -38.5 166.5s-98.167 56.5 -169.5 56.5
c-113.333 0 -207.666 -41 -282.999 -123l-125 -588h123l-12 -61h-184l141 668c98.667 110.667 216.334 166 353.001 166c42.667 0 81.834 -5.5 117.501 -16.5s65.667 -27.833 90 -50.5s41.666 -50.667 51.999 -84s10.833 -72 1.5 -116l-62 -293
c-7.33301 -32.667 -6.33301 -62.667 3 -90s23.666 -51.166 42.999 -71.499s43 -36.333 71 -48s58 -17.5 90 -17.5c65.333 0 121.5 18.5 168.5 55.5s77.5 88.167 91.5 153.5l120 563h61z" />
    <glyph glyph-name="chochoethai" unicode="&#xe0c;" horiz-adv-x="1311" 
d="M1293 256c-17.333 -82 -56.834 -147.502 -118.501 -196.502s-133.167 -73.5 -214.5 -73.5c-52 0 -98.833 11.833 -140.5 35.5s-71.167 54.834 -88.5 93.501l-24 -115h-62l116 549c16 73.333 3.16699 128.833 -38.5 166.5s-98.167 56.5 -169.5 56.5
c-113.333 0 -207.666 -41 -282.999 -123l-125 -588h123l-12 -61h-184l141 668c98.667 110.667 216.334 166 353.001 166c42.667 0 81.834 -5.5 117.501 -16.5s65.667 -27.833 90 -50.5s41.666 -50.667 51.999 -84s10.833 -72 1.5 -116l-62 -293
c-7.33301 -32.667 -6.33301 -62.667 3 -90s23.666 -51.166 42.999 -71.499s43 -36.333 71 -48s58 -17.5 90 -17.5c65.333 0 121.5 18.5 168.5 55.5s77.5 88.167 91.5 153.5l120 563h61z" />
    <glyph glyph-name="yoyingthai" unicode="&#xad;" horiz-adv-x="1311" 
d="M1293 256c-8.66699 -40.667 -24.8369 -77.8311 -48.5039 -111.498s-52.167 -62 -85.5 -85s-70.166 -41 -110.499 -54s-81.5 -19.5 -123.5 -19.5c-57.333 0 -109 9.5 -155 28.5s-80.667 48.167 -104 87.5l54 43c47.333 -65.333 119 -98 215 -98
c32.667 0 65.5 4.83301 98.5 14.5s63 23.667 90 42s50 40.166 69 65.499s32.167 54.333 39.5 87l5 23c-32.667 -30.667 -72.667 -56.167 -120 -76.5s-95 -30.5 -143 -30.5c-86 0 -151.833 21.167 -197.5 63.5s-59.834 104.5 -42.501 186.5l27 127
c16 73.333 3.16699 128.833 -38.5 166.5s-98.167 56.5 -169.5 56.5c-113.333 0 -207.666 -41 -282.999 -123l-125 -588h123l-12 -61h-184l141 668c98.667 110.667 216.334 166 353.001 166c42.667 0 81.834 -5.5 117.501 -16.5s65.667 -27.833 90 -50.5
s41.666 -50.667 51.999 -84s10.833 -72 1.5 -116l-31 -145c-13.333 -64 -0.5 -111.5 38.5 -142.5s89.833 -46.5 152.5 -46.5c32.667 0 64.5 5.16699 95.5 15.5s59.333 24.666 85 42.999s47.834 40.5 66.501 66.5s31.334 55.333 38.001 88l80 373h61z" />
    <glyph glyph-name="yoyingthai" unicode="&#xe0d;" horiz-adv-x="1311" 
d="M1293 256c-8.66699 -40.667 -24.8369 -77.8311 -48.5039 -111.498s-52.167 -62 -85.5 -85s-70.166 -41 -110.499 -54s-81.5 -19.5 -123.5 -19.5c-57.333 0 -109 9.5 -155 28.5s-80.667 48.167 -104 87.5l54 43c47.333 -65.333 119 -98 215 -98
c32.667 0 65.5 4.83301 98.5 14.5s63 23.667 90 42s50 40.166 69 65.499s32.167 54.333 39.5 87l5 23c-32.667 -30.667 -72.667 -56.167 -120 -76.5s-95 -30.5 -143 -30.5c-86 0 -151.833 21.167 -197.5 63.5s-59.834 104.5 -42.501 186.5l27 127
c16 73.333 3.16699 128.833 -38.5 166.5s-98.167 56.5 -169.5 56.5c-113.333 0 -207.666 -41 -282.999 -123l-125 -588h123l-12 -61h-184l141 668c98.667 110.667 216.334 166 353.001 166c42.667 0 81.834 -5.5 117.501 -16.5s65.667 -27.833 90 -50.5
s41.666 -50.667 51.999 -84s10.833 -72 1.5 -116l-31 -145c-13.333 -64 -0.5 -111.5 38.5 -142.5s89.833 -46.5 152.5 -46.5c32.667 0 64.5 5.16699 95.5 15.5s59.333 24.666 85 42.999s47.834 40.5 66.501 66.5s31.334 55.333 38.001 88l80 373h61z" />
    <glyph glyph-name="yoyingthai" unicode="&#xde;" horiz-adv-x="1311" 
d="M1293 256c-8.66699 -40.667 -24.8369 -77.8311 -48.5039 -111.498s-52.167 -62 -85.5 -85s-70.166 -41 -110.499 -54s-81.5 -19.5 -123.5 -19.5c-57.333 0 -109 9.5 -155 28.5s-80.667 48.167 -104 87.5l54 43c47.333 -65.333 119 -98 215 -98
c32.667 0 65.5 4.83301 98.5 14.5s63 23.667 90 42s50 40.166 69 65.499s32.167 54.333 39.5 87l5 23c-32.667 -30.667 -72.667 -56.167 -120 -76.5s-95 -30.5 -143 -30.5c-86 0 -151.833 21.167 -197.5 63.5s-59.834 104.5 -42.501 186.5l27 127
c16 73.333 3.16699 128.833 -38.5 166.5s-98.167 56.5 -169.5 56.5c-113.333 0 -207.666 -41 -282.999 -123l-125 -588h123l-12 -61h-184l141 668c98.667 110.667 216.334 166 353.001 166c42.667 0 81.834 -5.5 117.501 -16.5s65.667 -27.833 90 -50.5
s41.666 -50.667 51.999 -84s10.833 -72 1.5 -116l-31 -145c-13.333 -64 -0.5 -111.5 38.5 -142.5s89.833 -46.5 152.5 -46.5c32.667 0 64.5 5.16699 95.5 15.5s59.333 24.666 85 42.999s47.834 40.5 66.501 66.5s31.334 55.333 38.001 88l80 373h61z" />
    <glyph glyph-name="dochadathai" unicode="&#xae;" horiz-adv-x="788" 
d="M589 -307l-153.001 143l-215 -143h-286l13 61h275l227 148l153 -142l168 789c16 73.333 3.16699 128.833 -38.5 166.5s-98.167 56.5 -169.5 56.5c-113.333 0 -207.666 -41 -282.999 -123l-137 -649h-143l12 61h82l129 607c99.333 110.667 217 166 353 166
c42.667 0 82 -5.5 118 -16.5s66.167 -27.833 90.5 -50.5s41.5 -50.667 51.5 -84s10.333 -72 1 -116l-186 -874h-62z" />
    <glyph glyph-name="dochadathai" unicode="&#xe0e;" horiz-adv-x="788" 
d="M589 -307l-153.001 143l-215 -143h-286l13 61h275l227 148l153 -142l168 789c16 73.333 3.16699 128.833 -38.5 166.5s-98.167 56.5 -169.5 56.5c-113.333 0 -207.666 -41 -282.999 -123l-137 -649h-143l12 61h82l129 607c99.333 110.667 217 166 353 166
c42.667 0 82 -5.5 118 -16.5s66.167 -27.833 90.5 -50.5s41.5 -50.667 51.5 -84s10.333 -72 1 -116l-186 -874h-62z" />
    <glyph glyph-name="topatakthai" unicode="&#xaf;" horiz-adv-x="788" 
d="M589 -307l-97.001 123l-140 -133l-85 133l-149 -123h-203l13 61h189l166 135l85 -131l140 131l98 -118l165 778c16 73.333 3.16699 128.833 -38.5 166.5s-98.167 56.5 -169.5 56.5c-113.333 0 -207.666 -41 -282.999 -123l-137 -649h-143l12 61h82l129 607
c99.333 110.667 217 166 353 166c42.667 0 82 -5.5 118 -16.5s66.167 -27.833 90.5 -50.5s41.5 -50.667 51.5 -84s10.333 -72 1 -116l-186 -874h-62z" />
    <glyph glyph-name="topatakthai" unicode="&#xe0f;" horiz-adv-x="788" 
d="M589 -307l-97.001 123l-140 -133l-85 133l-149 -123h-203l13 61h189l166 135l85 -131l140 131l98 -118l165 778c16 73.333 3.16699 128.833 -38.5 166.5s-98.167 56.5 -169.5 56.5c-113.333 0 -207.666 -41 -282.999 -123l-137 -649h-143l12 61h82l129 607
c99.333 110.667 217 166 353 166c42.667 0 82 -5.5 118 -16.5s66.167 -27.833 90.5 -50.5s41.5 -50.667 51.5 -84s10.333 -72 1 -116l-186 -874h-62z" />
    <glyph glyph-name="thothanthai" unicode="&#xb0;" horiz-adv-x="752" 
d="M801 426c-13.333 -64 -36.8301 -123.334 -70.4971 -178.001s-75 -101.834 -124 -141.501s-103.833 -69.667 -164.5 -90s-125.334 -27.833 -194.001 -22.5l-4 450h-82l11 52h133l4 -443c52 0 101.167 9.33301 147.5 28s88.666 45 126.999 79s70.833 73.5 97.5 118.5
s45.667 94.167 57 147.5c10.667 50.667 13 97.167 7 139.5s-19.667 78.833 -41 109.5s-49.166 54.5 -83.499 71.5s-75.5 25.5 -123.5 25.5c-62.667 0 -119.834 -11.167 -171.501 -33.5s-99.834 -52.166 -144.501 -89.499l-40 41c53.333 48 110.333 84 171 108s128 36 202 36
s133.667 -16.667 179 -50l101 97l41 -37l-97 -94c34 -37.333 56.5 -83.666 67.5 -138.999s9.16699 -117 -5.5 -185zM585.003 -307.001l-97 123l-140 -133l-85 133l-149 -123h-183l13 61h169l166 135l85 -131l140 131l98 -118l26 123l-19 51h92l-54 -252h-62z" />
    <glyph glyph-name="thothanthai" unicode="&#xe10;" horiz-adv-x="752" 
d="M801 426c-13.333 -64 -36.8301 -123.334 -70.4971 -178.001s-75 -101.834 -124 -141.501s-103.833 -69.667 -164.5 -90s-125.334 -27.833 -194.001 -22.5l-4 450h-82l11 52h133l4 -443c52 0 101.167 9.33301 147.5 28s88.666 45 126.999 79s70.833 73.5 97.5 118.5
s45.667 94.167 57 147.5c10.667 50.667 13 97.167 7 139.5s-19.667 78.833 -41 109.5s-49.166 54.5 -83.499 71.5s-75.5 25.5 -123.5 25.5c-62.667 0 -119.834 -11.167 -171.501 -33.5s-99.834 -52.166 -144.501 -89.499l-40 41c53.333 48 110.333 84 171 108s128 36 202 36
s133.667 -16.667 179 -50l101 97l41 -37l-97 -94c34 -37.333 56.5 -83.666 67.5 -138.999s9.16699 -117 -5.5 -185zM585.003 -307.001l-97 123l-140 -133l-85 133l-149 -123h-183l13 61h169l166 135l85 -131l140 131l98 -118l26 123l-19 51h92l-54 -252h-62z" />
    <glyph glyph-name="thonangmonthothai" unicode="&#xb1;" horiz-adv-x="788" 
d="M655 0l127.002 598c9.33301 44 5.5 81.667 -11.5 113s-41.167 47 -72.5 47l-555 -758h-61l107 504c5.33301 26 16.5 46.833 33.5 62.5s34.5 29.334 52.5 41.001l51.5 34.5c16.333 11.333 26.5 26.666 30.5 45.999l14 66l-112 -74c-6 12 -13 24.333 -21 37
c-7.33301 10.667 -16.333 22.5 -27 35.5s-24.667 24.833 -42 35.5l46 41c11.333 -9.33301 21.166 -18.5 29.499 -27.5s15.166 -16.833 20.499 -23.5c6.66699 -8 12 -16 16 -24l104 65h61l-31 -145c-4.66699 -20.667 -15.167 -37.5 -31.5 -50.5s-33.666 -25.333 -51.999 -37
s-35.833 -24.667 -52.5 -39s-27.334 -32.833 -32.001 -55.5l-78 -367l511 694c65.333 0 112.333 -20.833 141 -62.5s36 -95.167 22 -160.5l-126 -596h-62z" />
    <glyph glyph-name="thonangmonthothai" unicode="&#xe11;" horiz-adv-x="788" 
d="M655 0l127.002 598c9.33301 44 5.5 81.667 -11.5 113s-41.167 47 -72.5 47l-555 -758h-61l107 504c5.33301 26 16.5 46.833 33.5 62.5s34.5 29.334 52.5 41.001l51.5 34.5c16.333 11.333 26.5 26.666 30.5 45.999l14 66l-112 -74c-6 12 -13 24.333 -21 37
c-7.33301 10.667 -16.333 22.5 -27 35.5s-24.667 24.833 -42 35.5l46 41c11.333 -9.33301 21.166 -18.5 29.499 -27.5s15.166 -16.833 20.499 -23.5c6.66699 -8 12 -16 16 -24l104 65h61l-31 -145c-4.66699 -20.667 -15.167 -37.5 -31.5 -50.5s-33.666 -25.333 -51.999 -37
s-35.833 -24.667 -52.5 -39s-27.334 -32.833 -32.001 -55.5l-78 -367l511 694c65.333 0 112.333 -20.833 141 -62.5s36 -95.167 22 -160.5l-126 -596h-62z" />
    <glyph glyph-name="thophuthaothai" unicode="&#xb2;" horiz-adv-x="1356" 
d="M1338 256c-17.333 -82 -56.8262 -147.505 -118.493 -196.505s-133.167 -73.5 -214.5 -73.5c-52 0 -98.667 11.833 -140 35.5s-71 54.834 -89 93.501l-24 -115h-62l121 573c10.667 48 8.16699 91.833 -7.5 131.5s-42.5 62.167 -80.5 67.5l-163 -158l-101 158
c-20 -6.66699 -43 -20.667 -69 -42s-52.5 -48.666 -79.5 -81.999s-52 -71.5 -75 -114.5s-39.833 -89.167 -50.5 -138.5c-8.66699 -43.333 -13 -85.833 -13 -127.5s5.5 -78.5 16.5 -110.5s28.667 -57.667 53 -77s55.833 -29 94.5 -29c27.333 0 51.666 6.5 72.999 19.5
s39.666 27.833 54.999 44.5l41 -37c-20.667 -23.333 -47.334 -43.833 -80.001 -61.5s-66.667 -26.5 -102 -26.5c-48 0 -87.667 9.83301 -119 29.5s-55 47.334 -71 83.001s-24.667 78.334 -26 128.001s4.33398 104.5 17.001 164.5c12 56 31.333 109.667 58 161
s57.167 96.5 91.5 135.5s70.166 71 107.499 96s73.666 40.5 108.999 46.5l88 -134l137 129c32.667 0 60.834 -6.83301 84.501 -20.5s42.167 -32 55.5 -55s21.666 -49.833 24.999 -80.5s1 -64 -7 -100l-63 -299c-7.33301 -32.667 -6.33301 -62.667 3 -90
s23.666 -51.166 42.999 -71.499s43.166 -36.333 71.499 -48s58.166 -17.5 89.499 -17.5c65.333 0 121.5 18.5 168.5 55.5s77.5 88.167 91.5 153.5l120 563h61z" />
    <glyph glyph-name="thophuthaothai" unicode="&#xe12;" horiz-adv-x="1356" 
d="M1338 256c-17.333 -82 -56.8262 -147.505 -118.493 -196.505s-133.167 -73.5 -214.5 -73.5c-52 0 -98.667 11.833 -140 35.5s-71 54.834 -89 93.501l-24 -115h-62l121 573c10.667 48 8.16699 91.833 -7.5 131.5s-42.5 62.167 -80.5 67.5l-163 -158l-101 158
c-20 -6.66699 -43 -20.667 -69 -42s-52.5 -48.666 -79.5 -81.999s-52 -71.5 -75 -114.5s-39.833 -89.167 -50.5 -138.5c-8.66699 -43.333 -13 -85.833 -13 -127.5s5.5 -78.5 16.5 -110.5s28.667 -57.667 53 -77s55.833 -29 94.5 -29c27.333 0 51.666 6.5 72.999 19.5
s39.666 27.833 54.999 44.5l41 -37c-20.667 -23.333 -47.334 -43.833 -80.001 -61.5s-66.667 -26.5 -102 -26.5c-48 0 -87.667 9.83301 -119 29.5s-55 47.334 -71 83.001s-24.667 78.334 -26 128.001s4.33398 104.5 17.001 164.5c12 56 31.333 109.667 58 161
s57.167 96.5 91.5 135.5s70.166 71 107.499 96s73.666 40.5 108.999 46.5l88 -134l137 129c32.667 0 60.834 -6.83301 84.501 -20.5s42.167 -32 55.5 -55s21.666 -49.833 24.999 -80.5s1 -64 -7 -100l-63 -299c-7.33301 -32.667 -6.33301 -62.667 3 -90
s23.666 -51.166 42.999 -71.499s43.166 -36.333 71.499 -48s58.166 -17.5 89.499 -17.5c65.333 0 121.5 18.5 168.5 55.5s77.5 88.167 91.5 153.5l120 563h61z" />
    <glyph glyph-name="nonenthai" unicode="&#xb3;" horiz-adv-x="1311" 
d="M1178 0l24 115.002c-34 -38.667 -76.833 -69.834 -128.5 -93.501s-103.167 -35.5 -154.5 -35.5c-82 0 -143.5 24.5 -184.5 73.5s-52.833 114.5 -35.5 196.5l62 293c16 73.333 3.16699 128.833 -38.5 166.5s-98.167 56.5 -169.5 56.5
c-113.333 0 -207.666 -41 -282.999 -123l-125 -588h123l-12 -61h-184l141 668c98.667 110.667 216.334 166 353.001 166c42.667 0 81.834 -5.5 117.501 -16.5s65.667 -27.833 90 -50.5s41.666 -50.667 51.999 -84s10.833 -72 1.5 -116l-66 -311
c-14 -65.333 -5.66699 -116.5 25 -153.5s79 -55.5 145 -55.5c31.333 0 63.666 5.83301 96.999 17.5s64.166 27.667 92.499 48s52.833 44.166 73.5 71.499s34.667 57.333 42 90l116 545h61l-174 -819h-61z" />
    <glyph glyph-name="nonenthai" unicode="&#xe13;" horiz-adv-x="1311" 
d="M1178 0l24 115.002c-34 -38.667 -76.833 -69.834 -128.5 -93.501s-103.167 -35.5 -154.5 -35.5c-82 0 -143.5 24.5 -184.5 73.5s-52.833 114.5 -35.5 196.5l62 293c16 73.333 3.16699 128.833 -38.5 166.5s-98.167 56.5 -169.5 56.5
c-113.333 0 -207.666 -41 -282.999 -123l-125 -588h123l-12 -61h-184l141 668c98.667 110.667 216.334 166 353.001 166c42.667 0 81.834 -5.5 117.501 -16.5s65.667 -27.833 90 -50.5s41.666 -50.667 51.999 -84s10.833 -72 1.5 -116l-66 -311
c-14 -65.333 -5.66699 -116.5 25 -153.5s79 -55.5 145 -55.5c31.333 0 63.666 5.83301 96.999 17.5s64.166 27.667 92.499 48s52.833 44.166 73.5 71.499s34.667 57.333 42 90l116 545h61l-174 -819h-61z" />
    <glyph glyph-name="dodekthai" unicode="&#xb4;" horiz-adv-x="782" 
d="M649 0l114.999 544.999c7.33301 32.667 8 62.667 2 90s-17.333 51.166 -34 71.499s-38 36.333 -64 48s-56.667 17.5 -92 17.5c-46.667 0 -91.5 -10.5 -134.5 -31.5s-81.667 -49.667 -116 -86s-64 -77.666 -89 -123.999s-42.5 -94.166 -52.5 -143.499
c-10 -45.333 -15 -88 -15 -128s5.83301 -75.5 17.5 -106.5s29.834 -55.667 54.501 -74s56.334 -27.5 95.001 -27.5c27.333 0 51.666 6.5 72.999 19.5s39.666 27.833 54.999 44.5l41 -37c-20.667 -23.333 -47.334 -43.833 -80.001 -61.5s-66.667 -26.5 -102 -26.5
c-49.333 0 -89.666 9.83301 -120.999 29.5s-55.166 47 -71.499 82s-24.833 77 -25.5 126s5.33301 102.167 18 159.5c12 58.667 33 115 63 169s65.833 101.5 107.5 142.5s87.667 73.833 138 98.5s102.833 37 157.5 37c44.667 0 84 -7.16699 118 -21.5
s61.167 -34.5 81.5 -60.5s34 -56.5 41 -91.5s6.16699 -72.167 -2.5 -111.5l-116 -549h-62z" />
    <glyph glyph-name="dodekthai" unicode="&#xe14;" horiz-adv-x="782" 
d="M649 0l114.999 544.999c7.33301 32.667 8 62.667 2 90s-17.333 51.166 -34 71.499s-38 36.333 -64 48s-56.667 17.5 -92 17.5c-46.667 0 -91.5 -10.5 -134.5 -31.5s-81.667 -49.667 -116 -86s-64 -77.666 -89 -123.999s-42.5 -94.166 -52.5 -143.499
c-10 -45.333 -15 -88 -15 -128s5.83301 -75.5 17.5 -106.5s29.834 -55.667 54.501 -74s56.334 -27.5 95.001 -27.5c27.333 0 51.666 6.5 72.999 19.5s39.666 27.833 54.999 44.5l41 -37c-20.667 -23.333 -47.334 -43.833 -80.001 -61.5s-66.667 -26.5 -102 -26.5
c-49.333 0 -89.666 9.83301 -120.999 29.5s-55.166 47 -71.499 82s-24.833 77 -25.5 126s5.33301 102.167 18 159.5c12 58.667 33 115 63 169s65.833 101.5 107.5 142.5s87.667 73.833 138 98.5s102.833 37 157.5 37c44.667 0 84 -7.16699 118 -21.5
s61.167 -34.5 81.5 -60.5s34 -56.5 41 -91.5s6.16699 -72.167 -2.5 -111.5l-116 -549h-62z" />
    <glyph glyph-name="totaothai" unicode="&#xb5;" horiz-adv-x="823" 
d="M690 0l121.003 572.997c10.667 48 8.16699 91.833 -7.5 131.5s-42.5 62.167 -80.5 67.5l-163 -158l-101 158c-20 -6.66699 -43 -20.667 -69 -42s-52.5 -48.666 -79.5 -81.999s-52 -71.5 -75 -114.5s-39.833 -89.167 -50.5 -138.5
c-9.33301 -44.667 -14.166 -87.834 -14.499 -129.501s5.16699 -78.667 16.5 -111s29 -57.666 53 -75.999s56 -27.5 96 -27.5c27.333 0 51.666 6.5 72.999 19.5s39.666 27.833 54.999 44.5l41 -37c-20.667 -23.333 -47.334 -43.833 -80.001 -61.5s-66.667 -26.5 -102 -26.5
c-48 0 -87.667 9.83301 -119 29.5s-55 47.334 -71 83.001s-24.667 78.334 -26 128.001s4.33398 104.5 17.001 164.5c12 56 31.333 109.667 58 161s57.167 96.5 91.5 135.5s70.166 71 107.499 96s73.666 40.5 108.999 46.5l88 -134l137 129
c32.667 0 60.834 -6.83301 84.501 -20.5s42.167 -32 55.5 -55s21.666 -49.833 24.999 -80.5s1 -64 -7 -100l-121 -573h-62z" />
    <glyph glyph-name="totaothai" unicode="&#xe15;" horiz-adv-x="823" 
d="M690 0l121.003 572.997c10.667 48 8.16699 91.833 -7.5 131.5s-42.5 62.167 -80.5 67.5l-163 -158l-101 158c-20 -6.66699 -43 -20.667 -69 -42s-52.5 -48.666 -79.5 -81.999s-52 -71.5 -75 -114.5s-39.833 -89.167 -50.5 -138.5
c-9.33301 -44.667 -14.166 -87.834 -14.499 -129.501s5.16699 -78.667 16.5 -111s29 -57.666 53 -75.999s56 -27.5 96 -27.5c27.333 0 51.666 6.5 72.999 19.5s39.666 27.833 54.999 44.5l41 -37c-20.667 -23.333 -47.334 -43.833 -80.001 -61.5s-66.667 -26.5 -102 -26.5
c-48 0 -87.667 9.83301 -119 29.5s-55 47.334 -71 83.001s-24.667 78.334 -26 128.001s4.33398 104.5 17.001 164.5c12 56 31.333 109.667 58 161s57.167 96.5 91.5 135.5s70.166 71 107.499 96s73.666 40.5 108.999 46.5l88 -134l137 129
c32.667 0 60.834 -6.83301 84.501 -20.5s42.167 -32 55.5 -55s21.666 -49.833 24.999 -80.5s1 -64 -7 -100l-121 -573h-62z" />
    <glyph glyph-name="thothungthai" unicode="&#xb6;" horiz-adv-x="778" 
d="M645 0l115.998 549c16 73.333 3.16699 128.833 -38.5 166.5s-98.167 56.5 -169.5 56.5c-113.333 0 -207.666 -41 -282.999 -123l-125 -588h123l-12 -61h-184l141 668c98.667 110.667 216.334 166 353.001 166c42.667 0 81.834 -5.5 117.501 -16.5
s65.667 -27.833 90 -50.5s41.666 -50.667 51.999 -84s10.833 -72 1.5 -116l-120 -567h-62z" />
    <glyph glyph-name="thothungthai" unicode="&#xe16;" horiz-adv-x="778" 
d="M645 0l115.998 549c16 73.333 3.16699 128.833 -38.5 166.5s-98.167 56.5 -169.5 56.5c-113.333 0 -207.666 -41 -282.999 -123l-125 -588h123l-12 -61h-184l141 668c98.667 110.667 216.334 166 353.001 166c42.667 0 81.834 -5.5 117.501 -16.5
s65.667 -27.833 90 -50.5s41.666 -50.667 51.999 -84s10.833 -72 1.5 -116l-120 -567h-62z" />
    <glyph glyph-name="thothahanthai" unicode="&#xb7;" horiz-adv-x="778" 
d="M645 0l114.996 542.999c14.667 69.333 5.33398 124.833 -27.999 166.5s-84.666 62.5 -153.999 62.5c-32.667 0 -67.167 -5.83301 -103.5 -17.5s-70 -27.667 -101 -48s-57.833 -44.166 -80.5 -71.499s-37.667 -57.333 -45 -90l-115 -545h-61l174 819h61l-25 -114
c18 18.667 39 36.167 63 52.5s49.833 30 77.5 41s56.167 19.667 85.5 26s57 9.5 83 9.5c40.667 0 77.334 -6.5 110.001 -19.5s60 -31.167 82 -54.5s36.833 -52 44.5 -86s6.83398 -72.333 -2.49902 -115l-118 -559h-62z" />
    <glyph glyph-name="thothahanthai" unicode="&#xe17;" horiz-adv-x="778" 
d="M645 0l114.996 542.999c14.667 69.333 5.33398 124.833 -27.999 166.5s-84.666 62.5 -153.999 62.5c-32.667 0 -67.167 -5.83301 -103.5 -17.5s-70 -27.667 -101 -48s-57.833 -44.166 -80.5 -71.499s-37.667 -57.333 -45 -90l-115 -545h-61l174 819h61l-25 -114
c18 18.667 39 36.167 63 52.5s49.833 30 77.5 41s56.167 19.667 85.5 26s57 9.5 83 9.5c40.667 0 77.334 -6.5 110.001 -19.5s60 -31.167 82 -54.5s36.833 -52 44.5 -86s6.83398 -72.333 -2.49902 -115l-118 -559h-62z" />
    <glyph glyph-name="thothongthai" unicode="&#xb8;" horiz-adv-x="713" 
d="M726 248c-9.33301 -45.333 -27.1709 -83.9951 -53.5039 -115.995s-58.166 -59 -95.499 -81s-78.5 -38 -123.5 -48s-90.833 -15 -137.5 -15c-35.333 0 -68.166 2 -98.499 6s-56.833 8.66699 -79.5 14c-26 5.33301 -49.667 12.333 -71 21l83 391l66 20l-76 -360
c14.667 -5.33301 31.667 -11 51 -17c17.333 -4 37.333 -7.66699 60 -11s48.334 -5 77.001 -5c36 0 72.333 4.16699 109 12.5s70.334 20.666 101.001 36.999s57.167 37.166 79.5 62.499s37.166 55 44.499 89s6.16602 63.333 -3.50098 88s-24.834 45.5 -45.501 62.5
s-45.167 30.667 -73.5 41s-56.833 18.166 -85.5 23.499l-108 20.5c-35.333 7 -66.5 16.167 -93.5 27.5s-47.333 27 -61 47s-17.167 45.667 -10.5 77c6.66699 30 21.5 57.333 44.5 82s50.333 45.5 82 62.5s66.167 29.833 103.5 38.5s73.666 13 108.999 13
c36.667 0 71.667 -4 105 -12s62.833 -20.833 88.5 -38.5s46.334 -40.167 62.001 -67.5s24.5 -60.333 26.5 -99h-68c-4 26 -13.5 48.667 -28.5 68s-33.667 35.5 -56 48.5s-46.5 22.833 -72.5 29.5s-52 10 -78 10c-27.333 0 -55.166 -3.66699 -83.499 -11
s-53.833 -16.833 -76.5 -28.5s-42.167 -25 -58.5 -40s-26.166 -30.833 -29.499 -47.5c-4 -20.667 0.333008 -37.834 13 -51.501s30.334 -24.834 53.001 -33.501s48.5 -15.834 77.5 -21.501s57.167 -10.5 84.5 -14.5c36 -5.33301 71.167 -14.166 105.5 -26.499
s63.5 -29 87.5 -50s41.5 -47.667 52.5 -80s11.5 -71.5 1.5 -117.5z" />
    <glyph glyph-name="thothongthai" unicode="&#xe18;" horiz-adv-x="713" 
d="M726 248c-9.33301 -45.333 -27.1709 -83.9951 -53.5039 -115.995s-58.166 -59 -95.499 -81s-78.5 -38 -123.5 -48s-90.833 -15 -137.5 -15c-35.333 0 -68.166 2 -98.499 6s-56.833 8.66699 -79.5 14c-26 5.33301 -49.667 12.333 -71 21l83 391l66 20l-76 -360
c14.667 -5.33301 31.667 -11 51 -17c17.333 -4 37.333 -7.66699 60 -11s48.334 -5 77.001 -5c36 0 72.333 4.16699 109 12.5s70.334 20.666 101.001 36.999s57.167 37.166 79.5 62.499s37.166 55 44.499 89s6.16602 63.333 -3.50098 88s-24.834 45.5 -45.501 62.5
s-45.167 30.667 -73.5 41s-56.833 18.166 -85.5 23.499l-108 20.5c-35.333 7 -66.5 16.167 -93.5 27.5s-47.333 27 -61 47s-17.167 45.667 -10.5 77c6.66699 30 21.5 57.333 44.5 82s50.333 45.5 82 62.5s66.167 29.833 103.5 38.5s73.666 13 108.999 13
c36.667 0 71.667 -4 105 -12s62.833 -20.833 88.5 -38.5s46.334 -40.167 62.001 -67.5s24.5 -60.333 26.5 -99h-68c-4 26 -13.5 48.667 -28.5 68s-33.667 35.5 -56 48.5s-46.5 22.833 -72.5 29.5s-52 10 -78 10c-27.333 0 -55.166 -3.66699 -83.499 -11
s-53.833 -16.833 -76.5 -28.5s-42.167 -25 -58.5 -40s-26.166 -30.833 -29.499 -47.5c-4 -20.667 0.333008 -37.834 13 -51.501s30.334 -24.834 53.001 -33.501s48.5 -15.834 77.5 -21.501s57.167 -10.5 84.5 -14.5c36 -5.33301 71.167 -14.166 105.5 -26.499
s63.5 -29 87.5 -50s41.5 -47.667 52.5 -80s11.5 -71.5 1.5 -117.5z" />
    <glyph glyph-name="nonuthai" unicode="&#xb9;" horiz-adv-x="778" 
d="M645 0l24 115.002c-17.333 -19.333 -38 -36.833 -62 -52.5s-49.667 -29.334 -77 -41.001s-55 -20.5 -83 -26.5s-55 -9 -81 -9c-41.333 0 -78.666 6.5 -111.999 19.5s-60.833 31.333 -82.5 55s-36.834 52 -45.501 85s-8.66699 69.833 0 110.5l120 563h61l-120 -563
c-14 -65.333 -2.5 -116.5 34.5 -153.5s89.167 -55.5 156.5 -55.5c32.667 0 67 5.83301 103 17.5s69.167 27.667 99.5 48s56.5 44.166 78.5 71.499s36.667 57.333 44 90l116 545h62l-174 -819h-62z" />
    <glyph glyph-name="nonuthai" unicode="&#xe19;" horiz-adv-x="778" 
d="M645 0l24 115.002c-17.333 -19.333 -38 -36.833 -62 -52.5s-49.667 -29.334 -77 -41.001s-55 -20.5 -83 -26.5s-55 -9 -81 -9c-41.333 0 -78.666 6.5 -111.999 19.5s-60.833 31.333 -82.5 55s-36.834 52 -45.501 85s-8.66699 69.833 0 110.5l120 563h61l-120 -563
c-14 -65.333 -2.5 -116.5 34.5 -153.5s89.167 -55.5 156.5 -55.5c32.667 0 67 5.83301 103 17.5s69.167 27.667 99.5 48s56.5 44.166 78.5 71.499s36.667 57.333 44 90l116 545h62l-174 -819h-62z" />
    <glyph glyph-name="bobaimaithai" unicode="&#xba;" horiz-adv-x="778" 
d="M761 256c-8.66699 -40.667 -25.5 -77.5 -50.5 -110.5s-54.667 -61.333 -89 -85s-71.833 -42 -112.5 -55s-81.667 -19.5 -123 -19.5c-40.667 0 -78.834 6.5 -114.501 19.5s-65.667 31.333 -90 55s-41.833 52 -52.5 85s-11.667 69.833 -3 110.5l120 563h61l-120 -563
c-7.33301 -32.667 -6.5 -61.667 2.5 -87s23.333 -47.166 43 -65.499s44 -32.333 73 -42s59.833 -14.5 92.5 -14.5s65.834 4.83301 99.501 14.5s64 23.667 91 42s50.333 40.166 70 65.499s33.167 54.333 40.5 87l120 563h62z" />
    <glyph glyph-name="bobaimaithai" unicode="&#xe1a;" horiz-adv-x="778" 
d="M761 256c-8.66699 -40.667 -25.5 -77.5 -50.5 -110.5s-54.667 -61.333 -89 -85s-71.833 -42 -112.5 -55s-81.667 -19.5 -123 -19.5c-40.667 0 -78.834 6.5 -114.501 19.5s-65.667 31.333 -90 55s-41.833 52 -52.5 85s-11.667 69.833 -3 110.5l120 563h61l-120 -563
c-7.33301 -32.667 -6.5 -61.667 2.5 -87s23.333 -47.166 43 -65.499s44 -32.333 73 -42s59.833 -14.5 92.5 -14.5s65.834 4.83301 99.501 14.5s64 23.667 91 42s50.333 40.166 70 65.499s33.167 54.333 40.5 87l120 563h62z" />
    <glyph glyph-name="poplathai" unicode="&#xbb;" horiz-adv-x="778" 
d="M761 256c-8.66699 -40.667 -25.5 -77.5 -50.5 -110.5s-54.667 -61.333 -89 -85s-71.833 -42 -112.5 -55s-81.667 -19.5 -123 -19.5c-40.667 0 -78.834 6.5 -114.501 19.5s-65.667 31.333 -90 55s-41.833 52 -52.5 85s-11.667 69.833 -3 110.5l120 563h61l-120 -563
c-7.33301 -32.667 -6.5 -61.667 2.5 -87s23.333 -47.166 43 -65.499s44 -32.333 73 -42s59.833 -14.5 92.5 -14.5s65.834 4.83301 99.501 14.5s64 23.667 91 42s50.333 40.166 70 65.499s33.167 54.333 40.5 87l163 768h62z" />
    <glyph glyph-name="poplathai" unicode="&#xe1b;" horiz-adv-x="778" 
d="M761 256c-8.66699 -40.667 -25.5 -77.5 -50.5 -110.5s-54.667 -61.333 -89 -85s-71.833 -42 -112.5 -55s-81.667 -19.5 -123 -19.5c-40.667 0 -78.834 6.5 -114.501 19.5s-65.667 31.333 -90 55s-41.833 52 -52.5 85s-11.667 69.833 -3 110.5l120 563h61l-120 -563
c-7.33301 -32.667 -6.5 -61.667 2.5 -87s23.333 -47.166 43 -65.499s44 -32.333 73 -42s59.833 -14.5 92.5 -14.5s65.834 4.83301 99.501 14.5s64 23.667 91 42s50.333 40.166 70 65.499s33.167 54.333 40.5 87l163 768h62z" />
    <glyph glyph-name="phophungthai" unicode="&#xbc;" horiz-adv-x="983" 
d="M770 0h-53l-76 717l-375 -717h-51l-41 819h201l-13 -61h-123l26 -656l372 717h55l70 -717l334 717h59z" />
    <glyph glyph-name="phophungthai" unicode="&#xe1c;" horiz-adv-x="983" 
d="M770 0h-53l-76 717l-375 -717h-51l-41 819h201l-13 -61h-123l26 -656l372 717h55l70 -717l334 717h59z" />
    <glyph glyph-name="fofathai" unicode="&#xbd;" horiz-adv-x="983" 
d="M770 0h-53l-76 717l-375 -717h-51l-41 819h201l-13 -61h-123l26 -656l372 717h55l70 -717l430 922h59z" />
    <glyph glyph-name="fofathai" unicode="&#xe1d;" horiz-adv-x="983" 
d="M770 0h-53l-76 717l-375 -717h-51l-41 819h201l-13 -61h-123l26 -656l372 717h55l70 -717l430 922h59z" />
    <glyph glyph-name="phophanthai" unicode="&#xbe;" horiz-adv-x="983" 
d="M770 0h-53l-76 717l-375 -717h-51l-41 819h59l32 -717l372 717h55l70 -717l334 717h59z" />
    <glyph glyph-name="phophanthai" unicode="&#xe1e;" horiz-adv-x="983" 
d="M770 0h-53l-76 717l-375 -717h-51l-41 819h59l32 -717l372 717h55l70 -717l334 717h59z" />
    <glyph glyph-name="fofanthai" unicode="&#xbf;" horiz-adv-x="983" 
d="M770 0h-53l-76 717l-375 -717h-51l-41 819h59l32 -717l372 717h55l70 -717l430 922h59z" />
    <glyph glyph-name="fofanthai" unicode="&#xe1f;" horiz-adv-x="983" 
d="M770 0h-53l-76 717l-375 -717h-51l-41 819h59l32 -717l372 717h55l70 -717l430 922h59z" />
    <glyph glyph-name="phosamphaothai" unicode="&#xc0;" horiz-adv-x="788" 
d="M655 0l115.999 549c16 73.333 3.16699 128.833 -38.5 166.5s-98.167 56.5 -169.5 56.5c-113.333 0 -207.666 -41 -282.999 -123l-137 -649h-143l12 61h82l129 607c99.333 110.667 217 166 353 166c42.667 0 82 -5.5 118 -16.5s66.167 -27.833 90.5 -50.5
s41.5 -50.667 51.5 -84s10.333 -72 1 -116l-120 -567h-62z" />
    <glyph glyph-name="phosamphaothai" unicode="&#xe20;" horiz-adv-x="788" 
d="M655 0l115.999 549c16 73.333 3.16699 128.833 -38.5 166.5s-98.167 56.5 -169.5 56.5c-113.333 0 -207.666 -41 -282.999 -123l-137 -649h-143l12 61h82l129 607c99.333 110.667 217 166 353 166c42.667 0 82 -5.5 118 -16.5s66.167 -27.833 90.5 -50.5
s41.5 -50.667 51.5 -84s10.333 -72 1 -116l-120 -567h-62z" />
    <glyph glyph-name="momathai" unicode="&#xc1;" horiz-adv-x="778" 
d="M761 256c-8.66699 -40.667 -24.5029 -77.502 -47.5029 -110.502s-50.167 -61.333 -81.5 -85s-66.5 -42 -105.5 -55s-78.833 -19.5 -119.5 -19.5c-26 0 -52.167 3 -78.5 9s-50.5 14.833 -72.5 26.5s-41.5 25.334 -58.5 41.001s-30.5 33.167 -40.5 52.5l-24 -115h-61
l174 819h61l-116 -545c-7.33301 -32.667 -5.66602 -62.667 5.00098 -90s26.834 -51.166 48.501 -71.499s47.834 -36.333 78.501 -48s62.667 -17.5 96 -17.5c66.667 0 126.5 18.5 179.5 55.5s86.5 88.167 100.5 153.5l120 563h62z" />
    <glyph glyph-name="momathai" unicode="&#xe21;" horiz-adv-x="778" 
d="M761 256c-8.66699 -40.667 -24.5029 -77.502 -47.5029 -110.502s-50.167 -61.333 -81.5 -85s-66.5 -42 -105.5 -55s-78.833 -19.5 -119.5 -19.5c-26 0 -52.167 3 -78.5 9s-50.5 14.833 -72.5 26.5s-41.5 25.334 -58.5 41.001s-30.5 33.167 -40.5 52.5l-24 -115h-61
l174 819h61l-116 -545c-7.33301 -32.667 -5.66602 -62.667 5.00098 -90s26.834 -51.166 48.501 -71.499s47.834 -36.333 78.501 -48s62.667 -17.5 96 -17.5c66.667 0 126.5 18.5 179.5 55.5s86.5 88.167 100.5 153.5l120 563h62z" />
    <glyph glyph-name="yoyakthai" unicode="&#xc2;" horiz-adv-x="776" 
d="M729 113c-24.667 -23.333 -53.9951 -43.999 -87.9951 -61.999c-28.667 -14.667 -64 -28.834 -106 -42.501s-91 -20.5 -147 -20.5c-114.667 0 -196.334 25.5 -245.001 76.5s-65 114.167 -49 189.5c6.66699 31.333 19 60.333 37 87s38 49.834 60 69.501s44.667 36 68 49
s44.333 22.167 63 27.5c-40 3.33301 -73.5 18.833 -100.5 46.5s-35.5 65.5 -25.5 113.5c5.33301 26 16.666 50.333 33.999 73s38 42.167 62 58.5s51 28.833 81 37.5s60.667 13 92 13c26 0 46.833 -1.66699 62.5 -5s27.834 -6.33301 36.501 -9l-13 -61
c-8.66699 2.66699 -20.834 5.66699 -36.501 9s-35.834 5 -60.501 5c-44 0 -84.833 -10.167 -122.5 -30.5s-60.834 -50.5 -69.501 -90.5c-4.66699 -22 -2.83398 -41.167 5.49902 -57.5s20.5 -29.5 36.5 -39.5s34.833 -17.5 56.5 -22.5s43.167 -7.5 64.5 -7.5h76l-13 -61h-57
c-26 0 -53.667 -4.83301 -83 -14.5s-56.833 -23.334 -82.5 -41.001s-48 -38.834 -67 -63.501s-31.833 -52.667 -38.5 -84c-13.333 -61.333 2 -111.166 46 -149.499s109 -57.5 195 -57.5c41.333 0 78.833 5.16699 112.5 15.5s62.5 20.833 86.5 31.5
c26.667 14 50.667 29 72 45l145 678h62z" />
    <glyph glyph-name="yoyakthai" unicode="&#xe22;" horiz-adv-x="776" 
d="M729 113c-24.667 -23.333 -53.9951 -43.999 -87.9951 -61.999c-28.667 -14.667 -64 -28.834 -106 -42.501s-91 -20.5 -147 -20.5c-114.667 0 -196.334 25.5 -245.001 76.5s-65 114.167 -49 189.5c6.66699 31.333 19 60.333 37 87s38 49.834 60 69.501s44.667 36 68 49
s44.333 22.167 63 27.5c-40 3.33301 -73.5 18.833 -100.5 46.5s-35.5 65.5 -25.5 113.5c5.33301 26 16.666 50.333 33.999 73s38 42.167 62 58.5s51 28.833 81 37.5s60.667 13 92 13c26 0 46.833 -1.66699 62.5 -5s27.834 -6.33301 36.501 -9l-13 -61
c-8.66699 2.66699 -20.834 5.66699 -36.501 9s-35.834 5 -60.501 5c-44 0 -84.833 -10.167 -122.5 -30.5s-60.834 -50.5 -69.501 -90.5c-4.66699 -22 -2.83398 -41.167 5.49902 -57.5s20.5 -29.5 36.5 -39.5s34.833 -17.5 56.5 -22.5s43.167 -7.5 64.5 -7.5h76l-13 -61h-57
c-26 0 -53.667 -4.83301 -83 -14.5s-56.833 -23.334 -82.5 -41.001s-48 -38.834 -67 -63.501s-31.833 -52.667 -38.5 -84c-13.333 -61.333 2 -111.166 46 -149.499s109 -57.5 195 -57.5c41.333 0 78.833 5.16699 112.5 15.5s62.5 20.833 86.5 31.5
c26.667 14 50.667 29 72 45l145 678h62z" />
    <glyph glyph-name="roruathai" unicode="&#xc3;" horiz-adv-x="725" 
d="M737 250c-9.33301 -44 -26.3291 -82.3311 -50.9961 -114.998s-54.5 -60.334 -89.5 -83.001s-73.167 -39.667 -114.5 -51s-82.666 -17 -123.999 -17c-40.667 0 -79.334 5.66699 -116.001 17s-67.5 28.333 -92.5 51s-42.833 50.334 -53.5 83.001s-11.334 71 -2.00098 115
h61c-7.33301 -34 -6.66602 -64 2.00098 -90s23.5 -47.5 44.5 -64.5s46.333 -29.667 76 -38s60.834 -12.5 93.501 -12.5c33.333 0 66.166 4.16699 98.499 12.5s62.666 21 90.999 38s52.833 38.5 73.5 64.5s34.667 56 42 90c6 30 4 54.833 -6 74.5s-25.667 36.334 -47 50.001
s-45.666 24.667 -72.999 33s-56.333 15.166 -87 20.499c-35.333 6.66699 -70.833 14.167 -106.5 22.5s-66.834 19 -93.501 32s-47.334 30 -62.001 51s-18.667 47.833 -12 80.5c7.33301 33.333 22 63.166 44 89.499s48.5 48.833 79.5 67.5s65.5 33 103.5 43s75.333 15 112 15
c37.333 0 73 -4.33301 107 -13s63.5 -21.834 88.5 -39.501s45 -39.834 60 -66.501s21.833 -58.667 20.5 -96h-66c-2 27.333 -9.83301 50.666 -23.5 69.999s-30.834 35.166 -51.501 47.499s-43.667 21.5 -69 27.5s-51.666 9 -78.999 9c-26 0 -53.5 -3.33301 -82.5 -10
s-55.5 -16.167 -79.5 -28.5s-44.833 -27.5 -62.5 -45.5s-28.834 -38.333 -33.501 -61c-5.33301 -23.333 -1.66602 -42.166 11.001 -56.499s30.667 -26.333 54 -36s49.666 -17.5 78.999 -23.5l87 -18c36.667 -6.66699 71.667 -15.5 105 -26.5s62.166 -25.667 86.499 -44
s42 -41.166 53 -68.499s12.5 -60.666 4.5 -99.999z" />
    <glyph glyph-name="roruathai" unicode="&#xe23;" horiz-adv-x="725" 
d="M737 250c-9.33301 -44 -26.3291 -82.3311 -50.9961 -114.998s-54.5 -60.334 -89.5 -83.001s-73.167 -39.667 -114.5 -51s-82.666 -17 -123.999 -17c-40.667 0 -79.334 5.66699 -116.001 17s-67.5 28.333 -92.5 51s-42.833 50.334 -53.5 83.001s-11.334 71 -2.00098 115
h61c-7.33301 -34 -6.66602 -64 2.00098 -90s23.5 -47.5 44.5 -64.5s46.333 -29.667 76 -38s60.834 -12.5 93.501 -12.5c33.333 0 66.166 4.16699 98.499 12.5s62.666 21 90.999 38s52.833 38.5 73.5 64.5s34.667 56 42 90c6 30 4 54.833 -6 74.5s-25.667 36.334 -47 50.001
s-45.666 24.667 -72.999 33s-56.333 15.166 -87 20.499c-35.333 6.66699 -70.833 14.167 -106.5 22.5s-66.834 19 -93.501 32s-47.334 30 -62.001 51s-18.667 47.833 -12 80.5c7.33301 33.333 22 63.166 44 89.499s48.5 48.833 79.5 67.5s65.5 33 103.5 43s75.333 15 112 15
c37.333 0 73 -4.33301 107 -13s63.5 -21.834 88.5 -39.501s45 -39.834 60 -66.501s21.833 -58.667 20.5 -96h-66c-2 27.333 -9.83301 50.666 -23.5 69.999s-30.834 35.166 -51.501 47.499s-43.667 21.5 -69 27.5s-51.666 9 -78.999 9c-26 0 -53.5 -3.33301 -82.5 -10
s-55.5 -16.167 -79.5 -28.5s-44.833 -27.5 -62.5 -45.5s-28.834 -38.333 -33.501 -61c-5.33301 -23.333 -1.66602 -42.166 11.001 -56.499s30.667 -26.333 54 -36s49.666 -17.5 78.999 -23.5l87 -18c36.667 -6.66699 71.667 -15.5 105 -26.5s62.166 -25.667 86.499 -44
s42 -41.166 53 -68.499s12.5 -60.666 4.5 -99.999z" />
    <glyph glyph-name="ruthai" unicode="&#xc4;" horiz-adv-x="778" 
d="M579 -307l181.998 856c16 73.333 3.16699 128.833 -38.5 166.5s-98.167 56.5 -169.5 56.5c-113.333 0 -207.666 -41 -282.999 -123l-125 -588h123l-12 -61h-184l141 668c98.667 110.667 216.334 166 353.001 166c42.667 0 81.834 -5.5 117.501 -16.5
s65.667 -27.833 90 -50.5s41.666 -50.667 51.999 -84s10.833 -72 1.5 -116l-186 -874h-62z" />
    <glyph glyph-name="ruthai" unicode="&#xe24;" horiz-adv-x="778" 
d="M579 -307l181.998 856c16 73.333 3.16699 128.833 -38.5 166.5s-98.167 56.5 -169.5 56.5c-113.333 0 -207.666 -41 -282.999 -123l-125 -588h123l-12 -61h-184l141 668c98.667 110.667 216.334 166 353.001 166c42.667 0 81.834 -5.5 117.501 -16.5
s65.667 -27.833 90 -50.5s41.666 -50.667 51.999 -84s10.833 -72 1.5 -116l-186 -874h-62z" />
    <glyph glyph-name="lolingthai" unicode="&#xc5;" horiz-adv-x="797" 
d="M664 0l70.001 332c-12 46 -40.333 84.833 -85 116.5s-99.667 47.5 -165 47.5c-44 0 -84.5 -6.83301 -121.5 -20.5s-70 -32.167 -99 -55.5s-52.833 -50.333 -71.5 -81s-31.667 -63 -39 -97c-5.33301 -24.667 -6.33301 -48.667 -3 -72s10.333 -43.5 21 -60.5
s24.667 -31 42 -42s38.333 -16.5 63 -16.5c22 0 41.333 2 58 6s34.667 11.667 54 23l26 -49c-26.667 -15.333 -51 -26 -73 -32s-48 -9 -78 -9c-34 0 -63.167 6.83301 -87.5 20.5s-43.833 32.334 -58.5 56.001s-24.167 50.667 -28.5 81s-3.16602 61.833 3.50098 94.5
c8.66699 40.667 24.5 79.834 47.5 117.501s52 71.167 87 100.5s75.167 52.833 120.5 70.5s95.333 26.5 150 26.5c69.333 0 124 -12 164 -36s72 -51.667 96 -83l26 125c7.33301 32.667 6 61.667 -4 87s-25.333 47.166 -46 65.499s-45.5 32.333 -74.5 42
s-60.167 14.5 -93.5 14.5c-57.333 0 -113.333 -14.667 -168 -44s-95.334 -67.333 -122.001 -114h-65c15.333 33.333 36.666 63.166 63.999 89.499s57.833 49.5 91.5 69.5s69.334 35.167 107.001 45.5s75.167 15.5 112.5 15.5c40.667 0 78.667 -6.5 114 -19.5
s65.166 -31.5 89.499 -55.5s41.833 -52.333 52.5 -85s11.667 -69.667 3 -111l-119 -563h-61z" />
    <glyph glyph-name="lolingthai" unicode="&#xe25;" horiz-adv-x="797" 
d="M664 0l70.001 332c-12 46 -40.333 84.833 -85 116.5s-99.667 47.5 -165 47.5c-44 0 -84.5 -6.83301 -121.5 -20.5s-70 -32.167 -99 -55.5s-52.833 -50.333 -71.5 -81s-31.667 -63 -39 -97c-5.33301 -24.667 -6.33301 -48.667 -3 -72s10.333 -43.5 21 -60.5
s24.667 -31 42 -42s38.333 -16.5 63 -16.5c22 0 41.333 2 58 6s34.667 11.667 54 23l26 -49c-26.667 -15.333 -51 -26 -73 -32s-48 -9 -78 -9c-34 0 -63.167 6.83301 -87.5 20.5s-43.833 32.334 -58.5 56.001s-24.167 50.667 -28.5 81s-3.16602 61.833 3.50098 94.5
c8.66699 40.667 24.5 79.834 47.5 117.501s52 71.167 87 100.5s75.167 52.833 120.5 70.5s95.333 26.5 150 26.5c69.333 0 124 -12 164 -36s72 -51.667 96 -83l26 125c7.33301 32.667 6 61.667 -4 87s-25.333 47.166 -46 65.499s-45.5 32.333 -74.5 42
s-60.167 14.5 -93.5 14.5c-57.333 0 -113.333 -14.667 -168 -44s-95.334 -67.333 -122.001 -114h-65c15.333 33.333 36.666 63.166 63.999 89.499s57.833 49.5 91.5 69.5s69.334 35.167 107.001 45.5s75.167 15.5 112.5 15.5c40.667 0 78.667 -6.5 114 -19.5
s65.166 -31.5 89.499 -55.5s41.833 -52.333 52.5 -85s11.667 -69.667 3 -111l-119 -563h-61z" />
    <glyph glyph-name="luthai" unicode="&#xc6;" horiz-adv-x="788" 
d="M589 -307l181.999 856c16 73.333 3.16699 128.833 -38.5 166.5s-98.167 56.5 -169.5 56.5c-113.333 0 -207.666 -41 -282.999 -123l-137 -649h-143l12 61h82l129 607c99.333 110.667 217 166 353 166c42.667 0 82 -5.5 118 -16.5s66.167 -27.833 90.5 -50.5
s41.5 -50.667 51.5 -84s10.333 -72 1 -116l-186 -874h-62z" />
    <glyph glyph-name="luthai" unicode="&#xe26;" horiz-adv-x="788" 
d="M589 -307l181.999 856c16 73.333 3.16699 128.833 -38.5 166.5s-98.167 56.5 -169.5 56.5c-113.333 0 -207.666 -41 -282.999 -123l-137 -649h-143l12 61h82l129 607c99.333 110.667 217 166 353 166c42.667 0 82 -5.5 118 -16.5s66.167 -27.833 90.5 -50.5
s41.5 -50.667 51.5 -84s10.333 -72 1 -116l-186 -874h-62z" />
    <glyph glyph-name="wowaenthai" unicode="&#xc7;" horiz-adv-x="721" 
d="M767 410c-12 -56 -30.667 -109.668 -56 -161.001s-56.5 -96.5 -93.5 -135.5s-78.667 -70 -125 -93s-97.5 -34.5 -153.5 -34.5c-34 0 -66.333 5.33301 -97 16s-57.5 26 -80.5 46s-41.833 44 -56.5 72s-22.334 59 -23.001 93h63c8.66699 -50.667 31.834 -91 69.501 -121
s83.167 -45 136.5 -45c46.667 0 89.334 10.333 128.001 31s73.167 48 103.5 82s55.833 72.5 76.5 115.5s36 87.833 46 134.5c9.33301 46 13 90.833 11 134.5s-11 82.334 -27 116.001s-38.833 60.667 -68.5 81s-67.834 30.5 -114.501 30.5c-52 0 -103.833 -15 -155.5 -45
s-91.834 -70.333 -120.501 -121h-65c15.333 34 36.333 65 63 93s55.834 52 87.501 72s65 35.5 100 46.5s69.5 16.5 103.5 16.5c56 0 102.333 -11.667 139 -35s65.167 -54.5 85.5 -93.5s32.333 -84 36 -135s-0.5 -104.5 -12.5 -160.5z" />
    <glyph glyph-name="wowaenthai" unicode="&#xe27;" horiz-adv-x="721" 
d="M767 410c-12 -56 -30.667 -109.668 -56 -161.001s-56.5 -96.5 -93.5 -135.5s-78.667 -70 -125 -93s-97.5 -34.5 -153.5 -34.5c-34 0 -66.333 5.33301 -97 16s-57.5 26 -80.5 46s-41.833 44 -56.5 72s-22.334 59 -23.001 93h63c8.66699 -50.667 31.834 -91 69.501 -121
s83.167 -45 136.5 -45c46.667 0 89.334 10.333 128.001 31s73.167 48 103.5 82s55.833 72.5 76.5 115.5s36 87.833 46 134.5c9.33301 46 13 90.833 11 134.5s-11 82.334 -27 116.001s-38.833 60.667 -68.5 81s-67.834 30.5 -114.501 30.5c-52 0 -103.833 -15 -155.5 -45
s-91.834 -70.333 -120.501 -121h-65c15.333 34 36.333 65 63 93s55.834 52 87.501 72s65 35.5 100 46.5s69.5 16.5 103.5 16.5c56 0 102.333 -11.667 139 -35s65.167 -54.5 85.5 -93.5s32.333 -84 36 -135s-0.5 -104.5 -12.5 -160.5z" />
    <glyph glyph-name="sosalathai" unicode="&#xc8;" horiz-adv-x="778" 
d="M645 0l119 563c7.33301 32.667 6.5 61.667 -2.5 87s-23.333 47.166 -43 65.499s-44 32.333 -73 42s-59.833 14.5 -92.5 14.5s-65.834 -4.83301 -99.501 -14.5s-64 -23.667 -91 -42s-50.333 -40.166 -70 -65.499s-33.167 -54.333 -40.5 -87l-25 -117h258l-13 -61h-258
l-81 -385h-61l119 563c8.66699 41.333 25.334 78.333 50.001 111s54.167 61 88.5 85s72.166 42.5 113.499 55.5s82.333 19.5 123 19.5c54.667 0 104 -11.667 148 -35l87 82l42 -37l-80 -76c26 -23.333 45.333 -52.333 58 -87s14.334 -74 5.00098 -118l-119 -563h-62z" />
    <glyph glyph-name="sosalathai" unicode="&#xe28;" horiz-adv-x="778" 
d="M645 0l119 563c7.33301 32.667 6.5 61.667 -2.5 87s-23.333 47.166 -43 65.499s-44 32.333 -73 42s-59.833 14.5 -92.5 14.5s-65.834 -4.83301 -99.501 -14.5s-64 -23.667 -91 -42s-50.333 -40.166 -70 -65.499s-33.167 -54.333 -40.5 -87l-25 -117h258l-13 -61h-258
l-81 -385h-61l119 563c8.66699 41.333 25.334 78.333 50.001 111s54.167 61 88.5 85s72.166 42.5 113.499 55.5s82.333 19.5 123 19.5c54.667 0 104 -11.667 148 -35l87 82l42 -37l-80 -76c26 -23.333 45.333 -52.333 58 -87s14.334 -74 5.00098 -118l-119 -563h-62z" />
    <glyph glyph-name="sorusithai" unicode="&#xc9;" horiz-adv-x="788" 
d="M792 403l-31 -147c-8.66699 -40.667 -25.5 -77.5 -50.5 -110.5s-54.667 -61.333 -89 -85s-71.833 -42 -112.5 -55s-81.667 -19.5 -123 -19.5c-40.667 0 -78.834 6.5 -114.501 19.5s-65.667 31.333 -90 55s-41.833 52 -52.5 85s-11.667 69.833 -3 110.5l120 563h61
l-120 -563c-7.33301 -32.667 -6.5 -61.667 2.5 -87s23.333 -47.166 43 -65.499s44 -32.333 73 -42s59.833 -14.5 92.5 -14.5s65.834 4.83301 99.501 14.5s64 23.667 91 42s50.333 40.166 70 65.499s33.167 54.333 40.5 87l31 147h-237l20 93l44 -31h186l76 354h62l-76 -354
h81l-13 -62h-81z" />
    <glyph glyph-name="sorusithai" unicode="&#xe29;" horiz-adv-x="788" 
d="M792 403l-31 -147c-8.66699 -40.667 -25.5 -77.5 -50.5 -110.5s-54.667 -61.333 -89 -85s-71.833 -42 -112.5 -55s-81.667 -19.5 -123 -19.5c-40.667 0 -78.834 6.5 -114.501 19.5s-65.667 31.333 -90 55s-41.833 52 -52.5 85s-11.667 69.833 -3 110.5l120 563h61
l-120 -563c-7.33301 -32.667 -6.5 -61.667 2.5 -87s23.333 -47.166 43 -65.499s44 -32.333 73 -42s59.833 -14.5 92.5 -14.5s65.834 4.83301 99.501 14.5s64 23.667 91 42s50.333 40.166 70 65.499s33.167 54.333 40.5 87l31 147h-237l20 93l44 -31h186l76 354h62l-76 -354
h81l-13 -62h-81z" />
    <glyph glyph-name="sosuathai" unicode="&#xca;" horiz-adv-x="797" 
d="M664 0l70 332c-12 46 -40.333 84.833 -85 116.5s-99.667 47.5 -165 47.5c-44 0 -84.5 -6.83301 -121.5 -20.5s-70 -32.167 -99 -55.5s-52.833 -50.333 -71.5 -81s-31.667 -63 -39 -97c-5.33301 -24.667 -6.33301 -48.667 -3 -72s10.333 -43.5 21 -60.5s24.667 -31 42 -42
s38.333 -16.5 63 -16.5c22 0 41.333 2 58 6s34.667 11.667 54 23l26 -49c-26.667 -15.333 -51 -26 -73 -32s-48 -9 -78 -9c-34 0 -63.167 6.83301 -87.5 20.5s-43.833 32.334 -58.5 56.001s-24.167 50.667 -28.5 81s-3.16602 61.833 3.50098 94.5
c8.66699 40.667 24.5 79.834 47.5 117.501s52 71.167 87 100.5s75.167 52.833 120.5 70.5s95.333 26.5 150 26.5c69.333 0 124 -12 164 -36s72 -51.667 96 -83l26 125c7.33301 32.667 6 61.667 -4 87s-25.333 47.166 -46 65.499s-45.5 32.333 -74.5 42
s-60.167 14.5 -93.5 14.5c-57.333 0 -113.333 -14.667 -168 -44s-95.334 -67.333 -122.001 -114h-65c15.333 33.333 36.666 63.166 63.999 89.499s57.833 49.5 91.5 69.5s69.334 35.167 107.001 45.5s75.167 15.5 112.5 15.5c54 0 103.667 -11.667 149 -35l86 82l41 -37
l-80 -76c26.667 -23.333 46.167 -52.333 58.5 -87s13.833 -74 4.5 -118l-119 -563h-61z" />
    <glyph glyph-name="sosuathai" unicode="&#xe2a;" horiz-adv-x="797" 
d="M664 0l70 332c-12 46 -40.333 84.833 -85 116.5s-99.667 47.5 -165 47.5c-44 0 -84.5 -6.83301 -121.5 -20.5s-70 -32.167 -99 -55.5s-52.833 -50.333 -71.5 -81s-31.667 -63 -39 -97c-5.33301 -24.667 -6.33301 -48.667 -3 -72s10.333 -43.5 21 -60.5s24.667 -31 42 -42
s38.333 -16.5 63 -16.5c22 0 41.333 2 58 6s34.667 11.667 54 23l26 -49c-26.667 -15.333 -51 -26 -73 -32s-48 -9 -78 -9c-34 0 -63.167 6.83301 -87.5 20.5s-43.833 32.334 -58.5 56.001s-24.167 50.667 -28.5 81s-3.16602 61.833 3.50098 94.5
c8.66699 40.667 24.5 79.834 47.5 117.501s52 71.167 87 100.5s75.167 52.833 120.5 70.5s95.333 26.5 150 26.5c69.333 0 124 -12 164 -36s72 -51.667 96 -83l26 125c7.33301 32.667 6 61.667 -4 87s-25.333 47.166 -46 65.499s-45.5 32.333 -74.5 42
s-60.167 14.5 -93.5 14.5c-57.333 0 -113.333 -14.667 -168 -44s-95.334 -67.333 -122.001 -114h-65c15.333 33.333 36.666 63.166 63.999 89.499s57.833 49.5 91.5 69.5s69.334 35.167 107.001 45.5s75.167 15.5 112.5 15.5c54 0 103.667 -11.667 149 -35l86 82l41 -37
l-80 -76c26.667 -23.333 46.167 -52.333 58.5 -87s13.833 -74 4.5 -118l-119 -563h-61z" />
    <glyph glyph-name="hohipthai" unicode="&#xcb;" horiz-adv-x="788" 
d="M666 0l85.002 403.003c7.33301 33.333 5.5 63.166 -5.5 89.499s-27.833 48.166 -50.5 65.499s-49.834 29.666 -81.501 36.999s-64.834 8.33301 -99.501 3l-288 -158l-93 -440h-61l174 819h61l-66 -309l574 309l40 -33l-244 -135c72 -8 127.333 -33.167 166 -75.5
s50.667 -98.833 36 -169.5l-86 -406h-61z" />
    <glyph glyph-name="hohipthai" unicode="&#xe2b;" horiz-adv-x="788" 
d="M666 0l85.002 403.003c7.33301 33.333 5.5 63.166 -5.5 89.499s-27.833 48.166 -50.5 65.499s-49.834 29.666 -81.501 36.999s-64.834 8.33301 -99.501 3l-288 -158l-93 -440h-61l174 819h61l-66 -309l574 309l40 -33l-244 -135c72 -8 127.333 -33.167 166 -75.5
s50.667 -98.833 36 -169.5l-86 -406h-61z" />
    <glyph glyph-name="lochulathai" unicode="&#xcc;" horiz-adv-x="983" 
d="M1203 909c-24 -44.667 -50.334 -75.1699 -79.001 -91.5029s-59.667 -28.833 -93 -37.5c26 -18.667 41.333 -41.667 46 -69s-2.66602 -61.666 -21.999 -102.999l-285 -608h-53l-76 717l-375 -717h-51l-41 819h59l32 -717l372 717h55l70 -717l234 502
c13.333 27.333 20 51.333 20 72s-4.5 37.834 -13.5 51.501s-21.833 23.834 -38.5 30.501s-36 10 -58 10h-71l11 51h82c60 0 106.833 7.5 140.5 22.5s60.167 42.5 79.5 82.5l50 100h61z" />
    <glyph glyph-name="lochulathai" unicode="&#xe2c;" horiz-adv-x="983" 
d="M1203 909c-24 -44.667 -50.334 -75.1699 -79.001 -91.5029s-59.667 -28.833 -93 -37.5c26 -18.667 41.333 -41.667 46 -69s-2.66602 -61.666 -21.999 -102.999l-285 -608h-53l-76 717l-375 -717h-51l-41 819h59l32 -717l372 717h55l70 -717l234 502
c13.333 27.333 20 51.333 20 72s-4.5 37.834 -13.5 51.501s-21.833 23.834 -38.5 30.501s-36 10 -58 10h-71l11 51h82c60 0 106.833 7.5 140.5 22.5s60.167 42.5 79.5 82.5l50 100h61z" />
    <glyph glyph-name="oangthai" unicode="&#xcd;" horiz-adv-x="852" 
d="M898 410c-13.333 -62 -34.6699 -118.832 -64.0029 -170.499s-64.833 -96.334 -106.5 -134.001s-88.5 -67 -140.5 -88s-106.667 -31.5 -164 -31.5s-107.666 10.5 -150.999 31.5s-77.833 50.333 -103.5 88s-42.167 82.334 -49.5 134.001s-4.33301 108.5 9 170.5
c2.66699 14.667 6 27.834 10 39.501l11 31.5h262l-13 -61h-207l-2 -10c-11.333 -52 -13.666 -100.167 -6.99902 -144.5s20.834 -82.666 42.501 -114.999s50.167 -57.666 85.5 -75.999s77 -27.5 125 -27.5s93.667 9.16699 137 27.5s82.833 43.666 118.5 75.999
s66.167 70.666 91.5 114.999s43.666 92.5 54.999 144.5c10.667 51.333 13.167 99.333 7.5 144s-19.5 83 -41.5 115s-50.667 57.167 -86 75.5s-77.666 27.5 -126.999 27.5c-69.333 0 -133.166 -17.667 -191.499 -53s-106.5 -84 -144.5 -146h-65
c42.667 79.333 100.167 142.666 172.5 189.999s152.833 71 241.5 71c57.333 0 107.5 -10.667 150.5 -32s77.333 -50.833 103 -88.5s42.167 -82.334 49.5 -134.001s4.66602 -108.167 -8.00098 -169.5z" />
    <glyph glyph-name="oangthai" unicode="&#xe2d;" horiz-adv-x="852" 
d="M898 410c-13.333 -62 -34.6699 -118.832 -64.0029 -170.499s-64.833 -96.334 -106.5 -134.001s-88.5 -67 -140.5 -88s-106.667 -31.5 -164 -31.5s-107.666 10.5 -150.999 31.5s-77.833 50.333 -103.5 88s-42.167 82.334 -49.5 134.001s-4.33301 108.5 9 170.5
c2.66699 14.667 6 27.834 10 39.501l11 31.5h262l-13 -61h-207l-2 -10c-11.333 -52 -13.666 -100.167 -6.99902 -144.5s20.834 -82.666 42.501 -114.999s50.167 -57.666 85.5 -75.999s77 -27.5 125 -27.5s93.667 9.16699 137 27.5s82.833 43.666 118.5 75.999
s66.167 70.666 91.5 114.999s43.666 92.5 54.999 144.5c10.667 51.333 13.167 99.333 7.5 144s-19.5 83 -41.5 115s-50.667 57.167 -86 75.5s-77.666 27.5 -126.999 27.5c-69.333 0 -133.166 -17.667 -191.499 -53s-106.5 -84 -144.5 -146h-65
c42.667 79.333 100.167 142.666 172.5 189.999s152.833 71 241.5 71c57.333 0 107.5 -10.667 150.5 -32s77.333 -50.833 103 -88.5s42.167 -82.334 49.5 -134.001s4.66602 -108.167 -8.00098 -169.5z" />
    <glyph glyph-name="honokhukthai" unicode="&#xce;" horiz-adv-x="852" 
d="M898 410c-13.333 -62 -34.6699 -118.835 -64.0029 -170.502s-64.833 -96.334 -106.5 -134.001s-88.5 -67 -140.5 -88s-106.667 -31.5 -164 -31.5s-107.666 10.5 -150.999 31.5s-77.833 50.333 -103.5 88s-42.167 82.334 -49.5 134.001s-4.33301 108.5 9 170.5
c2 10.667 5.16699 22.834 9.5 36.501s8.16602 25.167 11.499 34.5h262l-13 -61h-207l-2 -10c-11.333 -52 -13.666 -100.167 -6.99902 -144.5s20.834 -82.666 42.501 -114.999s50.167 -57.666 85.5 -75.999s77 -27.5 125 -27.5s93.667 9.16699 137 27.5
s82.833 43.666 118.5 75.999s66.167 70.666 91.5 114.999s43.666 92.5 54.999 144.5c10.667 51.333 13.167 99.333 7.5 144s-19.5 83 -41.5 115s-50.667 57.167 -86 75.5s-77.666 27.5 -126.999 27.5c-69.333 0 -133.166 -17.667 -191.499 -53s-106.5 -84 -144.5 -146h-65
c42.667 79.333 100.167 142.666 172.5 189.999s152.833 71 241.5 71c60 0 114.333 -13 163 -39l89 86l38 -33l-84 -82c44.667 -35.333 74.667 -84.166 90 -146.499s15 -132.166 -1 -209.499z" />
    <glyph glyph-name="honokhukthai" unicode="&#xe2e;" horiz-adv-x="852" 
d="M898 410c-13.333 -62 -34.6699 -118.835 -64.0029 -170.502s-64.833 -96.334 -106.5 -134.001s-88.5 -67 -140.5 -88s-106.667 -31.5 -164 -31.5s-107.666 10.5 -150.999 31.5s-77.833 50.333 -103.5 88s-42.167 82.334 -49.5 134.001s-4.33301 108.5 9 170.5
c2 10.667 5.16699 22.834 9.5 36.501s8.16602 25.167 11.499 34.5h262l-13 -61h-207l-2 -10c-11.333 -52 -13.666 -100.167 -6.99902 -144.5s20.834 -82.666 42.501 -114.999s50.167 -57.666 85.5 -75.999s77 -27.5 125 -27.5s93.667 9.16699 137 27.5
s82.833 43.666 118.5 75.999s66.167 70.666 91.5 114.999s43.666 92.5 54.999 144.5c10.667 51.333 13.167 99.333 7.5 144s-19.5 83 -41.5 115s-50.667 57.167 -86 75.5s-77.666 27.5 -126.999 27.5c-69.333 0 -133.166 -17.667 -191.499 -53s-106.5 -84 -144.5 -146h-65
c42.667 79.333 100.167 142.666 172.5 189.999s152.833 71 241.5 71c60 0 114.333 -13 163 -39l89 86l38 -33l-84 -82c44.667 -35.333 74.667 -84.166 90 -146.499s15 -132.166 -1 -209.499z" />
    <glyph glyph-name="paiyannoithai" unicode="&#xcf;" horiz-adv-x="770" 
d="M637 0l127.002 597.998l-38.5 -30.5c-19 -15 -43.667 -29.667 -74 -44s-66.5 -27.333 -108.5 -39s-89.667 -17.5 -143 -17.5c-83.333 0 -143.666 18 -180.999 54s-50.666 79.333 -39.999 130c5.33301 26 16.166 50 32.499 72s36.333 40.833 60 56.5
s50.167 27.834 79.5 36.501s59.666 13 90.999 13c26 0 46.833 -1.66699 62.5 -5s28.167 -6.33301 37.5 -9l-13 -61c-9.33301 2.66699 -21.833 6 -37.5 10s-35.834 6 -60.501 6c-43.333 0 -83.833 -9.83301 -121.5 -29.5s-60.834 -49.5 -69.501 -89.5
c-4.66699 -20 -3.16699 -38 4.5 -54s19.5 -29.333 35.5 -40s35.667 -19.167 59 -25.5s48 -9.5 74 -9.5c53.333 0 101.333 6.5 144 19.5s79.167 28.333 109.5 46s55.333 35.834 75 54.501s33.167 32.667 40.5 42l29 135h61l-174 -819h-61z" />
    <glyph glyph-name="paiyannoithai" unicode="&#xe2f;" horiz-adv-x="770" 
d="M637 0l127.002 597.998l-38.5 -30.5c-19 -15 -43.667 -29.667 -74 -44s-66.5 -27.333 -108.5 -39s-89.667 -17.5 -143 -17.5c-83.333 0 -143.666 18 -180.999 54s-50.666 79.333 -39.999 130c5.33301 26 16.166 50 32.499 72s36.333 40.833 60 56.5
s50.167 27.834 79.5 36.501s59.666 13 90.999 13c26 0 46.833 -1.66699 62.5 -5s28.167 -6.33301 37.5 -9l-13 -61c-9.33301 2.66699 -21.833 6 -37.5 10s-35.834 6 -60.501 6c-43.333 0 -83.833 -9.83301 -121.5 -29.5s-60.834 -49.5 -69.501 -89.5
c-4.66699 -20 -3.16699 -38 4.5 -54s19.5 -29.333 35.5 -40s35.667 -19.167 59 -25.5s48 -9.5 74 -9.5c53.333 0 101.333 6.5 144 19.5s79.167 28.333 109.5 46s55.333 35.834 75 54.501s33.167 32.667 40.5 42l29 135h61l-174 -819h-61z" />
    <glyph glyph-name="saraathai" unicode="&#xd0;" horiz-adv-x="236" 
d="M168 602l25 115h61l-12 -55h134l-13 -60h-195zM62 102l25 115h61l-12 -55h134l-13 -60h-195z" />
    <glyph glyph-name="saraathai" unicode="&#xe30;" horiz-adv-x="236" 
d="M168 602l25 115h61l-12 -55h134l-13 -60h-195zM62 102l25 115h61l-12 -55h134l-13 -60h-195z" />
    <glyph glyph-name="maihanakatthai" unicode="&#xd1;" 
d="M-142 922l26 122h62l-13 -61h470l-13 -61h-532z" />
    <glyph glyph-name="maihanakatthai" unicode="&#xe31;" 
d="M-142 922l26 122h62l-13 -61h470l-13 -61h-532z" />
    <glyph glyph-name="saraaathai" unicode="&#xd2;" horiz-adv-x="539" 
d="M406 0l111.997 527.997c16 75.333 9.83301 135.5 -18.5 180.5s-80.166 67.5 -155.499 67.5c-35.333 0 -69.166 -6.16699 -101.499 -18.5s-55.166 -22.5 -68.499 -30.5l14 64c12.667 6.66699 35.167 15.5 67.5 26.5s66.833 16.5 103.5 16.5c49.333 0 90 -7.66699 122 -23
s57.167 -36.166 75.5 -62.499s29.333 -56.666 33 -90.999s1.5 -71.166 -6.5 -110.499l-116 -547h-61z" />
    <glyph glyph-name="saraaathai" unicode="&#xe32;" horiz-adv-x="539" 
d="M406 0l111.997 527.997c16 75.333 9.83301 135.5 -18.5 180.5s-80.166 67.5 -155.499 67.5c-35.333 0 -69.166 -6.16699 -101.499 -18.5s-55.166 -22.5 -68.499 -30.5l14 64c12.667 6.66699 35.167 15.5 67.5 26.5s66.833 16.5 103.5 16.5c49.333 0 90 -7.66699 122 -23
s57.167 -36.166 75.5 -62.499s29.333 -56.666 33 -90.999s1.5 -71.166 -6.5 -110.499l-116 -547h-61z" />
    <glyph glyph-name="saraamthai" unicode="&#xd3;" horiz-adv-x="657" 
d="M-71 961c-5.33301 -23.333 -18.833 -43.666 -40.5 -60.999s-44.167 -26 -67.5 -26c-22.667 0 -41.167 8.66699 -55.5 26s-18.833 37.666 -13.5 60.999c4.66699 22.667 17.834 43 39.501 61s43.834 27 66.501 27c23.333 0 42.166 -9 56.499 -27s19.166 -38.333 14.499 -61
zM461 0l112.001 527.997c16 75.333 9.83301 135.5 -18.5 180.5s-79.833 67.5 -154.5 67.5c-36 0 -70.167 -6.16699 -102.5 -18.5s-54.833 -22.5 -67.5 -30.5l14 64c12 6.66699 34.167 15.5 66.5 26.5s67.166 16.5 104.499 16.5c48.667 0 89.167 -7.66699 121.5 -23
s57.5 -36.166 75.5 -62.499s28.833 -56.666 32.5 -90.999s1.5 -71.166 -6.5 -110.499l-116 -547h-61zM-118.999 960.997c2 10.667 -0.331055 20.5 -6.99805 29.5s-15.667 13.5 -27 13.5c-10.667 0 -21.5 -4.5 -32.5 -13.5s-17.5 -18.833 -19.5 -29.5
c-2.66699 -11.333 -0.333984 -21.333 6.99902 -30s16.333 -13 27 -13c11.333 0 22.166 4.33301 32.499 13s16.833 18.667 19.5 30z" />
    <glyph glyph-name="saraamthai" unicode="&#xe33;" horiz-adv-x="657" 
d="M-71 961c-5.33301 -23.333 -18.833 -43.666 -40.5 -60.999s-44.167 -26 -67.5 -26c-22.667 0 -41.167 8.66699 -55.5 26s-18.833 37.666 -13.5 60.999c4.66699 22.667 17.834 43 39.501 61s43.834 27 66.501 27c23.333 0 42.166 -9 56.499 -27s19.166 -38.333 14.499 -61
zM461 0l112.001 527.997c16 75.333 9.83301 135.5 -18.5 180.5s-79.833 67.5 -154.5 67.5c-36 0 -70.167 -6.16699 -102.5 -18.5s-54.833 -22.5 -67.5 -30.5l14 64c12 6.66699 34.167 15.5 66.5 26.5s67.166 16.5 104.499 16.5c48.667 0 89.167 -7.66699 121.5 -23
s57.5 -36.166 75.5 -62.499s28.833 -56.666 32.5 -90.999s1.5 -71.166 -6.5 -110.499l-116 -547h-61zM-118.999 960.997c2 10.667 -0.331055 20.5 -6.99805 29.5s-15.667 13.5 -27 13.5c-10.667 0 -21.5 -4.5 -32.5 -13.5s-17.5 -18.833 -19.5 -29.5
c-2.66699 -11.333 -0.333984 -21.333 6.99902 -30s16.333 -13 27 -13c11.333 0 22.166 4.33301 32.499 13s16.833 18.667 19.5 30z" />
    <glyph glyph-name="saraithai" unicode="&#xd4;" 
d="M-470 922l13 61h593l-13 -61h-593z" />
    <glyph glyph-name="saraithai" unicode="&#xe34;" 
d="M-470 922l13 61h593l-13 -61h-593z" />
    <glyph glyph-name="saraiithai" unicode="&#xd5;" 
d="M-470 922l13 61h532l22 102h61l-35 -163h-593z" />
    <glyph glyph-name="saraiithai" unicode="&#xe35;" 
d="M-470 922l13 61h532l22 102h61l-35 -163h-593z" />
    <glyph glyph-name="sarauethai" unicode="&#xd6;" 
d="M200 1008c-5.33301 -23.333 -18.8301 -43.5 -40.4971 -60.5s-43.834 -25.5 -66.501 -25.5h-563l13 61h479c0 10.667 0.666992 19 2 25c4.66699 22.667 17.667 43 39 61s43.666 27 66.999 27c22.667 0 41.167 -9 55.5 -27s19.166 -38.333 14.499 -61zM153.003 1008
c2 10.667 -0.501953 20.5 -7.50195 29.5s-15.833 13.5 -26.5 13.5c-11.333 0 -22.333 -4.5 -33 -13.5s-17 -18.833 -19 -29.5c-2.66699 -11.333 -0.5 -21.333 6.5 -30s16.167 -13 27.5 -13c10.667 0 21.334 4.33301 32.001 13s17.334 18.667 20.001 30z" />
    <glyph glyph-name="sarauethai" unicode="&#xe36;" 
d="M200 1008c-5.33301 -23.333 -18.8301 -43.5 -40.4971 -60.5s-43.834 -25.5 -66.501 -25.5h-563l13 61h479c0 10.667 0.666992 19 2 25c4.66699 22.667 17.667 43 39 61s43.666 27 66.999 27c22.667 0 41.167 -9 55.5 -27s19.166 -38.333 14.499 -61zM153.003 1008
c2 10.667 -0.501953 20.5 -7.50195 29.5s-15.833 13.5 -26.5 13.5c-11.333 0 -22.333 -4.5 -33 -13.5s-17 -18.833 -19 -29.5c-2.66699 -11.333 -0.5 -21.333 6.5 -30s16.167 -13 27.5 -13c10.667 0 21.334 4.33301 32.001 13s17.334 18.667 20.001 30z" />
    <glyph glyph-name="saraueethai" unicode="&#xd7;" 
d="M-470 922l13 61h410l22 102h60l-22 -102h62l22 102h61l-35 -163h-593z" />
    <glyph glyph-name="saraueethai" unicode="&#xe37;" 
d="M-470 922l13 61h410l22 102h60l-22 -102h62l22 102h61l-35 -163h-593z" />
    <glyph glyph-name="sarauthai" unicode="&#xd8;" 
d="M-198 -307l35 164h-82l13 61h143l-48 -225h-61z" />
    <glyph glyph-name="sarauthai" unicode="&#xe38;" 
d="M-198 -307l35 164h-82l13 61h143l-48 -225h-61z" />
    <glyph glyph-name="sarauuthai" unicode="&#xd9;" 
d="M-112 -190c-8 -37.333 -29.334 -67.167 -64.001 -89.5s-71 -33.5 -109 -33.5c-26 0 -50.833 5.33301 -74.5 16s-40.5 27 -50.5 49l22 105h-62l13 61h123l-31 -145c8 -14 19.833 -23 35.5 -27s28.834 -6 39.501 -6c20.667 0 41 6.5 61 19.5s32.333 30.5 37 52.5l22 106h61
z" />
    <glyph glyph-name="sarauuthai" unicode="&#xe39;" 
d="M-112 -190c-8 -37.333 -29.334 -67.167 -64.001 -89.5s-71 -33.5 -109 -33.5c-26 0 -50.833 5.33301 -74.5 16s-40.5 27 -50.5 49l22 105h-62l13 61h123l-31 -145c8 -14 19.833 -23 35.5 -27s28.834 -6 39.501 -6c20.667 0 41 6.5 61 19.5s32.333 30.5 37 52.5l22 106h61
z" />
    <glyph glyph-name="phinthuthai" unicode="&#xda;" 
d="M-76 -137c-3.33301 -15.333 -11.666 -28.5 -24.999 -39.5s-27.333 -16.5 -42 -16.5c-15.333 0 -27.333 5.5 -36 16.5s-11.334 24.167 -8.00098 39.5c3.33301 14.667 11.666 27.5 24.999 38.5s27.666 16.5 42.999 16.5c14.667 0 26.334 -5.5 35.001 -16.5
s11.334 -23.833 8.00098 -38.5z" />
    <glyph glyph-name="phinthuthai" unicode="&#xe3a;" 
d="M-76 -137c-3.33301 -15.333 -11.666 -28.5 -24.999 -39.5s-27.333 -16.5 -42 -16.5c-15.333 0 -27.333 5.5 -36 16.5s-11.334 24.167 -8.00098 39.5c3.33301 14.667 11.666 27.5 24.999 38.5s27.666 16.5 42.999 16.5c14.667 0 26.334 -5.5 35.001 -16.5
s11.334 -23.833 8.00098 -38.5z" />
    <glyph glyph-name="PU2005.003" unicode="&#xdb;" 
 />
    <glyph glyph-name="PU2005.003" unicode="&#xe3b;" 
 />
    <glyph glyph-name="PU2005.002" unicode="&#xdc;" 
 />
    <glyph glyph-name="PU2005.002" unicode="&#xe3c;" 
 />
    <glyph glyph-name="PU2005.001" unicode="&#xdd;" 
 />
    <glyph glyph-name="PU2005.001" unicode="&#xe3d;" 
 />
    <glyph glyph-name="bahtthai" unicode="&#xdf;" horiz-adv-x="768" 
d="M778 301c-8.66699 -43.333 -25 -84.168 -49 -122.501s-55.667 -71.833 -95 -100.5c-43.333 -32.667 -85.833 -53.834 -127.5 -63.501s-86.167 -14.5 -133.5 -14.5h-4l-37 -174h-64l37 174h-201l229 1081h201l35 164h64l-35 -166c29.333 -2.66699 56.833 -8 82.5 -16
s48.167 -23 67.5 -45c26 -28.667 41.667 -62.167 47 -100.5s3.33301 -79.166 -6 -122.499c-10 -48 -28 -89.5 -54 -124.5s-63.667 -66.833 -113 -95.5c64 -18.667 109.5 -52.667 136.5 -102s33.5 -106.666 19.5 -171.999zM724 804.998
c7.33301 35.333 7.49805 68.668 0.498047 100.001s-23.5 56.666 -49.5 75.999c-13.333 10.667 -27.666 18.167 -42.999 22.5s-31.333 7.83301 -48 10.5l-90 -422c19.333 2.66699 38.166 6.33398 56.499 11.001s37.833 14 58.5 28c34.667 23.333 60.334 48.666 77.001 75.999
s29.334 60 38.001 98zM520.998 1018h-18h-117l-91 -428h117h18zM709.998 299c8.66699 39.333 7.83301 76.832 -2.5 112.499s-31.166 62.5 -62.499 80.5c-22 12 -47.5 20.333 -76.5 25s-58.5 7.66699 -88.5 9l-99 -465c31.333 0 62.666 2.83301 93.999 8.5
s62.666 17.834 93.999 36.501c36 22 66.333 49.5 91 82.5s41.334 69.833 50.001 110.5zM415.997 525.999h-135l-99 -465h135z" />
    <glyph glyph-name="bahtthai" unicode="&#xe3f;" horiz-adv-x="768" 
d="M778 301c-8.66699 -43.333 -25 -84.168 -49 -122.501s-55.667 -71.833 -95 -100.5c-43.333 -32.667 -85.833 -53.834 -127.5 -63.501s-86.167 -14.5 -133.5 -14.5h-4l-37 -174h-64l37 174h-201l229 1081h201l35 164h64l-35 -166c29.333 -2.66699 56.833 -8 82.5 -16
s48.167 -23 67.5 -45c26 -28.667 41.667 -62.167 47 -100.5s3.33301 -79.166 -6 -122.499c-10 -48 -28 -89.5 -54 -124.5s-63.667 -66.833 -113 -95.5c64 -18.667 109.5 -52.667 136.5 -102s33.5 -106.666 19.5 -171.999zM724 804.998
c7.33301 35.333 7.49805 68.668 0.498047 100.001s-23.5 56.666 -49.5 75.999c-13.333 10.667 -27.666 18.167 -42.999 22.5s-31.333 7.83301 -48 10.5l-90 -422c19.333 2.66699 38.166 6.33398 56.499 11.001s37.833 14 58.5 28c34.667 23.333 60.334 48.666 77.001 75.999
s29.334 60 38.001 98zM520.998 1018h-18h-117l-91 -428h117h18zM709.998 299c8.66699 39.333 7.83301 76.832 -2.5 112.499s-31.166 62.5 -62.499 80.5c-22 12 -47.5 20.333 -76.5 25s-58.5 7.66699 -88.5 9l-99 -465c31.333 0 62.666 2.83301 93.999 8.5
s62.666 17.834 93.999 36.501c36 22 66.333 49.5 91 82.5s41.334 69.833 50.001 110.5zM415.997 525.999h-135l-99 -465h135z" />
    <glyph glyph-name="saraethai" unicode="&#xe0;" horiz-adv-x="246" 
d="M92 0l174 819h62l-174 -819h-62z" />
    <glyph glyph-name="saraethai" unicode="&#xe40;" horiz-adv-x="246" 
d="M92 0l174 819h62l-174 -819h-62z" />
    <glyph glyph-name="saraaethai" unicode="&#xe1;" horiz-adv-x="430" 
d="M276 0l174 819h62l-174 -819h-62zM92 0l174 819h62l-174 -819h-62z" />
    <glyph glyph-name="saraaethai" unicode="&#xe41;" horiz-adv-x="430" 
d="M276 0l174 819h62l-174 -819h-62zM92 0l174 819h62l-174 -819h-62z" />
    <glyph glyph-name="saraothai" unicode="&#xe2;" horiz-adv-x="266" 
d="M352 1208c-20 0 -38.499 -4.00098 -55.499 -12.001s-27.167 -19.667 -30.5 -35c-3.33301 -17.333 1.83398 -31.166 15.501 -41.499l46 -35c17 -13 31.167 -29.667 42.5 -50s12.666 -50.5 3.99902 -90.5l-200 -944h-61l201 946c6 30 3 53.167 -9 69.5s-26.667 31 -44 44
s-32.333 26.667 -45 41s-16.334 34.5 -11.001 60.5c8 35.333 28.833 62.333 62.5 81s70.5 28 110.5 28h251l-13 -62h-264z" />
    <glyph glyph-name="saraothai" unicode="&#xe42;" horiz-adv-x="266" 
d="M352 1208c-20 0 -38.499 -4.00098 -55.499 -12.001s-27.167 -19.667 -30.5 -35c-3.33301 -17.333 1.83398 -31.166 15.501 -41.499l46 -35c17 -13 31.167 -29.667 42.5 -50s12.666 -50.5 3.99902 -90.5l-200 -944h-61l201 946c6 30 3 53.167 -9 69.5s-26.667 31 -44 44
s-32.333 26.667 -45 41s-16.334 34.5 -11.001 60.5c8 35.333 28.833 62.333 62.5 81s70.5 28 110.5 28h251l-13 -62h-264z" />
    <glyph glyph-name="saraaimaimuanthai" unicode="&#xe3;" horiz-adv-x="266" 
d="M517 1124c-5.33301 -27.333 -15.166 -48.502 -29.499 -63.502s-29.333 -28.667 -45 -41s-30.5 -25.666 -44.5 -39.999s-23.667 -34.833 -29 -61.5l-195 -918h-61l197 928c6 28.667 16 51.167 30 67.5s28.833 30.666 44.5 42.999l44 36
c13.667 11.667 22.5 26.834 26.5 45.501c6 30 -0.5 55 -19.5 75s-48.167 30 -87.5 30s-74.333 -11 -105 -33s-49.334 -48.667 -56.001 -80h-62c10 46.667 37.667 86.334 83 119.001s96 49 152 49s98.5 -15 127.5 -45s38.833 -67 29.5 -111z" />
    <glyph glyph-name="saraaimaimuanthai" unicode="&#xe43;" horiz-adv-x="266" 
d="M517 1124c-5.33301 -27.333 -15.166 -48.502 -29.499 -63.502s-29.333 -28.667 -45 -41s-30.5 -25.666 -44.5 -39.999s-23.667 -34.833 -29 -61.5l-195 -918h-61l197 928c6 28.667 16 51.167 30 67.5s28.833 30.666 44.5 42.999l44 36
c13.667 11.667 22.5 26.834 26.5 45.501c6 30 -0.5 55 -19.5 75s-48.167 30 -87.5 30s-74.333 -11 -105 -33s-49.334 -48.667 -56.001 -80h-62c10 46.667 37.667 86.334 83 119.001s96 49 152 49s98.5 -15 127.5 -45s38.833 -67 29.5 -111z" />
    <glyph glyph-name="saraaimaimalaithai" unicode="&#xe4;" horiz-adv-x="266" 
d="M508 1133c-27.333 -19.333 -54.167 -45 -80.5 -77s-43.833 -68 -52.5 -108l-201 -948h-61l198 934c10 46.667 28.833 86 56.5 118s52.167 54.667 73.5 68l-37 58l-122 -88l-146 141l46 43l116 -111l135 94z" />
    <glyph glyph-name="saraaimaimalaithai" unicode="&#xe44;" horiz-adv-x="266" 
d="M508 1133c-27.333 -19.333 -54.167 -45 -80.5 -77s-43.833 -68 -52.5 -108l-201 -948h-61l198 934c10 46.667 28.833 86 56.5 118s52.167 54.667 73.5 68l-37 58l-122 -88l-146 141l46 43l116 -111l135 94z" />
    <glyph glyph-name="lakkhangyaothai" unicode="&#xe5;" horiz-adv-x="539" 
d="M340 -307l177.997 834.997c16 75.333 9.83301 135.5 -18.5 180.5s-80.166 67.5 -155.499 67.5c-35.333 0 -69.166 -6.16699 -101.499 -18.5s-55.166 -22.5 -68.499 -30.5l14 64c12.667 6.66699 35.167 15.5 67.5 26.5s66.833 16.5 103.5 16.5
c49.333 0 90 -7.66699 122 -23s57.167 -36.166 75.5 -62.499s29.333 -56.666 33 -90.999s1.5 -71.166 -6.5 -110.499l-182 -854h-61z" />
    <glyph glyph-name="lakkhangyaothai" unicode="&#xe45;" horiz-adv-x="539" 
d="M340 -307l177.997 834.997c16 75.333 9.83301 135.5 -18.5 180.5s-80.166 67.5 -155.499 67.5c-35.333 0 -69.166 -6.16699 -101.499 -18.5s-55.166 -22.5 -68.499 -30.5l14 64c12.667 6.66699 35.167 15.5 67.5 26.5s66.833 16.5 103.5 16.5
c49.333 0 90 -7.66699 122 -23s57.167 -36.166 75.5 -62.499s29.333 -56.666 33 -90.999s1.5 -71.166 -6.5 -110.499l-182 -854h-61z" />
    <glyph glyph-name="maiyamokthai" unicode="&#xe6;" horiz-adv-x="776" 
d="M577 -307l192 901c10.667 52 6.33398 93.667 -12.999 125s-48 50.333 -86 57l-163 -141l-103 141c-41.333 -6.66699 -78.333 -25.667 -111 -57s-54.334 -73 -65.001 -125l-12 -57h168l-14 -62h-229l26 119c15.333 72 48 129.167 98 171.5s108.333 63.5 175 63.5l85 -112
l132 112c67.333 0 117 -21.167 149 -63.5s40.333 -99.5 25 -171.5l-192 -901h-62z" />
    <glyph glyph-name="maiyamokthai" unicode="&#xe46;" horiz-adv-x="776" 
d="M577 -307l192 901c10.667 52 6.33398 93.667 -12.999 125s-48 50.333 -86 57l-163 -141l-103 141c-41.333 -6.66699 -78.333 -25.667 -111 -57s-54.334 -73 -65.001 -125l-12 -57h168l-14 -62h-229l26 119c15.333 72 48 129.167 98 171.5s108.333 63.5 175 63.5l85 -112
l132 112c67.333 0 117 -21.167 149 -63.5s40.333 -99.5 25 -171.5l-192 -901h-62z" />
    <glyph glyph-name="maitaikhuthai" unicode="&#xe7;" 
d="M-208 1079c-37.333 0 -68.833 -7.83203 -94.5 -23.499s-41.834 -38.5 -48.501 -68.5l-1 -8h88l127 68l92 -68h118l-13 -57h-126l-84 65l-115 -65h-162l13 57c8.66699 43.333 31.834 80.166 69.501 110.499s89.167 45.5 154.5 45.5h361l-12 -56h-367z" />
    <glyph glyph-name="maitaikhuthai" unicode="&#xe47;" 
d="M-208 1079c-37.333 0 -68.833 -7.83203 -94.5 -23.499s-41.834 -38.5 -48.501 -68.5l-1 -8h88l127 68l92 -68h118l-13 -57h-126l-84 65l-115 -65h-162l13 57c8.66699 43.333 31.834 80.166 69.501 110.499s89.167 45.5 154.5 45.5h361l-12 -56h-367z" />
    <glyph glyph-name="maiekthai" unicode="&#xe8;" 
d="M110 1147l31 143h61l-31 -143h-61z" />
    <glyph glyph-name="maiekthai" unicode="&#xe48;" 
d="M110 1147l31 143h61l-31 -143h-61z" />
    <glyph glyph-name="maithothai" unicode="&#xe9;" 
d="M10 1147l7.99902 37c2.66699 12 2.33398 21.833 -0.999023 29.5s-12 11.5 -26 11.5h-21l12 57h34c54.667 0 77.667 -20.333 69 -61l-4 -17h246l-12 -57h-305z" />
    <glyph glyph-name="maithothai" unicode="&#xe49;" 
d="M10 1147l7.99902 37c2.66699 12 2.33398 21.833 -0.999023 29.5s-12 11.5 -26 11.5h-21l12 57h34c54.667 0 77.667 -20.333 69 -61l-4 -17h246l-12 -57h-305z" />
    <glyph glyph-name="maitrithai" unicode="&#xea;" 
d="M288 1147l12.001 57c9.33301 42.667 -7.66699 64 -51 64h-7l-92 -70l-63 70h-4c-44 0 -70.667 -21.333 -80 -64v-2h78l-12 -55h-134l15 67c7.33301 36 25 63.5 53 82.5s60 28.5 96 28.5h8l57 -63l84 63h6c37.333 0 66.166 -9.5 86.499 -28.5s26.833 -46.5 19.5 -82.5
l-3 -10h131l-12 -57h-188z" />
    <glyph glyph-name="maitrithai" unicode="&#xe4a;" 
d="M288 1147l12.001 57c9.33301 42.667 -7.66699 64 -51 64h-7l-92 -70l-63 70h-4c-44 0 -70.667 -21.333 -80 -64v-2h78l-12 -55h-134l15 67c7.33301 36 25 63.5 53 82.5s60 28.5 96 28.5h8l57 -63l84 63h6c37.333 0 66.166 -9.5 86.499 -28.5s26.833 -46.5 19.5 -82.5
l-3 -10h131l-12 -57h-188z" />
    <glyph glyph-name="maichattawathai" unicode="&#xeb;" 
d="M185 1212l-14 -65h-61l14 65h-72l11 50h72l14 65h61l-14 -65h72l-11 -50h-72z" />
    <glyph glyph-name="maichattawathai" unicode="&#xe4b;" 
d="M185 1212l-14 -65h-61l14 65h-72l11 50h72l14 65h61l-14 -65h72l-11 -50h-72z" />
    <glyph glyph-name="thanthakhatthai" unicode="&#xec;" 
d="M162 1139c-20.667 0 -37 -3.16797 -49 -9.50098s-20 -18.166 -24 -35.499l-6 -29h-62l7 35c7.33301 34 22.5 57.833 45.5 71.5s46.5 20.5 70.5 20.5h89l-11 -53h-60z" />
    <glyph glyph-name="thanthakhatthai" unicode="&#xe4c;" 
d="M162 1139c-20.667 0 -37 -3.16797 -49 -9.50098s-20 -18.166 -24 -35.499l-6 -29h-62l7 35c7.33301 34 22.5 57.833 45.5 71.5s46.5 20.5 70.5 20.5h89l-11 -53h-60z" />
    <glyph glyph-name="nikhahitthai" unicode="&#xed;" 
d="M200 1008c-5.33301 -23.333 -18.8301 -43.5 -40.4971 -60.5s-43.834 -25.5 -66.501 -25.5c-23.333 0 -42 8.5 -56 25.5s-18.333 37.167 -13 60.5c4.66699 22.667 17.667 43 39 61s43.666 27 66.999 27c22.667 0 41.167 -9 55.5 -27s19.166 -38.333 14.499 -61z
M153.003 1008c2 10.667 -0.501953 20.5 -7.50195 29.5s-15.833 13.5 -26.5 13.5c-11.333 0 -22.333 -4.5 -33 -13.5s-17 -18.833 -19 -29.5c-2.66699 -11.333 -0.5 -21.333 6.5 -30s16.167 -13 27.5 -13c10.667 0 21.334 4.33301 32.001 13s17.334 18.667 20.001 30z" />
    <glyph glyph-name="nikhahitthai" unicode="&#xe4d;" 
d="M200 1008c-5.33301 -23.333 -18.8301 -43.5 -40.4971 -60.5s-43.834 -25.5 -66.501 -25.5c-23.333 0 -42 8.5 -56 25.5s-18.333 37.167 -13 60.5c4.66699 22.667 17.667 43 39 61s43.666 27 66.999 27c22.667 0 41.167 -9 55.5 -27s19.166 -38.333 14.499 -61z
M153.003 1008c2 10.667 -0.501953 20.5 -7.50195 29.5s-15.833 13.5 -26.5 13.5c-11.333 0 -22.333 -4.5 -33 -13.5s-17 -18.833 -19 -29.5c-2.66699 -11.333 -0.5 -21.333 6.5 -30s16.167 -13 27.5 -13c10.667 0 21.334 4.33301 32.001 13s17.334 18.667 20.001 30z" />
    <glyph glyph-name="yamakkanthai" unicode="&#xee;" 
d="M-63 1233c-16.667 16 -22.665 35.665 -17.998 58.998c10 48 48.667 87.667 116 119c58 27.333 112 41 162 41c44 0 85 -6.66699 123 -20c14 -6 19.667 -15.667 17 -29c-4.66699 -22 -17.334 -33 -38.001 -33c-4 0 -7.33301 0.666992 -10 2
c-32.667 12.667 -67.667 19 -105 19c-31.333 0 -69.333 -9 -114 -27c-54.667 -22 -84.667 -46 -90 -72c-2 -9.33301 20.667 -23.666 68 -42.999c13.333 -5.33301 18.666 -14.666 15.999 -27.999c-4.66699 -20.667 -17 -31 -37 -31c-2.66699 0 -6.33398 0.333008 -11.001 1
s-8.33398 1 -11.001 1c-24 0 -52.667 -11 -86 -33s-52 -41.667 -56 -59c-4.66699 -22 1.33301 -39.833 18 -53.5s39.334 -20.5 68.001 -20.5c54 0 96.667 20.333 128 61c9.33301 11.333 19.333 17 30 17c22 0 31 -10.333 27 -31c-1.33301 -4 -3.66602 -8.66699 -6.99902 -14
c-49.333 -62.667 -113 -94 -191 -94c-40 0 -73.667 10 -101 30c-31.333 26 -42.333 61 -33 105c12 54.667 57 99 135 133z" />
    <glyph glyph-name="yamakkanthai" unicode="&#xe4e;" 
d="M-63 1233c-16.667 16 -22.665 35.665 -17.998 58.998c10 48 48.667 87.667 116 119c58 27.333 112 41 162 41c44 0 85 -6.66699 123 -20c14 -6 19.667 -15.667 17 -29c-4.66699 -22 -17.334 -33 -38.001 -33c-4 0 -7.33301 0.666992 -10 2
c-32.667 12.667 -67.667 19 -105 19c-31.333 0 -69.333 -9 -114 -27c-54.667 -22 -84.667 -46 -90 -72c-2 -9.33301 20.667 -23.666 68 -42.999c13.333 -5.33301 18.666 -14.666 15.999 -27.999c-4.66699 -20.667 -17 -31 -37 -31c-2.66699 0 -6.33398 0.333008 -11.001 1
s-8.33398 1 -11.001 1c-24 0 -52.667 -11 -86 -33s-52 -41.667 -56 -59c-4.66699 -22 1.33301 -39.833 18 -53.5s39.334 -20.5 68.001 -20.5c54 0 96.667 20.333 128 61c9.33301 11.333 19.333 17 30 17c22 0 31 -10.333 27 -31c-1.33301 -4 -3.66602 -8.66699 -6.99902 -14
c-49.333 -62.667 -113 -94 -191 -94c-40 0 -73.667 10 -101 30c-31.333 26 -42.333 61 -33 105c12 54.667 57 99 135 133z" />
    <glyph glyph-name="fongmanthai" unicode="&#xef;" horiz-adv-x="963" 
d="M988 410c-12.667 -57.333 -35.1709 -111.666 -67.5039 -162.999s-71.833 -96.166 -118.5 -134.499s-98 -68.333 -154 -90s-112.667 -32.5 -170 -32.5s-109.166 10.833 -155.499 32.5s-84.5 51.667 -114.5 90s-50.667 83.166 -62 134.499s-10.666 105.666 2.00098 162.999
c12 57.333 34.333 111.5 67 162.5s72.334 95.667 119.001 134s97.834 68.333 153.501 90s112.167 32.5 169.5 32.5s109.333 -10.833 156 -32.5s85 -51.667 115 -90s50.5 -83 61.5 -134s10.5 -105.167 -1.5 -162.5zM926.996 410
c10 48.667 9.99707 94.834 -0.00292969 138.501s-27.5 81.667 -52.5 114s-57.333 58 -97 77s-84.167 28.5 -133.5 28.5c-48.667 0 -97 -9.5 -145 -28.5s-91.5 -44.667 -130.5 -77s-72.667 -70.333 -101 -114s-47.5 -89.834 -57.5 -138.501
c-10.667 -49.333 -11.167 -95.833 -1.5 -139.5s27.167 -81.5 52.5 -113.5s57.833 -57.667 97.5 -77s83.834 -29 132.501 -29c49.333 0 98 9.66699 146 29s91.333 45 130 77s72.334 69.833 101.001 113.5s48.334 90.167 59.001 139.5zM823.993 410
c-8 -36 -22.001 -69.333 -42.001 -100s-44 -57.5 -72 -80.5s-58.833 -41.333 -92.5 -55s-68.5 -20.5 -104.5 -20.5c-35.333 0 -66.833 6.83301 -94.5 20.5s-50.667 32 -69 55s-31.166 49.833 -38.499 80.5s-7 64 1 100c7.33301 35.333 21 68.333 41 99
s44.167 57.667 72.5 81s59.333 41.833 93 55.5s68.167 20.5 103.5 20.5c36 0 67.833 -6.83301 95.5 -20.5s50.5 -32.167 68.5 -55.5s30.667 -50.333 38 -81s7.33301 -63.667 0 -99z" />
    <glyph glyph-name="fongmanthai" unicode="&#xe4f;" horiz-adv-x="963" 
d="M988 410c-12.667 -57.333 -35.1709 -111.666 -67.5039 -162.999s-71.833 -96.166 -118.5 -134.499s-98 -68.333 -154 -90s-112.667 -32.5 -170 -32.5s-109.166 10.833 -155.499 32.5s-84.5 51.667 -114.5 90s-50.667 83.166 -62 134.499s-10.666 105.666 2.00098 162.999
c12 57.333 34.333 111.5 67 162.5s72.334 95.667 119.001 134s97.834 68.333 153.501 90s112.167 32.5 169.5 32.5s109.333 -10.833 156 -32.5s85 -51.667 115 -90s50.5 -83 61.5 -134s10.5 -105.167 -1.5 -162.5zM926.996 410
c10 48.667 9.99707 94.834 -0.00292969 138.501s-27.5 81.667 -52.5 114s-57.333 58 -97 77s-84.167 28.5 -133.5 28.5c-48.667 0 -97 -9.5 -145 -28.5s-91.5 -44.667 -130.5 -77s-72.667 -70.333 -101 -114s-47.5 -89.834 -57.5 -138.501
c-10.667 -49.333 -11.167 -95.833 -1.5 -139.5s27.167 -81.5 52.5 -113.5s57.833 -57.667 97.5 -77s83.834 -29 132.501 -29c49.333 0 98 9.66699 146 29s91.333 45 130 77s72.334 69.833 101.001 113.5s48.334 90.167 59.001 139.5zM823.993 410
c-8 -36 -22.001 -69.333 -42.001 -100s-44 -57.5 -72 -80.5s-58.833 -41.333 -92.5 -55s-68.5 -20.5 -104.5 -20.5c-35.333 0 -66.833 6.83301 -94.5 20.5s-50.667 32 -69 55s-31.166 49.833 -38.499 80.5s-7 64 1 100c7.33301 35.333 21 68.333 41 99
s44.167 57.667 72.5 81s59.333 41.833 93 55.5s68.167 20.5 103.5 20.5c36 0 67.833 -6.83301 95.5 -20.5s50.5 -32.167 68.5 -55.5s30.667 -50.333 38 -81s7.33301 -63.667 0 -99z" />
    <glyph glyph-name="zerothai" unicode="&#xf0;" horiz-adv-x="721" 
d="M745 307c-9.33301 -43.333 -26.6641 -84.5 -51.9971 -123.5s-55.333 -72.833 -90 -101.5s-73.334 -51.5 -116.001 -68.5s-86 -25.5 -130 -25.5c-43.333 0 -82.666 8.5 -117.999 25.5s-64.333 39.833 -87 68.5s-38.334 62.5 -47.001 101.5s-8.33398 80.167 0.999023 123.5
c9.33301 44 26.5 85.333 51.5 124s55 72.334 90 101.001s73.833 51.667 116.5 69s85.667 26 129 26c44 0 83.667 -8.66699 119 -26s64.166 -40.333 86.499 -69s38 -62.334 47 -101.001s8.83301 -80 -0.5 -124zM686.002 307c7.33301 36.667 7.66797 70.834 1.00098 102.501
s-19.5 59.334 -38.5 83.001s-42.833 42.334 -71.5 56.001s-61.667 20.5 -99 20.5c-36.667 0 -72 -6.83301 -106 -20.5s-65.5 -32.334 -94.5 -56.001s-53.833 -51.334 -74.5 -83.001s-34.667 -65.834 -42 -102.501c-8 -36.667 -8.5 -70.667 -1.5 -102s20 -59 39 -83
s42.667 -42.833 71 -56.5s60.833 -20.5 97.5 -20.5c37.333 0 73.166 6.83301 107.499 20.5s66 32.5 95 56.5s53.667 51.667 74 83s34.5 65.333 42.5 102z" />
    <glyph glyph-name="zerothai" unicode="&#xe50;" horiz-adv-x="721" 
d="M745 307c-9.33301 -43.333 -26.6641 -84.5 -51.9971 -123.5s-55.333 -72.833 -90 -101.5s-73.334 -51.5 -116.001 -68.5s-86 -25.5 -130 -25.5c-43.333 0 -82.666 8.5 -117.999 25.5s-64.333 39.833 -87 68.5s-38.334 62.5 -47.001 101.5s-8.33398 80.167 0.999023 123.5
c9.33301 44 26.5 85.333 51.5 124s55 72.334 90 101.001s73.833 51.667 116.5 69s85.667 26 129 26c44 0 83.667 -8.66699 119 -26s64.166 -40.333 86.499 -69s38 -62.334 47 -101.001s8.83301 -80 -0.5 -124zM686.002 307c7.33301 36.667 7.66797 70.834 1.00098 102.501
s-19.5 59.334 -38.5 83.001s-42.833 42.334 -71.5 56.001s-61.667 20.5 -99 20.5c-36.667 0 -72 -6.83301 -106 -20.5s-65.5 -32.334 -94.5 -56.001s-53.833 -51.334 -74.5 -83.001s-34.667 -65.834 -42 -102.501c-8 -36.667 -8.5 -70.667 -1.5 -102s20 -59 39 -83
s42.667 -42.833 71 -56.5s60.833 -20.5 97.5 -20.5c37.333 0 73.166 6.83301 107.499 20.5s66 32.5 95 56.5s53.667 51.667 74 83s34.5 65.333 42.5 102z" />
    <glyph glyph-name="onethai" unicode="&#xf1;" horiz-adv-x="770" 
d="M795 313c-11.333 -54.667 -34.002 -104.835 -68.002 -150.502s-73.333 -85.834 -118 -120.501s-92.167 -63 -142.5 -85s-98.5 -35.667 -144.5 -41l-18 55c44 4 89.167 15.667 135.5 35s89.666 44 129.999 74s75.333 64.833 105 104.5s49.5 82.5 59.5 128.5
c8 38.667 7.83301 73.667 -0.5 105s-23.333 58.166 -45 80.499s-48.834 39.666 -81.501 51.999s-68.667 18.5 -108 18.5c-36.667 0 -72.667 -5.66699 -108 -17s-68.166 -27.666 -98.499 -48.999s-56.166 -46.666 -77.499 -75.999s-35.666 -61.666 -42.999 -96.999
c-10.667 -49.333 -4.16699 -92.5 19.5 -129.5s61.167 -55.5 112.5 -55.5c7.33301 0 15.833 0.333008 25.5 1s19.834 2.66699 30.501 6c-24 9.33301 -41.5 24.833 -52.5 46.5s-13.5 46.834 -7.5 75.501c8 37.333 27.5 69 58.5 95s65.167 39 102.5 39
c36.667 0 65.334 -13 86.001 -39s27 -57.667 19 -95c-6 -27.333 -17.667 -52.5 -35 -75.5s-38.333 -43.333 -63 -61s-52 -31.334 -82 -41.001s-61.667 -14.5 -95 -14.5c-34 0 -64 6.5 -90 19.5s-46.833 30.667 -62.5 53s-26 48.666 -31 78.999s-3.83301 62.5 3.5 96.5
c9.33301 44.667 27.333 85.5 54 122.5s58.667 68.5 96 94.5s77.5 45.833 120.5 59.5s85.833 20.5 128.5 20.5c48 0 92 -7.16699 132 -21.5s73 -35.166 99 -62.499s44.167 -60.166 54.5 -98.499s10.166 -82.166 -0.500977 -131.499zM510.998 273.999
c4.66699 22 1 40.5 -11 55.5s-29 22.5 -51 22.5s-42 -7.5 -60 -22.5s-29.333 -33.5 -34 -55.5c-4.66699 -21.333 -1.16699 -39.5 10.5 -54.5s28.5 -22.5 50.5 -22.5s42.167 7.5 60.5 22.5s29.833 33.167 34.5 54.5z" />
    <glyph glyph-name="onethai" unicode="&#xe51;" horiz-adv-x="770" 
d="M795 313c-11.333 -54.667 -34.002 -104.835 -68.002 -150.502s-73.333 -85.834 -118 -120.501s-92.167 -63 -142.5 -85s-98.5 -35.667 -144.5 -41l-18 55c44 4 89.167 15.667 135.5 35s89.666 44 129.999 74s75.333 64.833 105 104.5s49.5 82.5 59.5 128.5
c8 38.667 7.83301 73.667 -0.5 105s-23.333 58.166 -45 80.499s-48.834 39.666 -81.501 51.999s-68.667 18.5 -108 18.5c-36.667 0 -72.667 -5.66699 -108 -17s-68.166 -27.666 -98.499 -48.999s-56.166 -46.666 -77.499 -75.999s-35.666 -61.666 -42.999 -96.999
c-10.667 -49.333 -4.16699 -92.5 19.5 -129.5s61.167 -55.5 112.5 -55.5c7.33301 0 15.833 0.333008 25.5 1s19.834 2.66699 30.501 6c-24 9.33301 -41.5 24.833 -52.5 46.5s-13.5 46.834 -7.5 75.501c8 37.333 27.5 69 58.5 95s65.167 39 102.5 39
c36.667 0 65.334 -13 86.001 -39s27 -57.667 19 -95c-6 -27.333 -17.667 -52.5 -35 -75.5s-38.333 -43.333 -63 -61s-52 -31.334 -82 -41.001s-61.667 -14.5 -95 -14.5c-34 0 -64 6.5 -90 19.5s-46.833 30.667 -62.5 53s-26 48.666 -31 78.999s-3.83301 62.5 3.5 96.5
c9.33301 44.667 27.333 85.5 54 122.5s58.667 68.5 96 94.5s77.5 45.833 120.5 59.5s85.833 20.5 128.5 20.5c48 0 92 -7.16699 132 -21.5s73 -35.166 99 -62.499s44.167 -60.166 54.5 -98.499s10.166 -82.166 -0.500977 -131.499zM510.998 273.999
c4.66699 22 1 40.5 -11 55.5s-29 22.5 -51 22.5s-42 -7.5 -60 -22.5s-29.333 -33.5 -34 -55.5c-4.66699 -21.333 -1.16699 -39.5 10.5 -54.5s28.5 -22.5 50.5 -22.5s42.167 7.5 60.5 22.5s29.833 33.167 34.5 54.5z" />
    <glyph glyph-name="twothai" unicode="&#xf2;" horiz-adv-x="1087" 
d="M154 0c12 94 20.333 180.67 25 260.003s2.33398 160 -6.99902 242c-8.66699 69.333 -25 132.666 -49 189.999s-51.667 105.333 -83 144l58 41c32 -40 61 -92 87 -156s42.667 -130.333 50 -199c7.33301 -76 9.5 -150.333 6.5 -223s-9.83301 -152 -20.5 -238h745l80 375
c8.66699 41.333 2.5 72.833 -18.5 94.5s-47.5 32.5 -79.5 32.5c-22.667 0 -47 -6.16699 -73 -18.5s-51 -32.833 -75 -61.5l-70 -329h-61l71 331c-14 27.333 -32.333 47.166 -55 59.499s-46.667 18.5 -72 18.5c-41.333 0 -80.5 -13.667 -117.5 -41s-60.167 -62 -69.5 -104
l-6 -31c26 14 51.333 21 76 21c36.667 0 65.334 -13 86.001 -39s27 -57.667 19 -95c-8 -36.667 -27.667 -67.667 -59 -93s-65.333 -38 -102 -38c-37.333 0 -66.333 12.667 -87 38s-27 56.333 -19 93l30 144c6.66699 30 18.5 57.667 35.5 83s37.833 47.166 62.5 65.499
s51 32.666 79 42.999s56.333 15.5 85 15.5c38 0 70.167 -7.16699 96.5 -21.5s46.833 -33.166 61.5 -56.499c22 22 48.167 40.5 78.5 55.5s63.166 22.5 98.499 22.5c24.667 0 47.167 -4.16699 67.5 -12.5s37.666 -20 51.999 -35s24.333 -33.833 30 -56.5
s5.5 -47.667 -0.5 -75l-94 -446h-862zM545 274.003c4.66699 22 1.00098 40.5 -10.999 55.5s-28.667 22.5 -50 22.5c-22 0 -42 -7.5 -60 -22.5s-29.333 -33.5 -34 -55.5c-4.66699 -21.333 -1.16699 -39.5 10.5 -54.5s28.5 -22.5 50.5 -22.5c21.333 0 41.166 7.5 59.499 22.5
s29.833 33.167 34.5 54.5z" />
    <glyph glyph-name="twothai" unicode="&#xe52;" horiz-adv-x="1087" 
d="M154 0c12 94 20.333 180.67 25 260.003s2.33398 160 -6.99902 242c-8.66699 69.333 -25 132.666 -49 189.999s-51.667 105.333 -83 144l58 41c32 -40 61 -92 87 -156s42.667 -130.333 50 -199c7.33301 -76 9.5 -150.333 6.5 -223s-9.83301 -152 -20.5 -238h745l80 375
c8.66699 41.333 2.5 72.833 -18.5 94.5s-47.5 32.5 -79.5 32.5c-22.667 0 -47 -6.16699 -73 -18.5s-51 -32.833 -75 -61.5l-70 -329h-61l71 331c-14 27.333 -32.333 47.166 -55 59.499s-46.667 18.5 -72 18.5c-41.333 0 -80.5 -13.667 -117.5 -41s-60.167 -62 -69.5 -104
l-6 -31c26 14 51.333 21 76 21c36.667 0 65.334 -13 86.001 -39s27 -57.667 19 -95c-8 -36.667 -27.667 -67.667 -59 -93s-65.333 -38 -102 -38c-37.333 0 -66.333 12.667 -87 38s-27 56.333 -19 93l30 144c6.66699 30 18.5 57.667 35.5 83s37.833 47.166 62.5 65.499
s51 32.666 79 42.999s56.333 15.5 85 15.5c38 0 70.167 -7.16699 96.5 -21.5s46.833 -33.166 61.5 -56.499c22 22 48.167 40.5 78.5 55.5s63.166 22.5 98.499 22.5c24.667 0 47.167 -4.16699 67.5 -12.5s37.666 -20 51.999 -35s24.333 -33.833 30 -56.5
s5.5 -47.667 -0.5 -75l-94 -446h-862zM545 274.003c4.66699 22 1.00098 40.5 -10.999 55.5s-28.667 22.5 -50 22.5c-22 0 -42 -7.5 -60 -22.5s-29.333 -33.5 -34 -55.5c-4.66699 -21.333 -1.16699 -39.5 10.5 -54.5s28.5 -22.5 50.5 -22.5c21.333 0 41.166 7.5 59.499 22.5
s29.833 33.167 34.5 54.5z" />
    <glyph glyph-name="threethai" unicode="&#xf3;" horiz-adv-x="924" 
d="M791 0l91.9951 436.003c8.66699 41.333 1 72.833 -23 94.5s-52.667 32.5 -86 32.5c-24.667 0 -51.5 -6.5 -80.5 -19.5s-54.833 -33.167 -77.5 -60.5l-102 -483h-61l103 485c-14 27.333 -33.333 47.166 -58 59.499s-51.334 18.5 -80.001 18.5
c-20.667 0 -41.667 -3.66699 -63 -11s-41.166 -17.5 -59.499 -30.5s-34.166 -28.333 -47.499 -46s-22.333 -36.834 -27 -57.501l-39 -185c26 14 51.333 21 76 21c36.667 0 65.334 -13 86.001 -39s27 -57.333 19 -94c-7.33301 -36.667 -26.833 -67.667 -58.5 -93
s-65.834 -38 -102.501 -38s-65.167 12.667 -85.5 38s-26.833 56.333 -19.5 93l63 297c6.66699 30 19.167 57.667 37.5 83s40.333 47.166 66 65.499s52.834 32.666 81.501 42.999s57.334 15.5 86.001 15.5c44 0 79.5 -7.16699 106.5 -21.5s47.5 -33.166 61.5 -56.499
c22.667 22 50.834 40.5 84.501 55.5s68.167 22.5 103.5 22.5c24.667 0 47.834 -4.16699 69.501 -12.5s40 -20 55 -35s26 -33.833 33 -56.5s7.5 -47.667 1.5 -75l-94 -446h-61zM307.995 121.003c4.66699 22 1.16699 40.5 -10.5 55.5s-28.5 22.5 -50.5 22.5
s-42.167 -7.5 -60.5 -22.5s-29.833 -33.5 -34.5 -55.5s-1 -40.5 11 -55.5s29 -22.5 51 -22.5s42 7.5 60 22.5s29.333 33.5 34 55.5z" />
    <glyph glyph-name="threethai" unicode="&#xe53;" horiz-adv-x="924" 
d="M791 0l91.9951 436.003c8.66699 41.333 1 72.833 -23 94.5s-52.667 32.5 -86 32.5c-24.667 0 -51.5 -6.5 -80.5 -19.5s-54.833 -33.167 -77.5 -60.5l-102 -483h-61l103 485c-14 27.333 -33.333 47.166 -58 59.499s-51.334 18.5 -80.001 18.5
c-20.667 0 -41.667 -3.66699 -63 -11s-41.166 -17.5 -59.499 -30.5s-34.166 -28.333 -47.499 -46s-22.333 -36.834 -27 -57.501l-39 -185c26 14 51.333 21 76 21c36.667 0 65.334 -13 86.001 -39s27 -57.333 19 -94c-7.33301 -36.667 -26.833 -67.667 -58.5 -93
s-65.834 -38 -102.501 -38s-65.167 12.667 -85.5 38s-26.833 56.333 -19.5 93l63 297c6.66699 30 19.167 57.667 37.5 83s40.333 47.166 66 65.499s52.834 32.666 81.501 42.999s57.334 15.5 86.001 15.5c44 0 79.5 -7.16699 106.5 -21.5s47.5 -33.166 61.5 -56.499
c22.667 22 50.834 40.5 84.501 55.5s68.167 22.5 103.5 22.5c24.667 0 47.834 -4.16699 69.501 -12.5s40 -20 55 -35s26 -33.833 33 -56.5s7.5 -47.667 1.5 -75l-94 -446h-61zM307.995 121.003c4.66699 22 1.16699 40.5 -10.5 55.5s-28.5 22.5 -50.5 22.5
s-42.167 -7.5 -60.5 -22.5s-29.833 -33.5 -34.5 -55.5s-1 -40.5 11 -55.5s29 -22.5 51 -22.5s42 7.5 60 22.5s29.333 33.5 34 55.5z" />
    <glyph glyph-name="fourthai" unicode="&#xf4;" horiz-adv-x="831" 
d="M1013 860c-7.33301 -34 -17.166 -69.165 -29.499 -105.498s-28.5 -69.5 -48.5 -99.5s-43.167 -54.5 -69.5 -73.5s-57.5 -28.5 -93.5 -28.5h-282c-37.333 0 -73.666 -6.5 -108.999 -19.5s-68.166 -31.167 -98.499 -54.5s-56.166 -51.333 -77.499 -84
s-35.333 -68.667 -42 -108c-7.33301 -40 -6.5 -75 2.5 -105s22.833 -54.833 41.5 -74.5s41.834 -34.667 69.501 -45s57.167 -15.5 88.5 -15.5c24.667 0 47.167 1.66699 67.5 5s38.666 7.16602 54.999 11.499s32 7.83301 47 10.5s29.167 4 42.5 4
c-27.333 13.333 -50.166 35.833 -68.499 67.5s-23.5 67.167 -15.5 106.5c8.66699 39.333 29.167 72.333 61.5 99s66.833 40 103.5 40c37.333 0 66.166 -13 86.499 -39s26.5 -57.333 18.5 -94c-7.33301 -35.333 -25.666 -65.333 -54.999 -90s-62 -38.334 -98 -41.001
c8.66699 -12 23 -21.167 43 -27.5s38.333 -10.833 55 -13.5c21.333 -4 43.833 -9.16699 67.5 -15.5s41.5 -16.833 53.5 -31.5l-50 -49c-24.667 17.333 -52.5 28.166 -83.5 32.499s-54.833 6.5 -71.5 6.5c-20 0 -39.833 -2.16699 -59.5 -6.5l-61.5 -13.5
c-21.333 -4.66699 -44.833 -9 -70.5 -13s-54.834 -6 -87.501 -6c-38 0 -73.833 5.83301 -107.5 17.5s-62.334 29.667 -86.001 54s-40.334 55.333 -50.001 93s-9.5 81.834 0.5 132.501c8.66699 47.333 26 91.166 52 131.499s57.5 74.833 94.5 103.5s77.333 51.167 121 67.5
s88.167 24.5 133.5 24.5h282c23.333 0 44.333 8.33301 63 25s34.667 37.167 48 61.5s24.666 50.833 33.999 79.5s16.666 55.334 21.999 80.001h61zM707 258.002c4.66699 22 1.16602 40.5 -10.501 55.5s-28.5 22.5 -50.5 22.5c-21.333 0 -41.166 -7.5 -59.499 -22.5
s-29.833 -33.5 -34.5 -55.5s-1 -40.5 11 -55.5s28.667 -22.5 50 -22.5c22 0 42 7.5 60 22.5s29.333 33.5 34 55.5z" />
    <glyph glyph-name="fourthai" unicode="&#xe54;" horiz-adv-x="831" 
d="M1013 860c-7.33301 -34 -17.166 -69.165 -29.499 -105.498s-28.5 -69.5 -48.5 -99.5s-43.167 -54.5 -69.5 -73.5s-57.5 -28.5 -93.5 -28.5h-282c-37.333 0 -73.666 -6.5 -108.999 -19.5s-68.166 -31.167 -98.499 -54.5s-56.166 -51.333 -77.499 -84
s-35.333 -68.667 -42 -108c-7.33301 -40 -6.5 -75 2.5 -105s22.833 -54.833 41.5 -74.5s41.834 -34.667 69.501 -45s57.167 -15.5 88.5 -15.5c24.667 0 47.167 1.66699 67.5 5s38.666 7.16602 54.999 11.499s32 7.83301 47 10.5s29.167 4 42.5 4
c-27.333 13.333 -50.166 35.833 -68.499 67.5s-23.5 67.167 -15.5 106.5c8.66699 39.333 29.167 72.333 61.5 99s66.833 40 103.5 40c37.333 0 66.166 -13 86.499 -39s26.5 -57.333 18.5 -94c-7.33301 -35.333 -25.666 -65.333 -54.999 -90s-62 -38.334 -98 -41.001
c8.66699 -12 23 -21.167 43 -27.5s38.333 -10.833 55 -13.5c21.333 -4 43.833 -9.16699 67.5 -15.5s41.5 -16.833 53.5 -31.5l-50 -49c-24.667 17.333 -52.5 28.166 -83.5 32.499s-54.833 6.5 -71.5 6.5c-20 0 -39.833 -2.16699 -59.5 -6.5l-61.5 -13.5
c-21.333 -4.66699 -44.833 -9 -70.5 -13s-54.834 -6 -87.501 -6c-38 0 -73.833 5.83301 -107.5 17.5s-62.334 29.667 -86.001 54s-40.334 55.333 -50.001 93s-9.5 81.834 0.5 132.501c8.66699 47.333 26 91.166 52 131.499s57.5 74.833 94.5 103.5s77.333 51.167 121 67.5
s88.167 24.5 133.5 24.5h282c23.333 0 44.333 8.33301 63 25s34.667 37.167 48 61.5s24.666 50.833 33.999 79.5s16.666 55.334 21.999 80.001h61zM707 258.002c4.66699 22 1.16602 40.5 -10.501 55.5s-28.5 22.5 -50.5 22.5c-21.333 0 -41.166 -7.5 -59.499 -22.5
s-29.833 -33.5 -34.5 -55.5s-1 -40.5 11 -55.5s28.667 -22.5 50 -22.5c22 0 42 7.5 60 22.5s29.333 33.5 34 55.5z" />
    <glyph glyph-name="fivethai" unicode="&#xf5;" horiz-adv-x="831" 
d="M1013 860c-7.33301 -34 -17.167 -69.165 -29.5 -105.498s-28.5 -69.5 -48.5 -99.5s-43.167 -54.5 -69.5 -73.5s-57.5 -28.5 -93.5 -28.5h-282c-37.333 0 -73.666 -6.5 -108.999 -19.5s-68.166 -31.167 -98.499 -54.5s-56.166 -51.333 -77.499 -84
s-35.333 -68.667 -42 -108c-7.33301 -40 -6.5 -75 2.5 -105s22.833 -54.833 41.5 -74.5s41.834 -34.667 69.501 -45s57.167 -15.5 88.5 -15.5c24.667 0 47.167 1.66699 67.5 5s38.666 7.16602 54.999 11.499s32 7.83301 47 10.5s29.167 4 42.5 4
c-27.333 13.333 -50.166 35.833 -68.499 67.5s-23.5 67.167 -15.5 106.5c8.66699 39.333 29.167 72.333 61.5 99s66.833 40 103.5 40c37.333 0 66.166 -13 86.499 -39s26.5 -57.333 18.5 -94c-7.33301 -35.333 -25.666 -65.333 -54.999 -90s-62 -38.334 -98 -41.001
c8.66699 -12 23 -21.167 43 -27.5s38.333 -10.833 55 -13.5c21.333 -4 43.833 -9.16699 67.5 -15.5s41.5 -16.833 53.5 -31.5l-50 -49c-24.667 17.333 -52.5 28.166 -83.5 32.499s-54.833 6.5 -71.5 6.5c-20 0 -39.833 -2.16699 -59.5 -6.5l-61.5 -13.5
c-21.333 -4.66699 -44.833 -9 -70.5 -13s-54.834 -6 -87.501 -6c-38 0 -73.833 5.83301 -107.5 17.5s-62.334 29.667 -86.001 54s-40.334 55.333 -50.001 93s-9.5 81.834 0.5 132.501c7.33301 42 21.666 81.167 42.999 117.5s47.166 68.166 77.499 95.499
s64.333 50.5 102 69.5s75.5 31.833 113.5 38.5c-17.333 22 -22.333 50 -15 84c8 40 28.833 72.833 62.5 98.5s69.834 38.5 108.501 38.5c38 0 68.167 -12.833 90.5 -38.5s29.5 -58.5 21.5 -98.5c-3.33301 -14.667 -8.66602 -28.5 -15.999 -41.5
s-15.666 -25.167 -24.999 -36.5h120c23.333 0 44.333 8.33301 63 25s34.667 37.167 48 61.5s24.666 50.833 33.999 79.5s16.666 55.334 21.999 80.001h61zM646.999 692.002c4.66699 23.333 0.833008 42.833 -11.5 58.5s-30.166 23.5 -53.499 23.5
s-44.5 -7.83301 -63.5 -23.5s-30.833 -35.167 -35.5 -58.5c-5.33301 -23.333 -1.83301 -42.833 10.5 -58.5s30.166 -23.5 53.499 -23.5s44.5 7.83301 63.5 23.5s31.167 35.167 36.5 58.5zM706.998 258.002c4.66699 22 1.16602 40.5 -10.501 55.5s-28.5 22.5 -50.5 22.5
c-21.333 0 -41.166 -7.5 -59.499 -22.5s-29.833 -33.5 -34.5 -55.5s-1 -40.5 11 -55.5s28.667 -22.5 50 -22.5c22 0 42 7.5 60 22.5s29.333 33.5 34 55.5z" />
    </font>
</defs>
</svg>
